<svg width="52" height="52" viewBox="0 0 52 52" fill="none" xmlns="http://www.w3.org/2000/svg">
<path opacity="0.4" d="M25.8004 51.6C40.0494 51.6 51.6004 40.0489 51.6004 25.8C51.6004 11.5511 40.0494 0 25.8004 0C11.5515 0 0.000427246 11.5511 0.000427246 25.8C0.000427246 40.0489 11.5515 51.6 25.8004 51.6Z" fill="white"/>
<g opacity="0.4">
<path d="M33.7004 34.9001C35.9004 32.0001 39.3004 30.4001 43.0004 30.4001C45.7004 30.4001 48.2004 31.3001 50.3004 32.9001L50.5004 33.1001C50.9004 31.7001 51.2004 30.3001 51.4004 28.8001C48.8004 27.2001 45.9004 26.4001 43.0004 26.4001C38.3004 26.4001 33.7004 28.5001 30.6004 32.4001C26.2004 38.0001 26.1004 45.6001 30.0004 51.2001C31.5004 51.0001 32.9004 50.6001 34.3004 50.1001C30.4004 45.9001 30.1004 39.5001 33.7004 34.9001Z" fill="white"/>
<path d="M11.2004 27.9C15.9004 27.9 20.5004 25.8 23.6004 21.9C28.8004 15.3 27.9004 5.90005 21.8004 0.300049C20.2004 0.600049 18.5004 1.00005 17.0004 1.60005L18.6004 2.90005C23.7004 6.90005 24.6004 14.4 20.5004 19.5C18.3004 22.4 14.9004 24 11.2004 24C8.50043 24 6.00043 23.1 3.90043 21.5L0.900426 19.1C0.500426 20.6 0.200426 22.1 0.100426 23.6L1.40043 24.6C4.40043 26.8001 7.80043 27.9 11.2004 27.9Z" fill="white"/>
</g>
</svg>
