<svg width="21" height="21" viewBox="0 0 21 21" fill="none" xmlns="http://www.w3.org/2000/svg">
<path d="M10.8289 18.6808C6.41886 18.6808 2.82886 15.0908 2.82886 10.6808C2.82886 6.27076 6.41886 2.68076 10.8289 2.68076C15.2389 2.68076 18.8289 6.27076 18.8289 10.6808C18.8289 15.0908 15.2389 18.6808 10.8289 18.6808ZM10.8289 0.680756C5.29886 0.680756 0.828857 5.15076 0.828857 10.6808C0.828857 16.2108 5.29886 20.6808 10.8289 20.6808C16.3589 20.6808 20.8289 16.2108 20.8289 10.6808C20.8289 5.15076 16.3589 0.680756 10.8289 0.680756ZM13.4189 6.68076L10.8289 9.27076L8.23886 6.68076L6.82886 8.09076L9.41886 10.6808L6.82886 13.2708L8.23886 14.6808L10.8289 12.0908L13.4189 14.6808L14.8289 13.2708L12.2389 10.6808L14.8289 8.09076L13.4189 6.68076Z" fill="white"/>
</svg>
