<svg width="887" height="456" viewBox="0 0 887 456" fill="none" xmlns="http://www.w3.org/2000/svg">
<path d="M137.159 130.13C135.04 99.814 140.775 58.1445 145.888 57.5208C150.626 56.897 169.454 85.5915 177.559 98.4416C168.083 100.563 159.978 106.8 152.87 113.038C146.885 118.153 141.648 123.892 137.159 130.13Z" fill="#FA9700"/>
<path d="M152.746 113.038C159.978 106.925 168.083 100.562 177.434 98.4414C179.803 102.059 181.175 104.43 181.175 104.43L139.653 147.596C138.406 142.606 137.533 136.618 137.035 130.13C141.648 123.892 146.885 118.153 152.746 113.038Z" fill="#F27006"/>
<path d="M247.011 130.13C246.513 136.618 245.765 142.606 244.393 147.596L202.871 104.43C202.871 104.43 204.367 102.059 206.612 98.4414C216.088 100.562 224.193 106.8 231.3 113.038C237.286 118.153 242.647 123.892 247.011 130.13Z" fill="#F27006"/>
<path d="M238.408 57.5211C243.395 58.1449 249.256 99.8143 247.136 130.131C242.772 123.893 237.41 118.154 231.55 113.039C224.318 106.926 216.213 100.563 206.861 98.4419C214.841 85.7166 233.67 57.022 238.408 57.5211Z" fill="#FA9700"/>
<path d="M211.475 290.944C190.901 300.925 167.708 295.311 146.76 287.451L150.501 225.071L231.799 219.333C236.039 227.192 240.153 235.177 244.144 243.411C239.655 263.123 230.178 281.837 211.475 290.944Z" fill="#F27006"/>
<path d="M211.475 290.944C230.178 281.712 239.655 263.123 244.019 243.411C291.152 340.099 321.701 456 321.701 456H136.661L146.636 287.575C167.708 295.31 190.901 300.924 211.475 290.944Z" fill="#FA9700"/>
<path d="M144.641 58.519C155.613 69.2483 156.736 88.0869 154.616 103.432C152.621 116.657 146.262 127.136 137.658 135.994C134.541 107.674 139.653 65.1313 144.641 58.519Z" fill="#FEB8AC"/>
<path d="M239.53 58.519C228.557 69.2483 227.435 88.0869 229.555 103.432C231.55 116.657 237.909 127.136 246.513 135.994C249.755 107.674 244.642 65.1313 239.53 58.519Z" fill="#FEB8AC"/>
<path d="M192.148 289.946C238.158 289.946 246.762 209.85 250.253 171.3C253.745 132.75 225.814 99.938 192.148 99.938C158.481 99.938 130.675 132.75 134.042 171.3C137.409 209.85 146.137 289.946 192.148 289.946Z" fill="#FFF3DB"/>
<path d="M199.504 100.438C229.804 104.804 253.371 135.619 250.129 171.3C248.383 190.513 245.39 220.206 237.036 245.033C228.807 211.972 202.123 195.504 199.754 176.665C197.509 158.201 198.756 117.779 199.504 100.438Z" fill="#FA9700"/>
<path d="M184.666 100.438C185.414 117.779 186.661 158.076 184.292 176.54C181.798 195.379 155.115 211.847 147.01 244.908C138.656 220.081 135.663 190.513 133.917 171.176C130.8 135.619 154.491 104.804 184.666 100.438Z" fill="#FA9700"/>
<path d="M166.462 189.017C160.227 189.017 155.364 182.28 155.364 173.546C155.364 172.424 156.237 171.55 157.359 171.55C158.481 171.55 159.354 172.424 159.354 173.546C159.354 179.784 162.596 185.024 166.337 185.024C170.202 185.024 173.319 179.784 173.319 173.546C173.319 172.424 174.192 171.55 175.315 171.55C176.437 171.55 177.31 172.424 177.31 173.546C177.434 182.28 172.571 189.017 166.462 189.017Z" fill="#593A42"/>
<path d="M222.697 189.017C216.462 189.017 211.599 182.28 211.599 173.546C211.599 172.424 212.472 171.55 213.594 171.55C214.717 171.55 215.589 172.424 215.589 173.546C215.589 179.784 218.831 185.024 222.572 185.024C226.438 185.024 229.555 179.784 229.555 173.546C229.555 172.424 230.428 171.55 231.55 171.55C232.672 171.55 233.545 172.424 233.545 173.546C233.794 182.28 228.931 189.017 222.697 189.017Z" fill="#593A42"/>
<path d="M192.148 279.342C204.061 279.342 213.719 271.633 213.719 262.125C213.719 252.616 204.061 244.908 192.148 244.908C180.234 244.908 170.576 252.616 170.576 262.125C170.576 271.633 180.234 279.342 192.148 279.342Z" fill="#593A42"/>
<path d="M184.666 247.902C180.053 249.025 176.561 252.394 174.816 256.885C173.694 260.004 178.556 261.251 179.679 258.257C180.676 255.512 183.17 253.641 185.913 252.893C189.28 252.019 187.908 247.154 184.666 247.902Z" fill="#936170"/>
<path d="M176.312 260.004C175.065 259.63 173.444 260.379 173.195 261.751C173.07 262.375 172.945 263.123 172.821 263.747C172.571 265.119 173.195 266.492 174.566 266.866C175.813 267.24 177.434 266.492 177.684 265.119C177.808 264.496 177.933 263.747 178.058 263.123C178.307 261.751 177.684 260.378 176.312 260.004Z" fill="#936170"/>
<path d="M164.092 382.642C168.581 359.187 191.026 263.996 226.812 313.9C242.772 335.857 250.253 364.178 256.239 389.628C261.476 411.336 265.092 433.668 268.084 455.875H155.115C157.11 431.423 159.604 406.845 164.092 382.642Z" fill="#FFF3DB"/>
<path d="M792.531 153.834C793.28 154.333 797.145 167.807 799.514 176.165L780.187 182.528V170.676C780.062 170.801 791.534 153.085 792.531 153.834Z" fill="#FEB8AC"/>
<path d="M754.626 165.063C756.621 160.447 785.175 137.616 794.402 139.238C803.629 140.735 808.866 173.047 808.866 173.047L799.514 176.166C797.145 167.807 793.28 154.333 792.531 153.834C791.534 153.086 780.062 170.802 780.062 170.802C780.062 170.802 763.853 190.264 761.484 191.012C759.239 191.761 752.506 169.679 754.626 165.063Z" fill="#352328"/>
<path d="M848.143 129.007C847.395 127.51 831.435 124.142 831.435 124.142C831.435 124.142 823.704 122.894 823.205 121.522C822.707 120.274 832.931 111.292 839.664 111.416C854.503 118.528 877.57 155.082 861.36 227.442L855.5 219.956C865.849 158.076 848.143 129.007 848.143 129.007Z" fill="#352328"/>
<path d="M831.435 124.017C831.435 124.017 847.395 127.385 848.143 128.882C848.143 128.882 865.725 158.076 855.625 219.831L820.711 174.793L831.435 124.017Z" fill="#FEB8AC"/>
<path d="M711.607 227.192C715.223 210.35 760.486 202.365 760.486 202.365C788.915 150.466 835.674 163.69 857.62 202.365C879.565 241.041 886.049 455.875 886.049 455.875H790.786H752.007L779.19 268.488C715.847 267.489 707.867 244.035 711.607 227.192Z" fill="#593A42"/>
<path d="M826.946 456H752.007L779.19 268.613C779.19 268.613 788.791 269.736 801.634 268.862C801.634 268.738 820.213 407.968 826.946 456Z" fill="#352328"/>
<path d="M811.235 225.071C820.601 225.071 828.193 215.576 828.193 203.862C828.193 192.149 820.601 182.653 811.235 182.653C801.869 182.653 794.277 192.149 794.277 203.862C794.277 215.576 801.869 225.071 811.235 225.071Z" fill="#352328"/>
<path d="M808.866 210.475C811.345 210.475 813.355 207.515 813.355 203.863C813.355 200.211 811.345 197.25 808.866 197.25C806.387 197.25 804.377 200.211 804.377 203.863C804.377 207.515 806.387 210.475 808.866 210.475Z" fill="#191113"/>
<path d="M780.062 209.227C782.541 209.227 784.551 206.266 784.551 202.615C784.551 198.963 782.541 196.002 780.062 196.002C777.583 196.002 775.574 198.963 775.574 202.615C775.574 206.266 777.583 209.227 780.062 209.227Z" fill="#191113"/>
<path d="M726.321 238.545C735.686 238.545 743.279 232.513 743.279 225.071C743.279 217.63 735.686 211.597 726.321 211.597C716.955 211.597 709.363 217.63 709.363 225.071C709.363 232.513 716.955 238.545 726.321 238.545Z" fill="#191113"/>
<path d="M731.433 213.843C735.049 214.717 737.792 217.461 739.164 220.83C740.037 223.2 736.172 224.323 735.299 221.828C734.551 219.707 732.555 218.21 730.436 217.586C727.817 217.087 728.939 213.219 731.433 213.843Z" fill="#593A42"/>
<path d="M738.042 223.325C739.039 223.075 740.286 223.699 740.536 224.697C740.66 225.196 740.785 225.695 740.91 226.319C741.159 227.442 740.66 228.44 739.538 228.814C738.541 229.063 737.294 228.44 737.044 227.442C736.92 226.943 736.795 226.444 736.67 225.82C736.421 224.697 736.92 223.699 738.042 223.325Z" fill="#593A42"/>
<path d="M784.053 245.283C784.053 245.283 806.123 255.887 800.761 268.987C795.399 282.087 767.843 255.263 767.843 255.263C767.843 255.263 775.574 253.766 784.053 245.283Z" fill="#FEB8AC"/>
<path d="M789.913 264.37C785.798 259.879 780.686 256.011 775.324 253.142C774.202 252.518 775.199 250.771 776.322 251.395C781.808 254.265 787.045 258.382 791.285 262.998C792.157 263.871 790.786 265.243 789.913 264.37Z" fill="#FC8686"/>
<path d="M790.412 235.426C787.669 244.035 781.933 250.023 773.953 254.015C762.98 259.38 752.506 258.008 741.284 254.639C740.037 254.265 740.536 252.393 741.783 252.768C751.758 255.887 760.735 257.134 770.711 253.392C779.19 250.148 785.673 243.785 788.417 235.052C788.915 233.68 790.786 234.179 790.412 235.426Z" fill="#352328"/>
<path d="M592.902 226.444C589.785 229.812 586.917 233.181 584.299 236.799C587.79 199.87 600.882 176.665 605.621 176.665C611.481 176.665 617.217 198.498 620.209 211.847C608.987 213.219 601.132 217.586 592.902 226.444Z" fill="#FA9700"/>
<path d="M592.902 226.444C601.132 217.711 608.987 213.344 620.085 211.847C621.332 217.711 622.08 221.828 622.08 221.828L583.426 248.776C583.551 244.659 583.8 240.542 584.174 236.674C586.917 233.181 589.785 229.688 592.902 226.444Z" fill="#FF740C"/>
<path d="M700.884 239.918C701.133 242.787 701.258 245.782 701.383 248.776L662.729 221.828C662.729 221.828 663.477 218.085 664.599 212.596C671.956 214.841 679.188 219.707 684.924 223.574C691.158 227.941 696.645 233.555 700.884 239.918Z" fill="#FF740C"/>
<path d="M679.313 176.541C684.176 176.541 697.891 201.118 700.884 239.918C696.52 233.555 691.158 227.941 684.924 223.575C679.188 219.707 671.956 214.841 664.599 212.596C667.467 199.371 673.327 176.541 679.313 176.541Z" fill="#FA9700"/>
<path d="M605.621 186.521C607.491 186.147 616.095 219.707 613.975 222.452C611.855 225.072 592.653 240.417 591.655 238.047C590.658 235.676 601.88 187.27 605.621 186.521Z" fill="#FEB8AC"/>
<path d="M679.313 186.521C677.442 186.147 668.839 219.707 670.958 222.452C673.078 225.072 692.28 240.417 693.278 238.047C694.275 235.676 682.929 187.27 679.313 186.521Z" fill="#FEB8AC"/>
<path d="M590.284 455.999C590.284 455.999 564.847 328.247 575.321 273.477C585.795 218.708 626.818 212.845 642.404 212.845C657.991 212.845 699.138 218.708 709.488 273.477C719.962 328.247 694.525 455.999 694.525 455.999H590.284Z" fill="#FFF3DB"/>
<path d="M644.773 212.845C661.856 213.469 699.513 221.204 709.488 273.477C719.962 328.247 694.525 455.999 694.525 455.999H691.408C716.096 371.663 711.857 265.742 644.773 212.845Z" fill="#FFF9EE"/>
<path d="M647.891 265.618C641.033 249.399 645.646 220.829 641.033 220.829C636.419 220.829 641.033 249.399 634.175 265.618C628.938 278.218 595.022 263.996 579.81 256.885C594.523 217.461 628.439 212.845 642.28 212.845C655.996 212.845 689.413 217.461 704.375 255.762C690.909 262.374 653.502 278.842 647.891 265.618Z" fill="#FA9700"/>
<path d="M572.952 316.77C577.067 331.616 583.675 345.838 591.655 359.562C607.616 387.133 626.569 412.709 634.549 443.899C635.422 447.142 636.544 451.259 637.541 455.751H590.408C590.284 456 574.698 377.153 572.952 316.77Z" fill="#FA9700"/>
<path d="M693.278 359.686C701.258 345.963 707.742 331.616 711.981 316.894C710.361 377.277 694.65 456 694.65 456H647.517C648.514 451.509 649.636 447.267 650.509 444.148C658.365 412.834 677.318 387.258 693.278 359.686Z" fill="#FA9700"/>
<path d="M644.773 212.845C659.736 213.344 690.41 219.457 704.5 255.762C700.011 257.883 692.904 261.126 685.173 264.121C675.697 244.284 662.479 226.693 644.773 212.845Z" fill="#FF9E10"/>
<path d="M694.525 456H691.408C702.256 418.822 707.493 377.277 704.251 338.103C707.243 331.117 709.862 324.13 711.857 316.894C710.236 377.153 694.525 456 694.525 456Z" fill="#FF9E10"/>
<path d="M654.873 254.764C655.621 254.764 656.245 254.14 656.245 253.392C656.245 249.15 658.489 245.532 661.108 245.532C663.726 245.532 665.971 249.15 665.971 253.392C665.971 254.14 666.594 254.764 667.342 254.764C668.091 254.764 668.714 254.14 668.714 253.392C668.714 247.403 665.347 242.787 661.108 242.787C656.868 242.787 653.502 247.403 653.502 253.392C653.502 254.14 654.125 254.764 654.873 254.764Z" fill="#593A42"/>
<path d="M617.965 254.764C618.713 254.764 619.337 254.14 619.337 253.392C619.337 249.15 621.581 245.532 624.2 245.532C626.818 245.532 629.062 249.15 629.062 253.392C629.062 254.14 629.686 254.764 630.434 254.764C631.182 254.764 631.806 254.14 631.806 253.392C631.806 247.403 628.439 242.787 624.2 242.787C619.96 242.787 616.593 247.403 616.593 253.392C616.593 254.14 617.217 254.764 617.965 254.764Z" fill="#593A42"/>
<path d="M667.218 282.336C661.108 293.065 651.133 298.305 638.788 297.681C626.818 297.057 614.723 288.948 612.977 276.472C612.853 275.225 614.723 274.726 614.848 275.973C616.593 288.574 628.439 295.186 640.16 295.81C651.133 296.309 660.11 290.819 665.347 281.338C666.095 280.215 667.841 281.213 667.218 282.336Z" fill="#593A42"/>
<path d="M640.409 296.433C640.409 291.193 641.033 285.954 640.16 280.838C639.911 279.591 641.906 279.092 642.03 280.339C642.903 285.704 642.404 291.069 642.404 296.558C642.404 297.806 640.409 297.806 640.409 296.433Z" fill="#593A42"/>
<path d="M641.282 285.579C650.648 285.579 658.24 279.547 658.24 272.105C658.24 264.664 650.648 258.631 641.282 258.631C631.917 258.631 624.324 264.664 624.324 272.105C624.324 279.547 631.917 285.579 641.282 285.579Z" fill="#593A42"/>
<path d="M647.018 260.877C650.634 261.75 653.377 264.495 654.749 267.863C655.622 270.234 651.756 271.357 650.883 268.862C650.135 266.741 648.14 265.244 646.02 264.62C643.527 264.121 644.524 260.253 647.018 260.877Z" fill="#936170"/>
<path d="M653.627 270.359C654.624 270.109 655.871 270.733 656.12 271.731C656.245 272.23 656.37 272.729 656.494 273.353C656.744 274.476 656.245 275.474 655.123 275.848C654.125 276.098 652.878 275.474 652.629 274.476C652.504 273.977 652.38 273.478 652.255 272.854C652.006 271.856 652.504 270.733 653.627 270.359Z" fill="#936170"/>
<path d="M524.198 93.2016C531.679 94.5739 538.413 51.2826 556.493 46.2923C574.573 41.3019 605.122 34.6897 593.65 24.21C582.179 13.7302 536.667 9.11416 525.32 25.7071C513.849 42.4247 506.617 89.9578 524.198 93.2016Z" fill="#352328"/>
<path d="M525.32 25.8321C536.667 9.1144 582.179 13.8552 593.65 24.335C596.394 26.9549 596.768 29.2006 595.271 31.3215C592.029 31.1967 588.663 31.3215 585.171 31.6957C562.104 33.6919 528.562 49.9105 513.599 70.7452C513.599 55.0256 518.712 35.3137 525.32 25.8321Z" fill="#593A42"/>
<path d="M485.544 172.798C495.145 180.907 510.233 186.521 510.233 186.521C508.612 233.056 520.457 289.323 534.423 338.353C468.461 253.392 485.544 172.798 485.544 172.798Z" fill="#EFDCBD"/>
<path d="M440.655 134.497C448.262 95.697 461.728 57.5208 510.108 66.6282C558.613 75.7356 554.373 124.516 552.877 124.516C551.38 124.516 602.628 180.034 575.57 196.253C548.513 212.471 510.233 186.521 510.233 186.521C510.233 186.521 495.02 180.907 485.544 172.798C485.544 172.798 468.461 253.392 534.547 338.228C553.126 403.352 575.57 455.875 575.57 455.875H407.114C402.874 343.094 432.675 174.544 440.655 134.497Z" fill="#FFF3DB"/>
<path d="M487.788 152.212C487.788 152.212 465.843 145.849 461.354 158.325C456.99 170.801 492.776 169.304 492.776 169.304C492.776 169.304 488.412 163.316 487.788 152.212Z" fill="#FEB8AC"/>
<path d="M572.453 186.771C582.576 186.771 590.783 180.235 590.783 172.174C590.783 164.112 582.576 157.577 572.453 157.577C562.33 157.577 554.124 164.112 554.124 172.174C554.124 180.235 562.33 186.771 572.453 186.771Z" fill="#593A42"/>
<path d="M515.47 132.875C520.707 132.875 524.821 127.136 524.821 119.775C524.821 118.777 524.073 118.029 523.076 118.029C522.078 118.029 521.33 118.777 521.33 119.775C521.33 125.015 518.587 129.507 515.345 129.507C512.103 129.507 509.36 125.015 509.36 119.775C509.36 118.777 508.612 118.029 507.614 118.029C506.617 118.029 505.868 118.777 505.868 119.775C506.118 127.136 510.233 132.875 515.47 132.875Z" fill="#593A42"/>
<path d="M546.518 132.875C551.755 132.875 555.869 127.136 555.869 119.775C555.869 118.777 555.121 118.029 554.124 118.029C553.126 118.029 552.378 118.777 552.378 119.775C552.378 125.015 549.635 129.507 546.393 129.507C543.151 129.507 540.408 125.015 540.408 119.775C540.408 118.777 539.66 118.029 538.662 118.029C537.665 118.029 536.916 118.777 536.916 119.775C537.041 127.136 541.156 132.875 546.518 132.875Z" fill="#593A42"/>
<path d="M471.828 159.948C477.688 159.449 483.798 159.948 489.534 161.195C490.656 161.445 490.158 163.316 489.035 162.942C483.424 161.569 477.564 161.195 471.828 161.694C470.581 161.944 470.581 160.072 471.828 159.948Z" fill="#FC8686"/>
<path d="M566.219 160.072C562.353 161.071 559.236 163.94 557.864 167.683C556.867 170.303 561.106 171.425 561.979 168.806C562.852 166.56 564.972 164.813 567.341 164.189C569.959 163.566 568.837 159.449 566.219 160.072Z" fill="#936170"/>
<path d="M558.987 170.427C557.989 170.178 556.493 170.801 556.368 171.924C556.243 172.548 556.119 173.047 555.994 173.671C555.745 174.794 556.243 176.041 557.49 176.291C558.488 176.54 559.984 175.917 560.109 174.794C560.233 174.17 560.358 173.671 560.483 173.047C560.732 171.924 560.233 170.677 558.987 170.427Z" fill="#936170"/>
<path d="M476.94 94.1998C484.172 91.8294 473.449 49.2867 486.916 36.3117C500.382 23.3368 520.208 4.24875 505.245 0.505986C490.158 -3.23678 447.887 14.3542 445.892 34.4404C443.773 54.5265 459.982 99.6892 476.94 94.1998Z" fill="#352328"/>
<path d="M490.033 334.485C487.04 312.527 503.125 296.558 522.203 290.071C525.819 306.539 530.058 322.758 534.547 338.352C538.662 352.575 542.901 366.298 547.016 378.899C522.702 380.271 492.901 357.441 490.033 334.485Z" fill="#593A42"/>
<path d="M448.012 175.667C444.147 192.51 438.286 207.356 426.94 214.093C432.551 177.414 437.912 148.345 440.655 134.622C442.027 127.635 443.523 120.773 445.518 114.161C457.987 132.75 454.621 148.844 448.012 175.667Z" fill="#593A42"/>
<path d="M478.561 456H407.114C406.241 431.672 406.864 404.6 408.485 376.903C417.338 378.276 426.815 381.27 436.291 385.013C468.212 397.613 485.793 424.436 478.561 456Z" fill="#593A42"/>
<path d="M491.155 142.231C487.04 151.464 488.911 160.571 493.774 169.055C498.013 176.415 505.245 180.283 512.726 183.776C513.849 184.275 512.851 185.897 511.729 185.398C503.125 181.406 496.018 177.039 491.28 168.556C486.417 159.947 485.544 150.341 489.534 141.358C490.033 140.235 491.654 141.109 491.155 142.231Z" fill="#593A42"/>
<path d="M522.203 290.071C523.076 294.063 523.949 297.931 524.946 301.798C525.071 302.547 525.32 303.295 525.445 303.919C526.193 306.913 526.941 309.907 527.689 313.026C527.939 314.149 528.188 315.147 528.562 316.27C529.31 319.015 529.934 321.76 530.682 324.379C530.931 325.378 531.181 326.5 531.555 327.498C532.552 331.116 533.55 334.734 534.547 338.228C523.699 324.255 515.096 310.282 508.238 296.933C512.477 294.063 517.215 291.693 522.203 290.071Z" fill="#352328"/>
<path d="M445.892 34.4404C448.012 14.3542 490.282 -3.23678 505.245 0.505986C509.609 1.62881 510.981 3.99923 510.607 6.99344C497.514 14.6037 485.17 23.7111 475.818 35.5632C460.481 55.2751 464.347 74.8622 473.075 94.5741C457.489 92.8274 443.897 52.9047 445.892 34.4404Z" fill="#593A42"/>
<path d="M442.65 456C442.65 456 451.005 319.764 411.852 254.889C372.699 190.015 326.439 213.719 308.484 240.792C308.484 240.792 282.174 258.133 257.111 257.509C257.111 257.509 268.708 303.795 318.708 283.21C318.708 283.21 361.726 286.453 370.081 337.854C378.435 389.254 316.838 456 316.838 456H442.65Z" fill="#FF740C"/>
<path d="M307.112 241.541C331.053 257.634 318.708 283.085 318.708 283.085C268.583 303.67 257.111 257.385 257.111 257.385C278.807 258.009 301.626 245.034 307.112 241.541Z" fill="#FFF3DB"/>
<path d="M397.513 353.324C419.333 397.738 421.952 433.918 420.58 455.876H316.838C316.838 455.876 378.435 389.13 370.081 337.729C361.726 286.329 318.708 283.085 318.708 283.085C318.708 283.085 360.729 278.344 397.513 353.324Z" fill="#ED4714"/>
<path d="M265.095 263.396C268.93 259.833 267.898 252.483 262.79 246.98C257.682 241.477 250.432 239.905 246.598 243.469C242.763 247.032 243.795 254.382 248.903 259.885C254.011 265.388 261.261 266.96 265.095 263.396Z" fill="#593A42"/>
<path d="M353.372 222.701C354.494 219.458 371.203 210.226 376.066 212.97C380.929 215.715 389.158 262.749 382.799 272.106C376.44 281.463 360.106 237.922 357.736 234.803C355.367 231.809 356.24 244.784 353.497 243.287C350.629 241.79 350.878 229.937 353.372 222.701Z" fill="#593A42"/>
<path d="M325.94 250.523C328.144 250.523 329.93 247.674 329.93 244.16C329.93 240.646 328.144 237.797 325.94 237.797C323.737 237.797 321.95 240.646 321.95 244.16C321.95 247.674 323.737 250.523 325.94 250.523Z" fill="#593A42"/>
<path d="M311.601 260.752C314.968 268.363 314.469 279.092 304.618 280.714C302.997 280.963 302.249 278.468 303.87 278.219C311.975 276.971 311.975 268.238 309.357 262C308.608 260.503 310.853 259.255 311.601 260.752Z" fill="#593A42"/>
<path d="M255.615 243.411C256.737 244.035 257.859 244.784 258.732 245.782C261.101 248.152 257.236 251.77 254.867 249.275C254.243 248.651 253.495 248.277 252.747 247.778C249.879 246.156 252.622 241.789 255.615 243.411Z" fill="#936170"/>
<path d="M262.598 248.901C263.471 249.524 263.969 250.148 264.593 251.021C265.341 252.269 264.717 253.891 263.471 254.515C262.099 255.263 260.727 254.64 259.979 253.392C259.979 253.392 259.855 253.267 259.855 253.142C258.732 252.269 258.234 250.772 259.106 249.524C259.73 248.651 261.476 248.027 262.598 248.901Z" fill="#936170"/>
<path d="M105.862 298.929C105.862 298.929 106.984 286.703 110.85 275.849C113.842 279.217 117.209 282.211 120.825 284.956L112.969 296.933L105.862 298.929Z" fill="#EFDCBD"/>
<path d="M110.85 275.848C111.972 272.605 113.343 269.486 115.089 266.741C115.713 265.743 116.461 264.87 117.209 263.996C116.959 262 117.084 259.879 118.206 258.382C118.83 257.384 119.952 256.76 120.825 257.634C121.573 258.382 121.448 259.505 121.324 260.503C121.324 260.503 121.448 260.503 121.448 260.378C122.321 257.509 122.571 253.891 124.69 251.645C125.688 250.772 126.81 250.522 127.433 251.895C128.182 253.392 127.433 255.762 127.184 257.259C128.182 256.136 133.169 250.148 135.164 249.649C136.91 249.275 136.661 250.772 136.162 251.895C135.663 253.142 134.666 254.14 133.793 255.138C142.272 253.142 150.376 254.39 152.372 259.38C156.362 269.735 127.558 274.975 127.558 274.975L121.199 284.831C117.209 282.211 113.842 279.217 110.85 275.848Z" fill="#FFF3DB"/>
<path d="M76.5598 282.461C76.5598 282.461 83.9166 267.241 87.6573 269.486C91.398 271.732 84.6647 282.461 84.6647 282.461C84.6647 282.461 100.625 271.108 102.745 275.849C104.989 280.59 93.1436 286.828 93.1436 286.828C93.1436 286.828 118.705 291.943 124.94 294.189C131.174 296.434 140.526 303.795 129.054 309.035L125.688 326.376C125.688 326.376 155.613 321.885 158.98 337.48C162.347 353.075 155.988 362.681 153.12 362.681C150.252 362.681 147.883 358.19 147.883 358.19C147.883 358.19 149.504 371.539 143.768 373.036C140.027 374.034 137.907 365.925 137.907 365.925C137.907 365.925 135.663 381.395 129.429 381.145C126.062 381.021 124.94 371.539 124.94 371.539C124.94 371.539 115.713 383.765 110.6 381.145C105.363 378.526 97.2584 365.925 97.2584 365.925C97.2584 365.925 109.104 394.37 107.608 406.971C106.111 419.571 100.999 419.945 96.5103 415.454C96.5103 415.454 98.7547 437.661 90.6498 455.751H0C0 455.751 57.7316 310.782 63.592 294.438C63.592 294.438 59.8513 272.481 66.2105 270.734C72.4451 269.237 76.5598 282.461 76.5598 282.461Z" fill="#FFF3DB"/>
<path d="M75.8117 442.526C76.8092 432.421 74.066 405.847 90.7745 412.459C88.6548 405.098 83.0437 388.381 96.7597 392.872C93.6424 387.258 81.4228 366.673 87.6573 361.059C92.1461 357.066 98.2559 365.675 102.62 373.535C99.6275 369.792 97.2584 366.049 97.2584 366.049C97.2584 366.049 109.104 394.494 107.608 407.095C106.111 419.695 100.999 420.07 96.5103 415.578C96.5103 415.578 98.7547 437.785 90.6498 455.875H45.6366C46.3848 451.633 48.0058 447.641 50.6242 444.148C56.6094 436.538 69.0784 434.791 75.8117 442.526Z" fill="#EFDCBD"/>
<path d="M148.007 261.127C146.262 266.991 126.561 272.355 126.561 272.355L109.353 295.436C109.353 295.436 118.456 269.236 120.201 266.616C121.698 263.997 150.127 253.766 148.007 261.127Z" fill="#FEB8AC"/>
<path d="M44.6391 265.119C45.6367 265.244 46.3848 266.117 46.8836 266.991V266.866C45.6367 264.121 43.5169 261.252 43.5169 258.133C43.6416 256.76 44.3898 256.012 45.6367 256.511C47.2576 257.135 48.1305 259.38 49.0033 260.753C49.0033 259.256 48.7539 251.396 50.0008 249.774C50.9983 248.402 51.8712 249.524 52.2452 250.772C52.6193 252.02 52.6193 253.392 52.6193 254.889C57.7316 247.903 64.5896 243.286 69.4525 245.906C79.303 251.022 61.0982 274.102 61.0982 274.102L64.7143 299.927L60.5995 306.165C60.5995 306.165 48.3798 289.447 46.3848 275.849C46.2601 274.726 46.1354 273.603 46.1354 272.355C44.6391 270.983 43.2675 269.236 43.1428 267.49C43.0182 266.242 43.3922 265.119 44.6391 265.119Z" fill="#FFF3DB"/>
<path d="M67.4574 249.899C70.0759 255.388 58.6044 272.48 58.6044 272.48L62.3451 299.927C62.3451 299.927 50.4996 275.474 50.0008 272.355C49.6267 269.361 64.2155 242.912 67.4574 249.899Z" fill="#FEB8AC"/>
<path d="M99.8769 314.773C99.2535 315.896 98.256 316.52 97.0091 316.769C93.6424 317.393 90.0264 313.9 86.2857 306.539C86.161 306.165 86.2857 305.791 86.6598 305.541C87.0338 305.416 87.4079 305.541 87.6573 305.915C91.8968 314.274 95.014 315.647 96.8844 315.397C97.6325 315.272 98.2559 314.898 98.7547 314.15C100.002 312.029 99.7522 307.787 99.0041 305.541C98.8794 305.167 99.0041 304.917 99.2535 304.668C99.5029 304.543 99.8769 304.543 100.126 304.793C101.747 306.415 103.244 308.286 104.615 310.532C104.865 310.906 105.114 311.28 105.363 311.779C106.61 313.9 107.857 316.27 109.852 317.269C110.476 317.643 111.224 317.768 111.723 317.518C112.471 317.269 112.969 316.52 113.343 315.522C114.092 313.401 113.343 311.28 112.595 309.034L112.471 308.535C112.346 308.286 112.471 307.912 112.72 307.662C112.969 307.537 113.343 307.537 113.593 307.662C113.967 308.036 114.466 308.411 114.84 308.785C116.71 310.407 118.705 312.153 121.074 313.027C122.196 313.401 122.945 313.401 123.443 312.902C124.192 312.278 124.441 310.656 124.067 308.535C124.067 308.161 124.316 307.787 124.69 307.662C125.064 307.537 125.438 307.912 125.563 308.286C125.812 310.282 125.937 312.777 124.441 314.025C123.568 314.773 122.321 314.898 120.576 314.399C118.331 313.651 116.461 312.029 114.59 310.532C115.089 312.278 115.339 314.15 114.715 315.896C114.216 317.269 113.343 318.267 112.346 318.766C111.972 318.89 111.473 319.015 111.099 319.015C110.476 319.015 109.852 318.89 109.229 318.516C106.86 317.269 105.488 314.649 104.116 312.403C103.867 312.029 103.618 311.654 103.493 311.28C102.745 309.908 101.872 308.785 100.999 307.662C101.124 310.033 100.999 312.902 99.8769 314.773Z" fill="#EFDCBD"/>
<path d="M85.7869 332.738C85.9116 332.364 86.2857 332.115 86.6597 332.239C87.0338 332.364 87.2832 332.738 87.1585 333.113C86.7844 334.984 86.7844 336.98 87.4079 339.351C88.6548 343.717 89.9017 344.591 90.7745 344.715C92.5202 344.715 93.0189 341.097 93.1436 340.099C93.393 338.477 93.1436 336.98 92.6449 335.608C92.5202 335.358 92.3955 335.109 92.2708 334.984C92.1461 334.61 92.2708 334.236 92.6449 334.111C93.019 333.986 93.393 334.111 93.6424 334.36C93.7671 334.61 93.8918 334.859 94.0165 335.109C94.7646 336.481 96.2609 338.477 97.5078 338.852C97.8819 338.976 98.1313 338.976 98.3806 338.727C98.63 338.602 98.8794 338.353 98.8794 337.978C99.1288 336.232 96.5103 332.863 95.2634 331.491C95.014 331.241 95.014 330.742 95.2634 330.493C95.5128 330.243 96.0115 330.243 96.2609 330.493C96.2609 330.493 100.75 335.109 100.376 338.103C100.251 338.852 99.8769 339.475 99.1288 339.85C98.5053 340.224 97.8819 340.349 97.1337 340.099C96.2609 339.85 95.5128 339.226 94.8893 338.477C94.8893 338.976 94.8893 339.6 94.7646 340.224C94.2659 344.092 93.019 346.212 90.8992 346.212C87.9066 346.088 86.6597 341.347 86.161 339.85C85.5375 337.105 85.4128 334.859 85.7869 332.738Z" fill="#EFDCBD"/>
<path d="M57.981 396.117C58.3551 396.241 58.4797 396.74 58.3551 397.115C57.7316 398.736 58.1057 401.98 59.2279 404.351C59.8513 405.723 60.7242 406.721 61.4723 406.971C62.4698 407.22 63.3427 406.971 64.2155 406.222C66.0859 404.475 66.834 400.483 66.3352 398.237C66.2105 397.863 66.4599 397.489 66.834 397.364C67.2081 397.239 67.5821 397.489 67.7068 397.863C68.7044 401.855 70.45 405.473 71.3228 405.473C71.5722 405.473 72.071 405.099 72.5697 403.477C74.1907 398.612 74.1907 391.5 72.5697 386.635C72.4451 386.261 72.5697 386.011 72.9438 385.762C73.1932 385.637 73.5673 385.637 73.8167 385.886C75.687 388.007 79.4277 391.251 81.4228 389.629C82.0462 389.13 82.2956 388.506 82.4203 387.633C82.545 384.763 79.303 380.646 77.5574 379.149C77.308 378.9 77.1833 378.401 77.5574 378.151C77.8067 377.902 78.3055 377.777 78.5549 378.151C80.3005 379.648 83.9166 384.14 83.9166 387.758C83.9166 389.005 83.4178 390.128 82.4203 390.877C80.0512 392.873 76.8092 390.752 74.6895 388.881C75.687 393.746 75.4376 399.61 73.9413 403.976C73.692 404.725 72.9438 406.846 71.3228 406.846C71.3228 406.846 71.3228 406.846 71.1982 406.846C69.7019 406.721 68.455 404.475 67.4574 402.105C67.0834 403.976 66.2105 405.848 64.9636 407.095C64.0908 407.969 63.0933 408.343 62.0958 408.343C61.7217 408.343 61.3476 408.343 60.9736 408.218C59.7267 407.844 58.6044 406.721 57.7316 404.85C56.36 402.105 56.1106 398.487 56.8588 396.366C57.1082 396.241 57.6069 395.992 57.981 396.117Z" fill="#EFDCBD"/>
<path d="M46.8835 355.694C47.1329 355.444 47.6317 355.444 47.8811 355.694C48.1304 355.943 48.1304 356.443 47.8811 356.692C45.3873 358.938 44.0157 362.93 45.7613 365.55C46.5095 366.423 47.3823 366.922 48.2551 366.797C49.2527 366.673 50.1255 366.049 50.7489 364.926C50.8736 364.677 51.2477 364.552 51.4971 364.552C51.8712 364.677 51.9958 364.926 51.9958 365.3C51.9958 368.794 52.6193 371.913 53.4921 372.287C53.8662 372.412 54.1156 372.287 54.2403 372.287C55.2378 371.663 55.6119 368.918 55.8612 367.671V367.297C55.8612 366.922 56.2353 366.673 56.7341 366.673C57.1081 366.673 57.3575 367.047 57.3575 367.546V367.92C57.1081 369.542 56.7341 372.536 55.1131 373.534C54.8637 373.659 54.4897 373.784 53.9909 373.784C53.7415 373.784 53.3674 373.784 52.9934 373.659C51.3724 372.911 50.8736 369.667 50.7489 367.297C50.0008 367.92 49.2527 368.295 48.3798 368.295C47.0082 368.419 45.6366 367.796 44.5144 366.423C42.1453 363.055 43.891 358.314 46.8835 355.694Z" fill="#EFDCBD"/>
<path d="M63.3427 334.735C62.8439 334.985 62.3451 335.109 61.9711 335.109C61.4723 335.109 60.9736 334.985 60.4748 334.735C59.7267 334.361 59.2279 333.737 58.8538 332.739C58.2304 330.618 58.9785 327.249 59.8513 325.752C60.1007 325.378 60.4748 325.253 60.8489 325.503C61.2229 325.752 61.3476 326.127 61.0982 326.501C60.4748 327.624 59.602 330.493 60.2254 332.365C60.3501 332.864 60.7242 333.238 61.0982 333.487C61.7217 333.737 62.2205 333.737 62.7192 333.487C64.3402 332.614 65.4624 329.246 65.5871 327.499C65.5871 327.125 65.9612 326.875 66.3352 326.875C66.7093 326.875 66.9587 327.249 66.9587 327.624C66.834 329.495 65.5871 333.487 63.3427 334.735Z" fill="#EFDCBD"/>
<path d="M61.0982 323.132H60.9736C59.976 323.132 58.9785 322.508 58.4798 321.51C56.9835 318.641 60.9736 312.777 62.7192 311.03C62.9686 310.781 63.4674 310.781 63.7167 311.03C63.9661 311.28 63.9661 311.779 63.7167 312.028C61.8464 313.9 58.8538 319.015 59.7267 320.762C60.1007 321.385 60.4748 321.635 61.0982 321.635C61.9711 321.635 62.8439 320.886 63.218 319.888C63.3427 319.514 63.8414 319.389 64.2155 319.514C64.5896 319.639 64.7143 320.138 64.5896 320.512C63.8414 322.009 62.4698 323.007 61.0982 323.132Z" fill="#EFDCBD"/>
<path d="M80.0512 421.193C80.4252 421.442 80.4252 421.817 80.1759 422.191C78.4302 424.686 75.1882 433.544 78.3055 435.79C78.6796 436.039 79.1783 436.164 79.6771 435.914C80.6746 435.415 81.6721 433.918 82.0462 432.546C82.1709 432.172 82.1709 431.922 82.1709 431.673C82.2956 431.298 82.545 431.049 83.0437 431.049C83.4178 431.049 83.6672 431.423 83.6672 431.797C83.6672 432.047 83.5425 432.421 83.4178 432.671C83.2931 433.045 83.2931 433.419 83.1684 433.794C82.4203 436.663 81.0487 442.651 82.545 443.774C83.2931 444.273 83.7919 444.148 84.1659 443.899C86.5351 442.527 87.9067 435.041 87.9067 432.795C87.9067 432.421 88.2807 432.047 88.6548 432.047C89.0289 432.047 89.4029 432.421 89.4029 432.795C89.4029 434.417 88.156 443.275 84.9141 445.147C84.54 445.396 84.1659 445.521 83.5425 445.521C83.0437 445.521 82.4203 445.396 81.7968 444.897C80.0512 443.649 80.3005 440.406 81.0487 436.413C80.7993 436.663 80.4252 436.788 80.1759 437.037C79.303 437.411 78.3055 437.412 77.4327 436.788C73.3179 433.794 76.9339 423.813 78.929 421.193C79.1783 421.068 79.6771 420.943 80.0512 421.193Z" fill="#FFF3DB"/>
<path d="M31.422 407.094L31.5467 406.845C31.6713 406.471 32.1701 406.346 32.5442 406.471C32.9182 406.595 33.0429 407.094 32.9182 407.469L32.7936 407.718C31.1726 411.087 27.6813 417.948 29.801 421.317C30.0504 421.816 30.5491 422.315 31.0479 422.19C31.9207 422.065 33.0429 420.069 33.7911 417.574C33.9158 417.2 34.2898 416.95 34.6639 417.075C35.038 417.2 35.2874 417.574 35.1627 417.948C34.7886 419.196 33.417 423.188 31.1726 423.563C31.0479 423.563 30.9232 423.563 30.9232 423.563C30.0504 423.563 29.3022 423.064 28.5541 421.941C25.9356 418.073 29.6763 410.712 31.422 407.094Z" fill="#EFDCBD"/>
<path d="M39.1528 418.448C39.5268 418.573 39.7762 418.947 39.6515 419.321C38.1552 425.434 37.9059 430.3 39.2774 431.173C39.9009 431.547 41.2725 430.924 43.0182 429.427C43.2675 429.177 43.7663 429.177 44.0157 429.551C44.2651 429.801 44.2651 430.3 43.891 430.549C42.1453 432.047 40.7737 432.795 39.6515 432.795C39.1528 432.795 38.7787 432.67 38.4046 432.421C35.5367 430.674 37.2824 422.44 38.1552 419.072C38.2799 418.573 38.654 418.323 39.1528 418.448Z" fill="#EFDCBD"/>
<path d="M141.428 350.452C151.864 347.9 158.958 340.243 157.275 333.349C155.591 326.455 145.766 322.935 135.33 325.487C124.895 328.038 117.8 335.696 119.484 342.59C121.168 349.484 130.993 353.004 141.428 350.452Z" fill="#593A42"/>
<path d="M147.259 327C150.626 327.873 153.618 330.493 154.367 333.986C154.741 335.858 151.748 336.232 151.374 334.36C151 332.364 148.756 330.493 146.76 329.994C145.015 329.495 145.389 326.501 147.259 327Z" fill="#936170"/>
<path d="M154.741 336.606C155.115 337.605 155.115 338.727 154.616 339.725C153.743 341.472 151 340.224 151.873 338.478C151.997 338.104 152.122 337.979 151.997 337.605C151.249 335.983 154.117 334.86 154.741 336.606Z" fill="#936170"/>
<path d="M122.072 326.626C123.656 326.626 124.94 324.727 124.94 322.384C124.94 320.041 123.656 318.142 122.072 318.142C120.488 318.142 119.204 320.041 119.204 322.384C119.204 324.727 120.488 326.626 122.072 326.626Z" fill="#593A42"/>
<path d="M103.618 326.626C105.202 326.626 106.486 324.727 106.486 322.384C106.486 320.041 105.202 318.142 103.618 318.142C102.034 318.142 100.75 320.041 100.75 322.384C100.75 324.727 102.034 326.626 103.618 326.626Z" fill="#593A42"/>
<path d="M743.908 58.1674C742.714 47.3729 737.069 37.1055 727.869 31.2196C720.454 26.4427 710.536 24.8886 702.11 27.5586C693.373 30.1994 686.187 36.4413 682.596 44.5898C681.851 35.7224 676.996 27.0998 669.609 22.0115C662.251 16.6116 652.674 14.7751 643.966 17.1045C633.67 19.5998 624.751 27.5652 620.079 37.1839C615.408 46.8025 614.361 58.0164 616.208 68.5576C618.416 81.9605 624.452 94.778 633.897 104.772C643.03 114.736 651.373 123.056 668.025 129.951C686.057 128.807 696.585 123.819 708.506 117.391C720.427 110.962 730.485 100.904 736.948 88.9387C742.214 79.6897 745.131 68.6504 743.908 58.1674Z" fill="#F0C6B6"/>
<path d="M690.21 59.5059L662.42 90.5247C659.92 89.1731 656.926 88.4089 654.576 88.4882C649.641 88.7488 645.831 92.9173 646.052 97.8698C646.273 102.822 650.442 106.632 655.394 106.411C656.454 106.374 657.603 106.112 658.757 105.754C658.478 106.95 658.335 108.133 658.411 109.176C658.632 114.128 662.8 117.938 667.753 117.717C672.705 117.495 676.515 113.327 676.294 108.374C676.175 106.042 675.165 103.159 673.57 100.763L701.343 69.7047C703.843 71.0563 706.837 71.8206 709.187 71.7412C714.139 71.52 717.949 67.3516 717.728 62.399C717.506 57.4465 713.338 53.6367 708.385 53.858C707.326 53.8945 706.177 54.1567 705.023 54.5146C705.302 53.3193 705.445 52.1356 705.369 51.0933C705.148 46.1408 700.98 42.331 696.027 42.5523C691.074 42.7735 687.265 46.9419 687.486 51.8945C687.588 54.1877 688.615 57.1096 690.21 59.5059Z" fill="#F4E4CC"/>
<path d="M650.119 101.77C653.394 104.376 658.475 103.585 662.852 98.5645L669.836 90.9224C670.432 90.2447 670.395 89.1854 669.718 88.5899C669.04 87.9943 667.981 88.0308 667.385 88.7086L662.058 94.5601C661.075 95.6389 659.475 95.7219 658.272 94.8854C657.606 94.4251 656.901 93.9817 656.207 93.6736C654.255 92.8334 651.866 92.9297 650.145 94.14C647.524 95.9725 647.635 99.804 650.119 101.77Z" fill="#FFFAEA"/>
<path d="M702.586 68.7942C699.264 67.7039 699.917 62.9351 701.329 62.0918C702.741 61.2486 705.097 61.4003 706.891 62.3085C708.686 63.2168 709.845 64.8197 710.069 66.3124C710.149 66.9321 710.117 67.5069 710.084 68.0818C710.057 68.5608 709.991 69.0569 709.981 69.5753C709.965 69.8627 709.926 70.2066 709.555 70.3202C709.24 70.4563 706.303 70.0412 702.586 68.7942Z" fill="#FFFAEA"/>
<path d="M697.142 48.7083C700.029 51.7156 699.682 56.8668 695.107 61.6458L688.122 69.2879C687.527 69.9656 686.468 70.0021 685.79 69.4066C685.112 68.811 685.076 67.7518 685.671 67.074L690.998 61.2225C691.981 60.1437 691.938 58.5265 690.983 57.3964C690.479 56.7722 689.976 56.148 689.574 55.4334C688.544 53.5878 688.431 51.1594 689.514 49.3365C691.107 46.6389 694.944 46.4318 697.142 48.7083Z" fill="#FFFAEA"/>
</svg>
