<svg width="425" height="338" viewBox="0 0 425 338" fill="none" xmlns="http://www.w3.org/2000/svg">
<path d="M63.6592 51.7817C33.7167 79.4183 12.6732 116.372 3.98364 156.152C-1.56514 181.486 -1.98392 208.39 7.01977 232.676C16.0235 256.963 35.2872 278.109 60.0996 285.437C86.5872 293.289 114.855 284.914 142.18 280.622C169.505 276.33 201.646 277.795 219.234 299.151C227.401 308.991 231.798 322.496 242.895 328.881C256.506 336.733 273.675 330.347 287.39 322.705C350.835 287.531 399.099 225.977 418.048 155.943C425.586 128.306 428.518 98.2615 418.991 71.253C412.186 52.2004 397.947 34.5087 379.416 25.8199C357.221 15.4562 334.084 21.6325 312.412 30.3213C292.102 38.4867 266.975 50.5254 245.094 41.5226C229.599 35.1368 221.014 20.7951 208.556 10.536C194.945 -0.560564 177.776 -0.979302 161.234 2.16123C137.259 6.55798 113.494 16.503 92.9735 29.3792C82.5041 35.8696 72.6629 43.4069 63.6592 51.7817Z" fill="#F0C6B6"/>
<path d="M113.159 281.053C109.251 281.053 106.46 284.775 104.785 288.311C103.11 291.847 101.807 295.755 98.4579 297.802C93.8058 300.78 87.665 298.733 82.2686 297.616C74.4531 296.127 66.2654 297.244 58.2638 297.058C50.2621 296.872 41.5162 295.197 35.9337 289.427C37.6084 285.892 42.0744 284.961 45.7961 284.403C70.7314 280.309 95.8527 273.423 116.322 258.535C119.113 264.862 119.858 272.306 118.183 279.006L113.159 281.053Z" fill="#B03537"/>
<path d="M36.4919 287.753C54.7281 300.78 83.0129 286.636 101.435 299.477C97.5275 305.06 89.898 306.177 83.199 306.549C70.7314 306.921 58.2637 305.432 46.3544 302.268C35.1893 299.291 23.6521 293.708 18.8139 283.286L36.4919 287.753Z" fill="#B03537"/>
<path d="M91.0145 294.638C94.9223 289.613 101.249 286.822 107.576 287.566C105.901 291.661 104.413 295.755 102.738 299.849C98.8301 298.36 94.9223 296.871 91.0145 295.383V294.638Z" fill="#F39E31"/>
<path d="M63.2037 288.897C63.9487 288.549 64.2706 287.663 63.9227 286.918C63.5749 286.173 62.6889 285.851 61.944 286.199C61.199 286.547 60.8771 287.433 61.225 288.178C61.5728 288.923 62.4587 289.245 63.2037 288.897Z" fill="#6B74B5"/>
<path d="M72.1231 286.275C72.8681 285.927 73.19 285.041 72.8422 284.296C72.4943 283.551 71.6084 283.229 70.8634 283.577C70.1184 283.925 69.7965 284.811 70.1444 285.556C70.4922 286.301 71.3782 286.623 72.1231 286.275Z" fill="#6B74B5"/>
<path d="M80.8746 283.889C81.6196 283.541 81.9415 282.655 81.5936 281.91C81.2458 281.165 80.3599 280.843 79.6149 281.191C78.8699 281.539 78.548 282.425 78.8959 283.17C79.2437 283.915 80.1296 284.237 80.8746 283.889Z" fill="#6B74B5"/>
<path d="M62.7297 288.311C63.8463 284.961 63.288 281.053 61.6132 278.075C61.055 277.145 60.4967 276.4 59.7524 275.656C59.3802 275.284 59.0081 275.842 59.1941 276.214C61.6132 278.634 62.7297 282.169 62.5437 285.519C62.5437 286.45 62.3576 287.38 61.9854 288.311C61.9854 288.683 62.5437 288.869 62.7297 288.311Z" fill="white"/>
<path d="M72.034 285.333C72.034 281.983 71.2896 278.82 69.987 275.842C69.6149 274.912 69.2427 274.167 68.6845 273.423C68.4984 273.051 67.9401 273.423 68.1262 273.795C70.3592 277.331 71.4757 281.425 71.2896 285.519C71.2896 285.705 72.034 285.705 72.034 285.333Z" fill="white"/>
<path d="M80.7799 282.914C81.1521 279.564 80.4077 276.214 78.9191 273.051C78.733 272.678 78.1747 273.051 78.3608 273.423C79.8495 276.4 80.4077 279.564 80.0356 282.914C80.0356 283.472 80.7799 283.472 80.7799 282.914Z" fill="white"/>
<path d="M101.039 283.756C103.46 282.626 104.506 279.746 103.376 277.325C102.245 274.904 99.3659 273.857 96.9448 274.988C94.5236 276.119 93.4774 278.998 94.608 281.419C95.7385 283.841 98.6177 284.887 101.039 283.756Z" fill="#F39E31"/>
<path d="M46.7265 291.661C49.5178 288.683 50.4482 284.217 48.9595 280.495C43.9352 281.611 39.0971 282.914 34.4449 284.775C37.4223 288.869 42.0744 291.475 47.0987 292.219L46.7265 291.661Z" fill="#F39E31"/>
<path d="M35.3754 287.38C38.5388 290.358 42.6327 292.219 46.7265 293.336C51.0065 294.452 55.4725 294.825 59.7524 294.825C64.7767 294.825 69.801 294.266 74.8252 294.266C80.0356 294.08 85.2459 294.452 90.0841 295.941C94.7362 297.244 99.3883 299.663 104.227 299.663C104.785 299.663 105.529 299.663 106.087 299.477C106.46 299.477 106.646 298.919 106.46 298.733C106.273 298.36 106.087 298.174 105.715 298.36C100.877 299.105 96.2249 296.685 91.7589 295.383C86.9207 293.708 81.8964 293.336 76.6861 293.336C71.4757 293.336 66.4515 293.894 61.2411 293.894C56.9612 294.08 52.6812 293.894 48.4013 292.963C44.3074 292.033 40.3997 290.544 37.0502 287.939C36.678 287.567 36.3058 287.194 35.7476 287.008C35.7476 285.892 34.8171 286.822 35.3754 287.38Z" fill="white"/>
<path d="M221.273 281.797C218.11 284.031 213.83 282.914 210.294 281.239C206.759 279.564 203.409 277.145 199.502 277.517C193.919 278.075 190.57 283.472 186.848 287.567C181.451 293.708 174.38 297.802 168.239 302.827C161.913 307.852 156.144 314.551 155.4 322.554C158.935 324.229 163.029 322.367 166.379 320.506C188.523 308.41 212.714 298.547 237.835 297.616C236.16 290.916 232.252 284.775 226.856 280.309L221.273 281.797Z" fill="#B03537"/>
<path d="M156.516 323.484C163.029 302.082 193.919 295.755 200.618 274.353C194.105 272.306 187.406 276.028 182.01 280.123C171.961 287.38 163.029 296.313 155.586 306.177C148.701 315.296 142.932 326.834 145.537 338L156.516 323.484Z" fill="#B03537"/>
<path d="M195.222 284.589C201.362 286.078 208.061 284.403 212.714 280.122C208.992 277.889 205.084 275.656 201.362 273.423C199.316 276.959 197.083 280.495 195.036 284.217L195.222 284.589Z" fill="#F39E31"/>
<path d="M177.533 309.305C178.335 309.122 178.836 308.323 178.652 307.522C178.469 306.72 177.671 306.219 176.869 306.402C176.068 306.586 175.567 307.384 175.75 308.186C175.933 308.987 176.732 309.488 177.533 309.305Z" fill="#6B74B5"/>
<path d="M186.225 305.753C187.026 305.569 187.527 304.771 187.344 303.969C187.161 303.168 186.363 302.667 185.561 302.85C184.76 303.033 184.258 303.832 184.442 304.633C184.625 305.435 185.423 305.936 186.225 305.753Z" fill="#6B74B5"/>
<path d="M194.596 302.234C195.398 302.051 195.899 301.252 195.716 300.451C195.532 299.649 194.734 299.148 193.933 299.331C193.131 299.515 192.63 300.313 192.813 301.114C192.997 301.916 193.795 302.417 194.596 302.234Z" fill="#6B74B5"/>
<path d="M176.427 307.479C179.218 309.34 181.079 312.504 181.638 315.854C181.824 316.784 181.824 317.715 181.638 318.645C181.638 319.018 182.196 319.018 182.382 318.645C182.754 315.109 181.451 311.387 179.032 308.782C178.288 308.038 177.544 307.293 176.799 306.735C176.427 306.735 176.055 307.293 176.427 307.479Z" fill="white"/>
<path d="M185.545 304.13C187.592 306.549 188.895 309.526 189.639 312.504C189.825 313.435 190.011 314.179 190.011 315.11C190.011 315.482 190.756 315.482 190.756 315.11C190.383 311.76 189.267 308.596 187.592 305.804C187.034 305.06 186.476 304.316 185.917 303.571C185.731 303.199 185.359 303.757 185.545 304.13Z" fill="white"/>
<path d="M193.919 300.594C196.152 303.013 197.641 305.99 198.385 309.154C198.385 309.526 199.129 309.34 198.943 308.968C198.199 305.618 196.71 302.641 194.291 300.221C194.105 299.849 193.547 300.221 193.919 300.594Z" fill="white"/>
<path d="M212.107 296.356C214.711 295.76 216.34 293.165 215.744 290.56C215.148 287.955 212.554 286.326 209.949 286.922C207.344 287.518 205.716 290.113 206.312 292.718C206.907 295.323 209.502 296.952 212.107 296.356Z" fill="#F39E31"/>
<path d="M162.099 314.179C166.006 314.737 169.542 317.715 170.845 321.623C166.379 323.856 161.54 325.717 156.702 327.206C156.516 322.181 158.563 317.157 162.099 313.435V314.179Z" fill="#F39E31"/>
<path d="M157.26 324.787C158.005 320.32 160.238 316.226 163.215 312.69C166.193 309.154 169.728 305.991 173.636 303.199C177.73 300.221 181.824 297.616 185.731 294.452C189.639 291.475 193.175 288.125 195.966 284.031C197.269 282.17 198.385 280.122 199.688 278.261C200.99 276.587 202.293 274.726 203.968 273.423C204.34 273.051 204.898 272.865 205.27 272.492C206.015 272.12 205.27 271.003 204.526 271.376C200.432 273.609 198.199 277.889 195.594 281.611C194.291 283.658 192.989 285.519 191.314 287.194C189.639 289.055 187.778 290.73 185.917 292.219C182.01 295.383 177.916 297.988 174.008 300.966C170.1 303.757 166.379 306.735 163.215 310.271C160.052 313.807 157.447 317.901 156.33 322.367C156.144 322.926 156.144 323.484 155.958 324.042C155.958 324.415 156.144 324.787 156.33 324.787C156.888 325.345 157.26 325.159 157.26 324.787Z" fill="white"/>
<path d="M362.139 236.575C358.231 229.131 350.044 220.756 342.042 217.779C335.715 215.359 279.89 204.565 269.283 204.007C266.678 203.821 263.701 204.379 261.84 206.054L265.003 208.66C249 201.774 232.625 196.005 216.063 190.98C213.458 190.236 210.481 189.491 207.875 189.863C204.898 190.236 202.107 191.911 199.688 193.585C169.728 213.684 127.859 239.552 100.505 262.815C106.087 274.353 110.367 279.75 120.788 287.194C148.887 278.075 191.128 260.024 208.248 235.83C208.992 234.9 209.736 233.783 210.853 233.597C211.597 233.411 212.341 233.597 213.086 233.783C231.508 239.18 249.93 245.135 267.794 252.021C269.097 252.58 270.586 253.138 272.074 253.324C254.769 265.234 235.416 274.167 215.133 279.75C218.296 288.497 220.157 297.988 220.343 307.293C246.395 307.479 271.33 298.36 295.707 289.242C307.244 284.961 318.968 280.495 330.505 276.214C339.437 272.865 348.741 269.329 355.626 262.629C362.697 255.929 366.419 245.135 362.139 236.575Z" fill="#6B74B5"/>
<path d="M222.39 279.006C224.065 282.356 225.553 285.706 226.856 289.241C228.159 292.777 229.089 296.313 229.833 300.035C230.205 302.082 230.578 304.13 230.95 306.177C230.95 306.549 231.508 306.735 231.694 306.549C232.066 306.363 232.252 306.177 232.066 305.804C231.508 302.082 230.764 298.36 229.833 294.824C228.903 291.102 227.6 287.567 226.112 284.031C225.367 282.17 224.437 280.122 223.32 278.261C223.134 277.889 222.762 277.889 222.39 278.075C222.39 278.261 222.204 278.634 222.39 279.006Z" fill="#354077"/>
<path d="M271.702 254.068C274.866 251.463 278.215 249.23 281.565 246.996C284.914 244.763 288.45 242.716 292.172 240.855C295.707 238.994 299.429 237.319 303.337 236.016C307.058 234.528 310.966 233.225 314.874 232.294C318.782 231.178 322.875 230.433 326.783 229.689C326.969 229.689 327.341 229.689 327.528 229.503C327.714 229.503 327.714 229.503 327.9 229.503H328.086C328.272 229.503 328.272 229.503 328.086 229.503C327.9 229.503 327.9 229.317 327.714 229.317C327.714 229.131 327.528 229.131 327.528 228.945C327.528 228.758 327.714 228.386 327.9 228.386C328.086 228.386 328.086 228.386 328.272 228.386C328.272 228.386 328.272 228.386 328.458 228.386L328.644 228.572C328.272 227.828 326.969 228.572 327.528 229.317C327.9 229.875 328.644 229.875 328.83 229.317C329.016 229.131 329.016 228.758 328.83 228.572C328.644 228.2 328.272 228.2 327.9 228.2C326.783 228.386 325.853 228.572 324.736 228.758C322.689 229.131 320.456 229.503 318.409 230.061C314.316 230.992 310.036 232.294 306.128 233.783C302.034 235.272 298.126 236.947 294.218 238.808C290.311 240.669 286.589 242.716 282.867 244.949C279.146 247.183 275.61 249.602 272.261 252.393C271.888 252.766 271.33 253.138 270.958 253.324C270.586 253.51 270.772 254.068 270.958 254.254C271.144 254.44 271.516 254.254 271.702 254.068Z" fill="#354077"/>
<path d="M319.526 225.781C316.549 227.27 313.571 228.945 310.78 230.992C310.036 231.55 309.105 232.108 308.361 232.853C307.989 233.039 308.175 233.597 308.361 233.783C308.733 234.155 309.105 233.969 309.291 233.783C312.641 231.178 316.362 228.945 320.27 226.898C320.642 226.711 320.642 226.339 320.456 225.967C320.27 225.595 319.898 225.595 319.526 225.781Z" fill="#354077"/>
<path d="M205.642 218.895C207.503 222.431 208.806 226.339 209.55 230.434C209.736 231.55 209.922 232.667 209.922 233.783C209.922 234.156 210.295 234.528 210.667 234.528C211.039 234.528 211.411 234.156 211.411 233.783C211.039 229.503 210.108 225.409 208.434 221.501C207.875 220.384 207.503 219.267 206.945 218.151C206.759 217.779 206.387 217.779 206.015 217.965C205.456 218.151 205.456 218.709 205.642 218.895Z" fill="#354077"/>
<path d="M211.411 220.756C211.411 224.664 211.597 228.386 211.597 232.295C211.597 233.225 212.9 233.225 212.9 232.295C212.9 228.386 212.714 224.664 212.714 220.756C212.714 219.826 211.411 219.826 211.411 220.756Z" fill="#354077"/>
<path d="M107.762 257.977C110.181 261.699 112.786 265.234 115.764 268.584C118.555 271.562 121.532 274.167 124.696 276.401C126.743 277.889 128.976 279.378 131.209 280.867C131.581 281.053 131.953 280.867 132.139 280.681C132.325 280.309 132.139 279.936 131.953 279.75C129.906 278.448 128.045 277.145 126.184 275.842C124.51 274.726 123.021 273.423 121.532 272.12C118.555 269.701 115.95 266.723 113.531 263.746C112.042 261.699 110.553 259.651 109.065 257.418C108.879 257.046 108.506 257.046 108.134 257.232C107.762 257.232 107.576 257.79 107.762 257.977Z" fill="#354077"/>
<path d="M244.534 293.894C246.395 292.778 248.442 291.847 250.675 291.289C251.047 291.289 251.233 290.73 251.047 290.544C250.861 290.172 250.489 289.986 250.303 290.172C248.07 290.73 245.837 291.661 243.79 292.778C243.045 293.336 243.79 294.452 244.534 293.894Z" fill="#354077"/>
<path d="M249.558 296.127C251.047 295.569 252.722 295.011 254.21 294.452C254.583 294.266 254.769 294.08 254.583 293.708C254.583 293.336 254.024 293.15 253.838 293.336C252.35 293.894 250.675 294.452 249.186 295.011C248.814 295.197 248.628 295.383 248.814 295.755C248.814 296.127 249.372 296.313 249.558 296.127Z" fill="#354077"/>
<path d="M267.05 288.311C267.794 288.125 268.539 287.939 269.097 287.753C269.469 287.753 269.655 287.194 269.469 287.008C269.283 286.636 269.097 286.45 268.725 286.636C267.981 286.822 267.236 287.008 266.678 287.194C266.306 287.194 266.12 287.753 266.306 287.939C266.306 288.125 266.678 288.311 267.05 288.311Z" fill="#354077"/>
<path d="M267.05 282.356C267.236 282.356 267.236 282.17 267.422 282.17C267.422 282.17 267.422 282.17 267.608 282.17H267.794H267.981C268.167 282.17 268.167 282.17 268.353 282.17H268.539C268.353 282.17 268.353 282.17 268.539 282.17C268.725 282.17 268.725 282.17 268.911 282.17C269.097 282.17 269.097 282.17 269.283 282.17C269.097 282.17 269.097 282.17 269.283 282.17H269.469C269.841 282.17 270.214 281.983 270.214 281.797C270.214 281.425 270.028 281.053 269.841 281.053C268.725 280.867 267.608 281.053 266.678 281.611C266.306 281.797 266.306 282.17 266.492 282.542C266.306 282.356 266.864 282.542 267.05 282.356Z" fill="#354077"/>
<path d="M276.727 289.242C278.215 289.242 279.89 288.683 281.193 287.939C281.565 287.753 281.565 287.38 281.379 287.008C281.193 286.636 280.82 286.636 280.448 286.822C279.332 287.567 278.029 287.939 276.54 287.939C276.168 287.939 275.796 288.311 275.796 288.683C276.168 289.055 276.354 289.242 276.727 289.242Z" fill="#354077"/>
<path d="M289.566 276.587C290.497 276.214 291.241 275.842 292.171 275.47C292.358 275.47 292.544 275.284 292.544 275.098C292.544 274.912 292.73 274.726 292.544 274.539C292.358 274.167 291.985 273.981 291.799 274.167C290.869 274.539 290.125 274.912 289.194 275.284C289.008 275.284 288.822 275.47 288.822 275.656C288.822 275.842 288.636 276.028 288.822 276.214C288.822 276.4 289.194 276.773 289.566 276.587Z" fill="#354077"/>
<path d="M296.452 278.634C298.312 277.889 300.359 277.145 302.22 276.401C302.592 276.214 302.778 276.028 302.592 275.656C302.592 275.284 302.034 275.098 301.848 275.284C299.987 276.028 297.94 276.773 296.079 277.517C295.707 277.703 295.521 277.889 295.707 278.262C295.707 278.634 296.079 278.82 296.452 278.634Z" fill="#354077"/>
<path d="M126.743 248.671C127.859 247.369 128.79 246.252 129.906 244.949C130.092 244.763 130.092 244.205 129.906 244.019C129.72 243.833 129.162 243.647 128.976 244.019C127.859 245.322 126.929 246.438 125.812 247.741C125.626 247.927 125.44 248.485 125.812 248.671C125.998 248.857 126.557 249.044 126.743 248.671Z" fill="#354077"/>
<path d="M132.511 248.113C132.697 247.927 132.883 247.741 133.07 247.555L133.256 247.369V247.183V246.996C133.256 246.996 133.256 246.81 133.07 246.81C133.07 246.81 133.07 246.81 132.884 246.624C132.697 246.624 132.697 246.624 132.511 246.624H132.325C132.139 246.624 132.139 246.624 131.953 246.81C131.767 246.996 131.581 247.183 131.395 247.369L131.209 247.555V247.741V247.927C131.209 247.927 131.209 248.113 131.395 248.113C131.395 248.113 131.395 248.113 131.581 248.299C131.767 248.299 131.767 248.299 131.953 248.299H132.139C132.325 248.299 132.511 248.299 132.511 248.113Z" fill="#354077"/>
<path d="M135.116 249.788C135.489 249.416 135.861 249.044 136.233 248.671C136.419 248.485 136.419 248.299 136.419 248.113C136.419 247.927 136.419 247.741 136.233 247.555C136.047 247.369 135.861 247.369 135.675 247.369C135.489 247.369 135.303 247.369 135.116 247.555C134.744 247.927 134.372 248.299 134 248.671C133.814 248.857 133.814 249.044 133.814 249.23C133.814 249.416 133.814 249.602 134 249.788C134.186 249.974 134.372 249.974 134.558 249.974C134.93 249.974 135.116 249.974 135.116 249.788Z" fill="#354077"/>
<path d="M163.401 250.16C163.773 249.974 164.146 249.788 164.518 249.602C164.704 249.602 164.704 249.416 164.89 249.23C164.89 249.044 164.89 248.858 164.89 248.672C164.89 248.485 164.704 248.485 164.518 248.299H164.332C164.146 248.299 164.146 248.299 163.96 248.299C163.587 248.485 163.215 248.672 162.843 248.858C162.657 248.858 162.657 249.044 162.471 249.23C162.471 249.416 162.471 249.602 162.471 249.788C162.471 249.974 162.657 249.974 162.843 250.16H163.029C163.215 250.346 163.401 250.346 163.401 250.16Z" fill="#354077"/>
<path d="M310.594 195.074C318.223 197.307 326.597 197.121 333.482 193.213C340.367 189.491 345.392 181.861 345.206 174.045C342.786 179.069 337.018 181.861 331.621 183.536C328.83 184.466 325.853 185.211 322.875 185.769C318.037 186.7 312.269 186.886 309.105 183.35L310.594 195.074Z" fill="#663304"/>
<path d="M309.105 165.67C307.058 165.112 301.104 156.737 313.571 211.265C289.939 213.498 270.958 207.543 247.325 205.124C250.675 182.605 242.673 174.417 240.068 159.157C250.117 155.621 252.35 158.784 262.398 155.249L309.105 165.67Z" fill="#B03537"/>
<path d="M250.489 69.4559C251.047 67.5948 251.605 65.9199 252.163 64.0589C252.536 62.7562 253.28 61.2674 254.583 61.0813C255.327 61.0813 255.885 61.2674 256.443 61.6396C259.607 63.6867 261.095 67.7809 261.095 71.503C261.095 75.225 259.421 78.947 257.746 82.2968C255.885 76.8999 253.466 71.8752 250.303 67.0365L250.489 69.4559Z" fill="#FBC9A4"/>
<path d="M258.676 77.0859C258.49 77.0859 258.304 77.4581 258.118 77.6442C257.932 78.0164 257.746 78.2025 257.746 78.5747C257.374 79.5052 257.188 80.6218 257.188 81.7385C257.188 83.0412 257.374 84.3439 258.118 85.6466C258.863 87.1354 260.165 88.252 261.468 88.8103C262.956 89.5547 264.817 89.7408 266.492 89.3686C267.981 88.9964 269.655 88.252 270.586 86.9493C272.819 84.3439 272.819 80.2496 270.772 77.4581C268.911 74.6666 265.189 72.9917 261.84 74.1083C261.468 74.2944 261.095 74.4805 260.723 74.6666C260.351 74.8527 260.723 75.411 261.096 75.2249C263.887 73.55 267.422 74.6666 269.469 76.8998C271.702 79.3191 272.261 82.8551 270.586 85.6466C269.841 86.9493 268.539 87.8798 267.236 88.4381C265.748 88.9964 264.259 88.9964 262.77 88.6242C261.282 88.252 259.979 87.3215 259.049 86.0188C258.304 85.0883 257.932 83.7856 257.746 82.669C257.746 81.5524 257.746 80.6218 257.932 79.5052C258.118 78.9469 258.304 78.2025 258.676 77.6442C259.235 77.4581 259.049 76.8998 258.676 77.0859Z" fill="#B03537"/>
<path d="M256.257 72.2474C256.443 70.2003 256.815 68.3392 257.56 66.4782C257.746 66.106 257.374 65.7338 257.188 65.7338C256.816 65.5477 256.443 65.9199 256.443 66.106C255.699 68.1531 255.141 70.2003 255.141 72.2474C255.141 72.6196 255.513 72.9918 255.885 72.9918C255.885 72.8057 256.257 72.6196 256.257 72.2474Z" fill="#93674A"/>
<path d="M255.699 69.2698C256.629 70.3864 257.374 71.6891 257.746 72.9918C257.932 73.364 258.304 73.5501 258.49 73.364C258.862 73.1779 259.049 72.9918 258.862 72.6196C258.304 70.9447 257.56 69.642 256.443 68.3393C256.257 68.1532 255.699 68.1532 255.513 68.3393C255.327 68.5254 255.513 68.8976 255.699 69.2698Z" fill="#93674A"/>
<path d="M245.837 123.611C252.35 123.983 259.607 123.983 264.817 119.703C270.214 115.423 272.261 107.42 278.215 104.071C283.053 101.465 289.194 102.768 293.474 106.118C297.94 109.468 300.917 114.306 303.709 119.145C312.641 134.963 320.084 151.713 324.364 169.578C325.481 174.045 326.039 179.814 322.689 182.792C318.595 186.514 302.22 188.188 297.568 185.025C287.705 178.325 287.892 166.973 278.029 160.459C276.168 159.157 274.121 157.668 273.749 155.435C273.563 153.76 274.307 152.085 274.866 150.41C277.285 143.524 275.61 135.15 270.772 129.753C261.282 132.172 250.861 129.753 243.231 123.797L245.837 123.611Z" fill="#B03537"/>
<path d="M209.922 134.591C209.178 138.5 208.62 142.222 207.875 146.13C207.317 149.666 206.387 153.76 203.223 155.621C200.99 156.924 198.199 156.924 195.78 156.179C193.361 155.249 191.128 153.76 189.081 152.085C187.964 151.154 186.848 150.224 185.545 150.038C182.568 149.293 179.777 151.341 177.358 153.015C174.938 154.69 171.403 156.179 168.984 154.504C168.239 153.946 167.309 153.202 167.123 152.085C163.773 134.033 189.825 136.452 193.919 137.941C194.663 138.127 193.361 124.542 193.733 120.634L209.922 134.591Z" fill="#7C3F08"/>
<path d="M261.282 96.2543C264.073 105.187 267.795 113.934 272.261 122.308C267.608 128.45 259.235 130.125 251.791 131.241C251.419 131.241 250.861 131.427 250.489 131.241C250.117 131.055 249.93 130.683 249.744 130.311C246.395 123.611 242.859 116.725 239.51 110.026C247.697 107.606 255.141 102.396 259.979 95.1377L261.282 96.2543Z" fill="#FBC9A4"/>
<path d="M240.998 112.631C246.767 117.842 254.396 120.634 258.676 118.773C264.073 116.167 262.956 102.582 262.584 99.7903C261.654 102.582 259.607 104.629 257.746 106.862C255.885 109.095 253.094 110.026 250.303 110.212C247.511 110.398 244.72 109.84 241.929 109.281C241.557 109.281 241.184 109.095 241.184 108.723C240.998 108.351 241.557 108.165 241.743 108.351L240.998 112.631Z" fill="#C49372"/>
<path d="M204.712 87.6937C210.853 94.3934 217.18 101.093 224.623 106.304C232.066 111.515 240.812 115.237 249.93 115.423C252.349 115.423 254.955 115.051 257.002 113.748C259.235 112.259 260.537 109.468 261.282 106.862C263.887 97.9293 262.212 88.0659 258.49 79.5053C254.769 70.9446 243.417 52.1484 237.835 44.7043H219.785L197.827 62.5701L204.712 87.6937Z" fill="#FBC9A4"/>
<path d="M256.443 77.6444C248.628 69.4559 241.743 60.337 235.788 50.6597C235.602 54.7539 234.485 58.8482 232.625 62.5702C232.252 63.3146 231.694 64.2451 230.95 64.6173C229.275 65.5478 226.856 64.2451 226.112 62.5702C225.367 60.7092 225.553 58.6621 225.739 56.801C227.6 63.5007 225.367 71.1308 219.971 75.5973C216.621 73.178 214.947 68.7115 215.691 64.8034C215.691 69.8281 214.388 74.8529 212.155 79.1332C211.597 80.0637 211.039 81.1803 210.108 81.7386C208.434 82.8552 205.828 82.483 204.526 80.9942C203.223 79.5054 203.409 76.9 204.898 75.4112C207.689 79.8776 207.317 86.3911 203.782 90.2993C203.409 90.6715 202.851 91.0437 202.293 91.0437C200.99 91.0437 200.432 89.9271 200.246 88.8105C199.316 85.8328 198.385 82.6691 197.455 79.6915C197.641 83.5996 193.361 87.1355 189.453 86.3911C185.545 85.6467 182.754 81.3664 183.498 77.4583C184.243 73.5502 188.15 70.5725 192.244 70.7586C185.359 72.0613 178.102 66.2922 178.102 59.2204C178.102 58.8482 178.102 58.2898 178.288 57.9176C179.218 54.94 182.754 54.94 185.545 55.4983C190.197 56.2427 194.663 56.801 199.316 57.5454C197.269 54.7539 193.919 52.8929 192.058 50.1014C190.011 47.1238 190.197 42.2851 193.361 41.1685C195.036 40.6102 196.896 41.1685 198.571 41.7268C202.665 43.0295 206.759 44.5184 210.853 45.8211C206.759 42.2851 206.945 34.655 211.411 31.6774C214.761 29.4441 219.785 30.5608 222.576 33.5384C223.693 34.655 225.553 33.9106 225.553 32.4218C225.553 31.4913 225.553 30.5608 225.739 29.8164C226.67 26.8387 231.322 26.4665 233.741 28.5136C236.16 30.5608 236.905 34.0967 237.649 37.0743C238.393 35.9577 239.324 35.0272 240.254 33.9106C242.673 31.4913 246.767 34.0967 245.65 37.2604C245.65 37.4465 245.65 37.4465 245.464 37.6326C243.604 43.0295 246.953 48.4265 249.558 53.4512C253.28 60.7092 255.885 68.3393 257.374 76.3417L256.443 77.6444Z" fill="#060807"/>
<path d="M242.673 83.5994C244.162 83.9716 245.837 83.7855 247.139 83.0411C248.442 82.2967 249.372 80.994 249.93 79.5052C250.116 78.5747 250.116 77.8303 250.116 76.8998C250.116 76.5276 249.558 76.3415 249.372 76.5276C249 76.7137 248.814 76.8998 249 77.272C249.186 78.7608 248.628 80.2496 247.511 81.3662C246.395 82.2967 244.72 82.6689 243.231 82.2967C242.301 82.1106 241.929 83.4133 242.673 83.5994Z" fill="#060807"/>
<path d="M226.112 81.3662C226.67 82.1106 226.484 83.0411 225.926 83.7855C225.553 84.5299 224.809 85.0882 224.065 85.6465C222.204 87.3215 220.715 89.1825 219.413 91.2296C219.785 88.6242 220.715 86.0187 222.204 83.9716C223.134 82.855 224.065 81.7384 225.553 81.3662H226.112Z" fill="#060807"/>
<path d="M223.693 97.7432C225.181 98.1154 226.856 97.9293 228.159 97.1849C229.461 96.4405 230.392 95.1378 230.95 93.649C231.136 92.7185 231.136 91.9741 231.136 91.0436C231.136 90.6714 230.578 90.4853 230.392 90.6714C230.019 90.8575 229.833 91.0436 230.019 91.4158C230.206 92.9046 229.647 94.3934 228.531 95.51C227.414 96.4405 225.739 96.8127 224.251 96.4405C223.134 96.2544 222.762 97.5571 223.693 97.7432Z" fill="#060807"/>
<path d="M195.036 126.961C198.385 137.569 207.875 144.641 217.18 150.596C226.484 156.551 236.532 162.507 241.929 171.998C244.162 176.092 246.023 180.558 247.511 185.025C256.071 211.637 263.887 212.754 276.727 216.476C279.146 217.22 281.751 211.265 283.984 210.707C285.845 210.335 287.519 209.218 289.194 208.287C295.893 204.007 305.57 202.704 309.477 195.633C316.362 183.536 300.359 158.598 288.822 148.177C277.285 137.755 269.655 133.289 256.257 125.286C242.115 116.912 253.466 109.468 214.388 89.1826C213.086 94.0213 204.34 105.746 201.549 110.026L195.036 126.961Z" fill="#DD7B2A"/>
<path d="M279.518 182.047C267.981 190.422 262.77 206.426 267.236 220.012C267.608 221.128 267.981 222.431 267.422 223.548C267.05 224.292 266.12 224.664 265.375 225.036C261.282 227.456 259.049 232.853 260.537 237.505C267.236 235.644 273.749 233.969 280.448 232.108C281.751 231.736 283.239 231.364 284.17 230.433C285.472 229.317 286.217 227.642 286.961 225.967C289.008 221.314 291.799 216.848 295.335 212.94C300.917 206.612 308.547 200.843 310.036 192.469C311.896 182.233 303.337 172.742 293.66 168.462L279.518 182.047Z" fill="#DD7B2A"/>
<path d="M240.998 175.534C229.461 183.908 224.251 199.913 228.717 213.498C229.089 214.615 229.461 215.918 228.903 217.034C228.531 217.779 227.6 218.151 226.856 218.523C222.762 220.942 220.529 226.339 222.018 230.992C228.717 229.131 235.23 227.456 241.929 225.595C243.231 225.223 244.72 224.85 245.65 223.92C246.953 222.803 247.697 221.128 248.442 219.454C250.489 214.801 253.28 210.335 256.816 206.426C262.398 200.099 270.027 194.33 271.516 185.955C273.377 175.72 264.817 166.229 255.141 161.948L240.998 175.534Z" fill="#DD7B2A"/>
<path d="M317.665 166.601C301.848 148.363 239.696 153.015 224.809 150.41C223.879 150.224 223.134 150.038 222.204 150.224C220.715 150.596 219.413 151.713 218.854 153.201C216.993 157.11 219.04 162.134 222.204 164.926C225.367 167.903 229.833 169.206 233.927 170.509C254.769 176.65 276.354 180.558 297.94 182.419C303.523 182.978 309.477 183.164 314.874 181.489C316.362 181.117 317.665 180.372 318.595 179.256C321.201 176.65 321.945 172.742 317.665 166.601Z" fill="#FBC9A4"/>
<path d="M265.934 124.356C273.005 125.286 279.89 123.053 286.961 121.378C287.705 121.192 288.636 121.192 288.822 121.75C289.008 122.122 288.822 122.495 288.822 122.681C287.892 124.914 285.286 125.844 283.053 126.775C281.379 127.333 279.704 128.078 278.029 128.636C274.307 129.38 270.214 128.636 267.236 126.403L265.934 124.356Z" fill="#FBC9A4"/>
<path d="M205.828 151.34C207.875 159.901 210.667 168.089 213.83 176.278C215.877 181.489 218.668 187.258 224.065 189.119C231.508 191.724 239.138 185.397 243.604 178.883C246.953 174.045 249.558 169.02 252.349 163.809C257.374 154.318 262.398 144.827 267.236 135.149C269.841 139.244 273.935 142.407 278.587 143.896C281.751 144.827 285.1 145.013 288.078 146.502C289.938 147.432 291.427 149.107 293.102 150.41C295.893 152.643 299.243 154.132 302.778 155.062C303.337 155.248 303.523 154.69 303.337 154.318C300.173 150.596 296.451 147.432 292.358 144.641C295.521 145.199 305.383 153.387 308.547 153.201C308.919 153.201 309.105 152.643 308.733 152.457C305.383 148.177 301.104 144.455 296.079 142.035C299.987 144.455 308.919 148.921 313.385 150.224C313.943 150.41 314.315 149.851 313.943 149.479C310.408 145.757 301.29 140.174 296.451 138.127C299.615 138.872 310.966 145.013 313.199 143.896C315.618 142.78 282.123 127.333 271.144 120.261C269.097 118.959 266.864 117.656 264.631 118.028C263.142 118.4 262.026 119.331 260.909 120.261C248.256 131.055 236.532 142.966 226.112 155.993L216.621 139.988C211.969 143.524 207.875 147.618 204.154 152.085L205.828 151.34Z" fill="#FBC9A4"/>
<path d="M215.877 180.744C220.157 171.253 221.46 157.668 229.089 150.41C229.647 149.852 223.879 143.152 218.668 141.477C215.319 140.36 211.225 139.616 208.248 141.477C205.27 143.338 204.154 147.06 203.968 150.596C203.223 160.645 211.039 171.998 215.877 180.744Z" fill="#B03537"/>
<path d="M236.16 135.894C235.416 139.988 234.671 144.082 233.927 148.177C233.183 151.899 232.252 156.179 229.089 158.226C226.856 159.715 223.693 159.715 221.087 158.784C218.482 157.854 216.249 156.179 214.016 154.504C212.9 153.574 211.597 152.643 210.108 152.271C206.945 151.526 203.968 153.76 201.362 155.435C198.757 157.11 195.036 158.784 192.43 156.923C191.5 156.365 190.57 155.435 190.383 154.504C186.848 135.336 214.388 137.941 218.854 139.43C219.599 139.616 218.296 125.286 218.482 121.006L236.16 135.894Z" fill="#DD7B2A"/>
<path d="M187.22 68.3392C181.638 65.3616 174.566 63.5006 169.17 66.8504C166.006 68.8975 163.96 72.4334 163.215 76.1555C162.471 79.8775 162.657 83.5995 163.029 87.3215C163.401 91.4158 163.96 95.8822 161.727 99.4181C160.424 101.465 158.563 102.954 156.702 104.443C154.841 105.932 153.167 107.793 152.608 110.026C152.05 112.259 153.167 115.237 155.4 115.795C156.516 116.167 157.819 115.795 158.935 115.237C162.471 113.934 165.448 111.329 167.495 108.165C171.403 102.024 171.031 94.0212 172.333 86.7632C173.078 82.8551 174.194 79.1331 175.869 75.4111C176.985 73.1779 178.288 70.9446 180.149 69.4558C182.196 67.967 184.801 67.2226 187.22 68.1531V68.3392Z" fill="#663304"/>
<path d="M211.969 74.8528C214.202 91.2297 208.992 108.723 214.202 124.356C208.992 126.961 203.223 128.636 197.455 129.38C196.896 129.38 196.152 129.567 195.594 129.194C194.85 128.822 194.477 128.264 194.105 127.519C191.128 122.495 187.778 117.47 183.871 113.004C183.312 112.445 182.754 111.701 182.01 111.329C180.707 110.77 179.032 111.329 177.544 111.701C169.914 113.748 161.54 110.212 156.144 104.443C150.748 98.4876 148.142 90.4853 147.212 82.669C147.212 82.4829 147.212 82.2968 147.212 82.2968C147.398 81.7385 147.77 81.7385 148.142 81.9246C152.608 82.4829 157.261 82.8551 161.727 83.4134C167.123 83.9717 173.264 84.1578 176.799 80.0636C179.218 77.2721 179.591 73.1779 182.01 70.2002C183.871 67.967 187.034 66.6643 190.011 66.4782C192.989 66.2921 195.966 66.8504 198.943 67.5948C203.037 68.5253 207.503 70.0141 210.481 72.9918C211.411 73.364 211.969 74.1084 211.969 74.8528Z" fill="#DD7B2A"/>
<path d="M148.887 91.4156C149.445 92.5322 151.306 91.7878 151.864 90.8573C152.422 89.7407 152.422 88.438 153.167 87.5075C155.028 85.0882 160.052 86.3909 161.168 83.5994C157.074 81.7384 152.422 80.8079 147.956 80.8079C147.584 80.8079 147.026 80.8079 146.84 81.1801C146.468 81.5523 146.468 82.1106 146.468 82.6689C146.468 85.6465 147.398 88.6241 148.887 91.4156Z" fill="black"/>
<path d="M191.686 90.2993C193.536 90.2993 195.036 88.7995 195.036 86.9494C195.036 85.0994 193.536 83.5996 191.686 83.5996C189.836 83.5996 188.337 85.0994 188.337 86.9494C188.337 88.7995 189.836 90.2993 191.686 90.2993Z" fill="black"/>
<path d="M191.872 70.0141C188.895 67.0365 186.476 63.6867 184.615 59.7785C184.057 58.4758 184.057 56.4287 185.359 56.4287C185.918 56.4287 186.29 56.8009 186.662 57.1731C189.267 59.4063 191.314 62.1979 192.989 64.9894C192.244 63.1284 191.686 61.2673 191.686 59.2202C191.686 58.4758 191.872 57.3592 192.617 57.3592C192.989 57.3592 193.361 57.5453 193.547 57.9175C195.78 59.9646 197.455 62.7562 198.013 65.9199C197.641 64.4311 197.641 62.9423 197.827 61.6395C197.827 61.2673 198.013 60.8951 198.385 60.709C199.129 60.1507 200.246 60.8951 200.804 61.6395C203.595 65.5477 205.084 70.3863 205.084 75.0388L191.872 70.0141Z" fill="#DD7B2A"/>
<path d="M192.989 74.4804C196.524 75.2248 199.688 77.272 202.107 79.8774C200.246 81.5523 197.641 81.7384 195.222 81.5523C193.547 81.3662 191.872 81.1801 190.57 80.2496C189.267 79.3191 188.15 77.6442 188.523 76.1554C188.895 74.4804 190.942 73.3638 192.244 74.2943L192.989 74.4804Z" fill="#663304"/>
<path d="M156.144 104.257C160.424 105.56 165.076 106.676 169.542 105.932C173.078 105.373 176.613 103.512 178.66 100.721C179.777 99.2321 180.521 97.185 180.707 95.324C180.707 94.9518 180.335 94.5796 179.963 94.5796C179.591 94.5796 179.405 94.9518 179.218 95.324C179.218 96.8128 178.66 98.3016 177.73 99.6043C176.799 100.907 175.683 102.024 174.38 102.768C171.217 104.815 167.309 105.187 163.401 104.629C160.982 104.257 158.563 103.699 156.33 102.954C155.772 102.768 155.4 104.071 156.144 104.257Z" fill="black"/>
<path d="M183.498 118.587C186.104 118.773 188.895 118.401 191.5 118.028C194.105 117.47 196.524 116.726 198.943 115.609C201.176 114.679 203.223 113.562 205.27 112.073C207.503 110.584 209.364 108.723 211.225 106.862C213.272 104.629 214.947 102.21 216.249 99.6043C216.621 98.8599 216.807 98.1155 216.621 97.3711C216.435 96.6267 215.877 95.8823 215.319 95.6962C214.574 95.324 213.83 95.1379 213.086 95.324C212.341 95.5101 211.597 96.0684 211.411 96.6267C210.481 98.3016 209.55 99.9765 208.434 101.465C208.62 101.279 208.806 101.093 208.806 100.907C207.131 103.14 205.084 105.001 203.037 106.676C203.223 106.49 203.409 106.304 203.595 106.304C201.362 108.165 198.757 109.654 195.966 110.77C196.152 110.584 196.524 110.584 196.71 110.398C194.105 111.515 191.314 112.259 188.523 112.631C188.709 112.631 189.081 112.631 189.267 112.445C187.406 112.631 185.545 112.818 183.684 112.631C182.94 112.631 182.196 113.004 181.638 113.562C181.079 114.12 180.707 114.865 180.707 115.609C180.707 116.353 181.079 117.098 181.638 117.656C182.01 118.214 182.754 118.587 183.498 118.587Z" fill="#6B74B5"/>
<path d="M195.036 147.06C192.43 149.479 191.314 153.388 192.803 156.737C192.989 157.11 193.175 157.296 193.547 157.11C193.919 157.11 194.105 156.551 193.919 156.365C192.803 153.574 193.547 150.038 195.966 147.991C196.152 147.805 196.152 147.246 195.966 147.06C195.594 146.688 195.222 146.688 195.036 147.06Z" fill="#663304"/>
<path d="M198.199 147.991C195.78 150.41 194.85 153.946 195.78 157.109C195.966 157.854 197.269 157.668 197.083 156.737C196.338 153.946 197.269 150.968 199.316 148.921C199.874 148.363 198.943 147.432 198.199 147.991Z" fill="#663304"/>
<path d="M202.665 139.43C205.642 139.616 208.806 139.802 211.783 140.174C213.272 140.36 214.761 140.36 216.249 140.733C216.621 140.733 216.807 140.919 217.18 140.919C217.552 141.105 217.738 141.291 217.924 141.477C218.482 142.035 219.04 142.594 219.599 142.966C220.901 144.269 222.018 145.385 223.32 146.688C223.879 147.246 224.809 146.316 224.251 145.757C223.134 144.641 222.018 143.524 220.901 142.408C220.343 141.849 219.785 141.291 219.227 140.733C218.668 140.174 218.11 139.802 217.366 139.43C216.621 139.244 215.877 139.244 215.133 139.058C214.388 139.058 213.458 138.872 212.714 138.872C211.225 138.685 209.55 138.499 208.061 138.499C206.201 138.313 204.526 138.313 202.665 138.127C202.293 138.127 201.921 138.499 201.921 138.872C202.107 139.058 202.479 139.43 202.665 139.43Z" fill="#663304"/>
<path d="M215.319 129.008C216.807 132.358 217.366 136.266 216.994 139.988C216.994 140.36 217.366 140.733 217.738 140.733C218.11 140.733 218.296 140.36 218.482 139.988C219.04 136.08 218.296 131.986 216.621 128.45C216.435 128.078 216.063 128.078 215.691 128.264C215.133 128.45 215.133 128.822 215.319 129.008Z" fill="#663304"/>
<path d="M268.725 222.989C267.236 220.012 266.306 216.662 265.934 213.498C265.561 210.148 265.561 206.799 265.934 203.449C266.306 200.285 267.236 197.307 268.167 194.144C268.539 193.027 268.911 191.91 269.283 190.794C269.283 190.608 269.469 190.608 269.469 190.422V190.236C269.469 190.422 269.469 190.236 269.469 190.236C269.655 190.049 269.655 189.677 269.841 189.491C270.028 188.933 270.214 188.561 270.586 188.188C270.772 187.816 271.144 187.258 271.516 186.886C271.702 186.7 271.888 186.327 272.074 186.141C272.074 185.955 272.261 185.955 272.261 185.769L272.447 185.583C273.377 184.466 274.121 183.536 275.238 182.605C275.424 182.419 275.796 182.047 275.982 181.861C276.54 181.303 275.61 180.372 275.052 180.93C273.191 182.791 271.33 184.839 269.841 187.072C268.725 188.933 267.794 191.166 267.236 193.213C266.864 194.516 266.492 195.819 266.12 197.307C265.561 198.982 265.189 200.657 265.003 202.332C264.445 205.682 264.259 209.218 264.631 212.754C265.003 216.29 265.748 219.64 267.236 222.989C267.422 223.362 267.608 223.734 267.794 224.106C267.981 224.478 268.353 224.478 268.725 224.292C268.911 223.548 268.911 223.175 268.725 222.989Z" fill="#663304"/>
<path d="M238.951 191.166C241.929 194.516 245.092 197.493 248.442 200.285C251.791 203.077 255.327 205.868 258.862 208.473C260.723 209.776 262.584 211.079 264.631 212.382C265.003 212.568 265.375 212.382 265.561 212.195C265.748 211.823 265.561 211.451 265.375 211.265C261.84 209.032 258.49 206.612 255.141 204.007C251.605 201.402 248.256 198.424 245.092 195.446C243.231 193.771 241.557 191.91 239.882 190.236C239.696 190.049 239.138 190.049 238.951 190.236C238.765 190.422 238.765 190.794 238.951 191.166Z" fill="#663304"/>
<path d="M265.189 229.503C263.142 231.178 262.584 234.342 263.701 236.761C263.887 237.133 264.259 237.133 264.631 236.947C265.003 236.761 265.003 236.389 264.817 236.017C263.887 234.156 264.445 231.736 266.12 230.433C266.306 230.247 266.306 229.689 266.12 229.503C265.748 229.131 265.375 229.317 265.189 229.503Z" fill="#663304"/>
<path d="M269.655 228.945C268.911 229.875 267.981 230.992 267.608 232.295C267.422 233.411 267.608 234.714 268.539 235.458C268.725 235.644 269.283 235.644 269.469 235.458C269.655 235.272 269.655 234.714 269.469 234.528C268.911 233.969 268.725 233.225 268.911 232.481C269.097 231.55 269.841 230.62 270.586 229.875C270.772 229.689 270.772 229.131 270.586 228.945C270.4 228.572 269.841 228.572 269.655 228.945Z" fill="#663304"/>
<path d="M227.414 220.942C225.367 222.989 224.809 226.153 226.298 228.758C226.67 229.503 227.786 228.758 227.414 228.014C226.298 225.967 226.67 223.361 228.345 221.873C228.903 221.128 227.972 220.198 227.414 220.942Z" fill="#663304"/>
<path d="M231.88 220.384C229.833 222.431 229.461 225.781 231.136 228.014C231.322 228.386 231.694 228.386 232.066 228.2C232.439 228.014 232.439 227.642 232.252 227.27C230.95 225.409 231.136 222.803 232.811 221.128C233.369 220.756 232.439 219.826 231.88 220.384Z" fill="#663304"/>
<path d="M234.113 86.7632C236.718 89.9269 238.951 93.2767 240.998 96.9988C241.557 97.9293 242.115 99.0459 242.673 100.162C242.859 100.349 243.231 100.535 243.417 100.535C244.534 100.162 245.278 99.232 245.65 98.3015C246.209 97.1849 246.209 95.8821 246.209 94.5794C246.209 93.6489 244.906 93.6489 244.906 94.5794C244.906 95.696 244.906 96.6266 244.534 97.5571C244.348 98.3015 243.79 98.8598 243.045 99.232C243.231 99.4181 243.604 99.4181 243.79 99.6042C241.929 95.8821 239.696 92.3462 237.277 88.9964C236.532 88.0659 235.788 87.1354 235.044 86.2049C234.858 85.8327 234.299 86.0188 234.113 86.2049C233.741 86.2049 233.741 86.5771 234.113 86.7632Z" fill="#93674A"/>
<path d="M219.785 36.5159C218.854 34.2827 218.482 31.8634 219.04 29.444C219.227 28.3274 219.599 27.2108 220.343 26.2803C221.087 25.5359 222.018 25.1637 222.948 25.5359C224.995 26.0942 226.67 27.7691 227.414 29.6301C227.786 30.5607 228.159 31.6773 227.973 32.6078C227.786 33.5383 227.414 34.6549 226.484 35.0271C225.367 35.5854 224.623 34.4688 224.251 33.5383C223.879 32.7939 223.506 31.8634 223.506 30.9329C223.506 28.8857 224.251 27.0247 225.739 25.5359C227.228 24.0471 229.461 23.1166 231.508 22.7444C233.741 22.3722 236.346 22.1861 238.207 23.4888C239.882 24.7915 240.812 26.8386 241.184 28.8857C241.557 31.4912 240.998 34.2827 240.44 36.8881C240.254 37.4464 240.068 38.1908 240.068 38.7491C239.882 39.1213 240.626 39.3074 240.626 38.9352C240.998 37.4464 241.371 35.9576 241.557 34.4688C241.743 32.98 241.929 31.6773 241.929 30.1885C241.929 27.7691 241.184 25.1637 239.324 23.4888C238.393 22.7444 237.463 22.1861 236.16 21.8139C234.858 21.6278 233.555 21.6278 232.252 21.8139C229.833 22.1861 227.6 22.9305 225.739 24.4193C224.065 25.9081 222.948 27.9552 222.762 30.1885C222.762 31.3051 222.948 32.4217 223.32 33.3522C223.693 34.2827 224.437 35.3993 225.553 35.5854C226.67 35.7715 227.786 34.841 228.159 33.7244C228.531 32.6078 228.717 31.4912 228.345 30.3746C227.786 28.1413 226.298 26.0942 224.251 24.9776C223.32 24.4193 222.204 24.2332 221.087 24.4193C219.971 24.7915 219.227 25.9081 218.668 26.8386C217.738 29.2579 217.552 32.0495 218.11 34.6549C218.296 35.2132 218.482 35.7715 218.668 36.5159C219.227 37.2603 219.785 36.8881 219.785 36.5159Z" fill="#060807"/>
<path d="M209.364 44.3323C207.875 42.6574 206.201 41.1685 204.154 40.0519C202.107 38.9353 199.688 38.0048 197.269 38.5631C195.408 38.9353 193.547 40.7963 193.733 42.8435C193.733 43.9601 194.477 45.0767 195.036 46.0072C195.594 46.9377 196.338 47.6821 197.083 48.4265C197.827 49.1709 198.757 49.7292 199.688 50.2875C200.06 50.4736 200.618 50.8458 201.176 51.0319C201.549 51.218 202.293 51.5902 202.665 51.0319C203.037 50.6597 202.665 50.1014 202.293 49.7292C202.107 49.357 201.735 48.7987 201.549 48.4265C200.99 47.6821 200.246 46.9377 199.502 46.3794C198.571 45.8211 197.641 45.635 196.71 45.8211C195.78 46.0072 194.85 46.5655 194.105 47.3099C192.617 48.9848 192.617 51.5902 193.547 53.6373C193.919 54.7539 194.663 55.6844 195.594 56.2427C196.524 56.801 197.641 57.1733 198.571 57.1733C200.99 57.5455 203.409 57.1733 205.642 56.2427C206.201 56.0566 206.759 55.8705 207.131 55.4983C207.503 55.3122 207.131 54.7539 206.759 54.94C204.898 55.8705 202.665 56.6149 200.618 56.6149C198.757 56.6149 196.338 56.4288 195.036 54.94C194.291 54.1956 193.919 53.2651 193.547 52.1485C193.361 51.218 193.175 50.1014 193.547 49.1709C194.105 47.496 195.78 46.0072 197.641 46.3794C199.502 46.5655 200.618 48.2404 201.362 49.7292C201.549 49.9153 201.549 50.1014 201.735 50.2875L201.921 50.4736H201.735C201.362 50.2875 200.804 50.1014 200.432 49.9153C199.502 49.5431 198.757 48.9848 198.013 48.4265C197.269 47.8682 196.524 47.1238 195.966 46.3794C195.408 45.635 194.85 44.7045 194.477 43.774C194.105 42.8435 194.291 41.9129 194.663 41.1685C195.036 40.4241 195.78 39.8658 196.71 39.4936C198.757 38.7492 200.99 39.3075 202.851 40.238C204.712 40.9824 206.387 42.2851 207.689 43.5879C208.062 43.9601 208.434 44.3323 208.62 44.7045C209.178 45.0767 209.736 44.7045 209.364 44.3323Z" fill="#060807"/>
<path d="M245.651 62.7561C246.581 65.7337 247.697 68.8974 249.93 70.9446C250.675 71.689 251.791 72.4334 252.536 73.1778C255.327 75.7832 256.629 79.8774 255.513 83.5994C257.746 81.9245 258.118 78.7608 257.374 76.1554C256.629 73.55 254.955 71.3168 253.28 69.2696C251.791 67.4086 250.489 65.7337 249 63.8727L245.651 62.7561Z" fill="#060807"/>
<path d="M247.697 102.396C250.489 100.349 251.977 96.6266 251.233 93.2768C251.233 92.9046 250.675 92.7184 250.489 92.9046C250.116 93.0907 249.93 93.2768 250.116 93.649C250.675 96.4405 249.558 99.6042 247.139 101.279C246.767 101.465 246.767 101.837 246.953 102.21C246.953 102.396 247.325 102.582 247.697 102.396Z" fill="#93674A"/>
<path d="M234.858 73.7361C235.23 74.4805 236.16 74.8527 237.091 74.8527C238.021 74.8527 238.765 74.4805 239.696 74.2944C241.929 73.55 244.348 73.1778 246.767 73.1778C244.348 72.0611 241.743 71.6889 239.138 71.875C237.649 72.0611 236.16 72.4333 235.044 73.3639L234.858 73.7361Z" fill="#060807"/>
<path d="M204.526 69.4558C209.364 70.9446 214.016 73.3639 217.366 76.8999C220.901 80.6219 222.948 85.6466 222.39 90.4853C221.46 98.8598 213.272 105.001 211.783 113.376C211.039 117.098 211.969 121.006 212.155 124.914C212.341 128.822 211.783 133.102 208.992 135.708C208.061 136.638 206.573 137.383 205.27 137.197C203.782 137.011 202.479 135.894 201.362 134.591C198.013 130.311 197.455 124.17 198.571 118.773C199.688 113.376 202.293 108.351 204.712 103.512C207.131 98.4876 209.364 93.4629 209.922 87.8798C210.481 81.5524 208.806 74.1083 204.526 69.4558Z" fill="#663304"/>
<path d="M232.439 130.125C233.741 134.964 234.299 139.802 234.299 144.827C234.299 149.107 233.369 153.574 230.206 156.551C228.717 158.04 226.67 158.971 224.623 158.784C223.693 158.784 223.693 160.087 224.623 160.087C226.67 160.087 228.717 159.343 230.392 158.04C232.066 156.737 233.369 154.876 234.299 152.829C235.23 150.596 235.602 148.177 235.602 145.757C235.788 143.152 235.602 140.733 235.416 138.127C235.044 135.15 234.485 132.358 233.741 129.38C233.555 128.822 232.252 129.194 232.439 130.125Z" fill="#663304"/>
<path d="M272.074 194.33C270.958 196.005 270.586 197.866 270.958 199.727C270.958 200.099 271.516 200.285 271.702 200.099C272.074 199.913 272.261 199.727 272.074 199.354C271.888 197.866 272.261 196.191 273.005 194.888C273.191 194.516 273.005 194.144 272.819 193.958C272.633 193.958 272.261 193.958 272.074 194.33Z" fill="#B25B1B"/>
<path d="M270.027 205.682C269.469 206.24 269.097 206.799 268.911 207.543C268.725 208.287 268.725 209.218 269.097 209.962C269.283 210.335 269.655 210.335 270.027 210.148C270.4 209.962 270.4 209.59 270.214 209.218C270.214 209.032 270.214 209.218 270.214 209.218V209.032V208.846C270.214 208.846 270.214 209.032 270.214 208.846C270.214 208.846 270.214 208.846 270.214 208.66C270.214 208.474 270.214 208.287 270.214 208.287C270.214 208.287 270.214 208.287 270.214 208.101C270.214 208.101 270.214 208.287 270.214 208.101V207.915V207.729C270.214 207.543 270.214 207.729 270.214 207.729L270.4 207.357L270.586 207.171C270.586 207.171 270.586 207.357 270.586 207.171C270.772 206.985 270.772 206.985 270.958 206.799C271.144 206.613 271.144 206.054 270.958 205.868C270.772 205.31 270.4 205.31 270.027 205.682Z" fill="#B25B1B"/>
<path d="M272.633 204.193C272.074 204.937 271.702 205.868 272.074 206.798C272.261 207.171 272.633 207.357 272.819 207.171C273.191 206.985 273.377 206.798 273.191 206.426C273.191 206.24 273.191 206.24 273.191 206.054V206.24C273.191 206.054 273.191 205.868 273.191 205.682V205.868C273.191 205.682 273.191 205.496 273.377 205.31V205.496C273.377 205.31 273.563 205.124 273.563 204.937C273.563 204.937 273.563 204.937 273.377 205.124C273.377 205.124 273.377 205.124 273.563 204.937C273.749 204.751 273.749 204.193 273.563 204.007C273.191 204.007 272.819 203.821 272.633 204.193Z" fill="#B25B1B"/>
<path d="M278.587 195.446C277.843 196.749 277.843 198.238 278.587 199.541C278.773 199.913 279.146 199.913 279.518 199.727C279.89 199.541 279.89 199.168 279.704 198.796C279.704 198.796 279.704 198.61 279.518 198.61C279.518 198.61 279.518 198.61 279.518 198.424C279.518 198.238 279.518 198.238 279.332 198.052V197.866C279.332 197.68 279.332 198.052 279.332 197.866C279.332 197.68 279.332 197.494 279.332 197.494V197.307C279.332 197.307 279.332 197.307 279.332 197.121C279.332 196.935 279.332 196.935 279.332 196.749V196.563C279.332 196.563 279.518 196.377 279.332 196.377C279.332 196.191 279.518 196.191 279.518 196.005C279.704 195.633 279.518 195.26 279.332 195.074C279.146 194.888 278.773 195.074 278.587 195.446Z" fill="#B25B1B"/>
<path d="M245.092 189.491C245.65 190.422 246.023 191.538 246.581 192.469C246.767 192.841 247.139 192.841 247.511 192.655C247.883 192.469 247.883 192.097 247.697 191.724C247.139 190.794 246.767 189.677 246.209 188.747C246.023 188.375 245.65 188.375 245.278 188.561C244.906 188.747 244.906 189.119 245.092 189.491Z" fill="#B25B1B"/>
<path d="M249 191.91C249.186 192.283 249.372 192.655 249.558 192.841C249.558 193.027 249.744 193.027 249.93 193.213H250.117H250.303C250.489 193.213 250.489 193.027 250.675 192.841V192.655C250.675 192.469 250.675 192.469 250.675 192.283C250.489 191.91 250.303 191.538 250.117 191.352C250.117 191.166 249.93 191.166 249.744 190.98H249.558H249.372C249.186 190.98 249.186 191.166 249 191.352V191.538C249 191.724 249 191.91 249 191.91Z" fill="#B25B1B"/>
<path d="M253.466 192.097C253.466 192.655 253.652 193.027 253.838 193.585C254.024 193.958 254.396 194.33 254.769 194.702C254.955 194.888 255.141 194.888 255.327 194.702C255.513 194.702 255.699 194.516 255.699 194.33C255.699 194.144 255.885 193.958 255.699 193.772C255.699 193.585 255.513 193.399 255.327 193.399C255.327 193.399 255.327 193.399 255.513 193.585C255.327 193.399 255.141 193.399 255.141 193.213C255.141 193.213 255.141 193.213 255.327 193.399C255.141 193.213 255.141 193.027 254.955 192.841V193.027C254.955 192.841 254.769 192.655 254.769 192.469V192.655C254.769 192.469 254.769 192.469 254.769 192.283C254.769 191.911 254.396 191.538 254.024 191.538C253.652 191.538 253.466 191.724 253.466 192.097Z" fill="#B25B1B"/>
<path d="M230.578 199.727C230.578 200.657 230.578 201.774 230.578 202.704C230.578 203.077 230.95 203.449 231.322 203.449C231.694 203.449 232.066 203.077 232.066 202.704C232.066 201.774 232.066 200.657 232.066 199.727C232.066 199.355 231.694 198.982 231.322 198.982C230.764 198.982 230.578 199.355 230.578 199.727Z" fill="#B25B1B"/>
<path d="M233.555 201.588C233.555 202.146 233.555 202.518 233.555 203.076C233.555 203.263 233.555 203.449 233.741 203.635C233.927 203.821 234.113 203.821 234.299 203.821C234.671 203.821 235.044 203.449 235.044 203.076C235.044 202.518 235.044 202.146 235.044 201.588C235.044 201.402 235.044 201.215 234.858 201.029C234.671 200.843 234.485 200.843 234.299 200.843C233.741 201.029 233.555 201.215 233.555 201.588Z" fill="#B25B1B"/>
<path d="M237.091 201.96C236.905 202.89 237.091 204.007 237.649 204.938C237.835 205.31 238.207 205.31 238.579 205.124C238.951 204.938 238.951 204.565 238.765 204.193L238.579 204.007V203.821V203.635V203.449C238.579 203.263 238.579 203.263 238.579 203.077V202.89C238.579 203.077 238.579 203.077 238.579 202.89C238.579 202.704 238.579 202.704 238.579 202.518C238.579 202.332 238.579 202.332 238.579 202.146V201.96C238.579 201.588 238.393 201.216 238.207 201.216C237.463 201.402 237.091 201.588 237.091 201.96Z" fill="#B25B1B"/>
<path d="M232.625 216.848C235.044 216.848 237.463 216.476 239.882 215.918C240.254 215.918 240.44 215.359 240.254 215.173C240.068 214.801 239.696 214.615 239.51 214.801C237.277 215.359 235.044 215.545 232.625 215.732C231.88 215.545 231.88 216.848 232.625 216.848Z" fill="#B25B1B"/>
<path d="M270.586 225.781C272.261 225.781 273.935 225.781 275.61 225.781C276.54 225.781 276.54 224.478 275.61 224.478C273.935 224.478 272.261 224.478 270.586 224.478C269.655 224.478 269.655 225.781 270.586 225.781Z" fill="#B25B1B"/>
<path d="M230.019 117.098C230.205 117.842 230.392 118.773 230.578 119.517C230.578 119.889 231.136 120.075 231.322 119.889C231.694 119.703 231.88 119.517 231.694 119.145C231.508 118.4 231.322 117.47 231.136 116.725C231.136 116.353 230.578 116.167 230.392 116.353C230.019 116.353 229.833 116.725 230.019 117.098Z" fill="#B25B1B"/>
<path d="M233.927 117.284C233.927 117.842 233.927 118.214 233.927 118.773C233.927 118.959 233.927 119.145 234.113 119.331C234.299 119.517 234.485 119.517 234.672 119.517C235.044 119.517 235.416 119.145 235.416 118.773C235.416 118.214 235.416 117.842 235.416 117.284C235.416 117.098 235.416 116.912 235.23 116.726C235.044 116.54 234.858 116.54 234.672 116.54C234.299 116.726 233.927 116.912 233.927 117.284Z" fill="#B25B1B"/>
<path d="M237.649 118.773C237.835 118.773 237.835 118.959 237.649 118.773C237.835 118.959 237.835 118.773 237.649 118.773C237.835 118.959 237.835 119.145 237.835 119.145V118.959C237.835 119.145 238.021 119.331 238.021 119.517V119.331C238.021 119.517 238.021 119.703 238.021 119.889V119.703C238.021 119.889 238.021 119.889 237.835 120.075C237.835 120.261 237.835 120.448 237.835 120.634C237.835 120.82 238.021 120.82 238.207 121.006C238.393 121.006 238.579 121.006 238.765 121.006C238.951 120.82 238.951 120.82 239.138 120.634C239.51 119.703 239.138 118.587 238.579 118.028C238.393 117.842 237.835 117.842 237.649 118.028C237.463 118.028 237.463 118.587 237.649 118.773Z" fill="#B25B1B"/>
<path d="M226.112 102.582C226.298 103.326 226.484 103.885 226.67 104.629C226.67 105.001 227.228 105.187 227.414 105.001C227.786 104.815 227.972 104.629 227.786 104.257C227.6 103.512 227.414 102.954 227.228 102.21C227.228 101.837 226.67 101.651 226.484 101.837C226.112 101.837 225.926 102.21 226.112 102.582Z" fill="#B25B1B"/>
<path d="M220.715 106.676C221.273 107.42 221.646 108.351 222.204 109.095C222.39 109.468 222.762 109.468 223.134 109.281C223.506 109.095 223.506 108.723 223.32 108.351C222.762 107.607 222.39 106.676 221.832 105.932C221.646 105.559 221.273 105.559 220.901 105.746C220.529 105.932 220.529 106.304 220.715 106.676Z" fill="#B25B1B"/>
<path d="M233.183 109.281C233.741 109.84 234.113 110.212 234.672 110.77C234.858 110.956 235.044 110.956 235.23 110.956C235.416 110.956 235.602 110.956 235.788 110.77C235.974 110.584 235.974 110.398 235.974 110.212C235.974 110.026 235.974 109.84 235.788 109.654C235.23 109.095 234.858 108.723 234.299 108.165C234.113 107.979 233.927 107.979 233.741 107.979C233.555 107.979 233.369 107.979 233.183 108.165C232.997 108.351 232.997 108.537 232.997 108.723C232.997 109.095 232.997 109.281 233.183 109.281Z" fill="#B25B1B"/>
<path d="M268.353 146.688C268.911 147.618 269.469 148.549 270.027 149.665C270.214 150.038 270.586 150.038 270.958 149.851C271.33 149.665 271.33 149.293 271.144 148.921C270.586 147.99 270.027 147.06 269.469 145.943C269.283 145.571 268.911 145.571 268.539 145.757C268.353 145.943 268.167 146.316 268.353 146.688Z" fill="#B25B1B"/>
<path d="M273.005 148.177C273.377 148.735 273.749 149.107 273.935 149.665C274.121 149.852 274.121 149.852 274.307 150.038C274.494 150.038 274.68 150.038 274.866 150.038C275.052 150.038 275.052 149.852 275.238 149.665C275.238 149.479 275.238 149.293 275.238 149.107C274.866 148.549 274.494 148.177 274.307 147.618C274.121 147.432 274.121 147.432 273.935 147.246C273.749 147.246 273.563 147.246 273.377 147.246C273.191 147.246 273.191 147.432 273.005 147.618C272.819 147.804 272.819 147.99 273.005 148.177Z" fill="#B25B1B"/>
<path d="M289.194 143.71C292.544 145.944 296.079 148.363 299.429 150.596C300.359 151.34 301.29 151.899 302.406 152.643C302.778 152.829 303.15 152.643 303.337 152.457C303.523 152.085 303.337 151.713 303.15 151.527C299.801 149.293 296.265 146.874 292.916 144.641C291.985 143.896 291.055 143.338 289.939 142.594C289.566 142.408 289.194 142.594 289.008 142.78C288.822 142.966 288.822 143.338 289.194 143.71Z" fill="#93674A"/>
<path d="M292.73 141.291C296.079 143.152 299.429 145.199 302.778 147.06C303.709 147.618 304.639 148.177 305.57 148.735C306.314 149.107 307.058 147.99 306.314 147.618C302.964 145.757 299.615 143.71 296.265 141.849C295.335 141.291 294.405 140.733 293.474 140.174C292.73 139.616 291.985 140.919 292.73 141.291Z" fill="#93674A"/>
<path d="M294.218 138.313C297.94 140.174 301.848 141.849 305.57 143.152C306.686 143.524 307.803 143.896 308.919 144.269C309.291 144.455 309.663 144.082 309.663 143.896C309.85 143.524 309.477 143.152 309.291 143.152C305.384 141.849 301.662 140.36 297.94 138.686C296.824 138.127 295.893 137.755 294.777 137.197C294.405 137.011 294.032 137.197 293.846 137.383C293.846 137.569 293.846 138.127 294.218 138.313Z" fill="#93674A"/>
<path d="M294.405 135.708C293.474 138.313 291.613 140.547 289.194 142.035C288.45 142.408 287.892 142.78 287.147 143.152C286.775 143.338 286.589 143.524 286.775 143.896C286.775 144.269 287.333 144.455 287.519 144.269C290.497 143.152 292.916 140.919 294.591 138.313C294.963 137.569 295.521 136.825 295.707 135.894C295.893 135.522 295.521 135.15 295.335 135.15C294.777 135.15 294.591 135.336 294.405 135.708Z" fill="#93674A"/>
<path d="M262.398 125.472C262.956 128.636 264.259 131.614 266.12 134.219C266.678 134.963 267.236 135.708 267.981 136.266C268.539 136.824 269.469 135.894 268.911 135.336C266.864 133.102 265.189 130.497 264.259 127.705C264.073 126.775 263.887 126.031 263.701 125.1C263.701 124.728 263.142 124.542 262.956 124.728C262.584 124.914 262.398 125.286 262.398 125.472Z" fill="#93674A"/>
<path d="M257.932 151.713C255.885 156.179 253.652 160.459 251.419 164.554C249 168.834 246.581 172.742 243.79 176.836C242.301 179.07 240.626 181.303 238.951 183.35C238.765 183.722 238.951 184.094 239.138 184.28C239.51 184.466 239.882 184.28 240.068 184.094C243.045 180.186 245.65 176.278 248.256 172.184C250.861 168.09 253.28 163.995 255.513 159.715C256.816 157.296 257.932 154.876 259.049 152.457C259.235 152.085 259.049 151.713 258.862 151.527C258.676 151.34 258.118 151.34 257.932 151.713Z" fill="#93674A"/>
<path d="M303.523 156.737C306.872 156.923 310.222 157.854 313.199 159.529C316.176 161.204 318.782 163.623 320.642 166.415C321.759 167.903 322.503 169.764 323.061 171.439C323.248 171.812 323.806 171.625 323.62 171.253C322.503 167.903 320.642 164.926 318.223 162.506C315.804 160.087 312.641 158.226 309.291 157.11C307.43 156.551 305.383 156.179 303.523 155.993C302.964 155.993 302.964 156.551 303.523 156.737Z" fill="#822227"/>
<path d="M214.76 176.092C215.505 172.184 216.807 168.276 218.296 164.554C218.668 163.437 219.227 162.32 219.599 161.39C219.785 161.018 219.226 160.645 219.04 161.018C217.366 164.74 215.877 168.648 214.947 172.556C214.574 173.673 214.388 174.789 214.202 175.906C214.016 176.278 214.76 176.464 214.76 176.092Z" fill="#822227"/>
<path d="M164.146 226.711C164.89 226.153 165.448 225.781 166.193 225.223C166.379 225.037 166.379 225.037 166.565 224.85C166.565 224.664 166.565 224.478 166.565 224.292C166.565 224.106 166.379 224.106 166.193 223.92C166.006 223.92 165.82 223.92 165.634 223.92C164.89 224.478 164.332 224.85 163.587 225.409C163.401 225.595 163.401 225.595 163.215 225.781C163.215 225.967 163.215 226.153 163.215 226.339C163.215 226.525 163.401 226.525 163.587 226.711C163.773 226.711 164.146 226.711 164.146 226.711Z" fill="#354077"/>
<path d="M166.193 233.039C166.565 232.853 166.937 232.667 167.123 232.481C167.309 232.481 167.309 232.295 167.495 232.108V231.922V231.736C167.495 231.55 167.309 231.55 167.123 231.364H166.937C166.751 231.364 166.751 231.364 166.565 231.364C166.193 231.55 165.82 231.736 165.634 231.922C165.448 231.922 165.448 232.108 165.262 232.295V232.481V232.667C165.262 232.853 165.448 232.853 165.634 233.039H165.82C166.006 233.225 166.006 233.225 166.193 233.039Z" fill="#354077"/>
<path d="M141.071 238.25C142.002 238.064 142.932 237.319 143.49 236.575C143.676 236.203 143.49 235.83 143.304 235.644C142.932 235.458 142.56 235.644 142.374 235.83C142.374 236.016 142.188 236.016 142.188 236.203C142.188 236.203 142.188 236.203 142.374 236.016C142.188 236.203 142.002 236.389 141.816 236.575C141.816 236.575 141.816 236.575 142.002 236.389C141.816 236.575 141.629 236.761 141.257 236.761H141.443C141.257 236.761 141.071 236.947 140.885 236.947C140.699 236.947 140.513 237.133 140.513 237.319C140.513 237.505 140.327 237.691 140.513 237.877C140.327 238.25 140.699 238.436 141.071 238.25Z" fill="#354077"/>
</svg>
