<svg width="425" height="333" viewBox="0 0 425 333" fill="none" xmlns="http://www.w3.org/2000/svg">
<path d="M63.6592 51.7819C33.7167 79.4186 12.6732 116.372 3.98364 156.152C-1.56514 181.486 -1.98392 208.39 7.01977 232.677C16.0235 256.963 35.2872 278.11 60.0996 285.438C86.5872 293.289 114.855 284.914 142.18 280.622C169.505 276.33 201.646 277.796 219.234 299.151C227.401 308.992 231.798 322.496 242.895 328.882C256.506 336.733 273.675 330.347 287.39 322.705C350.835 287.531 399.099 225.977 418.048 155.943C425.586 128.306 428.518 98.2618 418.991 71.2532C412.186 52.2006 397.947 34.509 379.416 25.8202C357.221 15.4564 334.084 21.6328 312.412 30.3216C292.102 38.487 266.975 50.5257 245.094 41.5228C229.599 35.1371 221.014 20.7953 208.556 10.5362C194.945 -0.56032 177.776 -0.979058 161.234 2.16148C137.259 6.55822 113.494 16.5032 92.9735 29.3794C82.5041 35.8699 72.6629 43.4071 63.6592 51.7819Z" fill="#F0C6B6"/>
<path d="M223.605 259.741C227.755 262.773 232.223 265.805 237.011 267.561C247.703 271.391 260.311 268.997 268.769 261.496C261.269 264.688 252.332 264.688 244.99 261.177C237.649 257.666 231.904 250.963 229.67 242.984L223.605 259.741Z" fill="#663304"/>
<path d="M263.982 268.678C270.525 269.476 292.389 271.71 298.772 270.433C304.837 269.156 310.901 266.763 315.689 261.975C323.988 253.517 327.339 238.196 324.945 224.631C322.551 211.225 309.465 175.317 300.368 168.136L263.982 268.678Z" fill="#EFA02A"/>
<path d="M247.544 9.98167L241.639 7.10905C234.617 3.91724 226.478 3.59806 219.137 6.31109C214.189 2.16174 207.167 1.04461 200.784 2.80011C194.4 4.5556 188.974 8.38577 184.506 13.0139C182.591 15.0886 180.835 17.3228 178.282 18.5996C175.728 20.0359 172.696 20.5146 169.823 21.153C163.28 22.7489 157.056 25.9407 152.109 30.5688C150.832 31.8456 149.555 33.1223 148.757 34.8778C147.959 37.112 148.279 39.6655 148.757 42.0593C150.034 49.0813 151.79 57.0608 147.959 63.1253C145.566 66.9554 136.15 67.5938 130.883 79.7227C128.809 84.5104 131.362 93.4474 131.362 98.7139C131.362 104.3 127.532 108.928 124.021 113.077C118.435 120.099 112.85 128.398 113.488 137.494C114.126 146.751 121.148 154.251 128.17 160.316C135.99 167.019 145.725 173.243 155.779 171.328C160.088 170.53 163.918 168.295 168.068 166.699C177.324 163.029 187.857 162.869 197.273 166.061C208.763 170.051 218.977 178.988 231.106 178.509C241.639 178.03 251.534 170.37 262.067 172.125C265.418 172.764 268.45 174.2 271.802 174.839C280.739 176.275 289.037 170.53 296.219 164.944C297.336 164.146 298.453 163.188 299.251 161.912C300.049 160.635 300.049 159.039 300.209 157.603C300.847 150.74 301.326 143.24 297.815 137.335C293.346 129.515 281.537 111.322 283.771 102.704C290.154 78.1268 271.482 68.3918 270.365 65.8383C267.333 58.4971 271.642 50.358 272.6 42.3785C273.717 33.2819 269.886 23.866 263.024 17.9612C258.396 14.131 252.012 13.6523 247.544 9.98167C230.787 -4.06228 247.544 9.98167 247.544 9.98167Z" fill="#060807"/>
<path d="M254.087 80.5207C254.247 79.5631 255.204 78.9248 256.162 78.6056C257.119 78.446 258.077 78.6056 259.034 78.9248C263.184 80.5207 265.737 85.6276 264.62 90.0961C263.503 94.405 258.875 97.5968 254.406 97.2777C253.608 93.4475 253.13 89.4577 253.13 85.468L254.087 80.5207Z" fill="#E5B595"/>
<path d="M256.641 36.3142C256.641 55.3055 256.162 81.6379 255.204 100.629C255.045 103.502 256.641 114.035 254.247 115.79C248.821 119.78 230.946 118.982 225.68 118.822C226.478 126.962 227.276 136.218 228.074 144.357C228.074 145.155 228.233 145.953 227.755 146.591C227.276 147.389 226.159 147.549 225.361 147.708C215.945 149.145 206.37 149.464 196.794 148.985C195.677 133.824 194.879 118.663 194.241 103.502C190.251 106.694 184.346 107.332 180.037 104.778C175.728 102.225 173.334 96.6394 174.771 91.6921C176.207 86.9044 181.633 83.553 186.58 84.5105C185.623 72.5412 187.538 53.2308 186.58 41.2615C207.806 36.3142 256.641 36.3142 256.641 36.3142Z" fill="#FBC9A4"/>
<path opacity="0.56" d="M225.68 118.982L202.38 115.79L226.797 130.153L225.68 118.982Z" fill="#C69471"/>
<path d="M184.825 84.5104C190.889 83.3933 196.156 79.2439 199.188 73.9775C202.22 68.711 203.337 69.3493 203.178 63.2849C203.178 61.2102 203.178 58.6568 204.933 57.8588C205.731 57.3801 206.848 57.5396 207.806 57.5396C214.828 58.178 223.127 58.976 228.074 53.7095C231.266 50.1985 232.383 44.4532 236.692 42.3786C242.118 39.8251 248.98 44.6128 254.247 41.7402C249.938 49.5601 251.853 60.2527 258.556 66.1575C260.471 55.6246 261.588 44.932 261.907 34.2395C261.907 32.484 261.907 30.5689 260.79 29.2922C259.513 27.8558 257.279 27.6962 255.364 27.5367C233.34 27.0579 211.476 27.5367 189.613 29.2922C187.697 29.4517 185.623 29.6113 183.867 30.5689C180.516 32.484 179.399 36.4737 178.76 40.1443C175.728 57.2205 177.165 68.0726 183.229 84.5104H184.825Z" fill="#060807"/>
<path d="M180.676 98.0758C181.952 96.9586 183.229 96.0011 184.665 94.884C184.825 94.7244 184.825 94.2456 184.665 94.086C184.506 93.9264 184.027 93.9264 183.867 94.086C182.591 95.2031 181.314 96.1607 179.878 97.2778C179.718 97.4374 179.718 97.9162 179.878 98.0758C180.037 98.2354 180.356 98.2354 180.676 98.0758Z" fill="#93674A"/>
<path d="M180.037 91.3729C182.271 92.4901 184.186 94.4052 185.623 96.4798C185.942 97.1182 186.261 97.7566 186.58 98.3949C186.74 98.7141 186.899 98.8737 187.219 98.7141C187.538 98.7141 187.697 98.2353 187.538 98.0757C186.421 95.5223 184.665 93.288 182.431 91.5325C181.793 91.0538 181.154 90.7346 180.516 90.2558C180.197 90.0962 179.878 90.2558 179.718 90.4154C179.718 90.8942 179.878 91.3729 180.037 91.3729Z" fill="#93674A"/>
<path d="M264.301 27.8557C267.812 30.5688 269.089 34.8777 269.408 39.1867C269.727 43.6552 269.089 48.2833 268.929 52.7518C268.769 57.2204 269.089 62.0081 271.482 65.8382C272.759 67.9129 274.355 69.3492 276.27 70.7855C278.185 72.2219 280.419 73.339 282.015 75.0945C285.367 78.4459 286.005 83.3932 286.165 87.8617C286.165 92.4898 285.526 97.118 285.846 101.586C286.165 105.895 287.282 110.204 290.474 113.237C292.229 114.992 294.463 115.95 296.698 117.067C298.932 118.024 301.007 119.141 302.762 120.897C310.742 128.398 310.422 140.207 308.827 150.102C308.507 151.538 308.348 152.975 308.029 154.411C307.869 155.049 308.986 155.368 309.146 154.73C311.22 144.516 312.816 132.866 306.592 123.77C305.316 121.854 303.72 120.259 301.964 118.822C299.89 117.386 297.655 116.428 295.421 115.311C293.346 114.194 291.272 112.917 289.995 110.843C288.718 109.087 288.08 107.013 287.601 104.778C285.846 95.8412 289.676 85.9466 285.367 77.4883C284.25 75.4137 282.654 73.6582 280.898 72.3815C278.983 70.9451 276.749 69.6684 274.993 68.0725C271.482 64.7211 270.525 60.093 270.365 55.4649C270.206 50.8368 271.004 46.2086 270.844 41.5805C270.684 37.2716 270.046 32.803 267.493 29.2921C266.854 28.4941 266.056 27.6961 265.258 27.0578C264.62 26.579 263.822 27.377 264.301 27.8557Z" fill="#060807"/>
<path d="M161.844 26.26C156.737 29.6114 151.63 33.1224 147.959 38.0697C146.364 40.4636 145.087 43.017 144.448 45.8897C143.81 48.9219 144.289 51.7945 145.087 54.6671C145.725 57.5398 146.364 60.572 145.566 63.4446C144.927 65.8385 143.491 68.0727 141.895 69.9878C138.384 73.9776 133.756 76.6906 129.607 79.8824C125.617 82.9146 121.627 86.5852 120.191 91.3729C119.393 93.9264 119.552 96.6394 120.191 99.3524C120.829 102.225 122.106 104.938 122.744 107.651C123.383 110.045 123.383 112.598 122.585 114.992C121.946 117.067 120.829 118.822 119.552 120.578C116.68 124.249 113.169 127.281 110.137 130.632C107.104 134.143 104.71 138.133 104.391 142.921C104.072 147.868 105.508 152.815 108.7 156.645C109.498 157.603 110.296 158.401 111.254 159.199C111.892 159.678 112.69 158.88 112.052 158.401C108.221 155.369 105.987 150.581 105.508 145.793C105.349 143.399 105.668 141.006 106.466 138.612C107.264 136.537 108.541 134.462 109.817 132.707C112.69 129.196 116.201 126.164 119.074 122.812C121.787 119.62 124.18 115.95 124.34 111.641C124.5 105.896 120.829 100.948 120.829 95.2031C120.829 89.9366 124.34 85.7872 128.17 82.5954C132.16 79.244 136.788 76.6906 140.618 73.1796C144.289 69.8282 147.321 65.6789 147.321 60.572C147.321 57.3802 146.204 54.5075 145.725 51.4753C145.246 48.6027 145.725 45.5705 146.842 42.8574C149.236 37.2718 154.024 33.1224 158.812 29.771C160.088 28.9731 161.205 28.1751 162.482 27.2176C162.961 26.8984 162.482 25.9409 161.844 26.26Z" fill="#060807"/>
<path d="M241.958 82.2763C241.799 82.2763 241.799 82.2763 241.639 82.2763C241.32 81.638 241.16 80.9996 241.16 80.2017C241.16 77.9674 242.437 76.2119 243.873 76.2119C245.31 76.2119 246.586 77.9674 246.586 80.2017C246.586 81.1592 246.267 82.1168 245.948 82.7551C244.831 82.2763 243.394 82.1168 241.958 82.2763Z" fill="#060807"/>
<path d="M229.67 72.0625C230.627 75.0947 231.585 78.1269 233.021 80.9996C234.457 83.8722 236.053 86.5852 238.288 88.8195C239.564 90.0962 240.841 91.2133 242.277 92.1709C242.277 91.8517 242.277 91.5325 242.118 91.2133C240.841 92.4901 239.405 93.6072 237.809 94.2456C237.49 94.4051 237.33 94.5647 237.49 94.8839C237.49 95.2031 237.968 95.3627 238.128 95.2031C240.043 94.4051 241.639 93.288 243.075 91.8517C243.395 91.5325 243.235 91.2133 242.916 90.8942C240.362 89.2983 238.288 87.064 236.532 84.5105C234.777 81.9571 233.5 79.0845 232.383 76.2118C231.744 74.6159 231.266 72.8604 230.787 71.2645C230.627 71.105 229.51 71.4241 229.67 72.0625Z" fill="#93674A"/>
<path d="M220.254 95.0434C219.456 97.4373 220.892 100.15 223.446 100.629C223.925 100.789 224.244 100.789 224.722 100.629C227.116 100.469 229.031 98.0756 228.872 95.6818C228.872 94.8838 228.553 94.0859 227.914 93.6071C227.276 93.1283 226.478 92.8092 225.68 93.1283C225.361 93.2879 224.882 93.6071 224.563 93.4475C224.244 93.2879 224.084 92.9687 223.765 92.6496C223.286 92.0112 222.488 91.692 221.85 92.0112C221.211 92.1708 220.573 92.9687 220.573 93.6071L220.254 95.0434Z" fill="#B03537"/>
<path d="M218.179 91.3728C219.775 95.203 223.605 98.0756 227.755 98.714C229.031 98.8736 230.149 98.8736 231.425 98.714C231.744 98.714 231.904 98.2352 231.744 98.0756C231.585 97.7564 231.425 97.5969 231.106 97.7564C230.308 97.916 229.191 97.916 228.233 97.7564C227.276 97.5969 226.318 97.4373 225.361 96.9585C223.605 96.3201 222.009 95.0434 220.733 93.6071C220.094 92.8091 219.456 91.8516 218.977 90.8941C218.818 90.5749 218.498 90.5749 218.179 90.7345C218.02 90.7345 218.02 91.0536 218.179 91.3728Z" fill="#93674A"/>
<path d="M245.469 61.8486C248.821 62.487 251.693 64.8808 253.129 67.9131C251.214 67.2747 249.299 66.6363 247.384 65.998C246.427 65.6788 245.629 65.3596 244.831 64.8809C244.512 64.7213 244.192 64.4021 244.033 64.0829C243.554 63.4445 243.873 62.487 244.512 62.0082C244.671 61.8486 244.99 61.8486 245.469 61.8486Z" fill="#060807"/>
<path d="M194.241 131.589C203.816 139.569 219.616 138.771 228.393 129.834C229.351 132.707 230.308 135.579 231.425 138.611C231.744 139.569 232.223 140.686 233.021 141.484C234.138 142.442 235.894 142.601 237.33 142.601C244.99 142.761 252.651 143.08 260.311 143.24C264.939 143.399 269.408 143.559 273.876 144.676C282.973 147.07 290.314 153.932 296.219 161.114C305.954 172.923 313.295 186.648 317.604 201.33C319.998 209.31 321.275 218.566 316.487 225.429C314.572 228.301 311.699 230.376 308.667 232.291C300.687 237.557 291.91 241.547 282.813 244.101C274.674 246.335 266.376 247.612 258.077 248.729C247.703 250.165 237.33 251.601 226.957 253.038C220.573 253.995 219.935 259.581 213.551 259.9C207.167 260.219 195.358 255.112 188.974 254.953C169.504 253.995 56.5142 318.47 114.286 195.266C123.063 175.956 135.671 158.241 151.47 144.038C154.183 141.484 157.056 139.09 160.567 137.494C170.781 132.866 183.389 137.175 193.602 132.547L194.241 131.589Z" fill="#EFA02A"/>
<path d="M164.238 154.89C165.736 154.89 166.951 153.675 166.951 152.177C166.951 150.678 165.736 149.464 164.238 149.464C162.739 149.464 161.525 150.678 161.525 152.177C161.525 153.675 162.739 154.89 164.238 154.89Z" fill="white"/>
<path d="M186.58 175.477C188.079 175.477 189.293 174.262 189.293 172.764C189.293 171.266 188.079 170.051 186.58 170.051C185.082 170.051 183.867 171.266 183.867 172.764C183.867 174.262 185.082 175.477 186.58 175.477Z" fill="white"/>
<path d="M203.656 154.571C205.155 154.571 206.369 153.356 206.369 151.858C206.369 150.359 205.155 149.145 203.656 149.145C202.158 149.145 200.943 150.359 200.943 151.858C200.943 153.356 202.158 154.571 203.656 154.571Z" fill="white"/>
<path d="M255.843 175.477C257.341 175.477 258.556 174.262 258.556 172.764C258.556 171.266 257.341 170.051 255.843 170.051C254.344 170.051 253.13 171.266 253.13 172.764C253.13 174.262 254.344 175.477 255.843 175.477Z" fill="white"/>
<path d="M264.301 155.369C265.799 155.369 267.014 154.154 267.014 152.656C267.014 151.157 265.799 149.943 264.301 149.943C262.802 149.943 261.588 151.157 261.588 152.656C261.588 154.154 262.802 155.369 264.301 155.369Z" fill="white"/>
<path d="M283.93 169.413C285.429 169.413 286.643 168.198 286.643 166.7C286.643 165.201 285.429 163.987 283.93 163.987C282.432 163.987 281.217 165.201 281.217 166.7C281.217 168.198 282.432 169.413 283.93 169.413Z" fill="white"/>
<path d="M155.779 208.034C157.278 208.034 158.492 206.819 158.492 205.32C158.492 203.822 157.278 202.607 155.779 202.607C154.281 202.607 153.066 203.822 153.066 205.32C153.066 206.819 154.281 208.034 155.779 208.034Z" fill="white"/>
<path d="M143.65 184.414C145.149 184.414 146.364 183.199 146.364 181.701C146.364 180.202 145.149 178.988 143.65 178.988C142.152 178.988 140.937 180.202 140.937 181.701C140.937 183.199 142.152 184.414 143.65 184.414Z" fill="white"/>
<path d="M120.669 222.077C122.168 222.077 123.383 220.863 123.383 219.364C123.383 217.866 122.168 216.651 120.669 216.651C119.171 216.651 117.956 217.866 117.956 219.364C117.956 220.863 119.171 222.077 120.669 222.077Z" fill="white"/>
<path d="M146.364 246.016C147.862 246.016 149.077 244.801 149.077 243.303C149.077 241.805 147.862 240.59 146.364 240.59C144.865 240.59 143.65 241.805 143.65 243.303C143.65 244.801 144.865 246.016 146.364 246.016Z" fill="white"/>
<path d="M189.453 230.695C190.951 230.695 192.166 229.48 192.166 227.982C192.166 226.484 190.951 225.269 189.453 225.269C187.955 225.269 186.74 226.484 186.74 227.982C186.74 229.48 187.955 230.695 189.453 230.695Z" fill="white"/>
<path d="M181.314 203.565C182.812 203.565 184.027 202.35 184.027 200.852C184.027 199.353 182.812 198.139 181.314 198.139C179.815 198.139 178.601 199.353 178.601 200.852C178.601 202.35 179.815 203.565 181.314 203.565Z" fill="white"/>
<path d="M221.052 243.462C222.55 243.462 223.765 242.248 223.765 240.749C223.765 239.251 222.55 238.036 221.052 238.036C219.553 238.036 218.339 239.251 218.339 240.749C218.339 242.248 219.553 243.462 221.052 243.462Z" fill="white"/>
<path d="M223.765 219.365C225.263 219.365 226.478 218.15 226.478 216.652C226.478 215.153 225.263 213.938 223.765 213.938C222.266 213.938 221.052 215.153 221.052 216.652C221.052 218.15 222.266 219.365 223.765 219.365Z" fill="white"/>
<path d="M212.115 198.298C213.613 198.298 214.828 197.083 214.828 195.585C214.828 194.087 213.613 192.872 212.115 192.872C210.616 192.872 209.402 194.087 209.402 195.585C209.402 197.083 210.616 198.298 212.115 198.298Z" fill="white"/>
<path d="M230.787 172.764C232.285 172.764 233.5 171.549 233.5 170.051C233.5 168.552 232.285 167.338 230.787 167.338C229.288 167.338 228.074 168.552 228.074 170.051C228.074 171.549 229.288 172.764 230.787 172.764Z" fill="white"/>
<path d="M238.128 155.369C239.626 155.369 240.841 154.154 240.841 152.656C240.841 151.157 239.626 149.943 238.128 149.943C236.63 149.943 235.415 151.157 235.415 152.656C235.415 154.154 236.63 155.369 238.128 155.369Z" fill="white"/>
<path d="M277.547 195.266C279.045 195.266 280.26 194.051 280.26 192.553C280.26 191.055 279.045 189.84 277.547 189.84C276.048 189.84 274.834 191.055 274.834 192.553C274.834 194.051 276.048 195.266 277.547 195.266Z" fill="white"/>
<path d="M301.964 184.414C303.462 184.414 304.677 183.199 304.677 181.701C304.677 180.202 303.462 178.988 301.964 178.988C300.466 178.988 299.251 180.202 299.251 181.701C299.251 183.199 300.466 184.414 301.964 184.414Z" fill="white"/>
<path d="M311.54 213.619C313.038 213.619 314.253 212.405 314.253 210.906C314.253 209.408 313.038 208.193 311.54 208.193C310.041 208.193 308.827 209.408 308.827 210.906C308.827 212.405 310.041 213.619 311.54 213.619Z" fill="white"/>
<path d="M253.129 210.906C254.628 210.906 255.843 209.691 255.843 208.193C255.843 206.695 254.628 205.48 253.129 205.48C251.631 205.48 250.416 206.695 250.416 208.193C250.416 209.691 251.631 210.906 253.129 210.906Z" fill="white"/>
<path d="M258.715 240.749C260.214 240.749 261.428 239.535 261.428 238.036C261.428 236.538 260.214 235.323 258.715 235.323C257.217 235.323 256.002 236.538 256.002 238.036C256.002 239.535 257.217 240.749 258.715 240.749Z" fill="white"/>
<path d="M283.452 227.982C284.95 227.982 286.165 226.768 286.165 225.269C286.165 223.771 284.95 222.556 283.452 222.556C281.953 222.556 280.739 223.771 280.739 225.269C280.739 226.768 281.953 227.982 283.452 227.982Z" fill="white"/>
<path d="M314.093 238.196C315.591 238.196 316.806 236.981 316.806 235.483C316.806 233.984 315.591 232.77 314.093 232.77C312.595 232.77 311.38 233.984 311.38 235.483C311.38 236.981 312.595 238.196 314.093 238.196Z" fill="white"/>
<path d="M292.389 259.102C293.887 259.102 295.102 257.888 295.102 256.389C295.102 254.891 293.887 253.676 292.389 253.676C290.89 253.676 289.676 254.891 289.676 256.389C289.676 257.888 290.89 259.102 292.389 259.102Z" fill="white"/>
<path d="M115.243 261.656C116.742 261.656 117.956 260.441 117.956 258.943C117.956 257.445 116.742 256.23 115.243 256.23C113.745 256.23 112.53 257.445 112.53 258.943C112.53 260.441 113.745 261.656 115.243 261.656Z" fill="white"/>
<path d="M186.261 190.798C194.56 183.297 207.327 181.861 217.7 185.85C225.042 188.723 230.308 191.755 234.138 197.022C237.33 201.331 242.916 203.086 247.863 201.49L256.481 198.618C249.14 192.553 258.077 185.531 261.747 186.17L267.173 208.033C259.513 210.108 252.332 213.46 245.788 217.768C244.033 218.886 241.639 218.726 240.043 217.29C236.851 214.417 232.383 212.821 228.074 213.3C221.371 213.938 215.945 218.566 210.04 221.918C204.295 225.269 196.315 227.184 191.208 222.716C187.538 219.364 186.899 213.938 186.421 208.991C185.942 203.246 185.623 197.66 185.144 191.915L186.261 190.798Z" fill="#663304"/>
<path d="M106.785 250.006C107.264 255.911 112.371 260.539 117.956 262.454C123.542 264.209 129.607 263.731 135.352 262.613C137.426 262.135 139.661 261.656 141.416 260.539C144.448 258.464 146.044 254.794 147.161 251.283C148.119 248.091 148.917 244.739 149.555 241.388C139.501 243.303 129.287 244.739 119.074 245.378L106.785 250.006Z" fill="#B77115"/>
<path d="M152.588 143.399C144.768 157.603 138.384 172.923 136.629 189.042C134.873 205.161 138.224 222.237 148.119 235.164C159.29 249.367 178.441 257.028 196.315 254.155C207.008 252.399 225.999 248.25 232.542 239.632C239.086 231.014 232.542 217.768 228.553 207.714C225.042 198.617 217.062 192.074 209.242 186.329C207.487 185.052 205.731 183.616 204.614 181.701C203.816 180.105 203.656 178.349 203.337 176.594C202.539 169.572 201.901 162.55 201.103 155.368C200.943 154.251 200.784 152.975 199.826 152.336C198.869 151.857 197.752 152.177 196.635 152.496C185.304 156.805 172.058 155.368 161.525 149.144L152.588 143.399Z" fill="#A05204"/>
<path d="M184.027 164.784C185.623 176.754 189.772 188.723 197.911 197.5C206.05 206.278 218.658 211.544 230.468 208.991C224.882 201.49 219.296 193.83 211.955 187.765C209.402 185.691 206.689 183.776 204.454 181.541C198.869 175.477 197.113 166.699 195.837 158.56L184.027 164.784Z" fill="white"/>
<path d="M198.55 159.039C202.539 156.805 206.37 154.252 210.04 151.379C212.594 149.464 214.987 147.23 215.945 144.197C217.062 140.846 216.264 137.175 215.307 133.664C212.434 122.972 207.965 111.003 197.752 106.694C190.57 103.821 182.431 105.417 175.09 107.651C169.504 109.247 163.759 111.162 159.45 115.152C157.375 117.067 155.779 119.301 154.503 121.695C148.438 133.345 151.63 149.145 161.684 157.603C171.898 166.061 188.017 166.061 198.23 157.763L198.55 159.039Z" fill="#A05204"/>
<path d="M207.008 113.875C205.412 105.736 203.656 97.4372 202.061 89.2981C194.879 93.2879 188.815 99.3523 185.144 106.693C192.964 107.811 200.465 110.683 207.008 115.152V113.875Z" fill="#A05204"/>
<path d="M161.684 115.311C152.109 113.077 141.257 112.918 133.596 118.982C139.82 124.887 146.044 130.632 152.268 136.537C154.503 129.036 157.854 122.014 162.163 115.471C162.323 115.152 162.482 114.833 162.323 114.514C162.003 114.354 161.844 114.992 162.163 114.833L161.684 115.311Z" fill="#A05204"/>
<path d="M185.782 105.417C183.229 107.97 182.112 112.279 181.633 115.95C181.154 119.621 182.591 123.451 185.623 125.525C187.538 126.802 189.932 127.121 192.006 127.76C196.635 129.196 200.943 131.749 204.135 135.42C205.731 137.175 207.008 139.091 207.008 141.484C207.168 145.315 203.657 148.028 200.624 150.262C195.039 154.092 188.815 157.603 182.112 158.401C177.324 158.88 171.579 157.443 169.823 152.815C168.547 149.304 170.143 145.474 172.377 142.442C174.451 139.41 177.165 136.537 178.282 133.026C179.718 128.398 178.122 122.972 174.93 119.301C171.738 115.631 167.27 114.194 162.482 113.077C169.504 108.449 177.484 105.736 185.782 105.417Z" fill="white"/>
<path d="M184.665 136.377C184.665 137.973 184.825 139.729 186.421 140.527C187.219 141.006 188.176 140.686 188.655 140.048C189.453 138.771 187.697 137.495 188.655 136.058C188.974 135.58 189.453 135.42 189.932 135.26C190.57 135.26 191.208 135.42 191.687 135.58C192.804 136.218 194.241 135.101 194.081 133.824C194.081 133.505 193.921 133.186 193.762 132.866C192.964 131.749 191.528 131.43 190.091 131.271C187.059 131.111 183.867 131.909 181.473 133.824C180.516 134.622 179.558 135.739 179.558 137.016C179.718 138.293 181.314 139.41 182.271 138.452C183.069 137.654 183.069 135.899 184.186 136.218L184.665 136.377Z" fill="#060807"/>
<path d="M201.741 139.888C201.901 141.963 200.305 143.718 198.55 144.516C196.315 145.474 193.762 144.836 191.687 143.718C191.049 143.399 190.57 143.08 189.772 142.921C189.293 142.921 188.655 143.08 188.176 143.24C187.219 143.878 186.58 144.836 185.942 145.793C184.825 147.549 183.069 149.304 180.995 149.942C179.08 150.421 176.526 149.942 175.569 148.027C175.249 147.389 174.292 148.027 174.611 148.666C175.728 150.581 177.962 151.538 180.197 151.379C182.591 151.219 184.665 149.623 186.102 147.708C186.421 147.229 186.9 146.751 187.219 146.272C187.538 145.793 187.857 145.474 188.176 144.995C188.495 144.676 188.815 144.357 189.293 144.197C189.453 144.197 189.772 144.197 189.932 144.197C190.251 144.357 190.411 144.357 190.73 144.516C191.847 145.155 193.124 145.634 194.4 145.953C195.677 146.112 197.113 146.112 198.39 145.634C200.784 144.836 202.859 142.442 202.699 139.729C202.699 139.41 202.38 139.09 202.061 139.09C202.061 139.41 201.741 139.569 201.741 139.888Z" fill="black"/>
<path d="M198.23 138.771V138.612V138.452C198.23 138.452 198.23 138.293 198.071 138.293L197.911 138.133H197.752H197.592C197.432 138.133 197.432 138.133 197.273 138.293C197.273 138.293 197.273 138.293 197.113 138.452C197.113 138.612 197.113 138.612 197.113 138.771V138.931V139.091C197.113 139.091 197.113 139.25 197.273 139.25L197.432 139.41H197.592H197.752C197.911 139.41 197.911 139.41 198.071 139.25C198.071 139.25 198.071 139.25 198.23 139.091C198.23 138.931 198.23 138.931 198.23 138.771Z" fill="black"/>
<path d="M194.56 139.41V139.25V139.09C194.56 139.09 194.56 138.931 194.4 138.931L194.241 138.771H194.081H193.922C193.762 138.771 193.762 138.771 193.602 138.931C193.602 138.931 193.602 138.931 193.443 139.09C193.443 139.25 193.443 139.25 193.443 139.41V139.569V139.729C193.443 139.729 193.443 139.888 193.602 139.888L193.762 140.048H193.922H194.081C194.241 140.048 194.241 140.048 194.4 139.888C194.4 139.888 194.4 139.888 194.56 139.729C194.4 139.569 194.56 139.41 194.56 139.41Z" fill="black"/>
<path d="M181.314 143.559H181.473H181.633C181.633 143.559 181.793 143.559 181.793 143.399L181.952 143.24V143.08V142.921C181.952 142.761 181.952 142.761 181.793 142.601C181.793 142.601 181.793 142.601 181.633 142.442C181.473 142.442 181.473 142.442 181.314 142.442H181.154H180.995C180.995 142.442 180.835 142.442 180.835 142.601L180.676 142.761V142.921V143.08C180.676 143.24 180.676 143.24 180.835 143.399C180.835 143.399 180.835 143.399 180.995 143.559C181.154 143.399 181.314 143.559 181.314 143.559Z" fill="black"/>
<path d="M193.443 106.853C196.475 107.172 199.667 107.651 202.22 109.247C201.103 104.779 201.103 100.789 199.826 95.8416C198.55 96.6395 193.443 106.853 193.443 106.853Z" fill="#BC681D"/>
<path d="M151.79 128.717C147.959 125.206 143.651 121.855 138.544 120.578C143.651 119.142 149.077 119.461 153.864 121.695C154.024 121.695 151.79 126.483 151.79 128.717Z" fill="#BC681D"/>
<path d="M194.081 123.77C194.4 122.493 195.198 121.536 196.315 120.897C197.432 120.259 198.709 120.259 199.826 120.738C200.465 121.057 201.103 121.376 201.582 122.014C201.741 122.174 202.22 122.174 202.38 122.014C202.539 121.855 202.539 121.376 202.38 121.216C201.422 119.94 199.826 119.301 198.23 119.301C196.635 119.301 195.198 119.94 194.241 121.216C193.602 121.855 193.283 122.653 192.964 123.451C192.804 124.089 193.921 124.408 194.081 123.77Z" fill="black"/>
<path d="M163.28 132.547C163.599 131.27 164.397 130.313 165.514 129.675C166.632 129.036 167.908 129.036 169.025 129.515C169.664 129.834 170.302 130.153 170.781 130.792C170.941 130.951 171.419 130.951 171.579 130.792C171.738 130.632 171.738 130.153 171.579 129.994C170.621 128.877 169.025 128.079 167.43 128.079C165.834 128.079 164.397 128.717 163.44 129.994C162.801 130.632 162.482 131.43 162.163 132.228C162.003 133.026 163.121 133.345 163.28 132.547Z" fill="black"/>
<path d="M157.216 126.323C156.418 127.281 157.056 128.717 158.333 128.877C159.29 128.877 160.088 128.398 160.886 127.919C163.28 126.164 165.514 124.089 167.27 121.695C167.749 120.897 168.387 120.099 168.227 119.142C168.227 118.663 167.908 118.184 167.429 118.025C166.791 117.705 166.153 118.025 165.674 118.344C162.801 120.099 158.812 124.408 157.216 126.323Z" fill="#663304"/>
<path d="M199.667 109.885C200.943 109.885 201.582 111.322 200.784 112.279C200.146 112.917 199.188 113.237 198.39 113.556C195.517 114.194 192.485 114.513 189.453 114.194C188.495 114.035 187.538 113.875 186.9 113.237C186.58 112.917 186.421 112.439 186.58 111.96C186.74 111.162 187.378 111.002 188.017 110.843C191.208 109.885 197.113 109.885 199.667 109.885Z" fill="#663304"/>
<path d="M106.306 248.729C106.306 253.038 108.86 256.868 112.69 257.985C121.148 260.219 129.926 261.336 137.586 257.027C142.214 254.314 145.725 250.005 149.236 245.696C160.727 231.333 184.346 199.575 188.176 197.5C194.241 194.149 207.008 190.797 213.072 187.446C212.434 188.723 212.115 189.999 211.955 191.276C211.636 193.032 212.913 194.468 214.509 194.308C218.179 193.67 221.531 189.999 222.807 185.85C224.244 180.584 223.127 174.998 222.169 169.731C221.371 165.423 220.254 160.794 217.381 157.762C216.743 153.294 211.476 151.219 207.487 152.496C203.497 153.932 181.952 170.051 178.92 172.923C162.482 188.882 110.934 221.758 106.626 242.345L106.306 248.729Z" fill="#FBC9A4"/>
<path d="M169.345 164.944C174.93 163.667 180.516 162.39 186.102 161.114C188.815 160.475 191.687 159.837 194.4 160.794C196.475 161.592 198.071 163.188 199.507 164.784C202.539 168.295 205.093 172.285 207.487 176.434C207.646 176.753 207.806 177.073 207.806 177.392C207.806 178.03 207.167 178.349 206.689 178.669C203.018 180.584 198.39 180.743 194.719 178.828C191.049 176.913 188.336 173.242 187.697 169.093C181.154 174.519 173.334 178.669 165.195 180.903C165.993 176.594 166.632 172.285 167.429 167.816L169.345 164.944Z" fill="#A05204"/>
<path d="M192.166 207.395C201.263 200.852 214.03 200.692 223.924 205.799C230.946 209.47 235.734 212.981 239.086 218.566C241.799 223.194 247.065 225.588 252.332 224.312L261.269 222.396C254.566 215.694 264.301 209.47 267.812 210.587L271.004 232.929C263.184 234.206 255.683 236.76 248.661 240.43C246.746 241.388 244.512 240.909 243.075 239.473C240.203 236.281 235.894 234.366 231.585 234.206C224.882 234.047 218.977 238.196 212.753 240.909C206.689 243.622 198.55 244.739 193.921 239.792C190.57 236.121 190.57 230.536 190.57 225.588C190.73 219.843 190.889 214.098 191.049 208.512L192.166 207.395Z" fill="#A05204"/>
<path d="M211.796 82.2763C211.955 82.2763 211.955 82.2763 212.115 82.2763C212.434 81.638 212.594 80.9996 212.594 80.2017C212.594 77.9674 211.317 76.2119 209.881 76.2119C208.444 76.2119 207.167 77.9674 207.167 80.2017C207.167 81.1592 207.487 82.1168 207.806 82.7551C208.923 82.2763 210.359 82.1168 211.796 82.2763Z" fill="#060807"/>
<path d="M217.541 61.8486C214.189 62.487 211.317 64.8808 209.881 67.9131C211.796 67.2747 213.711 66.6363 215.626 65.998C216.583 65.6788 217.381 65.3596 218.179 64.8809C218.498 64.7213 218.818 64.4021 218.977 64.0829C219.456 63.4445 219.137 62.487 218.498 62.0082C218.339 61.8486 218.02 61.8486 217.541 61.8486Z" fill="#060807"/>
<path d="M195.358 172.125C197.752 174.2 199.507 177.073 199.986 180.105C199.986 180.424 200.465 180.584 200.624 180.424C200.943 180.264 201.103 180.105 200.943 179.786C200.465 177.232 199.348 174.838 197.592 172.764C197.113 172.285 196.635 171.647 195.996 171.168C195.837 171.008 195.358 171.008 195.198 171.168C195.198 171.487 195.039 171.806 195.358 172.125Z" fill="#663304"/>
<path d="M200.145 170.211C201.901 172.445 203.497 174.998 204.614 177.711C204.774 178.03 204.933 178.19 205.252 178.03C205.572 178.03 205.731 177.552 205.572 177.392C204.454 174.519 202.859 171.806 200.784 169.413C200.624 169.093 200.145 169.253 199.986 169.413C199.826 169.572 199.826 170.051 200.145 170.211Z" fill="#663304"/>
<path d="M196.794 161.433C194.081 160.156 191.368 159.677 188.336 159.518C185.463 159.358 182.431 159.677 179.558 160.156C176.686 160.635 173.654 161.273 170.781 161.752C167.589 162.231 164.397 162.55 161.205 162.71C158.014 162.869 154.662 162.869 151.47 162.71C150.992 162.71 150.672 162.71 150.194 162.71C149.875 162.71 149.555 163.029 149.555 163.348C149.555 163.667 149.875 163.827 150.194 163.986C153.386 164.146 156.577 164.306 159.769 164.146C162.961 163.986 166.312 163.667 169.504 163.188C172.536 162.71 175.409 162.231 178.282 161.593C181.154 161.114 184.027 160.635 186.9 160.635C189.772 160.635 192.485 160.954 195.039 162.071C195.358 162.231 195.677 162.39 195.996 162.55C196.315 162.71 196.635 162.55 196.794 162.39C197.113 162.071 196.954 161.593 196.794 161.433Z" fill="#663304"/>
<path d="M187.059 168.455C184.984 170.37 182.591 171.966 180.197 173.562C177.803 175.158 175.249 176.434 172.696 177.551C170.143 178.669 167.429 179.626 164.716 180.424C162.003 181.222 159.131 181.701 156.418 182.02C153.545 182.339 150.672 182.499 147.959 182.339C147.64 182.339 147.321 182.339 146.842 182.339C146.523 182.339 146.204 182.658 146.204 182.978C146.204 183.297 146.523 183.456 146.842 183.616C149.715 183.776 152.588 183.775 155.46 183.456C158.333 183.137 161.205 182.658 164.078 182.02C166.791 181.382 169.664 180.424 172.217 179.307C174.93 178.19 177.484 176.913 180.037 175.317C182.591 173.881 184.825 172.125 187.059 170.21C187.378 170.051 187.538 169.732 187.857 169.572C188.017 169.412 188.017 168.934 187.857 168.774C187.538 168.295 187.219 168.295 187.059 168.455Z" fill="#663304"/>
<path d="M152.907 145.474C154.183 148.187 155.939 150.581 158.014 152.655C160.088 154.73 162.323 156.645 165.036 158.081C166.472 158.879 168.068 159.677 169.664 160.156C169.983 160.316 170.302 159.997 170.302 159.837C170.462 159.518 170.143 159.199 169.983 159.199C167.27 158.241 164.716 156.805 162.482 155.049C160.248 153.294 158.173 151.219 156.577 148.985C155.62 147.708 154.822 146.272 154.024 144.835C153.864 144.516 153.545 144.516 153.226 144.676C152.907 144.835 152.907 145.155 152.907 145.474Z" fill="#663304"/>
<path d="M262.865 219.524C262.386 217.13 263.663 214.417 266.056 213.459C266.376 213.3 266.535 213.14 266.376 212.821C266.376 212.502 265.897 212.342 265.737 212.502C263.503 213.459 261.907 215.534 261.747 217.928C261.747 218.566 261.747 219.205 261.907 220.003C261.907 220.322 262.386 220.481 262.545 220.322C262.705 220.162 262.865 219.843 262.865 219.524Z" fill="#663304"/>
<path d="M265.418 220.96C265.418 218.886 266.535 216.97 268.45 216.172C268.769 216.013 268.769 215.694 268.61 215.375C268.45 215.055 268.131 215.055 267.812 215.215C265.578 216.172 264.141 218.566 264.141 220.96C264.301 221.758 265.418 221.758 265.418 220.96Z" fill="#663304"/>
<path d="M176.207 221.918C178.76 217.609 182.112 213.938 186.102 211.066C190.091 208.033 194.719 205.799 199.348 204.363C200.465 204.044 201.741 203.565 202.859 203.246C203.178 203.246 203.337 203.086 203.656 203.086C203.656 203.086 203.656 203.086 203.816 203.086C203.976 203.086 203.656 203.086 203.816 203.086C203.976 203.086 203.976 203.086 204.135 203.086C205.252 202.926 206.529 202.926 207.646 202.926C211.317 202.926 214.828 203.405 218.498 204.203C222.169 205.001 225.999 206.278 229.191 208.512C229.351 208.672 229.829 208.991 230.148 209.31C230.627 209.789 231.425 208.991 230.946 208.512C228.074 205.799 224.244 204.363 220.413 203.405C216.743 202.448 212.753 201.969 208.923 201.809C207.646 201.809 206.21 201.809 204.933 201.809C204.454 201.809 203.976 201.809 203.656 201.969C202.859 202.129 201.901 202.448 201.103 202.607C196.156 204.044 191.528 206.118 187.219 208.991C183.069 211.864 179.239 215.375 176.526 219.683C176.207 220.162 175.888 220.641 175.569 221.279C174.93 222.077 175.888 222.556 176.207 221.918Z" fill="#663304"/>
<path d="M207.327 223.514C208.285 224.152 209.242 224.79 210.2 225.429C210.519 225.588 210.838 225.429 210.998 225.269C211.157 224.95 210.998 224.631 210.838 224.471C209.881 223.833 208.923 223.194 207.965 222.556C207.646 222.397 207.327 222.556 207.168 222.716C206.848 222.875 207.008 223.194 207.327 223.514Z" fill="#663304"/>
<path d="M211.476 221.12C212.434 221.758 213.392 222.396 214.349 223.035C214.668 223.194 214.987 223.035 215.147 222.875C215.307 222.556 215.147 222.237 214.987 222.077C214.03 221.439 213.072 220.8 212.115 220.162C211.796 220.002 211.476 220.162 211.317 220.322C211.157 220.641 211.317 220.96 211.476 221.12Z" fill="#663304"/>
<path d="M217.062 219.524C217.381 219.843 217.7 220.162 218.02 220.481C218.179 220.641 218.339 220.641 218.498 220.641C218.658 220.641 218.818 220.641 218.977 220.481C219.137 220.322 219.137 220.162 219.137 220.003C219.137 219.843 219.137 219.683 218.977 219.524C218.658 219.205 218.339 218.885 218.02 218.566C217.86 218.407 217.7 218.407 217.541 218.407C217.381 218.407 217.222 218.407 217.062 218.566C216.902 218.726 216.902 218.885 216.902 219.045C216.902 219.364 217.062 219.524 217.062 219.524Z" fill="#663304"/>
<path d="M204.454 214.257C205.252 214.736 206.05 215.215 206.848 215.694C207.167 215.853 207.487 215.694 207.646 215.534C207.806 215.215 207.646 214.896 207.487 214.736C206.689 214.257 205.891 213.779 205.093 213.3C204.774 213.14 204.454 213.3 204.295 213.459C204.135 213.779 204.135 214.098 204.454 214.257Z" fill="#663304"/>
<path d="M222.648 231.174C222.967 231.174 223.127 231.334 223.446 231.334H223.605C223.605 231.334 223.605 231.334 223.765 231.334C223.924 231.334 224.084 231.493 224.084 231.493C224.244 231.653 224.563 231.812 224.722 231.972C224.722 231.972 224.882 231.972 224.882 232.132C225.042 232.291 225.042 232.291 225.201 232.451C225.361 232.61 225.84 232.61 225.999 232.451C226.159 232.291 226.159 231.812 225.999 231.653C225.201 230.855 224.084 230.216 222.967 230.057C222.648 230.057 222.329 230.216 222.329 230.376C222.169 230.695 222.329 231.014 222.648 231.174Z" fill="#663304"/>
<path d="M149.715 173.562C150.034 174.2 150.353 174.838 150.672 175.477C150.832 175.796 151.151 175.796 151.47 175.636C151.79 175.477 151.79 175.158 151.63 174.838C151.311 174.2 150.992 173.562 150.672 172.923C150.513 172.604 150.194 172.604 149.875 172.764C149.715 172.923 149.555 173.243 149.715 173.562Z" fill="#663304"/>
<path d="M154.503 173.243C154.662 173.402 154.822 173.562 154.981 173.721L155.141 173.881H155.301H155.46C155.46 173.881 155.62 173.881 155.62 173.721C155.62 173.721 155.62 173.721 155.779 173.562C155.779 173.402 155.779 173.402 155.779 173.243V173.083C155.779 172.923 155.779 172.923 155.62 172.764C155.46 172.604 155.301 172.445 155.141 172.285L154.981 172.125H154.822H154.662C154.662 172.125 154.503 172.125 154.503 172.285C154.503 172.285 154.503 172.285 154.343 172.445C154.343 172.604 154.343 172.604 154.343 172.764V172.923C154.503 173.083 154.503 173.083 154.503 173.243Z" fill="#663304"/>
<path d="M188.655 168.455C190.251 167.497 191.847 166.54 193.443 165.582C194.081 165.263 193.443 164.146 192.804 164.625C191.208 165.582 189.613 166.54 188.017 167.497C187.538 167.816 188.017 168.934 188.655 168.455Z" fill="#663304"/>
<path d="M227.914 215.215C228.872 215.853 229.829 216.492 230.787 217.13C231.106 217.29 231.425 217.13 231.585 216.971C231.744 216.651 231.585 216.332 231.425 216.173C230.468 215.534 229.51 214.896 228.553 214.258C228.233 214.098 227.914 214.258 227.755 214.417C227.435 214.736 227.595 215.055 227.914 215.215Z" fill="#663304"/>
<path d="M231.425 221.918C232.064 222.556 232.702 223.194 233.34 223.833C233.5 223.992 233.979 223.992 234.138 223.833C234.298 223.673 234.298 223.194 234.138 223.035C233.5 222.396 232.862 221.758 232.223 221.12C232.064 220.96 231.585 220.96 231.425 221.12C231.266 221.439 231.266 221.758 231.425 221.918Z" fill="#663304"/>
<path d="M211.317 130.472C211.955 131.749 212.434 133.026 212.594 134.462C212.594 134.781 212.753 135.1 213.232 135.1C213.551 135.1 213.87 134.781 213.87 134.462C213.711 132.866 213.232 131.27 212.434 129.834C212.274 129.515 211.955 129.515 211.636 129.674C211.317 129.993 211.157 130.313 211.317 130.472Z" fill="#663304"/>
<path d="M209.881 133.345C210.04 133.824 210.2 134.302 210.359 134.781C210.359 134.941 210.519 135.1 210.679 135.1C210.838 135.1 210.998 135.26 211.157 135.1C211.317 135.1 211.476 134.941 211.476 134.781C211.476 134.622 211.636 134.462 211.476 134.302C211.317 133.824 211.157 133.345 210.998 132.866C210.998 132.707 210.838 132.547 210.679 132.547C210.519 132.547 210.359 132.387 210.2 132.547C210.04 132.547 209.881 132.707 209.881 132.866C209.881 133.026 209.881 133.185 209.881 133.345Z" fill="#663304"/>
<path d="M158.652 145.953C159.131 147.07 159.61 148.187 160.248 149.304C160.408 149.623 160.727 149.623 161.046 149.464C161.365 149.304 161.365 148.985 161.205 148.666C160.727 147.549 160.248 146.432 159.61 145.314C159.45 144.995 159.131 144.995 158.812 145.155C158.492 145.314 158.492 145.634 158.652 145.953Z" fill="#663304"/>
<path d="M161.684 146.272C162.003 146.751 162.323 147.229 162.642 147.708C162.801 147.868 162.801 147.868 162.961 148.027C163.121 148.027 163.28 148.027 163.44 148.027C163.599 148.027 163.599 147.868 163.759 147.708C163.759 147.549 163.759 147.389 163.759 147.229C163.44 146.751 163.121 146.272 162.801 145.793C162.642 145.633 162.642 145.633 162.482 145.474C162.323 145.474 162.163 145.474 162.003 145.474C161.844 145.474 161.844 145.633 161.684 145.793C161.525 145.953 161.525 146.112 161.684 146.272Z" fill="#663304"/>
<path d="M152.109 130.791C151.949 127.28 153.066 123.929 154.981 121.056C155.141 120.737 154.981 120.418 154.822 120.258C154.503 120.099 154.183 120.258 154.024 120.418C152.428 122.812 151.311 125.525 150.992 128.238C150.832 129.036 150.832 129.834 150.832 130.632C150.992 131.43 152.109 131.43 152.109 130.791Z" fill="#663304"/>
<path d="M190.889 108.609C194.081 107.97 197.592 108.29 200.465 109.726C200.784 109.885 201.103 109.726 201.263 109.566C201.422 109.247 201.263 108.928 201.103 108.768C197.752 107.172 194.081 106.853 190.57 107.651C190.251 107.651 190.091 108.13 190.251 108.29C190.251 108.609 190.57 108.768 190.889 108.609Z" fill="#663304"/>
<path d="M166.312 111.322C167.429 109.087 168.547 107.013 169.504 104.778C170.143 103.342 171.419 101.746 172.856 102.065C172.377 104.14 171.898 106.374 171.419 108.449C172.536 105.257 174.771 102.544 177.803 100.789C177.484 102.863 176.845 104.778 175.569 106.534C176.526 104.619 178.282 102.863 180.356 102.065C181.154 101.746 182.112 101.427 182.75 102.065C183.389 102.544 183.389 103.502 183.069 104.14C182.75 104.778 182.112 105.417 181.633 105.895C180.197 107.013 178.92 108.13 177.484 109.406L166.312 111.322Z" fill="white"/>
<path d="M285.207 271.231C290.474 271.071 295.74 270.274 300.847 268.837C304.039 267.88 307.071 266.763 309.784 264.847C312.497 262.932 314.572 260.219 315.37 257.028C316.008 253.995 315.21 250.804 313.295 248.41C309.784 244.101 303.56 243.143 300.209 238.834L285.207 271.231Z" fill="#B77115"/>
<path d="M309.305 263.571C304.358 269.316 254.725 278.892 211.157 277.934C193.124 277.615 155.62 248.091 157.216 241.228C157.854 238.356 174.132 257.506 174.132 257.506C174.132 257.506 158.652 238.196 156.737 232.61C156.258 231.493 157.854 230.536 158.812 231.334C163.599 235.802 171.419 247.771 174.132 251.442C169.983 246.175 158.652 234.525 155.46 227.025C154.981 226.067 156.099 224.95 157.056 225.429C164.397 229.099 176.686 240.43 180.835 247.612C176.686 242.505 166.472 232.77 165.834 226.227C165.674 225.269 166.632 224.631 167.589 224.95C175.249 228.142 193.602 246.814 201.263 251.282C199.507 247.931 195.517 236.281 196.315 235.643C199.188 233.568 210.838 251.602 211.636 253.676C213.072 256.708 246.108 244.101 265.578 238.515C275.632 235.643 286.165 235.483 296.378 237.558C321.275 243.143 314.253 257.666 309.305 263.571Z" fill="#FBC9A4"/>
<path d="M156.577 231.493C159.61 233.728 162.323 236.281 164.716 238.994C167.43 241.867 169.983 244.899 172.536 247.931C174.132 249.687 175.569 251.442 177.165 253.198C177.324 253.357 177.803 253.357 177.962 253.198C178.122 253.038 178.122 252.559 177.962 252.4C175.249 249.208 172.377 246.016 169.664 242.984C167.11 240.111 164.716 237.239 162.003 234.685C160.408 233.249 158.812 231.813 157.056 230.536C156.737 230.376 156.418 230.536 156.258 230.695C156.258 231.015 156.258 231.334 156.577 231.493Z" fill="#93674A"/>
<path d="M174.132 259.103C176.367 255.432 178.76 251.921 181.473 248.57C182.271 247.612 183.069 246.654 183.867 245.697C184.027 245.537 184.027 245.059 183.867 244.899C183.708 244.739 183.229 244.739 183.069 244.899C180.197 248.25 177.484 251.761 175.09 255.432C174.451 256.39 173.813 257.507 173.175 258.464C172.696 259.103 173.654 259.741 174.132 259.103Z" fill="#93674A"/>
<path d="M168.547 234.525C171.419 238.196 174.292 241.547 177.643 244.739C178.601 245.697 179.558 246.495 180.356 247.452C180.516 247.612 180.995 247.612 181.154 247.452C181.314 247.293 181.314 246.814 181.154 246.654C177.803 243.622 174.771 240.43 171.898 236.919C171.1 235.962 170.302 235.004 169.504 233.887C169.345 233.568 169.025 233.568 168.706 233.727C168.387 233.887 168.387 234.206 168.547 234.525Z" fill="#93674A"/>
<path d="M164.557 248.091C167.11 250.325 169.664 252.559 172.217 254.793C173.015 255.432 173.654 255.911 174.451 256.549C174.771 256.708 175.09 256.708 175.249 256.549C175.409 256.389 175.569 255.911 175.249 255.751C172.536 253.676 169.983 251.442 167.43 249.208C166.791 248.569 165.993 247.931 165.355 247.293C164.716 246.814 163.919 247.612 164.557 248.091Z" fill="#93674A"/>
<path d="M163.759 250.804C161.525 248.729 159.45 246.495 157.694 244.101C157.216 243.463 156.737 242.824 156.418 242.186C156.258 242.026 156.099 241.707 156.099 241.388C156.099 241.069 156.258 240.909 156.418 240.909C156.897 240.749 157.535 241.069 158.014 241.388C158.652 241.867 159.131 242.505 159.61 242.984C160.886 244.42 162.323 245.697 163.599 247.133C164.078 247.612 164.876 246.814 164.397 246.335C162.323 244.26 160.727 241.867 159.29 239.313C158.652 238.036 158.014 236.76 157.535 235.323C157.056 233.887 156.577 232.451 156.258 230.855C155.939 229.578 155.62 228.301 155.301 227.025C155.301 226.865 155.141 226.706 155.141 226.546V226.386V226.227C155.141 226.227 155.141 226.067 155.141 226.227C155.141 226.227 155.301 226.067 155.141 226.227C155.141 226.227 154.981 226.227 155.141 226.227C155.141 226.227 155.141 226.227 155.301 226.227C155.301 226.227 155.46 226.227 155.301 226.227H155.46H155.62C155.779 226.227 155.779 226.227 155.939 226.386H156.099C156.099 226.386 156.099 226.386 156.258 226.386C156.418 226.386 156.099 226.386 156.258 226.386C156.897 226.706 157.216 227.025 157.694 227.344C160.408 229.578 163.121 231.653 165.674 233.887C165.993 234.206 166.312 234.366 166.632 234.685C166.791 234.845 167.11 234.845 167.429 234.685C167.589 234.525 167.749 234.206 167.589 233.887C166.632 232.451 165.993 231.014 165.834 229.259C165.674 228.461 165.674 227.663 165.674 226.865C165.674 226.706 165.674 226.546 165.674 226.386V226.227C165.674 226.067 165.674 226.067 165.834 226.067C165.993 225.908 165.993 225.908 165.993 225.908C165.993 225.908 166.153 225.908 165.993 225.908H166.153H166.312C167.11 226.227 167.908 226.706 168.547 227.025C169.345 227.503 169.983 227.982 170.621 228.461C172.058 229.578 173.175 230.695 174.611 231.812C177.324 234.047 180.037 236.121 182.91 238.196C185.782 240.271 188.655 242.345 191.528 244.58C194.241 246.654 196.954 248.889 199.507 251.123C199.826 251.442 200.146 251.761 200.465 251.921C200.943 252.4 201.741 251.602 201.263 251.123C198.709 248.569 195.837 246.335 192.964 244.101C190.091 241.867 187.059 239.792 184.186 237.558C181.314 235.483 178.441 233.249 175.728 231.014C173.015 228.621 170.302 226.067 166.951 224.79C166.632 224.631 166.153 224.631 165.674 224.631C165.355 224.79 165.036 225.11 164.716 225.429C164.557 225.908 164.557 226.227 164.397 226.706C164.397 227.184 164.397 227.663 164.397 227.982C164.557 229.738 165.036 231.493 165.834 233.089C165.993 233.408 166.312 233.887 166.472 234.206C166.791 234.047 167.11 233.728 167.429 233.568C164.716 231.334 161.844 229.099 159.131 226.865C158.014 226.067 157.056 224.95 155.62 224.79C155.141 224.79 154.503 224.79 154.183 225.269C153.705 225.748 153.705 226.386 153.864 227.025C154.183 228.301 154.503 229.738 154.981 231.014C155.301 232.132 155.62 233.249 155.939 234.366C156.418 235.802 157.056 237.239 157.694 238.675C158.971 241.388 160.727 244.101 162.801 246.335C163.121 246.654 163.28 246.814 163.599 247.133C163.918 246.814 164.078 246.654 164.397 246.335C163.121 245.058 161.844 243.782 160.567 242.345C159.929 241.707 159.45 241.069 158.812 240.59C158.173 240.111 157.535 239.632 156.737 239.792C155.779 239.792 155.141 240.59 154.981 241.388C154.981 242.186 155.46 242.984 155.939 243.622C156.897 245.058 157.854 246.335 158.971 247.612C160.248 249.048 161.525 250.325 162.961 251.602C163.121 251.761 163.599 251.761 163.759 251.602C163.919 251.442 164.078 250.963 163.759 250.804Z" fill="#93674A"/>
<path d="M220.733 249.687C222.967 253.038 224.722 256.709 225.68 260.539C226.797 264.369 227.116 268.359 226.957 272.349C226.797 274.583 226.478 276.817 225.84 278.892C225.68 279.211 226.318 279.371 226.318 279.051C227.276 275.062 227.755 271.072 227.276 267.082C226.957 263.092 225.999 259.103 224.403 255.432C223.446 253.357 222.329 251.283 221.052 249.527C221.052 249.048 220.573 249.368 220.733 249.687Z" fill="#2F3866"/>
<path d="M231.401 268.495C231.542 266.119 229.73 264.079 227.354 263.938C224.978 263.797 222.938 265.609 222.798 267.985C222.657 270.361 224.469 272.401 226.845 272.541C229.22 272.682 231.26 270.87 231.401 268.495Z" fill="#6B74B5"/>
<path d="M226.303 250.03C226.443 247.654 224.631 245.614 222.256 245.474C219.88 245.333 217.84 247.145 217.699 249.52C217.559 251.896 219.37 253.936 221.746 254.077C224.122 254.218 226.162 252.406 226.303 250.03Z" fill="#6B74B5"/>
<path d="M230.266 258.87C230.407 256.494 228.595 254.454 226.219 254.313C223.843 254.173 221.803 255.985 221.663 258.36C221.522 260.736 223.334 262.776 225.71 262.917C228.085 263.057 230.125 261.246 230.266 258.87Z" fill="#6B74B5"/>
<path d="M230.804 278.152C230.945 275.777 229.133 273.737 226.758 273.596C224.382 273.456 222.342 275.267 222.201 277.643C222.061 280.018 223.872 282.058 226.248 282.199C228.623 282.339 230.663 280.528 230.804 278.152Z" fill="#6B74B5"/>
<path d="M225.84 134.143C226.318 136.377 226.797 138.611 227.276 141.005C227.276 141.324 227.755 141.484 227.914 141.324C228.233 141.165 228.393 140.846 228.233 140.686C227.755 138.452 227.276 136.218 226.797 133.824C226.797 133.504 226.318 133.345 226.159 133.505C225.999 133.505 225.84 133.824 225.84 134.143Z" fill="#B77115"/>
<path d="M223.127 135.1C223.446 137.654 223.924 140.207 224.563 142.761C224.722 143.399 225.84 143.239 225.68 142.441C225.042 140.048 224.563 137.494 224.244 135.1C224.244 134.781 224.084 134.462 223.605 134.462C223.446 134.462 223.127 134.781 223.127 135.1Z" fill="#B77115"/>
<path d="M220.573 137.335C221.052 139.409 221.531 141.644 222.009 143.718C222.009 144.038 222.488 144.197 222.648 144.038C222.967 143.878 223.127 143.559 222.967 143.399C222.488 141.325 222.009 139.09 221.531 137.016C221.531 136.696 221.052 136.537 220.892 136.696C220.733 136.696 220.573 137.016 220.573 137.335Z" fill="#B77115"/>
<path d="M217.541 137.973C217.541 140.686 218.02 143.399 219.137 145.793C219.296 146.112 219.616 146.112 219.935 145.953C220.254 145.793 220.254 145.474 220.094 145.155C218.977 142.92 218.498 140.367 218.658 137.814C218.658 137.175 217.541 137.175 217.541 137.973Z" fill="#B77115"/>
<path d="M216.424 150.102C220.094 149.783 223.765 148.665 226.797 146.591C227.755 145.952 228.553 145.474 229.351 144.676C229.51 144.516 229.51 144.037 229.351 143.878C229.191 143.718 228.712 143.718 228.553 143.878C225.84 146.112 222.648 147.708 219.296 148.506C218.339 148.665 217.381 148.825 216.424 148.985C216.105 148.985 215.785 149.304 215.785 149.623C215.945 149.783 216.105 150.102 216.424 150.102Z" fill="#B77115"/>
<path d="M212.434 188.244C214.828 187.127 217.222 186.329 219.775 185.85C220.094 185.85 220.254 185.371 220.094 185.212C219.935 184.892 219.775 184.733 219.456 184.892C216.743 185.371 214.189 186.169 211.796 187.446C211.476 187.605 211.476 187.925 211.636 188.244C211.796 188.244 212.274 188.403 212.434 188.244Z" fill="#93674A"/>
<path d="M210.04 152.336C211.636 151.379 214.03 152.017 215.307 153.453C216.583 154.89 217.062 156.964 217.062 158.879C219.775 159.039 221.85 162.39 220.733 164.944C220.573 165.423 220.254 165.742 220.254 166.221C220.254 167.018 221.211 167.657 221.69 168.136C223.446 169.732 223.446 172.764 221.69 174.36C224.722 176.275 225.361 180.903 223.286 183.616C223.126 183.775 222.967 183.935 222.807 184.095C222.329 184.254 221.85 183.935 221.371 183.616C219.137 181.701 217.7 178.988 216.424 176.275C213.551 170.21 210.678 164.146 207.646 158.081L210.04 152.336Z" fill="#FBC9A4"/>
<path d="M218.498 175.477C219.456 175.158 220.413 174.839 221.371 174.519C221.69 174.36 221.85 174.2 221.69 173.881C221.531 173.562 221.371 173.402 221.052 173.562C220.094 173.881 219.137 174.2 218.179 174.519C217.86 174.679 217.7 174.839 217.86 175.158C217.86 175.317 218.179 175.637 218.498 175.477Z" fill="#93674A"/>
<path d="M217.541 168.136C218.498 167.657 219.456 167.178 220.413 166.699C220.733 166.54 220.733 166.221 220.573 165.901C220.413 165.582 220.094 165.582 219.775 165.742C218.818 166.221 217.86 166.699 216.902 167.178C216.583 167.338 216.583 167.657 216.743 167.976C216.902 168.136 217.222 168.295 217.541 168.136Z" fill="#93674A"/>
<path d="M214.828 161.114L214.987 160.954C214.987 160.954 214.987 160.954 214.987 160.795C214.987 160.795 214.828 160.954 214.987 160.795C215.147 160.635 215.147 160.635 215.307 160.475C215.466 160.316 215.466 160.316 215.626 160.156L215.785 159.997C215.945 159.997 215.785 159.997 215.785 159.997C215.785 159.997 215.785 159.997 215.945 159.997C216.105 159.837 216.424 159.677 216.743 159.518C216.743 159.518 216.743 159.518 216.903 159.518C216.903 159.518 217.062 159.518 216.903 159.518C216.903 159.518 217.062 159.518 217.062 159.358C217.222 159.358 217.381 159.199 217.541 159.199C217.86 159.199 218.02 158.72 217.86 158.56C217.7 158.241 217.541 158.081 217.222 158.241C215.945 158.56 214.668 159.518 214.03 160.635C213.87 160.954 214.03 161.273 214.189 161.433C214.349 161.433 214.668 161.433 214.828 161.114Z" fill="#93674A"/>
<path d="M209.083 157.124C210.998 159.199 212.594 161.593 213.87 164.146C215.147 166.7 216.105 169.253 216.903 171.966C217.222 173.562 217.541 174.998 217.7 176.594C217.7 176.913 217.86 177.233 218.339 177.233C218.658 177.233 218.977 176.913 218.977 176.594C218.658 173.722 218.02 170.849 216.903 168.136C215.945 165.423 214.509 162.71 212.913 160.316C211.955 158.88 210.998 157.603 209.881 156.326C209.721 156.167 209.242 156.167 209.083 156.326C208.923 156.486 208.923 156.965 209.083 157.124Z" fill="#93674A"/>
<path d="M273.557 153.134C275.153 163.188 276.111 173.402 276.589 183.616C277.068 193.83 277.068 203.884 276.589 214.098C276.27 219.843 275.791 225.429 275.153 231.174C275.153 231.493 275.472 231.812 275.791 231.812C276.111 231.812 276.27 231.493 276.43 231.174C277.068 226.067 277.387 220.96 277.706 216.013C278.026 210.906 278.185 205.799 278.185 200.692C278.185 195.585 278.185 190.478 277.866 185.371C277.706 180.265 277.228 175.158 276.749 170.051C276.27 164.944 275.632 159.837 274.834 154.89C274.674 154.251 274.674 153.613 274.515 152.975C274.515 152.655 274.036 152.496 273.876 152.655C273.717 152.496 273.557 152.815 273.557 153.134Z" fill="#B77115"/>
<path d="M302.603 214.576C302.603 216.172 302.603 217.609 302.603 219.205C302.603 220.003 303.72 220.003 303.72 219.205C303.72 217.609 303.72 216.172 303.72 214.576C303.72 213.779 302.603 213.779 302.603 214.576Z" fill="#B77115"/>
<path d="M308.348 217.768C308.348 218.726 308.348 219.683 308.348 220.641C308.348 220.96 308.667 221.279 308.986 221.279C309.305 221.279 309.625 220.96 309.625 220.641C309.625 219.683 309.625 218.726 309.625 217.768C309.625 217.449 309.305 217.13 308.986 217.13C308.667 217.289 308.348 217.449 308.348 217.768Z" fill="#B77115"/>
<path d="M312.338 221.758C312.338 222.716 312.338 223.673 312.338 224.631C312.338 224.95 312.657 225.269 312.976 225.269C313.295 225.269 313.614 224.95 313.614 224.631C313.614 223.673 313.614 222.716 313.614 221.758C313.614 221.439 313.295 221.12 312.976 221.12C312.657 221.279 312.338 221.439 312.338 221.758Z" fill="#B77115"/>
<path d="M306.273 200.054C306.433 200.852 306.592 201.65 306.592 202.607C306.592 202.926 307.071 203.086 307.231 202.926C307.55 202.767 307.709 202.607 307.55 202.288C307.39 201.49 307.231 200.692 307.231 199.735C307.231 199.415 306.752 199.256 306.592 199.415C306.273 199.415 306.273 199.735 306.273 200.054Z" fill="#B77115"/>
<path d="M299.73 196.543C299.251 197.5 299.251 198.617 299.411 199.734C299.411 200.054 299.889 200.213 300.049 200.054C300.368 199.894 300.528 199.734 300.368 199.415V199.256C300.368 199.096 300.368 199.415 300.368 199.256C300.368 199.096 300.368 198.937 300.368 198.937C300.368 198.777 300.368 198.458 300.368 198.298V198.139C300.368 198.298 300.368 198.139 300.368 198.139C300.368 197.979 300.368 197.979 300.368 197.819C300.368 197.66 300.528 197.341 300.528 197.181C300.687 196.862 300.368 196.543 300.209 196.543C300.049 196.064 299.889 196.223 299.73 196.543Z" fill="#B77115"/>
<path d="M320.157 215.694C322.87 217.13 325.424 218.726 327.977 220.482C328.297 220.641 328.616 220.482 328.775 220.322C328.935 220.003 328.775 219.684 328.616 219.524C326.062 217.768 323.509 216.173 320.796 214.736C320.477 214.577 320.157 214.736 319.998 214.896C319.838 215.215 319.998 215.534 320.157 215.694Z" fill="#EFA02A"/>
<path d="M323.19 220.481C324.626 221.598 326.062 222.556 327.818 223.035C328.456 223.194 328.775 222.077 328.137 221.918C326.701 221.439 325.264 220.641 323.988 219.683C323.828 219.524 323.349 219.524 323.19 219.683C323.03 219.843 322.871 220.322 323.19 220.481Z" fill="#EFA02A"/>
<path d="M111.892 191.755C113.488 190.479 115.403 189.681 117.318 189.361C117.637 189.361 117.797 188.883 117.637 188.723C117.478 188.404 117.318 188.244 116.999 188.404C114.765 188.883 112.85 189.84 111.094 191.117C110.775 191.277 110.934 191.755 111.094 191.915C111.413 191.915 111.732 191.915 111.892 191.755Z" fill="#EFA02A"/>
<path d="M111.094 197.82C112.85 196.703 114.765 195.905 116.68 195.426C117.318 195.266 117.159 194.149 116.361 194.309C114.286 194.788 112.211 195.745 110.456 196.862C110.137 197.022 110.137 197.341 110.296 197.66C110.456 197.979 110.775 197.979 111.094 197.82Z" fill="#EFA02A"/>
<path d="M252.491 144.357C253.768 142.601 255.364 140.846 257.119 139.41C257.279 139.25 257.279 138.771 257.119 138.612C256.96 138.452 256.481 138.452 256.321 138.612C254.566 140.208 252.97 141.803 251.534 143.719C251.374 144.038 251.534 144.357 251.693 144.516C252.012 144.676 252.332 144.516 252.491 144.357Z" fill="#EFA02A"/>
<path d="M256.64 143.718C257.438 143.08 258.396 142.282 259.194 141.643C259.354 141.484 259.354 141.005 259.194 140.846C258.875 140.686 258.556 140.686 258.396 140.846C257.598 141.484 256.64 142.282 255.843 142.92C255.683 143.08 255.683 143.559 255.843 143.718C256.162 143.878 256.481 143.878 256.64 143.718Z" fill="#EFA02A"/>
<path d="M118.276 201.331C116.68 203.246 116.041 205.799 116.361 208.353C116.361 208.672 116.839 208.831 116.999 208.672C117.318 208.512 117.478 208.353 117.318 208.033C116.999 205.959 117.637 203.725 118.914 202.129C119.074 201.809 119.074 201.49 118.914 201.331C118.914 201.012 118.435 201.012 118.276 201.331Z" fill="#B77115"/>
<path d="M121.308 203.724C120.989 204.682 120.829 205.639 120.51 206.597C120.35 206.916 120.669 207.235 120.829 207.235C121.148 207.235 121.467 207.076 121.467 206.916C121.787 205.959 121.946 205.001 122.265 204.044C122.425 203.724 122.106 203.405 121.946 203.405C121.787 203.246 121.467 203.405 121.308 203.724Z" fill="#B77115"/>
<path d="M125.776 202.927C125.776 203.086 125.936 203.246 125.936 203.405V203.565C125.936 203.565 125.936 203.565 125.936 203.725C125.936 203.884 125.936 204.044 125.936 204.203V204.363C125.936 204.363 125.936 204.363 125.936 204.522C125.936 204.522 125.936 204.522 125.936 204.682V204.842C125.936 205.001 125.776 205.161 125.776 205.32C125.776 205.32 125.776 205.32 125.776 205.48C125.776 205.48 125.776 205.64 125.617 205.64C125.617 205.799 125.457 205.959 125.298 205.959C125.138 206.278 125.298 206.597 125.457 206.757C125.776 206.916 126.096 206.757 126.255 206.597C127.053 205.48 127.213 203.884 126.734 202.607C126.574 202.288 126.415 202.129 126.096 202.288C125.776 202.288 125.617 202.607 125.776 202.927Z" fill="#B77115"/>
<path d="M130.724 177.073C130.085 178.19 129.607 179.307 129.607 180.584C129.607 180.903 129.926 181.222 130.245 181.222C130.564 181.222 130.724 180.903 130.883 180.584V180.424C130.883 180.424 130.883 180.424 130.883 180.265C130.883 180.105 130.883 179.945 130.883 179.945C130.883 179.626 131.043 179.467 131.043 179.147C131.202 178.828 131.202 178.669 131.362 178.509C131.522 178.19 131.681 178.03 131.841 177.711C132 177.392 131.841 177.073 131.681 176.913C131.202 176.754 130.883 176.754 130.724 177.073Z" fill="#B77115"/>
<path d="M125.617 189.68C124.978 191.595 124.5 193.511 124.181 195.585C124.181 195.904 124.5 196.224 124.819 196.224C125.138 196.224 125.298 195.904 125.457 195.585C125.776 193.67 126.255 191.755 126.894 190C127.053 189.68 126.734 189.361 126.574 189.361C126.096 189.202 125.776 189.361 125.617 189.68Z" fill="#B77115"/>
<path d="M265.099 167.657C264.62 168.614 264.301 169.731 264.301 170.848C264.301 171.168 264.62 171.487 264.939 171.487C265.258 171.487 265.418 171.168 265.578 170.848C265.578 170.689 265.578 170.529 265.578 170.529V170.37C265.578 170.529 265.578 170.37 265.578 170.37C265.578 170.21 265.737 169.891 265.737 169.731C265.737 169.572 265.897 169.253 265.897 169.093V168.933C265.897 169.093 265.897 168.774 265.897 168.774C265.897 168.614 266.056 168.614 266.056 168.455C266.216 168.135 266.056 167.816 265.897 167.657C265.578 167.338 265.258 167.497 265.099 167.657Z" fill="#B77115"/>
<path d="M269.408 169.253C269.248 170.051 269.089 170.849 268.929 171.806C268.929 172.125 268.929 172.444 269.248 172.444C269.567 172.444 269.887 172.285 269.887 172.125C270.046 171.327 270.206 170.529 270.365 169.572C270.365 169.253 270.365 168.933 270.046 168.933C269.727 168.774 269.408 168.933 269.408 169.253Z" fill="#B77115"/>
<path d="M257.758 160.635C257.438 161.912 257.119 163.029 256.8 164.306C256.8 164.625 256.96 164.944 257.119 164.944C257.438 164.944 257.758 164.784 257.758 164.625C258.077 163.348 258.396 162.231 258.715 160.954C258.715 160.635 258.556 160.316 258.396 160.316C258.236 160.156 257.917 160.316 257.758 160.635Z" fill="#B77115"/>
<path d="M249.14 175.956C249.14 177.073 249.14 178.03 249.299 179.147C249.299 179.466 249.619 179.786 249.938 179.786C250.257 179.786 250.576 179.466 250.576 179.147C250.576 178.03 250.576 177.073 250.416 175.956C250.416 175.636 250.097 175.317 249.778 175.317C249.459 175.317 249.14 175.636 249.14 175.956Z" fill="#B77115"/>
<path d="M257.598 195.745C256.96 193.67 257.917 191.276 259.673 189.999C260.151 189.68 260.79 189.361 261.428 189.202C262.067 189.042 261.907 187.925 261.109 188.084C258.396 188.723 256.641 191.276 256.321 193.83C256.321 194.628 256.321 195.266 256.481 196.064C256.8 196.702 257.917 196.543 257.598 195.745Z" fill="#A05204"/>
<path d="M261.907 192.074C260.151 193.67 259.354 196.224 259.992 198.618C260.151 199.256 261.269 199.096 261.109 198.298C260.63 196.383 261.269 194.309 262.705 192.872C262.865 192.713 262.865 192.234 262.705 192.074C262.386 191.755 262.067 191.755 261.907 192.074Z" fill="#A05204"/>
<path d="M240.522 205.001C240.841 206.438 241.16 207.714 241.479 209.151C241.479 209.47 241.958 209.629 242.118 209.47C242.437 209.31 242.597 208.991 242.437 208.831C242.118 207.395 241.799 206.118 241.479 204.682C241.479 204.363 241.001 204.203 240.841 204.363C240.522 204.363 240.362 204.682 240.522 205.001Z" fill="#A05204"/>
<path d="M278.345 230.695C278.185 232.132 278.026 233.568 277.866 235.004C277.866 235.323 278.185 235.643 278.504 235.643C278.824 235.643 278.983 235.323 279.143 235.004C279.302 233.568 279.462 232.132 279.622 230.695C279.622 230.376 279.302 230.057 278.983 230.057C278.504 230.216 278.345 230.376 278.345 230.695Z" fill="#B77115"/>
<path d="M285.207 229.897C284.728 231.653 284.25 233.408 283.771 235.323C283.611 235.962 284.728 236.281 284.888 235.643C285.367 233.887 285.846 232.132 286.324 230.216C286.484 229.418 285.367 229.099 285.207 229.897Z" fill="#B77115"/>
<path d="M289.516 230.855C289.835 232.131 289.516 233.568 288.718 234.685C288.559 235.004 288.718 235.323 288.878 235.483C289.197 235.642 289.516 235.483 289.676 235.323C290.633 234.047 290.952 232.131 290.633 230.536C290.633 230.216 290.154 230.057 289.995 230.216C289.676 230.216 289.516 230.536 289.516 230.855Z" fill="#B77115"/>
<path d="M295.74 231.972C295.421 233.408 294.942 234.685 294.304 235.802C294.144 236.121 294.304 236.44 294.463 236.6C294.783 236.76 295.102 236.6 295.261 236.44C296.059 235.164 296.538 233.727 296.857 232.291C296.857 231.972 296.698 231.653 296.538 231.653C296.059 231.493 295.74 231.653 295.74 231.972Z" fill="#B77115"/>
<path d="M300.209 233.089C299.889 234.525 299.092 235.802 298.134 236.759C297.974 236.919 297.974 237.398 298.134 237.557C298.294 237.717 298.772 237.717 298.932 237.557C300.209 236.44 301.007 235.004 301.326 233.408C301.326 233.089 301.166 232.77 301.007 232.77C300.687 232.61 300.368 232.77 300.209 233.089Z" fill="#B77115"/>
<path d="M304.039 235.164C304.039 235.483 303.879 235.642 303.879 235.961V236.121C303.879 236.121 303.879 236.121 303.879 236.281C303.879 236.44 303.72 236.6 303.72 236.6C303.56 236.759 303.4 237.079 303.4 237.238C303.4 237.398 303.241 237.398 303.241 237.557L303.081 237.717C302.922 237.877 302.922 238.355 303.081 238.515C303.241 238.675 303.72 238.834 303.879 238.515C304.677 237.557 305.156 236.6 305.475 235.483C305.475 235.164 305.316 234.844 305.156 234.844C304.518 234.685 304.198 234.844 304.039 235.164Z" fill="#B77115"/>
<path d="M307.869 236.281C307.55 237.398 307.231 238.675 306.752 239.632C306.592 239.951 306.592 240.27 306.911 240.43C307.231 240.59 307.55 240.59 307.709 240.27C308.348 239.153 308.667 237.877 308.986 236.6C308.986 236.281 308.827 235.962 308.667 235.962C308.188 235.802 307.869 235.962 307.869 236.281Z" fill="#B77115"/>
<path d="M313.455 246.175C314.412 245.856 315.37 245.537 316.327 245.218C316.646 245.058 316.806 244.899 316.646 244.58C316.487 244.26 316.168 244.101 316.008 244.26C315.051 244.58 314.093 244.899 313.136 245.218C312.816 245.377 312.657 245.537 312.816 245.856C312.816 246.175 313.136 246.335 313.455 246.175Z" fill="#B77115"/>
<path d="M315.849 251.282C316.806 250.963 317.764 250.644 318.721 250.165C319.04 250.006 319.2 249.846 319.04 249.527C318.881 249.208 318.562 249.048 318.402 249.208C317.444 249.527 316.487 249.846 315.529 250.325C315.21 250.484 315.051 250.644 315.21 250.963C315.37 251.123 315.529 251.442 315.849 251.282Z" fill="#B77115"/>
<path d="M316.487 255.751C317.285 255.91 318.242 255.591 318.881 255.112C319.04 254.953 319.04 254.953 319.2 254.793C319.2 254.633 319.2 254.474 319.2 254.314C319.04 253.995 318.721 253.995 318.402 254.155C318.242 254.314 318.083 254.314 317.923 254.474C318.083 254.474 318.083 254.474 317.923 254.474H317.764C317.604 254.474 317.604 254.474 317.444 254.474C317.285 254.474 317.285 254.474 317.125 254.474C317.285 254.474 317.285 254.474 317.125 254.474H316.966C316.806 254.474 316.646 254.474 316.487 254.474C316.327 254.474 316.168 254.474 316.008 254.633C315.849 254.793 315.849 254.953 315.849 255.112C315.849 255.272 315.849 255.431 316.008 255.591C316.168 255.751 316.327 255.751 316.487 255.751Z" fill="#B77115"/>
<path d="M309.625 241.388C309.944 241.388 310.422 241.388 310.742 241.228C311.061 241.068 311.38 240.749 311.54 240.43C311.54 240.27 311.699 240.111 311.54 239.951C311.54 239.792 311.38 239.632 311.22 239.632C310.901 239.472 310.582 239.632 310.422 239.792C310.422 239.792 310.422 239.951 310.263 239.951C310.263 239.951 310.263 239.951 310.422 239.792C310.422 239.951 310.263 239.951 310.103 240.111C310.103 240.111 310.103 240.111 310.263 239.951C310.103 239.951 310.103 240.111 309.944 240.111H310.103C309.944 240.111 309.784 240.27 309.784 240.27H309.944C309.784 240.27 309.784 240.27 309.625 240.27C309.465 240.27 309.305 240.27 309.146 240.43C308.986 240.59 308.986 240.749 308.986 240.909C308.986 241.068 308.986 241.228 309.146 241.388C309.305 241.228 309.465 241.388 309.625 241.388Z" fill="#B77115"/>
<path d="M105.03 262.773C106.147 262.134 107.264 261.336 108.221 260.698C108.541 260.538 108.541 260.219 108.381 259.9C108.221 259.581 107.902 259.581 107.583 259.74C106.466 260.379 105.349 261.177 104.391 261.815C104.072 261.975 104.072 262.294 104.232 262.613C104.391 262.773 104.71 262.932 105.03 262.773Z" fill="#B77115"/>
<path d="M102.795 256.23C103.434 255.751 104.072 255.272 104.71 254.793C104.87 254.634 104.87 254.634 105.03 254.474C105.03 254.315 105.03 254.155 105.03 253.995C104.87 253.836 104.551 253.676 104.232 253.836C103.593 254.315 102.955 254.793 102.317 255.272C102.157 255.432 102.157 255.432 101.997 255.591C101.997 255.751 101.997 255.911 101.997 256.07C102.157 256.23 102.476 256.389 102.795 256.23Z" fill="#B77115"/>
<path d="M101.04 248.729C101.199 248.729 101.199 248.569 101.359 248.569C101.359 248.569 101.359 248.569 101.519 248.569H101.678H101.838C101.838 248.569 101.678 248.569 101.838 248.569C101.997 248.569 101.997 248.569 102.157 248.569H102.317C102.317 248.569 102.157 248.569 102.317 248.569C102.476 248.569 102.476 248.569 102.636 248.569H102.795C102.795 248.569 102.636 248.569 102.795 248.569C102.955 248.569 102.955 248.729 103.115 248.729C103.434 248.889 103.753 248.729 103.913 248.569C104.072 248.25 103.913 247.931 103.753 247.771C102.795 247.133 101.519 247.133 100.561 247.771C100.242 247.931 100.242 248.25 100.402 248.569C100.402 248.729 100.721 248.889 101.04 248.729Z" fill="#B77115"/>
<path d="M100.721 242.026C101.359 242.026 102.157 242.026 102.795 242.026C103.115 242.026 103.434 241.707 103.434 241.388C103.434 241.068 103.115 240.749 102.795 240.749C102.157 240.749 101.359 240.749 100.721 240.749C100.402 240.749 100.082 241.068 100.082 241.388C100.242 241.707 100.402 242.026 100.721 242.026Z" fill="#B77115"/>
<path d="M102.317 236.281C102.955 236.44 103.434 236.759 104.072 236.919C104.232 236.919 104.391 236.919 104.551 236.919C104.71 236.919 104.71 236.759 104.87 236.6C104.87 236.44 104.87 236.281 104.87 236.121C104.71 235.962 104.71 235.962 104.551 235.802C103.912 235.642 103.434 235.323 102.795 235.164C102.636 235.164 102.476 235.164 102.317 235.164C102.157 235.164 102.157 235.323 101.997 235.483C101.997 235.642 101.997 235.802 101.997 235.962C102.157 236.121 102.317 236.281 102.317 236.281Z" fill="#B77115"/>
<path d="M104.87 230.376C105.508 230.855 106.306 231.333 106.945 231.812C107.264 231.972 107.583 231.812 107.743 231.653C107.902 231.333 107.743 231.014 107.583 230.855C106.945 230.376 106.147 229.897 105.508 229.418C105.189 229.259 104.87 229.418 104.71 229.578C104.391 229.897 104.551 230.216 104.87 230.376Z" fill="#B77115"/>
<path d="M108.221 227.184C108.541 227.503 108.86 227.823 109.339 228.301C109.498 228.461 109.658 228.461 109.817 228.461C109.977 228.461 110.137 228.461 110.296 228.301C110.456 228.142 110.456 227.982 110.456 227.823C110.456 227.663 110.456 227.503 110.296 227.344C109.977 227.025 109.658 226.706 109.179 226.227C109.019 226.067 108.86 226.067 108.7 226.067C108.541 226.067 108.381 226.067 108.221 226.227C108.062 226.386 108.062 226.546 108.062 226.706C108.062 226.865 108.062 227.025 108.221 227.184Z" fill="#B77115"/>
<path d="M110.934 224.471C111.094 225.11 111.413 225.588 111.573 226.227C111.573 226.386 111.732 226.546 111.892 226.546C112.052 226.546 112.211 226.705 112.371 226.546C112.53 226.546 112.69 226.386 112.69 226.227C112.69 226.067 112.85 225.907 112.69 225.748C112.53 225.11 112.211 224.631 112.052 223.992C112.052 223.833 111.892 223.673 111.732 223.673C111.573 223.673 111.413 223.514 111.254 223.673C111.094 223.673 110.934 223.833 110.934 223.992C110.934 224.152 110.934 224.312 110.934 224.471Z" fill="#B77115"/>
<path d="M111.413 263.571C111.094 264.847 110.934 265.965 110.934 267.241C110.934 267.561 111.254 267.88 111.573 267.88C111.892 267.88 112.211 267.561 112.211 267.241C112.211 266.124 112.371 265.007 112.69 263.89C112.69 263.571 112.53 263.252 112.371 263.252C111.732 263.092 111.413 263.252 111.413 263.571Z" fill="#B77115"/>
<path d="M116.839 264.848C116.999 266.124 117.318 267.561 117.478 268.837C117.478 269.157 117.956 269.316 118.116 269.157C118.435 268.997 118.595 268.837 118.435 268.518C118.276 267.242 117.956 265.805 117.797 264.529C117.797 264.209 117.318 264.05 117.158 264.209C116.839 264.209 116.68 264.529 116.839 264.848Z" fill="#B77115"/>
<path d="M121.148 265.486C121.308 266.922 121.946 268.358 122.904 269.475C123.063 269.635 123.542 269.635 123.702 269.475C123.861 269.316 123.861 268.837 123.702 268.677C123.542 268.518 123.542 268.518 123.383 268.358C123.383 268.358 123.383 268.358 123.383 268.199C123.223 268.039 123.383 268.199 123.383 268.199L123.223 268.039C123.063 267.72 122.904 267.56 122.744 267.241C122.744 267.241 122.744 267.241 122.744 267.081C122.744 267.081 122.744 266.922 122.585 266.922C122.585 266.762 122.425 266.603 122.425 266.443C122.425 266.284 122.425 266.124 122.265 265.964C122.265 265.964 122.265 265.805 122.265 265.964C122.265 265.805 122.265 265.805 122.265 265.645C122.265 265.326 121.946 265.007 121.627 265.007C121.308 264.847 121.148 265.166 121.148 265.486Z" fill="#B77115"/>
<path d="M126.734 265.646C127.053 266.922 127.691 268.039 128.649 268.837C128.809 268.997 129.287 269.157 129.447 268.837C129.607 268.678 129.766 268.199 129.447 268.039C129.287 267.88 128.968 267.72 128.809 267.401L128.649 267.241C128.649 267.241 128.649 267.241 128.649 267.082C128.489 266.922 128.489 266.922 128.33 266.763C128.33 266.603 128.17 266.603 128.17 266.443C128.17 266.443 128.17 266.284 128.011 266.284C128.011 266.284 128.011 266.284 128.011 266.124C128.011 266.124 128.011 265.965 128.011 266.124C128.011 266.124 128.011 266.124 128.011 265.965V265.805C128.011 265.646 127.851 265.486 127.851 265.326C127.851 265.007 127.372 264.848 127.213 265.007C126.894 265.007 126.574 265.326 126.734 265.646Z" fill="#B77115"/>
<path d="M133.596 264.688C134.235 265.965 135.352 266.922 136.788 267.561C137.107 267.72 137.426 267.401 137.426 267.241C137.426 266.922 137.267 266.603 137.107 266.603C137.107 266.603 136.948 266.603 137.107 266.603C137.107 266.603 137.107 266.603 136.948 266.603C136.948 266.603 136.788 266.603 136.788 266.444C136.629 266.444 136.469 266.284 136.309 266.284C136.15 266.124 135.99 266.124 135.99 265.965C135.99 265.965 135.99 265.965 135.831 265.805L135.671 265.646C135.511 265.486 135.511 265.486 135.352 265.326L135.192 265.167C135.192 265.167 135.192 265.167 135.192 265.007C135.033 264.848 135.192 265.167 135.192 265.007C135.033 264.688 134.873 264.528 134.713 264.209C134.554 263.89 134.235 263.89 133.915 264.05C133.596 264.05 133.437 264.369 133.596 264.688Z" fill="#B77115"/>
<path d="M140.778 262.932C141.416 263.73 142.214 264.528 143.012 265.007C143.331 265.167 143.65 265.007 143.81 264.847C143.97 264.528 143.81 264.209 143.65 264.05C143.491 263.89 143.331 263.89 143.012 263.73C143.012 263.73 142.853 263.73 142.853 263.571C142.853 263.571 142.853 263.571 142.693 263.571C142.693 263.571 142.853 263.571 142.693 263.571C142.533 263.571 142.533 263.411 142.374 263.411C142.214 263.252 142.055 263.092 141.895 262.932C141.735 262.773 141.735 262.773 141.735 262.613C141.735 262.613 141.735 262.454 141.576 262.454C141.576 262.454 141.576 262.454 141.576 262.294C141.416 262.134 141.416 262.134 141.257 261.975C141.097 261.975 140.937 261.975 140.778 261.975C140.778 262.294 140.618 262.613 140.778 262.932Z" fill="#B77115"/>
<path d="M144.608 261.336C145.406 261.656 146.204 261.975 147.162 262.454C147.321 262.454 147.481 262.613 147.64 262.454C147.8 262.454 147.959 262.294 147.959 262.134C148.119 261.815 148.119 261.496 147.8 261.336C147.002 261.017 146.204 260.698 145.246 260.219C145.087 260.219 144.927 260.06 144.768 260.219C144.608 260.219 144.448 260.379 144.448 260.539C144.129 260.698 144.289 261.177 144.608 261.336Z" fill="#B77115"/>
<path d="M148.279 256.709C149.236 256.868 150.194 257.028 151.151 257.187C151.47 257.187 151.79 257.187 151.79 256.868C151.79 256.549 151.63 256.23 151.47 256.23C150.513 256.07 149.555 255.911 148.598 255.751C148.279 255.751 147.959 255.751 147.959 256.07C147.8 256.23 147.959 256.549 148.279 256.709Z" fill="#B77115"/>
<path d="M149.396 252.718C150.353 253.038 151.47 252.878 152.428 252.399C152.747 252.24 152.747 251.921 152.588 251.601C152.428 251.282 152.109 251.282 151.79 251.442C151.79 251.442 151.79 251.442 151.63 251.442H151.47C151.311 251.442 151.311 251.442 151.151 251.601C150.992 251.601 150.992 251.601 150.832 251.601H150.672C150.832 251.601 150.513 251.601 150.513 251.601C150.353 251.601 150.034 251.601 149.875 251.601H149.715C149.715 251.601 149.715 251.601 149.555 251.601C149.396 251.601 149.396 251.601 149.236 251.601C148.917 251.601 148.598 251.761 148.598 251.921C148.917 252.399 149.077 252.718 149.396 252.718Z" fill="#B77115"/>
<path d="M150.672 248.729C151.151 248.888 151.63 249.208 152.109 249.367C152.268 249.367 152.428 249.527 152.588 249.367C152.747 249.367 152.907 249.208 152.907 249.048C152.907 248.888 153.066 248.729 152.907 248.569C152.907 248.41 152.747 248.25 152.588 248.25C152.109 248.09 151.63 247.771 151.151 247.612C150.992 247.612 150.832 247.452 150.672 247.612C150.513 247.612 150.353 247.771 150.353 247.931C150.353 248.09 150.194 248.25 150.353 248.41C150.353 248.569 150.513 248.729 150.672 248.729Z" fill="#B77115"/>
<path d="M151.151 245.856C151.63 246.016 152.109 246.175 152.588 246.175C152.747 246.175 152.907 246.175 153.066 246.175C153.226 246.175 153.226 246.016 153.386 245.856C153.386 245.537 153.226 245.218 153.066 245.218C152.588 245.058 152.109 244.899 151.63 244.899C151.47 244.899 151.311 244.899 151.151 244.899C150.992 244.899 150.992 245.058 150.832 245.218C150.673 245.537 150.832 245.856 151.151 245.856Z" fill="#B77115"/>
<path d="M197.113 46.049C199.028 50.1984 201.103 54.1881 203.497 58.0183C204.135 59.1354 204.774 60.2526 205.572 61.2101C205.731 61.5293 206.05 61.5293 206.37 61.3697C206.689 61.2101 206.689 60.8909 206.529 60.5717C203.976 56.7416 201.741 52.9114 199.826 48.9216C199.188 47.8045 198.709 46.6874 198.23 45.4107C198.071 45.0915 197.752 45.0915 197.432 45.2511C197.113 45.4107 196.954 45.7298 197.113 46.049Z" fill="#EFA02A"/>
<path d="M200.943 45.7299C202.699 49.5601 204.614 53.3903 206.848 57.0608C207.487 58.0184 208.125 59.1355 208.763 60.0931C208.923 60.4122 209.242 60.4122 209.561 60.2527C209.881 60.0931 209.881 59.7739 209.721 59.4547C207.327 55.9437 205.252 52.2731 203.337 48.443C202.859 47.3258 202.38 46.2087 201.901 45.0916C201.741 44.7724 201.422 44.7724 201.103 44.932C200.943 45.0916 200.784 45.4107 200.943 45.7299Z" fill="#EFA02A"/>
<path d="M298.134 87.8615C301.166 81.4779 300.368 73.3388 296.059 67.7531C293.985 65.1997 291.272 63.125 289.676 60.2524C288.08 57.3797 288.08 53.0708 290.952 51.3153C293.187 50.0386 296.059 50.6769 297.974 52.4324C299.889 54.0283 301.007 56.4222 302.124 58.8161C301.485 54.5071 306.273 50.3578 310.422 51.6345C313.774 52.7516 315.849 56.4222 315.849 59.9332C315.849 63.4442 314.412 66.7956 312.657 69.9874C310.582 73.658 308.188 77.0094 305.635 80.2012L298.134 87.8615Z" fill="#B03537"/>
<path d="M114.605 58.976C115.243 56.9014 116.52 54.6671 118.754 54.1883C120.35 53.8691 122.106 54.8267 123.063 56.1034C124.021 57.5397 124.021 59.2952 123.542 60.8911C124.5 59.4548 125.617 57.8589 127.213 57.061C128.809 56.263 130.883 56.1034 132.16 57.5397C133.596 59.1356 132.798 61.6891 131.681 63.285C129.926 65.8384 127.213 67.5939 125.138 69.9878C122.904 72.5412 121.467 75.8926 121.148 79.4036C120.989 79.5632 112.211 65.998 114.605 58.976Z" fill="#B03537"/>
</svg>
