<svg width="425" height="366" viewBox="0 0 425 366" fill="none" xmlns="http://www.w3.org/2000/svg">
<path d="M63.6592 68.7817C33.7167 96.4183 12.6732 133.372 3.98364 173.152C-1.56514 198.486 -1.98392 225.39 7.01977 249.676C16.0235 273.963 35.2872 295.109 60.0996 302.437C86.5872 310.289 114.855 301.914 142.18 297.622C169.505 293.33 201.646 294.795 219.234 316.151C227.401 325.991 231.798 339.496 242.895 345.881C256.506 353.733 273.675 347.347 287.39 339.705C350.835 304.531 399.099 242.977 418.048 172.943C425.586 145.306 428.518 115.262 418.991 88.253C412.186 69.2004 397.947 51.5087 379.416 42.8199C357.221 32.4562 334.084 38.6325 312.412 47.3213C292.102 55.4867 266.975 67.5254 245.094 58.5226C229.599 52.1368 221.014 37.7951 208.556 27.536C194.945 16.4394 177.776 16.0207 161.234 19.1612C137.259 23.558 113.494 33.503 92.9735 46.3792C82.5041 52.8696 72.6629 60.4069 63.6592 68.7817Z" fill="#F0C6B6"/>
<path d="M260.644 127.181C257.366 122.265 253.269 117.759 248.352 114.071C246.508 112.638 244.665 111.409 242.411 110.794C237.29 109.155 231.759 111.613 227.252 114.686C214.96 122.88 205.947 135.989 202.669 150.533C202.464 151.147 202.464 151.762 202.874 152.376C203.283 152.786 204.103 152.786 204.717 152.581C219.467 149.509 231.144 138.652 243.231 129.639C245.484 128.001 247.942 126.157 250.81 125.543C253.679 124.723 256.956 125.338 259.005 127.386L260.644 127.181Z" fill="#894610"/>
<path d="M250.606 119.397C250.196 121.651 249.581 123.699 248.762 125.952C248.557 126.362 248.967 126.771 249.172 126.771C249.581 126.976 249.991 126.567 249.991 126.362C250.811 124.313 251.425 122.06 251.835 119.807C251.835 119.397 251.63 118.988 251.425 118.988C251.22 118.783 250.811 118.988 250.606 119.397Z" fill="#492405"/>
<path d="M221.516 142.544C225.818 139.267 230.12 136.194 234.422 133.121C235.651 132.302 236.88 131.483 238.109 130.663C238.519 130.459 238.519 130.049 238.314 129.639C238.109 129.23 237.7 129.23 237.29 129.434C232.783 132.507 228.481 135.58 224.179 138.652C222.95 139.471 221.721 140.496 220.491 141.315C220.082 141.52 220.082 141.93 220.287 142.339C220.696 142.544 221.106 142.749 221.516 142.544Z" fill="#492405"/>
<path d="M159.444 111.818C161.697 122.265 168.253 131.688 177.471 137.218C177.266 128.82 176.447 120.422 175.013 112.023L159.444 111.818Z" fill="#663304"/>
<path d="M164.975 52.6196C165.794 66.7535 167.023 80.6826 168.662 94.8165C163.131 92.5633 156.166 95.8407 153.708 101.371C151.249 106.697 152.888 113.457 157.19 117.759C161.492 122.06 167.638 123.699 173.784 123.289C175.423 135.58 175.832 148.075 175.013 160.57C185.666 165.281 198.162 165.486 209.019 161.389C210.453 152.172 208.815 130.049 209.019 130.254C209.224 130.459 228.276 126.157 232.373 122.265C238.724 116.325 238.929 106.288 238.109 97.4794C236.47 80.2729 233.398 63.2712 228.481 46.6792L187.509 10.2178L159.444 36.6421L164.975 52.6196Z" fill="#FAC7B2"/>
<path d="M219.262 22.7131C225.613 25.9906 229.915 39.3051 228.481 46.2697C226.637 55.4875 225.203 61.6327 217.828 67.3682C222.13 57.9455 222.335 46.8842 218.238 37.4616C217.828 45.2455 213.936 52.4149 208.61 58.1504C203.283 63.8859 196.728 68.3924 190.377 72.694C198.572 63.0665 202.054 49.7519 199.596 37.4616C195.089 49.5471 187.304 60.4036 177.062 68.5972C179.93 60.4036 180.339 51.1858 178.496 42.7874C175.218 55.2826 171.94 67.9827 168.867 80.4779C167.638 72.0795 166.614 63.8859 165.385 55.4875C168.048 71.8746 169.687 88.6715 170.301 105.263C171.325 101.576 168.253 97.4796 164.36 96.6602C160.468 95.8409 156.576 97.8893 154.117 100.962C150.43 87.6473 150.43 73.3085 153.913 59.7891C155.347 54.4633 157.395 49.1374 160.468 44.631C166.409 36.2325 176.242 31.3164 186.075 27.8341C199.596 23.1228 205.537 18.8212 219.262 22.7131Z" fill="#663304"/>
<path d="M168.457 76.5859C170.916 78.4295 171.94 82.7311 171.94 86.8279C171.94 90.9247 171.326 94.8167 171.326 98.9135C171.53 103.01 172.555 107.312 175.218 108.746C173.374 109.77 171.121 107.926 169.892 105.468C168.662 103.01 168.253 99.9377 167.433 97.0699C165.794 90.7199 162.517 85.1892 158.215 81.9118C157.6 81.5021 156.985 81.0924 156.576 81.5021L168.457 76.5859Z" fill="#663304"/>
<path d="M176.242 4.0726C175.218 1.40969 171.53 0.18065 168.867 1.40969C166.204 2.43389 164.565 5.50648 164.565 8.37423C169.072 7.75972 173.579 6.32584 177.881 4.48228L176.242 4.0726Z" fill="#CE8320"/>
<path d="M176.242 41.968C159.649 45.4503 143.67 50.981 128.305 58.1503C121.135 61.6326 113.76 65.7294 109.253 72.4891C108.024 74.5375 107 76.7908 107.205 79.2488C107.615 82.5263 110.483 84.9843 113.555 86.0085C116.628 87.0327 120.111 86.8279 123.389 86.6231C136.295 85.5989 149.406 82.7311 161.902 80.273C162.926 80.0682 163.746 80.6827 164.36 79.6585C164.77 79.044 164.975 78.4295 164.975 77.6101C165.794 72.0794 166.409 66.3439 167.228 60.8133L176.242 41.968Z" fill="#6B74B5"/>
<path d="M146.128 80.6826C136.295 82.5261 126.462 84.3697 116.628 83.7552C113.555 83.5503 110.073 82.9358 108.434 80.2729C107.205 78.2245 108.434 75.3568 108.844 73.1035C108.229 75.5616 106.181 76.381 107.205 81.7068C107.615 84.1649 109.868 85.5987 112.326 86.4181C113.555 86.8278 117.243 87.0326 118.472 87.0326C129.534 86.6229 138.548 85.5987 149.611 83.1407L146.128 80.6826Z" fill="#535D91"/>
<path d="M143.465 30.2921C150.84 15.1339 166.819 3.66292 184.027 3.25324C195.704 3.0484 207.176 7.75972 215.78 15.5436C224.384 23.3275 229.3 41.3534 231.964 52.4148C232.578 55.0777 176.857 80.4778 146.743 83.7552C144.899 83.9601 135.066 46.8841 143.465 30.2921ZM181.978 58.3551C182.593 62.6567 183.617 66.9584 185.051 71.26C195.499 67.5729 205.332 62.2471 214.346 55.6922L214.96 55.4873C213.321 48.1131 207.585 41.7631 200.211 39.5099C195.294 37.8711 189.558 38.2808 185.666 41.7631C181.364 45.4502 181.159 52.4148 181.978 58.3551Z" fill="#EFA02A"/>
<path d="M218.853 60.1987C217.828 57.7406 216.804 55.0777 215.78 52.6196C200.211 58.56 184.846 65.7294 170.301 73.7181C168.253 74.7423 169.277 77.8149 171.53 77.6101C183.002 76.381 210.453 65.9342 218.853 60.1987Z" fill="#6B74B5"/>
<path d="M213.526 52.4149C211.068 56.9213 208.405 61.4278 204.717 64.9101C202.259 67.1633 199.391 69.0069 196.318 70.8504C194.065 72.2843 192.016 73.5133 189.353 74.1279C194.474 67.1633 198.162 59.3794 200.825 50.981C203.898 52.0052 207.381 51.8003 210.044 50.1616L213.526 52.4149Z" fill="#663304"/>
<path d="M213.403 58.6317C213.431 58.0667 212.996 57.586 212.431 57.5579C211.866 57.5298 211.385 57.965 211.357 58.53C211.329 59.095 211.764 59.5757 212.329 59.6038C212.894 59.6319 213.375 59.1967 213.403 58.6317Z" fill="#EFA02A"/>
<path d="M191.818 67.5756C191.846 67.0106 191.41 66.5299 190.845 66.5019C190.28 66.4739 189.8 66.9091 189.772 67.4741C189.743 68.0391 190.179 68.5198 190.744 68.5478C191.309 68.5758 191.79 68.1406 191.818 67.5756Z" fill="#EFA02A"/>
<path d="M185.066 70.9745C185.094 70.4095 184.659 69.9288 184.094 69.9007C183.529 69.8726 183.048 70.3078 183.02 70.8728C182.992 71.4378 183.427 71.9185 183.992 71.9466C184.557 71.9747 185.038 71.5395 185.066 70.9745Z" fill="#EFA02A"/>
<path d="M178.7 76.5859C178.086 74.1278 177.266 71.6698 176.652 69.0068C176.242 69.0068 175.628 69.2117 175.218 69.2117C176.242 71.6697 177.062 74.1278 177.676 76.7907L178.7 76.5859Z" fill="#EFA02A"/>
<path d="M223.155 57.1262C221.106 52.4148 218.648 47.7035 215.165 43.8116C211.887 39.9196 207.585 36.847 202.874 35.2083C198.162 33.5696 192.836 33.3648 188.124 35.0035C185.666 35.8228 183.412 37.2567 181.568 38.8954C180.544 39.9196 179.725 41.1487 179.315 42.3777C178.7 43.8116 178.7 45.2455 178.496 46.6793C177.881 52.8245 178.291 58.9697 179.52 64.9101C179.725 65.7294 179.93 66.3439 180.134 67.1633C180.339 67.9827 181.773 67.7778 181.568 66.7536C179.93 61.0181 179.315 55.0778 179.725 49.1374C179.725 47.7035 179.93 46.2697 180.134 44.8358C180.339 43.6067 180.749 42.1729 181.568 41.1487C182.798 39.1003 185.051 37.6664 187.1 36.6422C191.402 34.7986 196.318 34.5938 200.825 35.8228C205.537 37.0519 209.634 39.7148 212.912 43.1971C216.394 46.6793 218.853 50.981 220.901 55.4874C221.106 56.102 221.311 56.5116 221.516 57.1262C221.721 57.5358 221.926 57.7407 222.335 57.5358C222.95 57.9455 223.155 57.5358 223.155 57.1262Z" fill="#CE8320"/>
<path d="M229.505 44.0165C226.228 45.6552 223.155 47.2939 219.877 48.9326C219.467 49.1375 219.467 49.5472 219.672 49.9568C219.877 50.3665 220.287 50.3665 220.696 50.1617C223.974 48.523 227.047 46.8842 230.325 45.2455C230.734 45.0407 230.734 44.631 230.53 44.2213C230.325 44.0165 229.915 43.8116 229.505 44.0165Z" fill="#CE8320"/>
<path d="M177.471 62.0423C173.579 63.681 169.687 65.3197 165.794 66.5488C161.697 67.7778 157.6 69.0068 153.503 69.8262C151.249 70.4407 148.791 70.8504 146.538 71.2601C146.128 71.2601 145.923 71.8746 146.128 72.0794C146.333 72.4891 146.538 72.694 146.947 72.4891C151.249 71.8746 155.347 70.8504 159.444 69.8262C163.541 68.802 167.638 67.3681 171.53 65.9343C173.784 65.1149 176.037 64.0907 178.291 63.0665C178.7 62.8617 178.7 62.452 178.496 62.0423C178.291 61.8375 177.881 61.8375 177.471 62.0423Z" fill="#CE8320"/>
<path d="M225.203 30.9068C221.516 33.3649 217.623 35.4132 213.321 37.052C212.092 37.4616 210.863 37.8713 209.634 38.281C208.815 38.4858 209.019 39.9197 210.044 39.7149C214.346 38.4858 218.648 36.6423 222.54 34.389C223.564 33.7745 224.794 32.9552 225.818 32.3407C226.228 32.1358 226.228 31.7261 226.023 31.3165C226.023 30.9068 225.613 30.7019 225.203 30.9068Z" fill="#CE8320"/>
<path d="M176.242 50.3663C172.76 52.0051 169.072 53.6438 165.385 54.8728C161.492 56.3067 157.19 57.126 153.093 57.7406C150.43 58.1502 147.562 58.3551 144.899 58.5599C144.489 58.5599 144.079 58.9696 144.079 59.3793C144.079 59.789 144.489 60.1986 144.899 60.1986C149.611 59.9938 154.527 59.3793 159.239 58.1502C163.131 57.3309 167.023 55.897 170.711 54.4631C172.76 53.6438 175.013 52.6196 177.062 51.5954C177.471 51.3905 177.471 50.9809 177.266 50.5712C177.062 50.3663 176.652 50.1615 176.242 50.3663Z" fill="#CE8320"/>
<path d="M218.648 18.821C213.731 20.8694 209.019 23.1227 204.103 25.1711C199.186 27.2195 194.27 29.2679 189.353 31.3163C184.436 33.1598 179.52 35.2082 174.398 36.8469C169.482 38.4857 164.36 40.1244 159.239 41.5582C154.117 42.9921 148.996 44.0163 143.874 45.0405C143.26 45.2454 142.645 45.2454 141.826 45.4502C141.416 45.4502 141.211 46.0647 141.416 46.2696C141.621 46.6792 141.826 46.8841 142.236 46.6792C147.562 45.8599 152.683 44.6308 157.805 43.4018C162.926 42.1728 168.048 40.534 172.964 38.8953C178.086 37.2566 183.002 35.4131 187.919 33.3647C192.836 31.5211 197.752 29.4727 202.669 27.2195C207.585 25.1711 212.502 22.9178 217.214 20.8694C217.828 20.6646 218.443 20.2549 219.057 20.0501C219.877 20.0501 219.877 19.4356 219.672 19.2307C219.467 18.821 219.057 18.821 218.648 18.821Z" fill="#CE8320"/>
<path d="M201.235 8.57917C194.884 11.8566 188.124 14.9292 181.364 17.3873C174.603 19.8453 167.638 21.8937 160.468 23.5325C156.576 24.3518 152.479 25.1712 148.381 25.7857C147.972 25.7857 147.767 26.4002 147.972 26.6051C148.177 27.0147 148.381 27.2196 148.791 27.0147C155.961 25.9905 163.131 24.3518 170.301 22.3034C177.266 20.255 184.232 17.797 190.992 14.9292C194.679 13.2905 198.367 11.4469 202.054 9.60336C202.464 9.39852 202.464 8.98885 202.259 8.57917C202.054 8.37433 201.645 8.37433 201.235 8.57917Z" fill="#CE8320"/>
<path d="M110.687 73.3084C109.663 74.9471 109.868 76.9955 110.687 78.6342C111.507 80.2729 113.146 81.2971 114.785 81.9116C115.194 82.1165 115.399 81.2971 114.989 81.2971C113.555 80.8874 112.121 79.8632 111.302 78.4294C110.483 76.9955 110.483 75.1519 111.302 73.718C111.712 73.3084 110.892 72.8987 110.687 73.3084Z" fill="#535D91"/>
<path d="M130.764 58.1503C126.052 59.9938 121.545 62.4519 117.653 65.5245C116.423 66.3439 115.399 67.3681 114.375 68.1874C113.965 68.5971 114.58 69.0068 114.989 68.8019C118.677 65.5245 122.774 62.6567 127.281 60.6084C128.51 59.9938 129.944 59.3793 131.173 58.9696C131.378 58.7648 131.173 57.9454 130.764 58.1503Z" fill="#535D91"/>
<path d="M143.26 78.4294C140.187 79.2487 137.114 80.0681 134.041 80.6826C133.632 80.6826 133.836 81.502 134.246 81.2971C137.319 80.6826 140.392 79.8632 143.465 79.0439C143.874 79.0439 143.67 78.2245 143.26 78.4294Z" fill="#535D91"/>
<path d="M170.301 111.613C168.048 108.746 165.18 106.288 161.902 104.854C160.878 104.444 160.058 104.034 159.034 103.83C158.215 103.625 157.805 105.059 158.624 105.263C161.902 106.083 164.77 107.926 167.228 110.18C167.843 110.794 168.457 111.613 169.072 112.228C169.277 112.638 169.687 112.638 170.096 112.433C170.506 112.433 170.711 111.818 170.301 111.613Z" fill="#BF8271"/>
<path d="M163.541 106.902C161.902 109.155 161.697 112.433 162.926 115.096C163.131 115.505 163.541 115.505 163.951 115.3C164.36 115.096 164.36 114.686 164.155 114.276C163.131 112.228 163.336 109.565 164.77 107.721C164.975 107.312 164.77 106.902 164.565 106.697C164.155 106.492 163.746 106.697 163.541 106.902Z" fill="#BF8271"/>
<path opacity="0.56" d="M208.815 130.049L186.075 131.483L208.815 138.447V130.049Z" fill="#BF8271"/>
<path d="M206.766 77.4051C209.839 79.8632 212.092 82.731 213.936 86.2132C215.575 89.4907 216.599 93.3826 216.804 97.0697C217.009 99.1181 216.804 101.371 216.394 103.42C216.599 103.215 216.804 103.01 217.009 102.805C213.936 103.01 211.068 103.215 208.2 103.625C207.79 103.625 207.381 103.829 207.381 104.444C207.381 104.854 207.79 105.263 208.2 105.263C211.068 104.854 214.141 104.649 217.009 104.444C217.214 104.444 217.623 104.239 217.623 103.829C218.443 99.9375 218.238 95.8407 217.419 91.9487C216.599 88.0568 214.755 84.5745 212.502 81.2971C211.068 79.4535 209.634 77.8148 207.79 76.3809C207.381 76.1761 206.971 76.1761 206.766 76.3809C206.561 76.5858 206.356 77.2003 206.766 77.4051Z" fill="#BF8271"/>
<path d="M200.006 91.539C198.981 89.4906 196.523 88.2616 194.27 88.0567C192.016 87.8519 189.763 88.8761 188.534 90.5148C187.714 91.539 187.304 92.5632 186.895 93.7922C186.69 94.2019 187.1 94.6116 187.304 94.6116C187.714 94.8164 188.124 94.4068 188.124 94.2019C188.534 93.3826 188.738 92.5632 189.353 91.7438C189.763 91.1293 190.377 90.5148 190.992 90.1051C192.631 89.2858 194.679 89.2858 196.318 90.1051C197.343 90.5148 197.957 91.3342 198.572 92.1535C198.777 92.5632 199.186 92.5632 199.596 92.3584C200.006 92.1535 200.211 91.7438 200.006 91.539Z" fill="black"/>
<path d="M233.193 82.936C232.168 80.8876 229.71 79.6585 227.457 79.4537C225.203 79.2489 222.95 80.2731 221.721 81.9118C220.901 82.936 220.491 83.9602 220.082 85.1892C219.877 85.5989 220.287 86.0086 220.491 86.0086C220.901 86.2134 221.311 85.8037 221.311 85.5989C221.721 84.7795 221.925 83.9602 222.54 83.1408C222.95 82.5263 223.564 81.9118 224.179 81.5021C225.818 80.6827 227.866 80.6827 229.505 81.5021C230.53 81.9118 231.144 82.7311 231.759 83.5505C231.964 83.9602 232.373 83.9602 232.783 83.7553C233.193 83.7553 233.398 83.3457 233.193 82.936Z" fill="black"/>
<path d="M196.318 76.7906C196.523 77.4051 196.318 78.2245 195.909 78.839C195.704 79.2486 195.294 79.4535 194.884 79.6583C190.582 82.1164 186.69 84.9842 183.207 88.4664C182.183 89.4906 180.749 89.6955 179.725 88.8761C175.628 85.5987 187.919 78.4293 192.016 75.5615C193.45 74.3325 195.909 74.947 196.318 76.7906Z" fill="#663304"/>
<path d="M212.092 71.8745C212.502 72.489 212.912 72.8987 213.731 73.1036C214.141 73.1036 214.551 73.1036 214.96 73.1036C219.672 72.0794 224.589 71.6697 229.505 71.8745C230.939 71.8745 232.168 71.0552 232.373 69.8261C233.193 64.7051 219.262 67.5729 214.141 67.9826C212.502 67.9826 211.273 70.031 212.092 71.8745Z" fill="#663304"/>
<path d="M197.342 73.718C197.752 74.7422 198.367 75.5616 198.777 76.5858C198.777 76.7906 199.186 76.7906 199.186 76.7906C199.391 76.5858 199.391 76.3809 199.391 76.3809C198.981 75.3567 198.367 74.5374 197.957 73.5132C197.957 73.3084 197.547 73.3083 197.547 73.3083C197.343 73.3083 197.342 73.5132 197.342 73.718Z" fill="#663304"/>
<path d="M195.909 74.5374C196.318 75.5616 196.728 76.3809 197.138 77.4051C197.138 77.61 197.547 77.61 197.547 77.61C197.752 77.4051 197.752 77.2003 197.752 77.2003C197.343 76.1761 196.933 75.3567 196.523 74.3325C196.523 74.1277 196.113 74.1277 196.113 74.1277C195.909 74.1277 195.909 74.3325 195.909 74.5374Z" fill="#663304"/>
<path d="M210.249 68.3923C210.453 69.4165 210.453 70.4407 210.658 71.4649C210.658 71.6698 210.863 71.8746 211.068 71.8746C211.273 71.8746 211.478 71.6698 211.478 71.4649C211.273 70.4407 211.273 69.4165 211.068 68.3923C211.068 68.1875 210.863 67.9827 210.658 67.9827C210.453 67.9827 210.249 68.1875 210.249 68.3923Z" fill="#663304"/>
<path d="M208.61 69.2117C208.61 69.8262 208.61 70.4407 208.61 71.2601C208.61 71.4649 208.815 71.6698 209.019 71.6698C209.224 71.6698 209.429 71.4649 209.429 71.2601C209.429 70.6456 209.429 70.031 209.429 69.2117C209.429 69.0068 209.224 68.802 209.019 68.802C208.61 69.0068 208.61 69.0068 208.61 69.2117Z" fill="#663304"/>
<path d="M213.936 108.131C210.658 109.565 206.561 109.155 203.283 107.312C202.464 106.697 201.645 106.083 201.03 105.263C200.825 105.059 200.211 105.059 200.006 105.263C199.801 105.468 199.801 106.083 200.006 106.288C202.669 109.36 207.176 110.999 211.273 110.384C212.502 110.18 213.526 109.975 214.755 109.36C215.165 109.155 215.165 108.746 214.96 108.336C214.755 108.131 214.346 108.131 213.936 108.131Z" fill="#BF8271"/>
<path d="M301.615 238.204C295.674 269.954 285.227 283.474 286.661 344.721C286.661 349.022 279.9 349.842 276.008 351.276C261.053 356.397 244.665 352.505 229.096 353.529C214.551 354.553 200.825 359.674 186.485 362.747C172.35 365.819 156.781 366.844 143.874 359.879C129.33 352.095 121.135 352.505 119.496 336.118C117.857 319.73 121.75 303.343 126.257 287.366C132.402 265.448 139.368 243.735 146.743 222.022C148.996 215.262 151.454 208.298 155.551 202.152C160.468 194.573 167.843 188.633 171.121 180.03L301.615 238.204Z" fill="#D15259"/>
<path d="M213.936 143.773C201.235 148.485 186.69 147.87 174.603 141.93C171.94 146.436 171.94 152.581 168.253 156.473C166.614 158.317 164.155 159.341 162.107 160.57C145.923 169.173 133.632 183.922 126.052 200.719C118.677 217.311 115.809 235.951 116.219 254.182C116.423 270.979 119.701 288.39 129.739 301.705C146.128 295.15 163.746 291.667 181.364 291.258C180.749 283.269 180.749 275.28 181.159 267.496C181.364 265.038 181.364 262.375 182.593 260.122C183.617 258.483 185.051 257.05 186.485 255.821C196.113 247.422 207.176 240.662 219.467 236.975C231.964 233.288 245.279 233.493 258.39 233.698C268.428 233.903 278.262 233.903 288.3 234.108C299.977 234.312 311.653 234.312 323.126 232.059C334.598 229.806 345.66 224.89 353.649 216.286C356.108 213.624 358.156 210.756 359.181 207.478C362.253 198.875 358.361 182.693 352.215 176.138C346.07 169.583 337.466 165.281 328.862 161.799C296.494 148.485 254.088 150.943 219.057 150.123C217.214 149.714 213.936 143.773 213.936 143.773Z" fill="#D15259"/>
<path d="M167.638 196.007C169.891 201.743 172.145 207.478 173.579 213.624C174.808 218.335 175.832 223.251 176.447 228.167C177.062 232.879 177.062 237.59 177.062 242.301C177.062 247.627 176.857 252.953 176.652 258.279C176.447 265.038 176.242 271.798 176.242 278.558C176.242 279.582 176.242 280.401 176.242 281.426C176.242 282.45 177.676 282.45 177.676 281.426C177.676 274.461 177.676 267.292 177.881 260.327C178.086 254.796 178.291 249.471 178.291 243.94C178.291 239.229 178.291 234.312 177.676 229.601C177.266 224.685 176.242 219.769 175.218 215.057C173.784 209.117 171.735 203.586 169.687 197.851C169.277 197.032 169.072 196.212 168.662 195.393C168.457 194.983 168.253 194.778 167.843 194.983C167.843 195.188 167.433 195.598 167.638 196.007Z" fill="#821E23"/>
<path d="M174.398 273.437C170.916 272.003 167.228 272.413 163.541 273.027C159.853 273.642 156.371 274.461 152.888 275.485C145.718 277.534 138.958 280.197 132.402 283.679C130.559 284.498 128.92 285.522 127.281 286.547C125.642 287.571 124.208 288.8 123.184 290.439C122.979 290.848 123.184 291.258 123.389 291.463C123.798 291.668 124.208 291.463 124.413 291.258C125.232 290.029 126.462 289.005 127.691 288.185C129.125 287.161 130.559 286.547 132.198 285.727C135.27 284.089 138.548 282.655 141.826 281.221C148.586 278.558 155.347 276.509 162.517 275.076C166.409 274.256 170.301 273.642 173.989 275.28C174.398 275.485 174.808 275.076 174.808 274.871C175.013 273.847 174.808 273.642 174.398 273.437Z" fill="#821E23"/>
<path d="M129.944 287.366C131.173 290.438 132.607 293.511 133.836 296.584C134.041 296.993 134.451 296.993 134.861 296.788C135.27 296.584 135.27 296.174 135.066 295.764C133.836 292.692 132.402 289.619 131.173 286.546C130.968 286.137 130.559 286.137 130.149 286.342C129.944 286.546 129.739 286.956 129.944 287.366Z" fill="#821E23"/>
<path d="M135.885 286.546C136.704 289.209 137.524 291.872 138.343 294.535C138.548 295.355 139.982 295.15 139.777 294.125C138.958 291.463 138.138 288.8 137.319 286.137C136.909 285.113 135.475 285.522 135.885 286.546Z" fill="#821E23"/>
<path d="M141.416 282.655C142.645 285.318 143.67 287.98 144.899 290.643C145.104 291.053 145.513 291.053 145.923 290.848C146.333 290.643 146.333 290.234 146.128 289.824C144.899 287.161 143.874 284.498 142.645 281.835C142.44 281.426 142.031 281.426 141.621 281.63C141.416 281.835 141.211 282.245 141.416 282.655Z" fill="#821E23"/>
<path d="M147.972 280.401C149.201 283.064 150.225 285.932 150.635 288.8C150.635 289.209 151.249 289.414 151.454 289.209C151.864 289.004 152.069 288.8 151.864 288.39C151.454 285.317 150.43 282.45 148.996 279.582C148.791 279.172 148.381 279.172 147.972 279.377C147.767 279.582 147.767 279.991 147.972 280.401Z" fill="#821E23"/>
<path d="M153.093 278.967C153.708 281.63 154.527 284.293 155.142 286.956C155.347 287.776 156.781 287.571 156.576 286.546C155.961 283.884 155.142 281.221 154.527 278.558C154.322 277.738 152.888 278.148 153.093 278.967Z" fill="#821E23"/>
<path d="M160.263 275.69C160.878 278.763 161.492 281.835 162.107 284.703C162.107 285.113 162.721 285.317 162.926 285.113C163.336 284.908 163.541 284.703 163.336 284.293C162.721 281.221 162.107 278.148 161.492 275.28C161.492 274.871 160.878 274.666 160.673 274.871C160.468 274.871 160.263 275.28 160.263 275.69Z" fill="#821E23"/>
<path d="M164.565 276.1C165.18 278.558 165.794 281.016 166.204 283.474C166.204 283.884 166.819 284.088 167.023 283.884C167.433 283.679 167.638 283.269 167.433 283.064C166.819 280.606 166.204 278.148 165.794 275.69C165.794 275.28 165.18 275.075 164.975 275.28C164.77 275.28 164.565 275.69 164.565 276.1Z" fill="#821E23"/>
<path d="M169.687 276.1C170.301 278.353 170.916 280.606 171.325 283.064C171.53 283.884 172.964 283.679 172.759 282.655C172.145 280.401 171.53 278.148 171.121 275.69C170.916 274.871 169.482 275.28 169.687 276.1Z" fill="#821E23"/>
<path d="M246.304 297.813C252.449 308.464 263.717 315.019 274.984 319.935C280.72 322.393 286.661 324.851 292.806 324.851C304.279 325.056 314.521 318.297 323.945 311.537C309.605 315.429 293.831 313.176 281.334 305.187C268.838 297.403 259.824 284.088 257.161 269.545L246.304 297.813Z" fill="#492405"/>
<path d="M305.713 168.559C308.785 186.994 309.195 206.044 307.147 224.685C306.327 232.674 304.893 240.662 301.615 248.037C297.108 257.869 289.529 266.062 281.949 273.642C271.501 283.883 260.644 293.716 247.738 300.271C234.832 307.03 219.672 310.308 205.537 307.03C191.402 303.753 178.496 293.101 175.013 278.967C172.145 267.291 175.628 255.001 180.749 244.145C187.1 230.215 196.933 216.286 211.478 211.37C214.141 210.551 217.214 209.732 218.648 207.273C219.672 205.84 219.877 204.201 220.082 202.562C221.516 193.754 223.769 185.151 226.842 176.957C229.505 169.788 233.193 162.209 240.158 158.726C244.05 156.678 248.557 156.268 252.859 156.268C261.258 155.859 269.862 156.473 278.262 156.883C284.817 157.293 291.987 157.907 297.313 161.799C301.615 165.077 304.279 169.993 306.737 174.704L305.713 168.559Z" fill="#BA702D"/>
<path d="M328.452 169.583C325.379 168.559 322.101 168.354 318.823 168.968C300.181 172.86 281.539 176.752 262.487 178.391C251.63 179.415 240.772 179.62 230.325 181.669C219.057 183.922 208.2 188.428 197.547 193.14C196.113 193.754 194.474 194.573 193.45 195.802C192.221 197.646 192.016 199.694 191.811 201.743C191.197 208.912 190.787 215.877 190.172 223.046C189.968 224.89 189.968 226.938 190.787 228.782C191.606 230.42 193.45 231.649 195.089 232.674C198.981 234.927 203.079 236.975 207.176 238.819C209.019 239.638 211.068 240.458 213.117 239.843C215.165 239.228 216.394 237.385 217.623 235.541C222.335 228.372 227.047 221.203 231.759 214.033C232.783 212.394 233.807 210.961 235.446 210.141C236.88 209.322 238.724 209.527 240.363 209.732C272.321 212.19 303.664 220.793 335.622 222.227C337.466 222.227 339.514 222.432 341.358 221.612C343.202 220.793 344.636 219.359 346.07 217.925C349.347 214.648 352.42 211.37 355.698 208.093C356.927 206.864 358.361 205.43 358.771 203.586C359.385 201.538 358.566 199.285 357.747 197.236C352.42 184.331 341.563 174.089 328.452 169.583Z" fill="#FAC7B2"/>
<path d="M293.216 164.257C289.529 167.33 285.841 170.607 282.154 173.68C277.032 177.981 271.911 182.488 268.223 188.018C264.741 193.549 262.897 200.309 264.946 207.683C266.994 214.852 273.14 222.841 281.539 225.914C290.553 229.191 290.348 200.719 289.938 199.694C289.734 198.67 290.143 197.851 290.758 197.031C296.494 188.428 300.386 178.596 302.23 168.149C302.64 165.486 298.952 162.414 296.084 163.438C294.036 164.257 293.216 164.257 293.216 164.257Z" fill="#894610"/>
<path d="M238.109 148.28C233.193 150.943 228.481 154.015 224.179 157.498C220.901 160.365 217.623 163.643 216.394 167.74C214.96 172.246 216.394 177.162 218.238 181.669C221.311 189.248 226.023 196.212 231.759 201.948C232.578 202.767 233.602 203.586 234.627 203.996C238.109 205.225 241.387 201.333 242.411 197.851C244.46 191.501 243.436 184.536 242.411 177.982C242.206 177.162 242.002 175.933 242.206 174.909C242.411 173.885 243.231 172.861 243.845 172.041C245.894 169.378 247.738 166.92 249.786 164.257C250.401 163.438 251.015 162.619 251.015 161.799C251.22 160.365 250.401 159.136 249.581 157.907C246.713 154.015 243.231 150.738 239.338 148.28H238.109Z" fill="#894610"/>
<path d="M272.321 243.94C264.536 235.951 255.727 237.59 244.87 240.253C234.012 242.916 224.589 249.061 215.37 255.206C216.189 244.349 215.37 233.288 213.321 222.432C212.502 218.54 211.273 214.238 207.585 212.804C205.742 212.19 203.693 212.394 202.054 213.214C196.728 215.467 194.065 221.407 192.631 227.143C188.329 243.735 188.943 260.941 189.558 278.148C189.763 281.63 189.763 285.112 191.402 288.185C192.836 291.258 196.113 293.716 199.391 293.306C203.283 292.692 206.151 288.595 210.044 288.595C214.141 288.595 216.804 292.896 219.467 296.174C226.228 305.392 239.134 310.922 249.786 306.825C255.727 304.572 260.234 299.861 264.126 294.945C275.189 280.196 280.925 259.712 272.321 243.94Z" fill="#894610"/>
<path d="M198.162 220.588C199.391 216.491 199.186 212.19 197.957 208.093C197.752 207.478 197.547 206.864 196.933 206.249C195.704 205.225 193.86 205.635 192.426 206.249C182.183 210.551 176.652 221.612 172.555 231.854C168.457 241.687 164.975 251.929 163.131 262.58C162.517 266.267 162.312 270.569 164.77 273.437C167.843 276.919 173.579 276.509 177.471 273.642C181.159 270.774 183.207 266.472 184.846 262.171C191.197 246.603 195.704 230.42 198.572 213.828L198.162 220.588Z" fill="#894610"/>
<path d="M248.967 114.072C265.97 115.71 282.973 118.373 299.772 122.06C300.386 122.265 301.001 122.265 301.411 122.88C301.82 123.289 301.82 123.904 302.025 124.314C303.664 133.122 305.303 141.93 306.942 150.738C307.556 154.425 308.376 158.317 306.942 161.799C304.893 167.535 298.338 170.198 292.397 172.246C289.529 173.27 286.661 174.09 283.998 174.909C276.828 177.162 269.043 179.415 261.668 178.186C250.196 176.548 240.977 167.125 236.061 156.678C234.422 153.196 233.193 149.509 233.398 145.617C234.012 133.736 248.147 125.543 248.352 113.662L248.967 114.072Z" fill="#894610"/>
<path d="M250.196 114.276C255.522 116.325 259.824 121.036 261.053 126.772C262.283 132.302 260.644 138.447 256.751 142.749C254.088 145.617 250.401 147.665 247.123 150.123C243.845 152.581 240.977 156.064 240.977 160.16C240.977 162.414 241.797 164.462 243.026 166.51C246.304 172.041 251.835 176.548 257.981 178.186C264.331 180.03 271.296 179.211 277.032 176.343C279.081 175.319 281.13 173.885 282.154 171.836C283.588 169.378 283.588 166.306 283.383 163.438C282.973 160.16 282.154 157.088 281.13 154.015C279.9 150.943 278.262 148.075 277.442 144.797C274.779 135.785 277.852 125.133 285.022 118.988C274.164 115.915 262.897 114.276 251.63 114.276H250.196Z" fill="#BA702D"/>
<path d="M286.046 126.157C288.709 124.313 291.372 122.47 294.24 120.831C296.699 119.192 299.157 117.554 302.025 117.349C305.713 116.939 308.99 118.988 311.858 121.446C314.726 123.904 317.185 126.976 319.438 130.049C323.945 135.784 328.247 141.725 331.32 148.484C334.393 155.244 336.441 162.414 335.622 169.583C335.622 170.402 335.417 171.222 335.007 172.041C334.188 173.475 332.344 174.089 330.5 173.885C328.862 173.68 327.223 172.656 325.994 171.836C316.16 164.667 310.834 153.196 306.327 141.93C304.483 137.013 302.23 131.688 297.723 129.23C294.24 127.181 290.143 127.181 286.251 127.386L286.046 126.157Z" fill="#894610"/>
<path d="M131.993 301.705C135.68 316.248 140.187 331.611 151.864 341.239C154.527 343.492 157.805 345.335 161.287 345.54C163.951 345.745 166.614 344.721 169.277 343.902C207.79 330.382 245.689 315.429 282.973 299.042C287.685 296.993 292.397 294.945 296.084 291.258C303.869 283.884 302.435 260.737 303.049 250.085C303.049 249.675 302.435 249.47 302.23 249.88L300.591 270.569C303.254 265.243 301.206 247.217 300.796 241.277C300.796 240.458 299.567 240.458 299.362 241.072L297.723 266.472C300.181 258.893 299.567 246.398 298.133 238.819C297.928 237.59 296.084 237.385 295.674 238.819L293.421 265.653C294.24 256.845 295.06 248.037 295.879 239.024C296.084 235.951 291.782 235.132 290.963 237.999C289.734 241.891 288.709 245.783 287.89 249.88C286.866 254.796 286.046 259.917 283.383 264.219C280.72 268.521 275.598 271.798 270.682 270.569C272.116 265.038 272.73 259.303 272.116 253.772C271.911 251.109 268.019 250.7 267.199 253.158C264.536 260.532 256.137 287.161 254.703 288.595C253.474 289.824 185.87 300.68 181.568 298.837C177.266 296.993 181.568 298.632 173.374 288.595C173.374 288.595 160.468 285.727 148.996 289.824C138.958 293.101 131.993 301.705 131.993 301.705Z" fill="#FAC7B2"/>
<path d="M294.65 239.433C294.036 245.783 293.216 252.338 292.602 258.688C292.397 260.532 292.192 262.375 291.987 264.014C291.987 264.424 292.397 264.833 292.806 264.833C293.216 264.833 293.421 264.424 293.626 264.014C294.445 257.664 295.265 251.109 295.879 244.759C296.084 242.916 296.289 241.072 296.494 239.433C296.494 239.024 296.084 238.614 295.674 238.614C294.855 238.819 294.65 239.229 294.65 239.433Z" fill="#BF8271"/>
<path d="M298.952 243.53C298.338 249.88 297.723 256.23 297.109 262.58C296.904 264.424 296.699 266.267 296.494 268.111C296.494 268.52 296.904 268.93 297.313 268.93C297.723 268.93 297.928 268.52 298.133 268.111C298.747 261.761 299.362 255.411 299.977 249.061C300.181 247.217 300.386 245.374 300.591 243.53C300.591 243.12 300.181 242.711 299.772 242.711C299.362 242.916 299.157 243.12 298.952 243.53Z" fill="#BF8271"/>
<path d="M301.411 251.519C300.796 257.254 299.977 262.785 299.362 268.521C299.157 270.159 298.952 271.798 298.747 273.437C298.747 273.846 299.157 274.256 299.567 274.256C299.977 274.256 300.181 273.846 300.386 273.437C301.001 267.701 301.82 262.17 302.435 256.435C302.64 254.796 302.845 253.158 303.049 251.519C303.049 251.109 302.64 250.699 302.23 250.699C301.82 250.699 301.615 251.109 301.411 251.519Z" fill="#BF8271"/>
<path d="M290.553 262.785C293.831 265.448 296.494 268.725 298.747 272.208C299.362 273.232 299.977 274.256 300.591 275.28C301.001 276.1 302.23 275.28 301.82 274.461C299.772 270.774 297.109 267.291 294.24 264.219C293.421 263.4 292.397 262.58 291.577 261.761C291.372 261.556 290.758 261.556 290.553 261.761C290.348 262.17 290.348 262.58 290.553 262.785Z" fill="#BF8271"/>
<path d="M255.113 290.234C256.342 292.282 257.776 294.535 259.005 296.584C259.415 297.403 260.849 296.584 260.234 295.764C259.005 293.716 257.571 291.463 256.342 289.414C255.727 288.595 254.498 289.414 255.113 290.234Z" fill="#BF8271"/>
<path d="M258.185 167.33C258.185 166.51 258.39 165.691 258.39 164.667C258.39 163.848 258.185 162.823 257.366 162.414C256.956 162.209 256.342 162.004 255.727 162.004C254.088 161.799 252.449 161.185 251.015 160.365C250.401 159.956 249.991 159.546 249.991 158.931C249.991 158.727 250.196 158.522 250.401 158.317C251.63 157.088 253.679 156.268 255.522 156.268C257.366 156.064 259.21 156.473 261.053 156.678C264.331 157.293 267.814 158.112 270.682 159.751C271.501 160.16 272.116 160.775 272.321 161.594C272.525 162.618 271.706 163.643 270.682 163.848C269.657 164.257 268.633 164.052 267.609 163.848C266.585 163.643 265.56 163.643 264.536 164.052C263.307 164.667 262.692 165.896 261.873 166.92C261.053 167.944 259.619 168.764 258.39 167.944L258.185 167.33Z" fill="black"/>
<path d="M269.248 169.993V169.788C269.248 169.788 269.248 169.788 269.248 169.583C269.248 169.583 269.248 169.583 269.248 169.378C269.248 169.378 269.248 169.378 269.043 169.378C269.043 169.378 269.043 169.378 268.838 169.378H268.633V169.583V169.788C268.633 169.788 268.633 169.788 268.633 169.993C268.633 169.993 268.633 169.993 268.633 170.198C268.633 170.198 268.633 170.198 268.838 170.198C268.838 170.198 268.838 170.198 269.043 170.198H269.248C269.043 170.198 269.043 170.198 269.248 169.993Z" fill="black"/>
<path d="M251.63 171.222C252.04 172.86 253.679 173.885 255.317 173.68C257.161 173.475 258.595 172.041 259.415 170.607C260.029 169.583 260.234 168.559 260.644 167.33C260.439 167.33 260.234 167.33 259.824 167.33C259.824 169.378 258.39 171.427 259.619 173.27C260.849 175.114 263.307 175.114 265.355 174.704C265.765 174.499 265.56 173.885 265.151 174.089C263.512 174.499 261.053 174.499 260.234 172.656C259.824 171.836 260.029 171.017 260.234 169.993C260.439 168.968 260.849 168.149 260.849 167.125C260.849 166.715 260.234 166.715 260.029 167.125C259.415 169.173 258.595 171.427 256.751 172.451C255.932 172.86 255.113 173.065 254.088 172.86C253.269 172.656 252.654 172.041 252.449 171.017C252.245 170.402 251.63 170.607 251.63 171.222Z" fill="black"/>
<path d="M284.202 152.581C285.227 151.147 286.866 150.328 288.504 150.123C290.348 150.123 291.987 150.738 293.011 152.172C293.626 152.991 294.036 153.81 294.24 154.834C294.24 155.244 294.855 155.449 295.06 155.244C295.47 155.039 295.675 154.834 295.47 154.425C295.06 152.376 293.626 150.533 291.782 149.509C289.734 148.484 287.48 148.484 285.432 149.509C284.202 150.123 283.383 150.942 282.564 151.967C282.359 152.376 282.564 152.786 282.768 152.991C283.588 152.991 283.998 152.786 284.202 152.581Z" fill="black"/>
<path d="M241.387 141.93C242.411 140.496 244.05 139.676 245.689 139.472C247.533 139.472 249.172 140.086 250.196 141.52C250.811 142.339 251.22 143.159 251.425 144.183C251.425 144.593 252.04 144.797 252.245 144.593C252.654 144.388 252.859 144.183 252.654 143.773C252.245 141.725 250.811 139.881 248.967 138.857C246.918 137.833 244.665 137.833 242.616 138.857C241.387 139.472 240.568 140.291 239.748 141.315C239.543 141.725 239.748 142.134 239.953 142.339C240.772 142.339 241.182 142.134 241.387 141.93Z" fill="black"/>
<path d="M296.084 123.085C298.543 126.567 300.591 130.254 302.435 134.146C302.845 135.17 303.459 136.399 303.869 137.423C304.074 137.833 304.279 138.038 304.688 137.833C305.098 137.833 305.303 137.218 305.098 137.014C303.459 132.917 301.615 129.025 299.362 125.338C298.747 124.314 298.133 123.289 297.313 122.265C297.109 121.855 296.699 121.855 296.289 122.06C295.879 122.265 295.879 122.675 296.084 123.085Z" fill="#492405"/>
<path d="M326.813 149.509C329.066 153.196 330.091 157.702 329.681 162.209C329.681 163.438 329.271 164.667 329.066 165.896C328.862 166.715 330.296 167.125 330.5 166.306C331.73 161.799 331.525 156.883 329.886 152.581C329.476 151.352 328.862 150.123 328.247 148.894C327.428 147.87 326.198 148.689 326.813 149.509Z" fill="#492405"/>
<path d="M280.515 176.957C282.973 176.343 285.432 175.523 287.89 174.909C290.143 174.294 292.602 173.68 294.855 172.861C297.109 172.041 299.157 171.222 301.001 169.993C302.845 168.764 304.483 167.33 305.917 165.691C307.351 163.848 308.581 161.389 308.581 158.931C308.581 158.522 308.171 158.112 307.761 158.112C307.351 158.112 306.942 158.522 306.942 158.931C307.147 160.98 306.122 162.823 305.098 164.462C303.869 166.101 302.435 167.535 300.796 168.559C297.109 171.222 292.602 172.246 288.3 173.475C285.636 174.294 282.973 175.114 280.31 175.728C279.081 175.933 279.491 177.367 280.515 176.957Z" fill="#492405"/>
<path d="M235.446 138.652C232.988 141.93 232.783 146.026 233.398 149.918C234.012 154.015 235.651 157.702 237.7 161.389C239.748 165.077 242.206 168.354 245.074 171.427C248.147 174.294 251.63 176.752 255.727 177.981C259.619 179.415 263.921 179.825 268.223 178.801C268.633 178.596 269.248 178.596 269.657 178.391C270.477 178.186 270.272 176.752 269.248 176.957C265.355 178.186 261.463 177.981 257.571 176.957C253.679 175.933 250.196 173.885 247.328 171.222C244.255 168.559 241.797 165.486 239.953 162.004C237.904 158.727 236.266 155.039 235.446 151.352C234.627 147.87 234.422 143.978 236.266 140.701C236.47 140.291 236.675 139.881 237.085 139.472C237.29 139.062 237.085 138.652 236.88 138.447C236.061 138.243 235.651 138.447 235.446 138.652Z" fill="#492405"/>
<path d="M274.779 210.756C274.574 214.443 276.008 217.925 278.262 220.793C278.876 221.612 279.696 222.227 280.515 222.841C280.925 223.046 281.334 223.046 281.539 222.841C281.744 222.636 281.949 222.022 281.539 221.817C278.876 219.769 277.032 216.696 276.418 213.419C276.213 212.599 276.213 211.575 276.213 210.551C276.213 209.936 274.779 209.936 274.779 210.756Z" fill="#492405"/>
<path d="M279.286 209.322C279.696 213.419 281.539 217.106 284.407 219.973C285.022 220.588 286.046 219.564 285.432 218.949C282.768 216.491 281.13 213.009 280.72 209.322C280.72 208.912 280.31 208.502 279.9 208.502C279.696 208.707 279.286 208.912 279.286 209.322Z" fill="#492405"/>
<path d="M268.838 201.538C272.935 200.104 277.237 198.465 281.539 198.67C282.768 198.67 283.998 198.875 285.022 199.285C285.841 199.49 286.251 198.056 285.432 197.851C280.925 196.622 276.418 197.441 272.116 198.875C270.887 199.285 269.657 199.694 268.428 200.104C268.019 200.309 267.814 200.514 268.019 200.923C268.019 201.538 268.428 201.743 268.838 201.538Z" fill="#492405"/>
<path d="M228.481 190.067C230.325 194.573 232.578 198.67 235.241 202.562C235.446 202.972 235.856 202.972 236.266 202.767C236.675 202.562 236.675 202.152 236.47 201.743C233.807 197.851 231.554 193.959 229.71 189.657C229.505 189.248 229.3 189.043 228.891 189.248C228.686 189.248 228.276 189.657 228.481 190.067Z" fill="#492405"/>
<path d="M232.988 191.706C234.627 194.573 236.266 197.441 237.904 200.309C238.314 201.128 239.543 200.309 239.134 199.49C237.495 196.622 235.856 193.754 234.217 190.886C233.807 190.067 232.578 190.886 232.988 191.706Z" fill="#492405"/>
<path d="M233.807 176.752C236.266 177.162 238.724 177.367 241.182 177.162C241.592 177.162 242.002 176.752 242.002 176.343C242.002 175.933 241.592 175.523 241.182 175.523C238.929 175.728 236.47 175.523 234.217 175.114C233.807 175.114 233.398 175.319 233.398 175.523C233.193 176.138 233.398 176.548 233.807 176.752Z" fill="#492405"/>
<path d="M283.588 137.013C287.275 139.062 291.168 141.11 295.06 143.159C294.036 140.701 291.987 138.447 289.734 137.013C287.89 135.784 285.227 134.965 283.383 136.399L283.588 137.013Z" fill="#492405"/>
<path d="M257.776 129.639C253.883 131.278 249.786 132.917 245.689 134.555C247.123 132.097 249.172 130.254 251.63 129.025C253.679 128.001 256.342 127.591 257.981 129.025L257.776 129.639Z" fill="#492405"/>
<path d="M264.946 119.193C262.078 115.505 259.415 111.614 256.956 107.517C256.137 106.083 255.317 104.444 255.522 102.805C257.981 103.625 260.029 105.468 261.463 107.517C263.512 110.18 265.355 113.252 266.789 116.53C265.97 114.276 265.151 112.023 264.536 109.77C263.921 107.926 263.307 105.878 264.331 104.239C264.536 104.034 264.741 103.83 264.946 103.625C265.151 103.625 265.355 103.625 265.56 103.83C267.404 104.649 268.633 106.493 269.453 108.336C270.682 110.999 271.706 113.867 272.116 116.939C271.091 114.276 271.091 111.204 271.706 108.336C272.116 106.697 273.14 105.059 274.779 105.263C275.803 105.468 276.418 106.083 276.828 106.902C278.057 108.951 278.262 111.409 278.262 113.662C278.057 115.915 277.442 118.373 276.623 120.626L264.946 119.193Z" fill="#BA702D"/>
<path d="M196.933 222.636C196.523 223.661 196.113 224.685 196.318 225.709C196.523 226.733 197.342 227.757 198.367 227.553C199.801 227.348 200.006 225.504 200.006 224.275C200.006 223.661 199.801 222.841 199.186 222.432C198.572 222.022 197.957 222.227 197.342 222.636C196.728 223.046 196.523 223.456 196.113 224.07L196.933 222.636Z" fill="#492405"/>
<path d="M204.308 219.564C203.898 220.588 203.693 221.612 203.898 222.636C204.308 223.661 205.537 224.275 206.356 223.661C206.766 223.456 206.766 223.046 206.971 222.636C207.176 221.817 207.381 220.998 207.176 220.178C206.971 219.359 206.356 218.54 205.537 218.54C204.717 218.54 203.898 219.154 204.103 219.973L204.308 219.564Z" fill="#492405"/>
<path d="M207.585 227.143C207.176 227.962 206.971 228.987 207.176 230.011C207.585 230.83 208.61 231.65 209.429 231.035C209.839 230.83 210.044 230.625 210.249 230.216C210.658 229.191 210.453 227.962 209.634 227.348C208.61 226.938 207.381 227.758 207.585 228.782V227.143Z" fill="#492405"/>
<path d="M196.113 274.461C197.138 275.075 198.367 274.666 198.776 273.437C201.03 263.195 203.488 252.953 203.488 242.301C203.488 241.482 203.488 240.457 203.079 239.638C202.669 238.819 201.849 238.204 201.03 238.409C200.415 238.409 200.006 238.819 199.596 239.228C198.367 240.662 197.957 242.506 197.547 244.349C195.704 253.567 195.499 263.195 195.089 272.617C195.089 273.232 195.294 273.642 195.704 274.051L196.113 274.461Z" fill="#492405"/>
<path d="M169.482 266.267C172.35 255.821 176.447 245.579 181.773 236.156C182.593 234.927 183.822 233.288 185.256 233.903C186.28 234.312 186.69 235.746 186.69 236.77C186.69 241.072 185.256 245.169 183.617 249.266C182.593 251.724 181.568 254.387 180.544 256.845C179.11 260.327 177.676 264.014 175.013 266.677C174.194 267.701 172.964 268.521 171.735 268.316C170.506 268.316 169.277 266.677 170.096 265.653L169.482 266.267Z" fill="#492405"/>
<path d="M185.666 214.033C184.641 214.238 184.436 215.877 185.461 216.286C186.28 216.696 187.509 216.082 187.919 215.057C188.124 214.238 187.919 213.009 186.895 212.804C186.075 212.395 184.846 213.419 185.256 214.238L185.666 214.033Z" fill="#492405"/>
<path d="M191.402 211.985C190.582 212.19 190.377 213.214 190.787 213.624C191.197 214.238 192.221 214.238 192.836 213.624C193.45 213.214 193.655 212.395 193.655 211.575C193.655 211.166 193.45 210.756 193.245 210.551C192.836 210.141 192.016 210.551 191.811 210.961C191.402 211.37 191.402 211.985 191.402 212.599V211.985Z" fill="#492405"/>
<path d="M188.943 219.564C188.329 220.588 189.148 222.227 190.377 222.227C191.606 222.227 192.426 220.383 191.402 219.564C190.582 218.745 188.738 219.564 188.943 220.793V219.564Z" fill="#492405"/>
<path d="M207.585 211.78C203.488 211.985 199.596 213.828 196.523 216.491C195.089 217.925 193.86 219.564 192.836 221.407C191.811 223.661 191.197 225.914 190.992 228.372C190.582 230.83 190.582 233.493 190.582 236.156C190.582 238.819 190.377 241.687 190.377 244.35C190.172 249.88 189.968 255.206 189.763 260.737C189.558 266.267 189.353 271.593 189.148 277.124C189.148 277.738 189.148 278.558 189.148 279.172C189.148 280.196 190.582 280.196 190.582 279.172C190.787 273.846 190.992 268.521 191.197 263.195C191.402 257.869 191.606 252.543 191.811 247.012C191.811 244.35 192.016 241.687 192.016 239.024C192.016 236.361 192.221 233.903 192.221 231.24C192.426 228.782 192.631 226.324 193.45 224.07C194.065 222.227 195.089 220.383 196.318 218.949C198.777 216.082 202.464 214.033 206.151 213.419C206.561 213.419 206.971 213.419 207.585 213.214C207.995 213.214 208.405 212.804 208.405 212.395C208.2 212.19 207.995 211.78 207.585 211.78Z" fill="#492405"/>
<path d="M214.96 254.796C214.96 258.483 214.346 262.171 213.731 265.858C212.912 269.545 211.887 273.232 210.658 276.714C209.839 278.763 209.019 280.606 208.2 282.45C207.995 282.859 208.2 283.269 208.405 283.474C208.815 283.679 209.224 283.474 209.429 283.269C211.068 279.787 212.502 276.305 213.731 272.617C214.755 268.93 215.575 265.243 215.985 261.351C216.189 259.303 216.394 257.05 216.394 255.001C216.394 253.977 214.96 253.977 214.96 254.796Z" fill="#492405"/>
<path d="M235.651 224.07C235.036 225.709 234.422 227.143 233.398 228.577C233.193 228.987 233.807 229.396 234.012 228.987C235.036 227.553 235.651 225.914 236.266 224.275C236.47 223.866 235.651 223.661 235.651 224.07Z" fill="#894610"/>
<path d="M239.134 225.504C238.929 226.119 238.929 226.733 238.724 227.143C238.724 227.348 238.724 227.553 238.929 227.553C239.134 227.553 239.338 227.553 239.338 227.348C239.543 226.733 239.543 226.119 239.748 225.709C239.748 225.504 239.748 225.299 239.543 225.299C239.338 225.299 239.134 225.299 239.134 225.504Z" fill="#894610"/>
<path d="M242.002 226.733C241.592 228.167 241.182 229.396 240.568 230.625C240.363 231.035 240.977 231.445 241.182 231.035C241.797 229.806 242.411 228.372 242.616 226.938C242.821 226.528 242.002 226.324 242.002 226.733Z" fill="#894610"/>
<path d="M242.002 214.648C241.592 215.262 241.182 216.082 240.772 216.696C240.772 216.901 240.772 217.106 240.977 217.106C241.182 217.106 241.387 217.106 241.387 216.901C241.797 216.286 242.206 215.467 242.616 214.853C242.616 214.648 242.616 214.443 242.411 214.443C242.206 214.443 242.002 214.443 242.002 214.648Z" fill="#894610"/>
<path d="M249.786 218.745C249.172 219.359 248.762 220.179 248.762 220.998C248.762 221.203 248.967 221.408 249.172 221.408C249.377 221.408 249.581 221.203 249.581 220.998C249.581 220.998 249.581 220.998 249.581 220.793V220.588V220.383C249.581 220.383 249.581 220.383 249.581 220.178C249.581 219.974 249.786 219.769 249.786 219.769C249.786 219.769 249.786 219.769 249.786 219.564L249.991 219.359C250.196 219.154 250.196 218.949 249.991 218.745C250.196 218.745 249.786 218.745 249.786 218.745Z" fill="#894610"/>
<path d="M251.015 221.817C250.811 222.637 250.811 223.251 250.606 224.07C250.606 224.275 250.606 224.48 250.811 224.48C251.015 224.48 251.22 224.48 251.22 224.275C251.425 223.456 251.425 222.841 251.63 222.022C251.63 221.817 251.63 221.612 251.425 221.612C251.425 221.612 251.22 221.612 251.015 221.817Z" fill="#894610"/>
<path d="M278.057 232.469C277.647 234.312 277.032 236.156 276.623 237.999C276.418 238.409 277.237 238.614 277.237 238.204C277.647 236.361 278.262 234.517 278.671 232.674C278.876 232.264 278.057 232.059 278.057 232.469Z" fill="#894610"/>
<path d="M279.286 235.132C278.876 235.541 278.876 236.361 279.081 236.77C279.081 236.975 279.286 237.18 279.491 236.975C279.696 236.975 279.9 236.77 279.696 236.565V236.361V236.156V235.951V235.746C279.9 235.541 279.696 235.336 279.491 235.336C279.696 234.927 279.491 234.927 279.286 235.132Z" fill="#894610"/>
<path d="M282.154 234.722C281.949 235.541 281.539 236.361 281.334 237.385C281.334 237.59 281.334 237.795 281.539 237.795C281.744 237.795 281.949 237.795 281.949 237.59C282.154 236.77 282.564 235.951 282.768 234.927C282.768 234.722 282.768 234.517 282.564 234.517C282.359 234.312 282.154 234.517 282.154 234.722Z" fill="#894610"/>
<path d="M291.372 224.48C291.168 225.709 290.758 227.143 290.553 228.372C290.348 228.782 291.168 228.986 291.168 228.577C291.372 227.348 291.782 225.914 291.987 224.685C292.192 224.07 291.372 223.865 291.372 224.48Z" fill="#894610"/>
<path d="M293.421 226.119C293.011 226.733 292.806 227.348 292.806 227.962C292.806 228.167 293.011 228.372 293.216 228.372C293.421 228.372 293.626 228.167 293.626 227.962C293.626 227.962 293.626 227.962 293.626 227.757C293.626 227.757 293.626 227.553 293.626 227.757V227.553C293.626 227.348 293.626 227.348 293.831 227.143V226.938C293.831 226.733 294.036 226.733 294.036 226.528C294.24 226.324 294.036 226.119 293.831 226.119C293.626 225.914 293.626 225.914 293.421 226.119Z" fill="#894610"/>
<path d="M296.289 226.323C295.879 227.348 295.674 228.167 295.674 229.191C295.674 229.396 295.879 229.601 296.084 229.601C296.289 229.601 296.494 229.396 296.494 229.191C296.494 228.167 296.699 227.348 297.109 226.528C297.109 226.323 297.109 226.119 296.904 226.119C296.494 226.119 296.289 226.323 296.289 226.323Z" fill="#894610"/>
<path d="M181.568 279.787C180.749 281.221 180.749 283.064 181.364 284.703C181.364 284.908 181.568 285.112 181.773 284.908C181.978 284.908 182.183 284.703 181.978 284.498C181.364 283.064 181.568 281.425 182.183 280.196C182.388 279.787 181.773 279.377 181.568 279.787Z" fill="#894610"/>
<path d="M183.617 283.474C183.617 284.088 183.822 284.908 183.822 285.522C183.822 285.727 184.027 285.932 184.232 285.727C184.436 285.727 184.436 285.522 184.436 285.317C184.436 284.703 184.232 283.883 184.232 283.269C184.232 283.064 184.027 282.859 183.822 283.064C183.617 283.064 183.412 283.269 183.617 283.474Z" fill="#894610"/>
<path d="M185.256 285.522C185.666 286.546 185.87 287.571 186.28 288.8C186.485 289.209 187.1 289.004 186.895 288.595C186.485 287.571 186.28 286.546 185.87 285.317C185.87 284.908 185.256 285.112 185.256 285.522Z" fill="#894610"/>
<path d="M193.04 293.716C193.245 294.535 193.86 295.354 194.679 295.559C194.884 295.559 195.089 295.559 195.089 295.354C195.089 295.15 195.089 294.945 194.884 294.945C194.884 294.945 194.884 294.945 194.679 294.945C194.679 294.945 194.474 294.945 194.474 294.74C194.474 294.74 194.474 294.74 194.27 294.74L194.065 294.535C194.065 294.535 194.065 294.535 194.065 294.33C194.065 294.33 194.065 294.125 193.86 294.125C193.86 294.125 193.86 294.125 193.86 293.921V293.716C193.86 293.511 193.655 293.306 193.45 293.511C193.04 293.511 192.836 293.511 193.04 293.716Z" fill="#894610"/>
<path d="M264.946 133.122C264.536 134.76 264.126 136.399 263.717 138.038C263.512 138.447 264.331 138.652 264.331 138.242C264.741 136.604 265.151 134.965 265.56 133.326C265.765 132.917 265.151 132.712 264.946 133.122Z" fill="#894610"/>
<path d="M266.789 135.989C266.175 136.809 265.765 137.833 265.765 138.857C265.765 139.062 265.97 139.267 266.175 139.267C266.38 139.267 266.585 139.062 266.585 138.857C266.585 138.447 266.585 138.038 266.789 137.628C266.994 137.218 267.199 136.809 267.404 136.604C267.609 136.399 267.609 136.194 267.404 135.989C267.199 135.784 266.994 135.784 266.789 135.989Z" fill="#894610"/>
<path d="M268.223 137.628C268.019 138.652 267.814 139.676 267.609 140.701C267.609 140.905 267.609 141.11 267.814 141.11C268.019 141.11 268.223 141.11 268.223 140.906C268.428 139.881 268.633 138.857 268.838 137.833C268.838 137.628 268.838 137.423 268.633 137.423C268.428 137.218 268.223 137.423 268.223 137.628Z" fill="#894610"/>
<path d="M270.682 127.591C270.477 129.025 270.272 130.663 270.067 132.097C270.067 132.302 270.272 132.507 270.477 132.507C270.682 132.507 270.887 132.302 270.887 132.097C271.091 130.663 271.296 129.025 271.501 127.591C271.501 127.386 271.296 127.181 271.091 127.181C270.887 127.181 270.887 127.386 270.682 127.591Z" fill="#894610"/>
<path d="M268.223 145.822C268.019 146.846 268.019 147.87 267.814 148.894C267.814 149.099 268.019 149.304 268.223 149.304C268.428 149.304 268.633 149.099 268.633 148.894C268.838 147.87 268.838 146.846 269.043 145.822C269.043 145.617 268.838 145.412 268.633 145.412C268.428 145.617 268.223 145.617 268.223 145.822Z" fill="#894610"/>
<path d="M264.126 147.87C263.921 148.485 263.717 149.099 263.717 149.509C263.717 149.714 263.717 149.918 263.921 149.918C264.126 149.918 264.331 149.918 264.331 149.714C264.536 149.099 264.741 148.485 264.741 148.075C264.741 147.87 264.741 147.665 264.536 147.665C264.331 147.46 264.126 147.665 264.126 147.87Z" fill="#894610"/>
<path d="M272.321 148.689L272.526 148.894C272.526 149.099 272.526 149.099 272.73 149.304C272.73 149.304 272.73 149.304 272.73 149.509V149.714V149.918C272.73 149.918 272.73 149.919 272.73 150.123C272.73 150.328 272.73 150.533 272.935 150.533C273.14 150.533 273.345 150.533 273.345 150.328C273.55 149.714 273.345 148.894 273.14 148.28C273.14 148.075 272.73 148.075 272.73 148.075C272.116 148.28 272.116 148.485 272.321 148.689Z" fill="#894610"/>
<path d="M253.679 158.317C256.956 158.727 260.029 159.136 263.307 159.751C263.717 159.751 263.921 159.136 263.512 159.136C260.234 158.522 256.956 157.907 253.679 157.702C253.269 157.498 253.269 158.112 253.679 158.317Z" fill="white"/>
<path d="M265.97 159.956C266.175 160.16 266.38 160.365 266.585 160.57L266.789 160.775C266.789 160.775 266.994 160.775 266.994 160.57L267.199 160.365C267.199 160.365 267.199 160.16 266.994 160.16C266.789 159.956 266.585 159.751 266.38 159.546L266.175 159.341C266.175 159.341 265.97 159.341 265.97 159.546L265.765 159.751C265.97 159.751 265.97 159.956 265.97 159.956Z" fill="white"/>
<path d="M176.857 144.797C176.447 147.87 175.628 150.943 174.808 154.015C174.603 154.835 176.037 155.244 176.242 154.425C177.266 151.352 177.881 148.28 178.291 145.207C178.291 144.797 178.291 144.388 177.881 144.388C177.471 144.183 176.857 144.388 176.857 144.797Z" fill="#821E23"/>
<path d="M180.749 147.87C180.954 150.533 180.954 153.196 180.339 155.654C180.339 156.064 180.544 156.473 180.749 156.473C181.159 156.473 181.568 156.269 181.568 156.064C182.183 153.401 182.388 150.533 181.978 147.87C181.978 147.46 181.568 147.051 181.159 147.051C180.954 147.051 180.544 147.46 180.749 147.87Z" fill="#821E23"/>
<path d="M185.461 149.099C185.461 151.147 185.461 153.196 185.461 155.449C185.461 156.473 186.895 156.473 186.895 155.449C186.895 153.401 186.895 151.352 186.895 149.099C186.895 148.075 185.461 148.075 185.461 149.099Z" fill="#821E23"/>
<path d="M190.377 150.738C190.582 152.991 190.377 155.244 190.172 157.498C190.172 157.907 190.582 158.317 190.992 158.317C191.402 158.317 191.606 157.907 191.811 157.498C192.016 155.244 192.016 152.991 192.016 150.738C192.016 150.328 191.606 149.918 191.197 149.918C190.787 149.918 190.377 150.328 190.377 150.738Z" fill="#821E23"/>
<path d="M195.499 151.557C195.909 153.606 196.113 155.654 195.704 157.702C195.704 158.112 196.113 158.522 196.523 158.522C196.933 158.522 197.138 158.112 197.343 157.702C197.547 155.449 197.547 153.401 196.933 151.148C196.933 150.738 196.318 150.533 196.113 150.738C195.499 150.738 195.294 151.148 195.499 151.557Z" fill="#821E23"/>
<path d="M200.825 151.352C200.825 152.991 200.825 154.835 200.825 156.473C200.825 156.883 201.235 157.293 201.645 157.293C202.054 157.293 202.464 156.883 202.464 156.473C202.464 154.835 202.464 152.991 202.464 151.352C202.464 150.943 202.054 150.533 201.645 150.533C201.235 150.533 200.825 150.943 200.825 151.352Z" fill="#821E23"/>
<path d="M205.127 150.533C205.742 151.967 206.151 153.81 206.151 155.449C206.151 155.859 206.561 156.269 206.971 156.269C207.381 156.269 207.585 155.859 207.79 155.449C207.79 153.606 207.381 151.557 206.766 149.918C206.561 149.509 206.151 149.509 205.742 149.714C205.127 149.714 204.922 150.123 205.127 150.533Z" fill="#821E23"/>
<path d="M209.019 149.509C209.224 149.714 209.429 150.123 209.634 150.328C209.634 150.328 209.634 150.533 209.839 150.533C209.839 150.533 210.044 150.738 209.839 150.738C209.839 150.943 210.044 151.147 210.044 151.147C210.044 151.352 210.044 151.557 210.249 151.557V151.762V151.967V152.172V152.376C210.249 152.581 210.249 152.786 210.249 152.991C210.249 153.401 210.658 153.81 211.068 153.81C211.478 153.81 211.683 153.401 211.887 152.991C211.887 151.557 211.478 149.918 210.453 148.689C210.249 148.485 209.839 148.28 209.429 148.485C209.019 148.689 208.815 149.099 209.019 149.509Z" fill="#821E23"/>
<path d="M212.707 148.075C213.321 149.918 214.141 151.557 214.755 153.401C214.96 153.81 215.165 154.015 215.575 153.81C215.985 153.81 216.189 153.196 215.985 152.991C215.37 151.147 214.551 149.509 213.936 147.665C213.731 147.255 213.526 147.051 213.117 147.255C212.707 147.255 212.502 147.665 212.707 148.075Z" fill="#821E23"/>
<path d="M230.939 325.671C227.662 331.406 224.179 337.142 220.901 342.673C219.877 344.311 219.057 345.95 218.033 347.589C217.623 348.408 218.853 349.228 219.262 348.408C222.54 342.673 226.023 336.937 229.3 331.406C230.325 329.768 231.144 328.129 232.168 326.49C232.578 325.671 231.349 324.852 230.939 325.671Z" fill="#821E23"/>
<path d="M238.314 325.466C236.675 329.153 235.036 332.635 233.602 336.322C233.398 336.732 233.398 337.142 233.807 337.347C234.217 337.551 234.627 337.347 234.832 337.142C236.47 333.455 238.109 329.972 239.543 326.285C239.748 325.876 239.748 325.466 239.338 325.261C238.929 325.056 238.519 325.056 238.314 325.466Z" fill="#821E23"/>
<path d="M242.616 330.587C241.387 334.274 239.748 337.961 237.7 341.443C237.29 342.263 238.519 343.082 238.929 342.263C240.977 338.78 242.616 335.093 244.05 331.201C244.255 330.792 243.845 330.382 243.64 330.382C243.026 329.972 242.616 330.177 242.616 330.587Z" fill="#821E23"/>
<path d="M119.496 233.493C118.882 236.566 118.267 239.638 117.857 242.711C117.857 243.12 118.062 243.53 118.267 243.53C118.677 243.53 119.087 243.325 119.087 243.12C119.701 240.048 120.316 236.975 120.725 233.903C120.725 233.493 120.521 233.083 120.316 233.083C120.111 232.878 119.701 233.083 119.496 233.493Z" fill="#821E23"/>
<path d="M122.774 237.59C122.569 239.228 122.364 241.072 122.16 242.711C122.16 243.12 122.16 243.53 122.569 243.53C122.979 243.53 123.389 243.325 123.389 243.12C123.594 241.482 123.798 239.638 124.003 237.999C124.003 237.59 124.003 237.18 123.594 237.18C123.184 236.975 122.774 237.18 122.774 237.59Z" fill="#821E23"/>
<path d="M126.257 241.482C125.437 243.94 125.232 246.808 125.847 249.266C126.052 250.085 127.486 249.88 127.281 248.856C126.666 246.603 126.871 244.145 127.691 241.891C127.896 241.482 127.486 241.072 127.281 241.072C126.666 240.867 126.257 241.072 126.257 241.482Z" fill="#821E23"/>
<path d="M128.715 259.098C129.33 260.941 129.944 262.99 130.354 264.833C130.559 265.653 131.993 265.448 131.788 264.424C131.173 262.58 130.559 260.532 130.149 258.688C129.944 257.869 128.51 258.074 128.715 259.098Z" fill="#821E23"/>
<path d="M128.305 216.901C127.691 218.54 127.486 220.383 127.691 222.227C127.691 222.636 128.1 223.046 128.51 223.046C128.92 223.046 129.33 222.636 129.33 222.227C129.125 220.588 129.33 218.949 129.944 217.311C130.149 216.901 129.739 216.491 129.534 216.491C128.92 216.286 128.51 216.491 128.305 216.901Z" fill="#821E23"/>
<path d="M131.788 220.588C131.788 222.022 131.788 223.251 131.788 224.685C131.788 225.095 132.198 225.504 132.607 225.504C133.017 225.504 133.427 225.095 133.427 224.685C133.427 223.251 133.427 222.022 133.427 220.588C133.427 220.178 133.017 219.769 132.607 219.769C131.993 219.769 131.788 220.178 131.788 220.588Z" fill="#821E23"/>
<path d="M116.423 214.238C118.882 211.985 121.34 209.732 124.003 207.478C124.208 207.274 124.208 206.659 124.003 206.454C123.798 206.249 123.184 206.249 122.979 206.454C120.521 208.707 118.062 210.961 115.399 213.214C115.194 213.419 115.194 214.033 115.399 214.238C115.604 214.443 116.219 214.443 116.423 214.238Z" fill="#D15259"/>
<path d="M116.423 218.949C118.472 217.311 120.521 215.467 122.569 213.828C122.774 213.624 122.774 213.009 122.569 212.804C122.364 212.599 121.75 212.599 121.545 212.804C119.496 214.443 117.448 216.287 115.399 217.925C115.194 218.13 115.194 218.745 115.399 218.949C115.809 219.154 116.219 219.154 116.423 218.949Z" fill="#D15259"/>
<path d="M324.355 231.24C326.403 232.469 328.452 233.698 330.5 234.927C331.32 235.336 332.139 234.107 331.32 233.698C329.271 232.469 327.223 231.24 325.174 230.011C324.15 229.601 323.535 230.83 324.355 231.24Z" fill="#D15259"/>
<path d="M329.271 229.806C331.115 229.601 332.959 230.011 334.393 230.83C335.212 231.24 336.032 230.011 335.212 229.601C333.368 228.577 331.115 228.167 328.862 228.372C328.452 228.372 328.247 228.987 328.452 229.191C328.657 229.806 329.066 229.806 329.271 229.806Z" fill="#D15259"/>
<path d="M110.073 332.431C113.146 328.743 116.423 325.466 119.701 321.984C120.316 321.369 119.291 320.345 118.677 320.96C115.194 324.237 112.121 327.719 109.049 331.406C108.844 331.611 108.844 332.226 109.049 332.431C109.253 332.635 109.663 332.635 110.073 332.431Z" fill="#D15259"/>
<path d="M114.785 334.889C117.448 332.021 120.111 329.153 122.774 326.285C122.979 326.08 122.979 325.466 122.774 325.261C122.569 325.056 121.955 325.056 121.75 325.261C119.087 328.129 116.423 330.997 113.76 333.864C113.555 334.069 113.555 334.684 113.76 334.889C114.17 335.298 114.58 335.298 114.785 334.889Z" fill="#D15259"/>
<path d="M155.756 159.751C159.444 160.57 163.131 161.389 166.614 162.209C167.023 162.209 167.433 162.004 167.433 161.799C167.433 161.389 167.228 160.98 167.023 160.98C163.336 160.16 159.649 159.341 156.166 158.522C155.756 158.522 155.347 158.727 155.347 158.931C155.142 159.136 155.347 159.546 155.756 159.751Z" fill="#D15259"/>
<path d="M156.576 164.052C158.829 164.257 161.083 164.462 163.336 164.667C163.746 164.667 164.155 164.257 164.155 163.847C164.155 163.438 163.746 163.233 163.336 163.028C161.083 162.823 158.829 162.618 156.576 162.414C156.166 162.414 155.756 162.823 155.756 163.233C155.756 163.847 156.166 164.052 156.576 164.052Z" fill="#D15259"/>
<path d="M348.528 174.294C351.191 174.499 353.854 174.704 356.517 174.909C356.927 174.909 357.337 174.499 357.337 174.089C357.337 173.68 356.927 173.475 356.517 173.27C353.854 173.065 351.191 172.86 348.528 172.656C348.118 172.656 347.708 173.065 347.708 173.475C347.913 173.885 348.118 174.294 348.528 174.294Z" fill="#D15259"/>
<path d="M351.601 178.391C353.035 178.186 354.674 177.982 356.108 177.777C356.517 177.777 356.722 177.162 356.517 176.957C356.313 176.548 356.108 176.343 355.698 176.548C354.264 176.752 352.625 176.957 351.191 177.162C350.781 177.162 350.577 177.777 350.781 177.982C350.986 178.391 351.191 178.391 351.601 178.391Z" fill="#D15259"/>
<path d="M250.606 113.662C247.328 114.071 245.075 116.939 243.845 119.807C242.411 122.88 242.206 126.362 240.977 129.639C240.363 131.278 239.338 132.917 237.904 134.146C237.495 134.351 237.7 134.965 237.904 135.17C238.109 135.375 238.724 135.375 238.929 135.17C241.592 132.917 242.616 129.434 243.436 126.157C243.845 124.518 244.255 122.88 244.665 121.446C245.074 120.012 245.894 118.578 246.918 117.554C247.943 116.325 249.377 115.3 251.015 115.096C251.425 115.096 251.63 114.481 251.425 114.276C251.425 113.662 251.015 113.457 250.606 113.662Z" fill="#492405"/>
<path d="M311.449 138.038C312.063 138.857 312.678 139.471 313.087 140.291C313.292 140.496 313.292 140.496 313.497 140.701C313.702 140.701 313.907 140.701 314.112 140.701C314.317 140.701 314.317 140.496 314.521 140.291C314.521 140.086 314.521 139.881 314.521 139.676C313.907 138.857 313.292 138.242 312.883 137.423C312.678 137.218 312.678 137.218 312.473 137.013C312.268 137.013 312.063 137.013 311.858 137.013C311.653 137.013 311.653 137.218 311.449 137.423C311.244 137.628 311.244 137.833 311.449 138.038Z" fill="#492405"/>
<path d="M315.955 138.652C316.365 139.472 316.775 140.086 317.185 140.905C317.389 141.315 317.799 141.315 318.209 141.11C318.619 140.905 318.619 140.496 318.414 140.086C318.004 139.267 317.594 138.652 317.185 137.833C316.98 137.423 316.57 137.423 316.16 137.628C315.955 137.833 315.751 138.242 315.955 138.652Z" fill="#492405"/>
<path d="M310.424 128.82C311.039 129.844 311.653 130.663 312.063 131.688C312.268 132.097 312.678 132.097 313.087 131.892C313.497 131.688 313.497 131.278 313.292 130.868C312.678 129.844 312.063 129.025 311.653 128.001C311.449 127.591 311.039 127.591 310.629 127.796C310.219 128.001 310.219 128.41 310.424 128.82Z" fill="#492405"/>
<path d="M316.365 147.87C316.365 148.28 316.57 148.894 316.775 149.304C316.98 149.713 317.389 150.123 317.799 150.328C318.004 150.328 318.209 150.533 318.414 150.328C318.619 150.328 318.823 150.123 318.823 149.918C318.823 149.713 319.028 149.509 318.823 149.304C318.823 149.099 318.619 148.894 318.414 148.894C318.209 148.894 318.209 148.689 318.004 148.689C318.004 148.689 318.004 148.689 318.209 148.894C318.004 148.689 318.004 148.689 317.799 148.484C317.799 148.484 317.799 148.484 318.004 148.689C317.799 148.484 317.799 148.484 317.799 148.28V148.484C317.799 148.28 317.594 148.075 317.594 148.075V148.28V148.075C317.594 147.87 317.594 147.665 317.389 147.46C317.185 147.255 316.98 147.255 316.775 147.255C316.57 147.255 316.365 147.255 316.16 147.46C316.57 147.46 316.365 147.665 316.365 147.87Z" fill="#492405"/>
<path d="M228.481 248.651C233.602 244.964 239.338 241.891 245.279 240.048C248.352 239.024 251.425 238.409 254.703 237.999C257.981 237.59 261.258 237.795 264.331 238.819C266.994 239.843 269.453 241.891 270.682 244.554C270.887 244.964 271.091 245.169 271.501 244.964C271.911 244.964 272.116 244.349 271.911 244.145C270.887 241.482 268.633 239.228 265.97 237.999C262.897 236.566 259.415 236.156 256.137 236.361C252.654 236.566 249.377 237.18 246.099 238.204C242.821 239.024 239.748 240.253 236.88 241.687C233.602 243.325 230.53 245.169 227.457 247.422C227.047 247.627 227.047 248.037 227.252 248.446C227.662 248.651 228.071 248.856 228.481 248.651Z" fill="#492405"/>
<path d="M243.231 250.29C244.665 249.471 246.304 248.651 247.738 248.037C248.147 247.832 248.147 247.422 247.943 247.012C247.738 246.603 247.328 246.603 246.918 246.808C245.484 247.627 243.845 248.446 242.411 249.061C242.002 249.266 242.002 249.675 242.206 250.085C242.411 250.29 242.821 250.495 243.231 250.29Z" fill="#492405"/>
<path d="M245.689 253.772C246.918 253.977 248.352 253.362 248.967 252.338C249.172 252.133 249.172 252.133 249.172 251.724C249.172 251.519 249.172 251.314 248.967 251.109C248.762 250.904 248.147 250.699 247.943 251.109L247.738 251.314C247.738 251.314 247.738 251.314 247.533 251.519C247.328 251.519 247.328 251.724 247.123 251.724H246.918C246.918 251.724 246.713 251.724 246.918 251.724C246.713 251.724 246.508 251.928 246.304 251.928C246.304 251.928 246.508 251.928 246.304 251.928H246.099C245.894 251.928 245.894 251.928 245.689 251.928C245.484 251.928 245.279 251.928 245.074 252.133C244.87 252.338 244.87 252.543 244.87 252.748C244.87 252.953 244.87 253.157 245.074 253.362C245.279 253.772 245.484 253.772 245.689 253.772Z" fill="#492405"/>
<path d="M244.87 260.532C246.099 259.917 247.123 259.508 248.352 258.893C248.762 258.688 248.762 258.279 248.557 257.869C248.352 257.459 247.943 257.459 247.533 257.664C246.304 258.279 245.279 258.688 244.05 259.303C243.64 259.508 243.64 259.917 243.845 260.327C244.05 260.532 244.46 260.737 244.87 260.532Z" fill="#492405"/>
<path d="M232.783 257.049C233.807 256.435 234.627 255.82 235.651 255.411C236.061 255.206 236.061 254.796 235.856 254.387C235.651 253.977 235.241 253.977 234.832 254.182C233.807 254.796 232.988 255.411 231.964 255.82C231.554 256.025 231.554 256.435 231.759 256.845C232.168 257.254 232.578 257.459 232.783 257.049Z" fill="#492405"/>
<path d="M262.692 242.916C263.512 242.506 264.126 242.096 264.946 241.687C265.355 241.482 265.355 241.072 265.151 240.662C264.946 240.253 264.536 240.253 264.126 240.458C263.307 240.867 262.692 241.277 261.873 241.687C261.463 241.891 261.463 242.301 261.668 242.711C261.873 242.916 262.283 243.12 262.692 242.916Z" fill="#492405"/>
<path d="M257.571 252.748C258.185 252.338 258.595 251.929 259.21 251.519C259.415 251.314 259.415 251.314 259.619 251.109C259.619 250.904 259.619 250.699 259.619 250.495C259.619 250.29 259.415 250.29 259.21 250.085C259.005 250.085 258.8 250.085 258.595 250.085C257.981 250.495 257.571 250.904 256.956 251.314C256.751 251.519 256.751 251.519 256.547 251.724C256.547 251.929 256.547 252.133 256.547 252.338C256.547 252.543 256.751 252.543 256.956 252.748C257.161 252.748 257.366 252.748 257.571 252.748Z" fill="#492405"/>
<path d="M306.532 220.588C306.122 226.733 305.303 232.879 303.869 238.819C303.459 240.458 303.049 242.096 302.64 243.94C302.435 244.759 303.869 245.169 304.074 244.35C305.713 238.409 306.942 232.264 307.556 225.914C307.761 224.07 307.966 222.432 307.966 220.588C307.966 220.178 307.556 219.769 307.147 219.769C306.737 219.769 306.532 220.178 306.532 220.588Z" fill="#492405"/>
<path d="M173.579 278.967C175.423 284.703 178.291 290.029 182.183 294.74C183.207 295.969 184.436 297.198 185.666 298.427C186.28 299.042 187.304 298.018 186.69 297.403C182.593 293.306 179.11 288.595 176.857 283.269C176.242 281.835 175.628 280.196 175.218 278.763C174.808 277.738 173.374 278.148 173.579 278.967Z" fill="#492405"/>
<path d="M171.735 178.186C171.735 180.03 171.735 182.078 171.735 183.922C171.735 184.946 173.169 184.946 173.169 183.922C173.169 182.078 173.169 180.03 173.169 178.186C173.169 177.367 171.735 177.367 171.735 178.186Z" fill="#821E23"/>
<path d="M176.857 180.439C176.857 181.669 176.857 182.693 176.857 183.922C176.857 184.331 177.266 184.741 177.676 184.741C178.086 184.741 178.496 184.331 178.496 183.922C178.496 182.693 178.496 181.669 178.496 180.439C178.496 180.03 178.086 179.62 177.676 179.62C177.266 179.825 176.857 180.03 176.857 180.439Z" fill="#821E23"/>
<path d="M182.593 181.668C182.593 182.283 182.593 182.898 182.593 183.307C182.593 183.512 182.593 183.717 182.798 183.922C183.002 184.127 183.207 184.127 183.412 184.127C183.822 184.127 184.232 183.717 184.232 183.307C184.232 182.693 184.232 182.078 184.232 181.668C184.232 181.464 184.232 181.259 184.027 181.054C183.822 180.849 183.617 180.849 183.412 180.849C183.002 180.849 182.593 181.259 182.593 181.668Z" fill="#821E23"/>
<path d="M196.318 171.631C196.728 172.656 197.138 173.475 197.547 174.499C197.547 174.704 197.752 174.909 197.957 174.909C198.162 174.909 198.367 175.114 198.572 174.909C198.981 174.704 199.186 174.294 198.981 174.089C198.572 173.065 198.162 172.246 197.752 171.222C197.752 171.017 197.547 170.812 197.342 170.812C197.138 170.812 196.933 170.607 196.728 170.812C196.523 170.812 196.318 171.222 196.318 171.631Z" fill="#821E23"/>
</svg>
