<svg width="453" height="335" viewBox="0 0 453 335" fill="none" xmlns="http://www.w3.org/2000/svg">
<path d="M75.6592 51.7817C45.7167 79.4183 24.6733 116.372 15.9837 156.152C10.4349 181.486 10.0161 208.39 19.0198 232.676C28.0235 256.963 47.2872 278.109 72.0996 285.437C98.5872 293.289 126.855 284.914 154.18 280.622C181.505 276.33 213.646 277.795 231.235 299.151C239.401 308.991 243.798 322.496 254.895 328.881C268.506 336.733 285.675 330.347 299.39 322.705C362.835 287.531 411.099 225.977 430.048 155.943C437.586 128.306 440.518 98.2615 430.991 71.253C424.186 52.2004 409.947 34.5087 391.416 25.8199C369.221 15.4562 346.084 21.6325 324.412 30.3213C304.102 38.4867 278.975 50.5254 257.094 41.5226C241.599 35.1368 233.014 20.7951 220.556 10.536C206.946 -0.560564 189.776 -0.979302 173.234 2.16123C149.259 6.55798 125.494 16.503 104.974 29.3792C94.5042 35.8696 84.6629 43.4069 75.6592 51.7817Z" fill="#F0C6B6"/>
<path d="M68.4684 204.208C68.4684 204.208 68.4684 204.727 67.9494 204.727H67.4304C62.7595 207.841 57.5696 208.879 52.8987 210.436C51.3418 210.955 49.7848 210.955 48.7468 210.955C45.1139 211.474 42 211.474 38.3671 211.474C33.1772 210.955 28.5063 210.436 22.7975 208.36C20.2025 207.322 17.6076 206.284 14.4937 204.208C11.8987 202.651 8.78482 200.056 6.18988 196.942C3.59494 193.828 1.00001 188.638 0.481018 183.448C0.481018 182.41 0.481018 180.333 0.481018 179.814C0.481018 178.776 0.481018 177.738 1.00001 177.219C1.51899 175.143 1.51899 173.586 2.55697 171.51C4.11393 167.877 6.18988 163.725 9.82279 160.611C12.9367 157.497 17.0886 155.94 21.2405 154.902C24.8734 154.383 28.5063 154.383 31.6203 155.421C34.7342 156.459 37.8481 157.497 39.9241 159.054C44.5949 162.168 48.2279 167.358 49.2658 172.548V173.067C49.2658 173.586 48.7468 174.105 48.7468 174.105C48.2279 174.105 48.2279 174.105 48.2279 174.105C42.519 167.877 33.1772 164.763 25.3924 166.839C21.2405 167.877 18.6456 171.51 17.6076 175.143C17.0886 177.219 17.0886 179.295 17.0886 181.372C17.0886 183.448 18.1266 185.005 19.6835 186.562C25.3924 192.79 34.2152 195.904 42 197.98C46.6709 199.537 51.8608 200.575 56.5317 201.613C60.1646 202.132 63.7975 203.17 67.9494 203.689C68.4684 203.17 68.4684 203.689 68.4684 204.208Z" fill="#E7B54F"/>
<path opacity="0.35" d="M68.4684 204.208C68.4684 204.208 68.4684 204.727 67.9494 204.727H67.4304C62.7595 207.841 57.5696 208.879 52.8987 210.436C51.3418 210.955 49.7848 210.955 48.7468 210.955C45.1139 207.322 56.5317 201.094 56.5317 201.094C60.1646 201.613 63.7975 202.651 67.9494 203.17C68.4684 203.17 68.4684 203.689 68.4684 204.208Z" fill="#E7B54F"/>
<path d="M58.6076 225.488C61.2025 233.792 63.2785 242.615 62.2405 251.439C61.7215 256.11 61.2025 260.262 61.2025 263.895C60.6836 269.604 59.1266 274.794 57.0506 279.984C55.4937 283.618 53.9367 287.251 52.8987 290.884C52.3798 292.96 52.3798 295.036 52.8987 296.593C54.4557 303.859 54.9747 312.163 60.6836 320.987C61.2025 321.506 61.2025 321.506 61.7215 322.025C62.2405 322.025 62.7595 323.063 64.3165 323.582C68.4684 324.62 68.9874 325.658 77.8101 324.101C85.5949 319.43 81.962 311.644 69.5063 313.201C67.9494 309.568 66.3924 305.416 65.3544 299.707C64.8355 296.593 65.8734 293.479 67.9494 291.403C71.5823 288.289 76.2532 284.137 76.2532 284.137C88.7089 274.794 97.0127 260.781 102.203 245.729C101.165 246.248 52.3798 207.841 58.6076 225.488Z" fill="#E59A51"/>
<path d="M227.278 312.163C224.684 310.606 204.962 306.454 200.81 306.454C196.658 305.935 188.354 302.302 187.835 301.783C188.354 300.745 196.658 278.427 197.696 275.832C199.772 271.68 200.81 267.009 199.772 262.338C197.696 250.92 158.253 271.161 158.253 271.161C158.772 274.275 159.291 276.87 159.81 279.984C160.329 283.099 165 310.606 165 310.606C165.519 313.201 167.076 315.278 169.152 316.316C173.304 318.392 175.899 318.392 179.013 318.911C181.608 319.43 196.139 318.911 200.81 319.43C205.481 319.949 209.633 320.468 214.304 320.987C216.38 320.987 223.127 321.506 222.608 320.987C225.203 323.063 230.911 324.62 233.506 322.544C235.582 320.468 236.101 317.873 227.278 312.163Z" fill="#E59A51"/>
<path d="M209.114 192.271C209.114 191.752 208.076 191.752 208.076 192.271C206.519 198.499 202.886 217.184 204.443 221.336C206.519 226.526 218.456 215.627 218.456 215.627L209.114 192.271Z" fill="#E59A51"/>
<path d="M254.266 232.235L253.747 232.754C252.19 233.792 250.633 235.349 247 235.868L238.177 236.906L243.367 238.463C248.038 239.501 251.152 239.501 250.633 242.096C249.595 245.729 244.924 246.248 243.367 245.729H235.582C231.43 245.729 227.278 247.286 224.165 249.882C222.089 251.439 220.013 253.515 218.975 254.553L211.19 263.895L201.329 276.351C201.329 276.351 199.253 278.946 196.139 281.542C191.468 286.213 184.203 292.441 177.456 293.479C174.861 293.998 172.785 293.998 170.19 293.998C170.19 293.998 153.582 295.555 147.354 293.998C141.646 292.441 134.899 292.441 129.19 289.846C119.848 285.694 112.063 278.946 107.392 270.642C105.316 266.49 102.203 262.857 99.0886 259.224C95.9747 256.11 93.3797 252.996 90.7848 249.882C85.5949 264.933 77.2911 278.946 64.8354 288.289C64.8354 288.289 60.1646 292.441 56.5317 295.555C54.4557 297.631 53.4177 300.745 53.9367 303.859C54.9747 309.049 56.0127 313.72 58.0886 317.354C65.8734 316.316 70.5443 318.911 70.5443 322.544C70.5443 324.62 68.9873 326.696 66.3924 328.253C58.0886 329.81 57.0506 328.253 52.8987 327.734C52.8987 327.215 52.3798 326.177 51.8608 326.177C51.3418 325.658 51.3418 325.658 50.8228 325.139C45.1139 316.835 44.5949 308.53 43.038 300.745C42.519 298.669 42.519 296.593 43.038 295.036C44.076 291.403 45.6329 287.77 47.1899 284.137C49.2658 278.946 50.8228 273.756 51.3418 268.047C51.8608 264.414 52.3798 259.743 52.3798 255.591C52.8987 246.767 51.3418 237.944 48.7468 229.64C42.519 211.993 61.7215 195.385 79.3671 195.904C79.8861 195.904 90.2658 195.904 94.4177 196.942C98.5696 197.98 102.203 199.537 104.797 201.094C111.025 204.208 115.177 207.322 119.329 210.436C127.114 216.146 132.823 221.336 138.532 224.45C144.241 228.083 165 230.678 169.152 229.64C170.709 229.121 171.747 229.121 173.304 228.602C182.127 225.488 189.911 220.298 196.658 213.55C199.772 209.917 204.443 207.841 211.709 207.841C212.747 207.841 213.785 207.841 214.823 207.841C219.494 208.36 223.127 208.879 227.278 210.955C228.835 211.993 229.873 213.031 230.911 214.589C231.43 215.627 232.468 216.665 232.987 217.184C234.025 218.222 235.063 219.26 236.62 219.779L252.709 224.969C252.709 224.969 252.709 224.969 253.228 224.969C255.823 226.526 256.861 230.159 254.266 232.235Z" fill="#E7B54F"/>
<path opacity="0.35" d="M196.658 281.542C191.987 286.213 184.722 292.441 177.975 293.479C175.38 293.998 173.304 293.998 170.709 293.998C170.709 293.998 154.101 295.555 147.873 293.998C142.165 292.441 135.418 292.441 129.709 289.846C120.367 285.694 112.582 278.946 107.911 270.642C105.835 266.49 102.722 262.857 99.6076 259.224C96.4937 256.11 93.8987 252.996 91.3038 249.882C91.3038 249.882 93.3797 243.134 93.3797 241.058C95.4557 241.577 109.468 261.819 129.709 272.718C154.101 285.694 196.658 281.542 196.658 281.542Z" fill="#E7B54F"/>
<path opacity="0.35" d="M215.342 208.36C207.038 209.917 205.481 215.108 197.696 222.374C189.392 228.083 174.861 229.64 173.823 229.64C182.646 226.526 190.43 221.336 197.177 214.589C200.291 210.955 204.962 208.879 212.228 208.879C212.747 208.36 213.785 208.36 215.342 208.36Z" fill="#E7B54F"/>
<path d="M216.899 314.239C215.342 313.72 197.177 309.568 192.506 309.049C188.354 308.53 178.494 305.416 177.975 304.897C178.494 303.859 186.797 281.541 187.835 278.946C189.911 274.794 190.949 270.123 189.911 265.452C187.835 254.034 148.392 274.275 148.392 274.275C148.911 277.389 149.43 279.984 149.949 283.098C150.468 286.213 155.139 313.72 155.139 313.72C155.658 316.315 157.215 318.392 159.291 319.43C163.443 321.506 166.038 321.506 169.152 322.025C171.747 322.544 186.278 322.025 190.949 322.544C194.582 323.063 201.848 323.582 207.557 323.582C209.633 323.582 211.19 324.101 212.747 324.62C221.051 327.734 226.76 327.734 226.241 324.62C226.241 319.949 224.165 316.315 216.899 314.239Z" fill="#E7B54F"/>
<path d="M201.848 194.347C201.329 193.828 200.81 193.828 200.291 194.347C198.734 200.575 195.101 218.741 196.658 222.893C198.215 227.045 206 220.817 209.114 218.222C210.152 217.702 210.152 216.664 209.633 215.626L201.848 194.347Z" fill="#E7B54F"/>
<path opacity="0.35" d="M250.114 242.096C249.076 245.73 244.405 246.249 242.848 245.73H235.063C230.911 245.73 226.76 247.287 223.646 249.882C221.57 251.439 219.494 253.515 218.456 254.553L211.19 263.895C211.19 263.895 211.19 263.895 211.19 263.376C214.304 254.553 215.861 242.615 230.911 243.134C247.519 244.173 250.114 242.615 250.114 242.096Z" fill="#E7B54F"/>
<path opacity="0.35" d="M177.975 304.897C177.975 304.897 170.709 305.416 169.152 307.492C167.595 309.568 177.975 304.897 177.975 304.897Z" fill="#E7B54F"/>
<path d="M201.329 196.942C201.329 196.942 198.734 211.475 201.329 216.665C203.405 220.817 203.405 220.298 203.405 220.298C203.405 220.298 207.038 217.703 207.557 216.146C208.076 214.07 201.848 194.866 201.329 196.942Z" fill="#E7B54F"/>
<path d="M227.278 221.855C228.712 221.855 229.873 220.925 229.873 219.779C229.873 218.632 228.712 217.703 227.278 217.703C225.845 217.703 224.684 218.632 224.684 219.779C224.684 220.925 225.845 221.855 227.278 221.855Z" fill="#132541"/>
<path d="M254.266 232.235C252.19 232.235 251.671 230.159 251.671 228.602C251.152 227.564 252.19 226.526 252.709 226.007C255.823 226.526 256.861 230.159 254.266 232.235Z" fill="#132541"/>
<path d="M238.177 236.387C238.177 236.387 236.101 239.501 243.367 240.539C250.633 242.096 250.633 240.02 249.076 239.501C247.519 238.982 238.177 236.387 238.177 236.387Z" fill="#D86F70"/>
<path opacity="0.35" d="M254.266 232.235C252.19 233.792 250.633 235.349 247 235.868L238.177 236.906C238.177 236.906 242.329 235.349 243.367 235.349C248.038 234.311 253.228 232.235 254.266 232.235Z" fill="#E7B54F"/>
<path d="M344.57 252.477C344.57 252.477 344.051 253.515 346.646 256.11C348.722 258.186 352.354 263.895 354.43 263.376C355.987 260.781 350.279 252.996 350.279 252.996C350.279 252.996 346.646 251.958 346.127 251.958C345.608 251.958 344.57 252.477 344.57 252.477Z" fill="#5B124B"/>
<path d="M346.127 252.476C346.127 252.476 344.57 256.11 343.532 257.148C341.975 258.186 332.633 260.781 331.076 261.819C329.519 262.857 326.924 268.047 326.924 268.566C326.924 269.085 326.405 270.642 326.924 270.642C327.443 271.161 338.342 265.452 343.013 264.933C347.684 264.414 350.797 263.376 351.316 262.338C351.835 261.3 353.911 259.224 353.911 259.224C353.911 259.224 350.278 250.4 346.127 252.476Z" fill="#F4AE8C"/>
<path d="M349.759 246.248C349.759 246.248 345.089 250.919 344.57 252.476C345.608 251.438 355.987 259.224 354.43 262.857C363.253 256.11 349.759 246.248 349.759 246.248Z" fill="#B6A156"/>
<path d="M293.19 210.955C293.19 210.955 289.038 210.436 286.443 209.917C283.848 209.398 271.392 203.689 270.354 203.689C269.316 204.208 264.646 210.955 264.127 213.551C263.608 215.627 267.76 218.222 270.354 219.779C276.063 222.893 277.101 219.779 277.101 219.779C277.101 219.779 282.81 220.817 284.367 219.779C285.924 218.741 293.19 221.336 293.19 221.336V210.955Z" fill="#F4AE8C"/>
<path d="M271.392 210.436C270.354 209.398 269.316 208.36 267.76 207.322L266.203 205.765H265.684C265.165 205.765 265.684 205.765 265.165 205.765C263.608 205.246 262.051 205.246 260.494 205.246L255.823 204.727C255.304 204.727 254.266 204.208 254.785 203.17C254.785 202.651 255.304 202.132 255.823 202.132L260.494 201.613C262.051 201.613 263.608 201.613 265.684 201.613C266.203 201.613 267.241 202.132 267.76 202.132C268.278 202.132 268.797 202.651 268.797 202.651L270.873 204.208C272.43 205.246 273.468 205.765 275.025 206.803C276.582 207.841 276.582 209.398 275.544 210.955C275.025 211.474 272.949 211.993 271.392 210.436C271.392 210.955 271.392 210.955 271.392 210.436Z" fill="#F4AE8C"/>
<path d="M403.734 142.964C403.734 159.573 386.608 168.915 370 168.915C353.911 168.915 349.241 145.559 335.747 135.698C326.405 128.951 339.899 108.19 360.658 103.519C384.532 98.3289 403.734 126.356 403.734 142.964Z" fill="#758399"/>
<path d="M396.468 293.479C404.253 294.517 412.038 294.517 418.785 292.96C422.418 291.922 426.57 294.517 427.089 298.15C427.608 301.783 426.051 304.897 422.418 306.454C413.076 309.568 403.734 310.606 394.392 310.606C389.722 310.606 386.089 306.454 386.089 301.783C386.089 297.112 390.241 293.479 394.911 293.479C395.949 293.479 396.468 293.479 396.468 293.479Z" fill="#F4AE8C"/>
<path d="M434.354 293.479C430.203 291.922 425.013 290.365 422.418 289.846C420.342 289.327 413.076 289.327 412.038 290.365C410.481 292.96 409.443 301.264 408.924 303.859C412.557 308.011 412.557 310.606 411 314.759C410.481 315.797 409.962 316.835 408.405 317.354C407.886 317.354 407.367 317.873 406.848 317.873C401.658 319.949 399.063 320.468 397.506 322.544C396.468 323.582 396.468 324.62 396.468 325.658C396.468 326.696 397.506 327.734 398.544 328.253C402.177 330.848 405.81 331.367 408.924 331.367C412.557 331.367 415.671 330.848 419.823 330.329C422.418 329.81 428.127 325.658 430.203 324.101C432.278 321.506 433.316 319.43 434.354 316.835C434.873 315.797 435.392 314.759 435.911 313.721C439.025 310.087 440.063 304.378 441.101 301.264C443.177 298.15 439.544 295.555 434.354 293.479Z" fill="#605B55"/>
<path d="M442.139 302.302C441.101 305.416 440.063 311.125 436.949 314.758C435.911 315.796 435.392 316.834 435.392 317.872C434.354 320.468 433.316 322.544 431.76 325.139C429.684 327.215 423.975 331.367 421.38 331.367C413.595 332.405 407.886 333.962 400.101 329.291C399.063 328.253 398.025 327.734 398.025 326.177C405.291 328.253 417.228 327.734 421.899 326.177C428.127 324.62 428.646 319.949 432.278 311.644C434.873 305.416 435.392 296.593 435.392 292.96C439.544 295.555 443.177 298.15 442.139 302.302Z" fill="#EBE9DC"/>
<path d="M411.519 330.848C411 331.886 410.481 332.405 409.962 332.405C406.329 332.405 403.215 331.367 399.582 329.291C398.544 328.772 397.506 327.734 397.506 326.696C397.506 325.658 397.506 324.62 398.544 323.582C400.101 321.506 402.696 320.987 407.886 318.911C409.962 320.987 413.595 325.139 411.519 330.848Z" fill="#EBE9DC"/>
<path d="M427.089 260.262C393.354 261.819 355.987 255.072 322.772 272.199C322.772 272.199 321.215 273.237 319.139 275.832C318.62 276.351 318.101 276.87 317.582 277.908C309.278 287.77 314.468 310.087 331.595 310.087C346.127 306.973 384.532 317.873 402.177 312.163C406.329 310.606 404.772 305.935 410.481 304.897C453.038 315.278 462.899 265.971 427.089 260.262Z" fill="#E59A51"/>
<path opacity="0.51" d="M343.532 285.693C343.532 285.693 398.544 292.96 407.886 293.998C417.228 295.036 406.848 278.427 406.848 278.427C406.848 278.427 363.253 285.174 343.532 285.693Z" fill="#E59A51"/>
<path d="M390.241 135.698C390.241 150.749 370 174.105 354.949 174.105C346.127 174.105 335.747 150.749 335.747 135.698C335.747 120.647 347.684 108.19 363.253 108.19C378.304 108.19 390.241 120.647 390.241 135.698Z" fill="#F4AE8C"/>
<path d="M382.456 181.371C379.342 181.371 375.709 180.333 373.633 177.738C359.101 163.206 355.468 135.698 354.949 132.584C353.911 125.837 358.582 119.609 365.848 118.571C372.595 117.533 379.342 122.723 379.861 129.47C380.899 137.774 385.051 153.345 391.278 159.573C396.468 164.763 396.468 172.548 391.278 177.738C389.203 180.333 385.57 181.371 382.456 181.371Z" fill="#F4AE8C"/>
<path d="M390.241 294.517L397.506 308.53C400.62 314.758 370 309.049 370 308.011L371.557 301.264C370.519 296.074 374.152 290.884 379.342 289.846C384.013 288.289 388.165 290.884 390.241 294.517Z" fill="#F4AE8C"/>
<path d="M396.987 332.924C387.127 333.443 379.861 332.924 371.557 332.924C368.962 332.924 364.291 333.962 361.696 334.481H361.177L346.127 335C345.608 335 344.57 335 344.051 335C338.861 333.443 335.228 329.81 333.671 327.215C333.152 325.658 333.152 324.101 333.671 322.544C335.228 319.949 345.608 316.315 352.873 313.72C359.62 311.644 362.734 310.087 368.443 305.935C370.519 304.378 372.595 308.53 375.19 309.049C379.861 310.087 388.684 309.049 394.911 302.302C398.544 305.935 401.139 311.125 402.177 318.391C402.177 319.43 402.177 320.987 402.177 322.544C402.696 327.734 401.658 333.443 396.987 332.924Z" fill="#605B55"/>
<path d="M373.114 302.821C371.557 302.302 371.038 301.783 370.519 300.745C363.253 283.098 344.051 234.83 341.456 225.488C339.899 220.817 336.266 207.841 336.266 207.841C335.747 206.803 334.19 195.385 334.19 193.309C334.19 186.562 338.342 180.852 344.57 178.776C345.608 178.257 347.165 178.257 348.722 178.257C354.949 178.257 360.139 181.371 362.215 186.562C362.215 187.081 362.734 187.081 362.734 187.6C362.734 187.6 375.19 235.349 377.785 244.691C382.975 262.857 388.165 281.022 393.873 299.188C394.392 302.821 379.342 304.897 373.114 302.821Z" fill="#E7B54F"/>
<path opacity="0.44" d="M373.114 302.821C381.937 291.403 371.038 264.414 363.253 249.362C355.987 234.311 346.127 191.233 343.532 178.257C344.57 177.738 346.127 177.738 347.684 177.738L361.177 186.043C361.177 186.562 361.696 186.562 361.696 187.081C361.696 187.081 374.152 234.83 376.747 244.172C381.937 262.338 387.127 280.503 392.835 298.669C394.392 302.821 379.342 304.897 373.114 302.821Z" fill="#E7B54F"/>
<path d="M446.81 295.555C437.987 310.606 412.038 316.835 399.582 300.226C377.785 270.642 362.215 233.273 343.013 200.575C343.532 200.575 343.013 200.575 343.532 200.575C327.962 191.752 340.418 169.434 356.506 178.776C388.684 202.651 427.608 244.691 448.886 277.908C448.886 278.427 448.886 278.427 448.886 278.946C450.443 284.656 449.405 290.365 446.81 295.555Z" fill="#E7B54F"/>
<path opacity="0.44" d="M446.81 295.555C439.025 296.074 429.165 288.808 421.899 279.465C411.519 266.49 399.582 240.539 399.582 240.539C399.582 240.539 434.354 262.857 448.886 278.946C450.443 284.656 449.405 290.365 446.81 295.555Z" fill="#E7B54F"/>
<path d="M449.924 286.732C447.329 296.074 426.051 275.832 411.519 258.705C403.215 249.362 397.506 240.539 398.025 237.944C397.506 232.754 395.949 226.526 394.392 221.855C393.873 220.298 392.835 217.702 391.278 214.588C387.646 207.322 382.456 201.613 376.228 197.461C366.886 191.233 365.329 182.928 369.481 175.143C373.114 168.915 381.418 163.206 393.873 160.092C400.62 158.535 411 165.282 413.076 166.839C433.316 180.852 444.215 200.575 449.924 224.969C450.962 229.64 454.076 270.642 449.924 286.732Z" fill="#B6A156"/>
<path d="M396.987 332.924C387.127 333.443 379.861 332.924 371.557 332.924C368.962 332.924 364.291 333.962 361.696 334.481H361.177L346.127 335C345.608 335 344.57 335 344.051 335C338.861 333.443 335.228 329.81 333.671 327.215C334.709 327.734 335.228 328.253 336.266 328.772C345.608 333.443 364.81 325.139 377.266 325.658C387.646 326.177 398.544 323.582 401.658 322.544C402.696 327.734 401.658 333.443 396.987 332.924Z" fill="#EBE9DC"/>
<path opacity="0.51" d="M332.114 298.15C332.114 298.15 342.494 293.998 344.051 287.77C345.089 282.06 332.114 298.15 332.114 298.15Z" fill="#E59A51"/>
<path opacity="0.51" d="M328.481 286.732C328.481 286.732 341.456 279.465 344.051 285.694C339.899 284.656 328.481 286.732 328.481 286.732Z" fill="#E59A51"/>
<path opacity="0.51" d="M326.405 293.998C326.405 293.998 339.38 283.617 343.532 285.693C335.747 289.846 326.405 293.998 326.405 293.998Z" fill="#E59A51"/>
<path opacity="0.44" d="M405.81 247.806C405.291 246.767 404.772 245.21 403.734 243.653C413.076 247.287 432.797 246.248 420.861 244.172C411 242.096 403.734 237.944 400.101 235.349C396.987 227.045 394.392 219.26 392.316 207.322C391.797 203.689 386.608 201.613 387.646 197.98C391.797 186.562 389.722 177.219 389.722 177.219L368.962 175.662C364.291 182.929 366.367 191.233 375.709 197.98C381.937 202.651 387.646 208.36 390.759 215.108C392.316 218.222 393.354 220.817 393.873 222.374C395.43 227.045 396.987 233.273 397.506 238.463C396.987 241.058 403.215 249.363 411 259.224C410.481 257.667 409.962 256.11 408.924 254.553C408.405 252.996 407.367 250.92 405.81 247.806C405.81 248.325 406.848 248.844 407.367 249.363C406.329 248.844 405.81 247.806 405.81 247.806Z" fill="#B6A156"/>
<path opacity="0.44" d="M407.367 249.882C410.481 252.996 418.785 259.224 426.57 260.262C436.43 261.3 414.114 254.034 407.367 249.882Z" fill="#B6A156"/>
<path d="M368.962 175.662C368.962 175.662 349.759 200.056 347.165 202.651C344.57 205.765 341.456 208.36 338.861 209.917L336.785 210.955C336.785 210.955 323.81 209.917 319.139 209.917C309.797 209.917 300.975 209.917 292.152 209.917C288.519 209.917 290.076 222.893 290.076 222.893C297.861 224.45 308.759 227.045 317.582 228.602C321.734 229.64 337.304 233.273 338.342 233.273C341.456 233.273 344.051 232.754 345.608 232.235C347.684 231.716 359.62 224.45 363.253 221.336C366.886 218.221 378.823 205.246 378.823 205.246C404.253 175.662 380.899 158.535 368.962 175.662Z" fill="#B6A156"/>
<path opacity="0.44" d="M337.304 210.955C337.304 210.955 346.646 218.222 343.532 221.336C340.937 224.969 337.304 210.955 337.304 210.955Z" fill="#B6A156"/>
<path d="M335.747 135.698C335.747 135.698 344.051 139.331 352.873 137.255C357.544 136.217 362.734 138.293 364.81 142.964C369.481 153.345 365.329 172.029 365.848 179.295C366.367 189.157 386.089 167.358 393.354 160.611C400.62 153.864 401.139 120.647 381.418 110.785C360.658 100.924 329.519 113.899 335.747 135.698Z" fill="#758399"/>
<path d="M371.557 146.078C371.038 150.23 367.924 153.344 365.329 152.825C362.734 152.306 364.81 148.154 362.734 144.521C360.658 140.888 363.772 136.736 367.924 137.774C372.595 138.293 372.076 142.445 371.557 146.078Z" fill="#F4AE8C"/>
</svg>
