<svg width="425" height="336" viewBox="0 0 425 336" fill="none" xmlns="http://www.w3.org/2000/svg">
<path d="M63.6592 51.7817C33.7167 79.4183 12.6732 116.372 3.98364 156.152C-1.56514 181.486 -1.98392 208.39 7.01977 232.676C16.0235 256.963 35.2872 278.109 60.0996 285.437C86.5872 293.289 114.855 284.914 142.18 280.622C169.505 276.33 201.646 277.795 219.234 299.151C227.401 308.991 231.798 322.496 242.895 328.881C256.506 336.733 273.675 330.347 287.39 322.705C350.835 287.531 399.099 225.977 418.048 155.943C425.586 128.306 428.518 98.2615 418.991 71.253C412.186 52.2004 397.947 34.5087 379.416 25.8199C357.221 15.4562 334.084 21.6325 312.412 30.3213C292.102 38.4867 266.975 50.5254 245.094 41.5226C229.599 35.1368 221.014 20.7951 208.556 10.536C194.945 -0.560564 177.776 -0.979302 161.234 2.16123C137.259 6.55798 113.494 16.503 92.9735 29.3792C82.5041 35.8696 72.6629 43.4069 63.6592 51.7817Z" fill="#F0C6B6"/>
<path d="M206.417 217.79L205.165 217.373C203.914 212.785 201.828 209.864 199.742 209.864C198.491 209.864 196.405 209.864 195.154 210.699C195.154 210.699 194.736 210.699 194.736 211.116C193.485 211.95 192.233 212.785 191.816 214.036C191.399 214.453 190.982 214.87 190.982 215.705C190.982 216.122 190.565 216.122 190.565 216.539C190.565 216.956 190.565 216.956 190.148 217.373C189.731 218.208 189.731 219.459 189.731 221.545C189.731 223.631 190.148 226.134 191.399 229.054C192.233 231.974 193.485 234.894 195.154 238.231C195.571 239.065 195.988 239.9 196.405 240.734C197.657 243.237 199.325 245.74 201.411 248.243L200.994 249.494C198.074 248.66 195.154 247.826 192.651 246.157C192.234 245.74 191.399 245.323 190.982 244.906C187.645 242.403 184.725 239.483 182.222 236.145C179.719 233.225 178.05 229.471 176.799 225.716C175.547 221.962 175.547 217.373 176.799 213.619L178.05 210.699C178.467 209.864 179.302 209.03 179.719 208.196C180.97 206.527 182.639 205.276 184.308 204.024C187.645 201.521 192.233 200.687 195.988 201.104C200.159 201.521 204.331 203.607 206.417 207.361C208.92 209.447 208.085 214.036 206.417 217.79Z" fill="#605B55"/>
<path d="M206.417 217.791L205.165 217.374C205.165 217.374 207.251 201.522 195.153 210.699C194.319 211.533 193.068 212.368 191.399 213.619C175.13 228.637 190.148 228.637 191.399 237.397C191.816 240.734 192.233 243.237 192.651 245.323C188.479 242.82 184.725 239.066 181.804 235.311C179.302 232.391 177.633 228.637 176.381 224.882C175.13 221.128 175.13 216.539 176.381 212.785L177.633 209.865C178.05 209.03 178.884 208.196 179.302 207.362C180.553 205.693 182.222 204.442 183.89 203.19C187.227 200.687 191.816 199.853 195.571 200.27C199.742 200.687 203.914 202.773 206 206.528C208.92 209.448 208.085 214.036 206.417 217.791Z" fill="#EBE9DC"/>
<path d="M222.686 274.107C221.852 275.776 221.434 277.444 220.6 279.113C219.349 281.616 218.097 283.702 216.428 286.205C215.594 287.039 215.177 287.873 214.343 288.708C213.091 289.959 211.84 291.211 210.588 292.462C208.92 294.131 206.834 295.382 204.748 296.634C203.079 297.468 201.411 298.302 199.742 299.137C197.239 299.971 194.319 299.971 191.816 299.137C190.565 298.719 188.896 298.302 188.062 298.302C186.393 299.554 184.725 302.891 183.056 304.56C181.804 306.228 180.553 307.897 179.302 310.4C179.302 310.817 178.884 310.817 178.884 311.234C178.884 311.651 178.884 311.651 178.467 311.651C176.799 314.571 175.547 317.491 175.547 319.16C174.713 322.914 171.376 325.835 168.873 322.914C167.204 321.246 165.953 318.326 167.204 315.823C169.29 310.817 170.958 304.977 173.879 299.554C175.13 297.051 176.799 294.131 179.302 291.628C183.89 284.953 184.307 286.622 188.479 285.37C190.148 284.953 191.399 283.702 192.233 282.45C193.068 281.199 193.902 279.113 193.902 277.862V277.444V277.027C193.902 276.193 193.902 274.524 193.902 272.856C193.902 270.77 193.485 268.684 193.485 267.85C193.485 267.433 193.485 267.016 193.485 267.016C194.319 259.09 201.411 253.249 209.337 253.667C214.343 254.084 217.68 260.758 219.766 267.016C221.852 269.518 222.686 273.69 222.686 274.107Z" fill="#605B55"/>
<path d="M210.588 292.462C208.92 294.13 206.834 295.382 204.748 296.633C203.079 297.468 201.411 298.302 199.742 299.136C197.239 299.97 194.319 299.97 191.816 299.136C190.565 298.719 188.896 298.302 188.062 298.302C186.393 299.553 184.725 302.891 183.056 304.559C181.804 306.228 180.553 307.896 179.302 310.399C179.302 310.817 178.884 310.817 178.884 311.234C178.884 311.651 178.884 311.651 178.467 311.651C176.799 314.571 175.547 317.491 175.547 319.16C174.713 322.914 171.376 325.834 168.873 322.914C167.204 321.245 165.953 318.325 167.204 315.822C169.29 310.817 170.958 304.976 173.879 299.553C175.13 297.05 176.799 294.13 179.302 291.627C183.89 284.953 184.307 286.621 188.479 285.37C190.148 284.953 191.399 283.701 192.233 282.45C193.068 281.198 193.902 279.113 193.902 277.861V277.444V277.027C196.822 277.861 198.908 279.53 198.908 283.701C198.491 293.713 200.577 294.965 205.582 294.13C207.668 292.044 209.337 292.044 210.588 292.462Z" fill="#EBE9DC"/>
<path d="M222.686 274.106C221.851 275.775 221.434 277.444 220.6 279.112C219.348 281.615 218.097 283.701 216.428 286.204C215.594 287.038 215.177 287.873 214.343 288.707C213.091 289.958 211.84 291.21 210.588 292.461C208.92 294.13 206.834 295.381 204.748 296.633C203.079 297.467 201.411 298.301 199.742 299.136C197.239 299.97 194.319 299.97 191.816 299.136C190.565 298.719 188.896 298.301 188.062 298.301C186.393 299.553 184.724 302.89 183.056 304.559C181.804 306.227 180.553 307.896 179.301 310.399C181.804 306.227 189.73 292.044 194.736 288.29C197.656 286.204 196.405 281.198 194.319 276.609V276.192C194.319 275.358 194.319 273.689 194.319 272.021C192.65 270.352 191.816 268.266 190.982 266.18H193.902H220.6C221.851 269.518 222.686 273.689 222.686 274.106Z" fill="#EBE9DC"/>
<path d="M343.661 327.086C343.661 329.589 340.741 329.589 337.821 329.589C333.232 329.589 333.232 327.503 330.729 326.669C328.226 325.835 325.723 323.749 324.055 322.08C321.135 319.16 318.215 316.24 315.295 313.32C315.295 313.32 300.694 299.971 298.608 298.302L298.191 297.885C298.191 297.885 297.774 297.051 296.94 296.217C295.688 294.548 294.02 291.628 292.768 289.542C291.517 287.874 290.682 286.205 289.848 285.371C289.014 284.119 285.676 279.948 284.842 279.113C284.842 279.113 283.174 262.01 289.014 259.924C292.768 258.673 297.357 261.593 300.277 263.678C301.528 264.513 302.363 265.347 302.363 265.347C302.363 265.347 304.449 270.353 305.7 273.69C306.117 274.942 306.534 275.776 306.951 276.61C307.369 278.279 308.203 279.948 308.62 281.199C309.454 283.285 309.872 285.371 310.289 287.456C310.289 287.874 330.729 316.24 330.729 316.24C331.564 317.492 332.398 318.326 333.649 318.743C335.318 319.16 337.404 321.246 339.49 321.246C343.661 321.246 343.661 324.166 343.661 327.086Z" fill="#605B55"/>
<path d="M343.661 327.086C343.661 329.589 340.741 329.589 337.821 329.589C333.232 329.589 333.232 327.503 330.729 326.669C328.226 325.835 325.723 323.749 324.055 322.08C321.135 319.16 318.215 316.24 315.295 313.32C315.295 313.32 300.694 299.971 298.608 298.302C299.86 297.051 300.694 295.799 300.694 294.548C300.277 290.793 300.277 286.205 303.614 284.536C306.117 283.285 302.78 270.353 300.694 263.678C301.946 264.513 302.78 265.347 302.78 265.347C302.78 265.347 306.534 274.107 307.369 276.193C308.62 279.947 309.872 283.285 310.706 287.039C310.706 287.456 331.147 315.823 331.147 315.823C331.981 317.074 332.815 317.909 334.067 318.326C335.735 318.743 337.821 320.829 339.907 320.829C343.661 321.246 343.661 324.166 343.661 327.086Z" fill="#EBE9DC"/>
<path d="M309.872 283.284C307.786 283.701 301.946 286.621 298.608 298.302C297.357 296.633 294.437 292.044 292.768 289.541C292.351 282.45 292.768 275.358 292.768 275.358L306.534 273.689C306.951 274.941 307.369 275.775 307.786 276.61C307.786 277.861 309.037 281.615 309.872 283.284Z" fill="#EBE9DC"/>
<path d="M331.147 234.894C331.147 236.98 331.147 239.065 331.981 241.568L319.466 236.145C320.3 234.894 320.718 234.06 321.552 232.808C323.638 230.305 325.724 227.802 328.644 226.134C330.312 225.299 331.564 224.048 333.232 223.631C333.65 223.631 334.067 223.631 334.067 224.048C333.232 226.968 331.564 229.888 331.564 232.808C331.147 234.06 331.147 234.477 331.147 234.894Z" fill="#605B55"/>
<path opacity="0.48" d="M331.147 233.642C331.147 234.059 331.147 234.477 331.147 234.894L326.141 235.728L321.552 233.225C323.638 230.722 325.724 228.219 328.644 226.551C328.226 227.802 328.226 229.471 328.644 230.722C329.061 231.974 330.312 232.808 331.147 233.642Z" fill="#605B55"/>
<path d="M356.593 263.678V264.095V264.512C356.593 264.929 356.176 264.929 356.176 265.347C355.759 265.764 355.759 265.764 355.341 265.764C352.421 267.432 345.747 269.101 334.901 265.347C336.152 267.015 337.821 268.684 339.907 269.935H340.324C340.741 270.353 341.158 270.353 341.158 270.77C341.575 271.187 341.575 271.604 341.575 272.021C341.575 272.438 341.575 272.855 341.158 273.273C340.741 274.107 339.49 274.524 338.238 274.524C334.901 273.69 331.564 272.021 329.061 270.353C327.809 269.518 326.558 268.267 325.306 267.015C323.22 264.929 321.552 267.85 319.466 270.353C319.049 271.187 318.632 271.604 317.797 272.021C316.129 273.69 310.706 278.279 306.534 278.279C305.7 278.279 304.448 277.861 303.614 277.444C294.019 269.935 265.653 241.152 274.83 239.483C295.271 236.146 286.928 236.98 301.111 229.888C305.283 227.803 309.454 226.968 312.792 226.968C316.129 226.968 319.049 227.385 321.552 228.22C324.889 229.054 327.392 230.723 328.643 231.14C333.649 233.226 336.987 236.146 339.072 240.317C339.49 241.152 339.907 242.403 340.324 243.655C341.158 248.243 343.244 251.998 346.998 254.501L354.09 259.506L356.176 261.175C356.176 262.844 356.593 263.261 356.593 263.678Z" fill="#605B55"/>
<path d="M306.534 275.358C306.534 275.358 305.283 278.696 302.78 282.45C300.694 285.787 297.774 289.542 294.437 291.21C291.517 292.462 289.431 294.548 286.928 296.216C284.842 297.468 282.756 297.885 280.671 298.719C279.836 300.388 272.745 326.252 272.327 327.503C271.493 329.589 263.567 335.012 258.561 335.012C255.224 335.012 253.138 333.76 252.304 331.257C250.635 325.834 256.058 327.086 258.561 326.669C260.647 326.252 261.898 323.749 263.15 320.828C263.15 322.497 263.567 317.074 263.567 313.737C263.567 309.982 263.567 305.811 263.984 301.639C264.401 298.719 264.401 295.382 265.236 292.045C265.653 290.793 266.07 289.542 266.487 288.29L270.242 284.119C271.493 282.45 279.836 265.764 279.836 265.764C279.836 265.764 290.682 254.501 298.191 257.004C304.866 259.924 309.037 267.85 306.534 275.358Z" fill="#605B55"/>
<path opacity="0.48" d="M201.411 246.992L200.994 248.243C198.074 247.409 195.154 246.575 192.651 244.906C192.234 244.489 191.399 244.072 190.982 243.654C192.234 241.986 194.319 240.734 196.405 239.483C197.657 241.986 199.325 244.072 201.411 246.992Z" fill="#605B55"/>
<path d="M277.751 239.9C263.984 241.986 248.55 241.569 239.372 241.152C234.366 240.734 229.36 239.483 224.772 237.814C208.085 231.974 197.239 240.317 193.068 246.157C190.148 250.746 188.896 258.672 190.982 265.347V265.764C191.816 267.85 192.651 269.518 193.902 271.187C194.736 272.438 196.405 273.69 198.074 274.524C200.994 276.193 203.497 278.278 206.417 279.947C207.668 280.781 208.92 281.616 209.754 282.45C210.171 282.867 210.588 282.867 211.423 283.284C212.674 283.702 214.76 284.536 216.011 285.787C217.263 286.622 218.514 287.873 218.932 289.542C218.932 290.376 219.349 291.21 219.349 292.462C219.349 294.548 219.349 294.965 219.349 297.468C218.932 302.056 218.097 307.062 217.263 311.651L216.846 312.902C216.846 313.737 216.846 314.571 217.263 315.405C218.514 318.326 220.183 320.828 221.852 323.331C222.686 324.583 223.937 325.834 224.772 327.086C226.44 330.006 231.029 331.675 232.281 331.675C234.783 331.675 236.452 332.092 236.869 330.006C237.286 328.754 237.286 325.417 232.698 324.166C231.863 323.749 228.109 317.074 226.857 314.154C226.44 313.737 226.44 312.902 226.857 312.068C228.943 308.314 231.029 304.559 232.698 300.805C233.532 299.136 233.949 297.885 234.783 296.633C235.201 296.216 235.201 295.799 235.618 294.965C236.035 293.713 237.286 287.456 237.286 287.456C237.286 287.039 237.286 287.456 237.286 286.204C237.286 284.536 236.869 283.702 236.869 282.867C236.452 282.033 236.035 280.781 235.618 279.53C239.789 280.364 243.544 281.616 246.464 283.284C272.745 297.051 283.591 291.21 291.1 289.125C291.517 289.125 291.934 289.125 291.934 288.707C323.221 282.867 311.54 236.563 277.751 239.9Z" fill="#605B55"/>
<path d="M290.265 289.542C284.842 291.21 277.751 294.548 264.402 291.21C259.396 289.959 253.138 287.456 246.047 283.702C243.127 282.033 239.372 281.199 235.201 279.947C235.201 280.364 234.366 280.782 232.281 281.199C226.023 282.45 212.257 284.119 211.423 283.702C210.171 283.284 206.417 280.364 206.417 280.364C203.914 278.279 200.994 276.193 198.074 274.941C196.405 274.107 195.154 272.856 193.902 271.604C192.651 269.935 191.399 268.267 190.982 266.181L193.485 266.598C193.485 266.598 198.908 261.175 199.742 265.347C200.577 269.518 208.503 272.856 211.006 268.267C207.668 262.844 211.423 264.095 213.091 258.255C214.76 252.415 216.011 256.169 221.434 256.586C223.937 257.004 227.275 257.838 231.446 259.924C243.544 266.598 234.783 261.175 245.212 264.095C255.641 267.015 250.635 258.255 258.144 258.255C266.07 263.678 268.99 268.684 268.156 274.107C267.739 277.027 270.659 279.947 275.248 282.033C279.419 284.119 284.842 285.37 289.431 285.787L290.265 289.542Z" fill="#EBE9DC"/>
<path d="M356.593 263.678V264.095V264.512C356.593 264.93 356.176 264.93 356.176 265.347C355.759 265.764 355.759 265.764 355.341 265.764C352.421 267.432 345.747 269.101 334.901 265.347C336.152 267.015 337.821 268.684 339.907 269.935H340.324C340.741 270.353 341.158 270.353 341.158 270.77C341.575 271.187 341.575 271.604 341.575 272.021C341.575 272.438 341.575 272.855 341.158 273.273C340.741 274.107 339.489 274.524 338.238 274.524C334.901 273.69 331.564 272.021 329.061 270.353C327.809 269.518 326.558 268.267 325.306 267.015C323.22 264.93 321.552 267.85 319.466 270.353C319.049 269.935 319.049 269.518 319.049 268.684C319.049 267.85 318.632 267.432 318.632 266.598C317.797 257.004 324.472 257.838 325.723 256.169C326.975 254.501 320.3 244.072 323.22 240.734C325.306 238.231 336.152 236.98 339.49 240.317C339.907 241.152 340.324 242.403 340.741 243.655C341.575 248.243 343.661 251.998 347.415 254.501L354.507 259.506L356.593 261.175C356.176 262.844 356.593 263.261 356.593 263.678Z" fill="#EBE9DC"/>
<path d="M354.924 266.181C352.839 264.512 352.839 262.427 353.673 260.341L355.759 262.009C357.427 263.678 356.176 265.347 354.924 266.181Z" fill="#132541"/>
<path d="M336.152 248.243C337.304 248.243 338.238 247.683 338.238 246.992C338.238 246.301 337.304 245.74 336.152 245.74C335 245.74 334.067 246.301 334.067 246.992C334.067 247.683 335 248.243 336.152 248.243Z" fill="#132541"/>
<path d="M340.741 272.856C338.655 272.438 338.238 271.187 336.987 270.353C334.067 268.267 334.067 265.764 334.067 265.764C335.318 267.433 336.987 269.101 339.073 270.353H339.49C340.324 270.77 340.741 272.021 340.741 272.856Z" fill="#D86F70"/>
<path d="M355.759 265.346C355.342 265.764 355.342 265.764 354.924 265.764C352.004 267.432 345.33 269.101 334.484 265.346C340.324 266.598 349.084 267.849 355.759 265.346Z" fill="#EBE9DC"/>
<path d="M340.324 274.106C339.907 274.941 338.655 275.358 337.404 275.358C334.067 274.523 330.729 272.855 328.227 271.186C326.975 270.352 325.724 269.1 324.472 267.849C322.386 265.763 320.718 268.683 318.632 271.186C318.215 272.021 317.798 272.438 316.963 272.855C315.295 274.523 309.872 279.112 305.7 279.112C305.7 278.695 306.117 278.695 307.369 278.695C312.375 277.861 315.712 273.272 318.215 269.518C320.718 266.18 323.221 263.677 326.558 266.598C333.65 273.272 340.324 274.106 340.324 274.106Z" fill="#EBE9DC"/>
<path d="M264.402 290.793C259.396 289.542 253.138 287.039 246.047 283.285C243.127 281.616 239.372 280.782 235.201 279.53C235.201 279.947 233.115 272.856 231.029 273.273C227.692 269.518 233.115 273.273 236.035 272.856C243.544 272.439 242.292 274.942 256.058 278.696C261.899 280.365 268.99 280.782 275.248 281.199C277.333 281.616 280.254 282.45 264.402 290.793Z" fill="#EBE9DC"/>
<path d="M237.286 330.006C236.869 332.091 235.2 331.674 232.698 331.674C231.446 331.674 226.857 330.006 225.189 327.085C224.354 325.417 223.103 324.582 222.269 323.331C220.6 320.828 218.931 318.325 217.68 315.405C217.263 314.571 217.263 313.736 217.263 312.902L217.68 311.651C218.514 307.062 219.349 302.056 219.766 297.467C219.766 294.964 219.766 294.547 219.766 292.461C219.766 291.627 219.766 290.376 219.349 289.541C217.68 285.787 213.925 284.535 211.423 283.284C212.257 280.364 213.508 276.192 213.508 274.941C213.925 272.855 216.428 269.935 219.766 272.021C222.686 273.689 218.514 273.689 222.686 273.689C225.189 273.689 230.195 275.358 234.366 277.027C235.2 279.112 236.452 281.615 236.869 282.867C237.286 283.701 237.286 284.535 237.286 286.204C237.286 287.038 237.286 287.038 237.286 287.456C237.286 287.456 236.035 293.713 235.618 294.964C234.783 297.884 233.949 298.302 233.115 300.805C231.446 304.559 229.36 308.313 227.275 312.068C226.857 312.485 226.857 313.319 227.275 314.154C228.943 317.074 232.28 323.748 233.115 324.165C237.286 325.417 237.286 328.754 237.286 330.006Z" fill="#EBE9DC"/>
<path d="M302.78 282.449C300.694 285.787 297.774 289.541 294.437 291.21C291.517 292.461 289.431 294.547 286.928 296.216C284.842 297.467 282.756 297.884 280.671 298.718C279.836 300.387 272.745 326.251 272.327 327.502C271.493 329.588 263.567 335.011 258.561 335.011C255.224 335.011 253.138 333.76 252.304 331.257C250.635 325.834 256.058 327.085 258.561 326.668C260.647 326.251 261.898 323.748 263.15 320.828C263.15 322.496 263.567 317.073 263.567 313.736C263.567 309.982 263.567 305.81 263.984 301.639C264.401 298.719 264.819 294.547 265.653 290.793C269.824 287.455 274.83 285.787 280.253 284.535C285.259 283.284 292.768 278.695 293.185 281.615C293.185 284.952 303.197 281.198 302.78 282.449Z" fill="#EBE9DC"/>
<path d="M339.072 245.74C339.072 245.74 332.398 239.9 331.146 244.906C331.146 244.906 336.987 244.489 339.072 245.74Z" fill="#EBE9DC"/>
<path opacity="0.48" d="M321.135 229.054C321.135 232.391 319.883 235.728 313.626 236.145C316.129 229.888 312.374 227.802 312.374 227.802C315.712 227.802 318.632 228.219 321.135 229.054Z" fill="#605B55"/>
<path d="M327.392 221.545C326.975 226.968 324.889 231.14 328.644 238.649L313.209 236.146C315.295 229.471 321.552 224.465 326.558 221.128C326.975 220.711 327.392 221.128 327.392 221.545Z" fill="#605B55"/>
<path d="M326.558 231.14C326.975 234.477 324.472 237.397 321.135 236.98L318.215 236.563C317.797 236.563 317.38 236.146 316.963 235.312C316.963 234.895 316.963 234.895 316.963 234.477C318.632 229.471 322.386 225.3 325.723 222.38C326.141 221.963 326.558 222.38 326.558 222.797C326.558 224.048 326.558 225.3 326.558 226.551C326.558 228.22 326.558 229.889 326.558 231.14Z" fill="#EBE9DC"/>
<path d="M326.558 231.14C326.975 234.477 324.472 237.397 321.135 236.98L318.215 236.563C317.797 236.563 317.38 236.146 316.963 235.311C317.797 234.477 319.049 234.06 320.3 233.643C325.723 232.391 326.558 222.797 326.558 222.797C326.558 224.048 326.558 225.3 326.558 226.551C326.558 228.22 326.558 229.888 326.558 231.14Z" fill="#EBE9DC"/>
<path d="M256.476 219.459C250.635 227.385 244.795 244.905 234.783 256.169C224.772 267.015 211.84 276.192 203.914 289.124C201.828 292.878 190.148 281.615 192.651 278.695L194.736 277.861C199.742 275.358 209.337 259.923 213.091 247.408C216.011 237.397 221.852 231.974 225.606 227.802C228.109 225.299 229.778 223.213 228.943 221.128C227.275 220.293 223.103 218.625 221.434 218.207C215.594 215.705 209.754 213.619 203.914 212.367C193.068 209.447 180.553 206.944 168.038 204.024H167.621C154.272 200.687 150.101 184.835 153.021 171.903C156.358 158.554 180.553 161.891 182.639 163.143C193.068 169.4 232.698 186.504 238.538 191.092C243.127 194.847 247.715 199.018 251.887 203.19L253.555 204.858C258.144 208.613 259.396 215.287 256.476 219.459Z" fill="#F4AE8C"/>
<path d="M205.165 314.571H204.331C202.245 314.571 198.074 312.902 194.736 311.234C192.233 309.565 189.73 307.479 188.896 304.976C186.81 299.136 185.559 296.633 183.056 294.965C177.216 289.124 179.302 286.204 180.553 284.536C181.805 283.284 183.056 282.45 183.89 281.615C185.142 280.781 186.393 280.364 187.645 279.947C189.313 279.53 190.982 279.113 192.233 278.695C193.068 278.278 189.73 284.953 203.497 289.124C203.914 289.959 205.165 302.89 206.417 303.725C208.503 305.811 218.931 314.154 205.165 314.571Z" fill="#132541"/>
<path d="M195.154 185.67C191.816 194.847 173.879 230.305 159.695 249.495C154.69 256.169 150.101 260.758 146.764 261.592C146.764 261.592 128.826 271.604 119.648 278.278C109.219 285.787 87.5273 306.645 87.5273 306.645C85.4415 308.314 75.0126 299.553 77.0984 298.719C85.4415 294.548 97.1219 272.438 106.299 262.426C107.134 261.592 107.551 261.175 108.385 260.341C113.391 254.5 119.231 249.912 125.489 246.157C126.74 245.323 127.991 244.906 129.243 244.072C130.077 243.654 130.494 243.654 130.494 243.654C131.329 243.237 132.58 241.569 134.249 238.649C135.083 236.98 135.917 235.311 136.752 233.226C139.255 227.802 142.175 220.711 144.678 213.202C150.518 197.767 155.941 181.081 157.192 175.241C159.278 164.395 170.124 157.303 180.97 159.806C190.565 161.892 195.154 184.835 195.154 185.67Z" fill="#F4AE8C"/>
<path d="M97.539 329.171C96.7047 331.257 95.8704 332.509 93.3674 332.509C92.9503 332.509 92.9503 332.509 92.5331 332.509C89.1959 332.509 80.4356 330.423 76.6812 323.748C73.7611 313.736 71.2581 314.154 65.8351 309.148C63.7493 305.393 65.8351 303.308 69.1724 301.222C70.4238 300.387 71.6753 299.553 73.3439 298.302C74.5954 297.05 75.8469 296.633 76.6812 297.05C78.767 298.719 82.9385 307.479 89.613 304.142C90.0302 305.393 88.7787 321.245 91.2817 322.08C91.2817 322.08 98.7905 325.834 97.539 329.171Z" fill="#132541"/>
<path d="M266.07 122.679C263.984 123.513 262.316 124.347 260.23 125.182C258.979 125.599 257.727 126.016 256.476 126.85C253.973 127.685 251.053 128.936 248.55 129.353C242.292 131.022 228.109 132.273 227.692 132.273C227.692 132.273 217.263 127.685 213.508 125.182C209.754 122.679 206 119.759 202.662 116.421C195.988 109.747 189.731 101.821 185.976 91.3919C185.976 91.3919 187.228 76.3743 193.902 74.2885C200.577 71.7856 203.914 75.1229 206.417 81.7974C206.834 82.6317 210.588 97.2321 214.76 103.072C216.846 105.992 226.857 118.09 228.943 119.341C232.28 119.759 245.629 118.924 255.224 118.09C256.476 118.09 257.727 117.673 258.979 117.673C261.064 117.256 263.15 117.256 263.984 116.838C263.984 116.421 267.739 121.844 266.07 122.679Z" fill="#F4AE8C"/>
<path d="M205.582 116.838C195.988 123.93 203.914 127.684 198.491 140.199C196.405 145.622 195.988 151.045 195.988 156.885C195.988 158.554 195.988 160.223 196.405 161.891C196.405 163.143 196.405 163.977 196.405 164.811C197.656 196.098 153.855 205.275 150.518 167.731C150.101 163.977 154.272 154.8 155.524 143.536C155.941 138.948 155.941 133.942 155.524 128.936C152.604 111.415 151.352 88.8888 158.861 77.6256C160.112 75.5398 161.781 73.8712 163.867 72.6197C170.541 68.031 189.313 65.1109 200.994 73.454C205.582 98.0663 205.582 98.4834 208.502 104.741C210.588 109.329 205.582 116.838 205.582 116.838Z" fill="#D86F70"/>
<path d="M196.822 168.149V165.229C196.822 165.229 170.541 165.229 162.615 164.395C154.689 163.56 194.736 171.903 196.822 169.4V168.149Z" fill="#ABC5D3"/>
<path d="M189.314 123.096C186.393 120.176 189.731 116.839 197.239 116.421C204.748 116.004 208.086 118.09 206.417 125.599C205.165 129.77 201.828 131.856 197.657 130.188C184.308 125.599 189.314 123.096 189.314 123.096Z" fill="#F4AE8C"/>
<path d="M262.316 118.924C262.316 118.924 266.07 110.581 273.579 110.164C281.088 109.747 282.757 112.249 279.002 116.838C276.082 120.175 276.082 123.096 271.493 123.513C258.561 124.764 262.316 118.924 262.316 118.924Z" fill="#F4AE8C"/>
<path d="M204.748 52.5962C205.165 55.0992 203.08 55.9335 203.08 58.4364C203.08 60.5222 202.663 63.4423 202.245 65.5281C201.828 68.8653 200.994 71.3683 200.994 71.3683C200.994 72.2026 200.994 73.0369 200.577 73.8712C200.577 73.8712 200.577 73.8712 200.577 74.2884C200.16 75.1227 200.16 75.5398 199.742 75.957C196.822 80.1285 190.565 80.5457 187.228 77.6256C183.056 74.7055 179.302 68.8653 182.639 66.7795C182.639 66.7795 182.639 66.7795 183.056 66.3624C183.473 65.9452 184.725 64.2766 185.559 62.608C185.976 62.1908 185.976 61.7737 186.393 61.3565C186.393 61.3565 186.393 60.9393 186.811 60.9393C188.062 59.2707 188.896 57.6021 189.314 56.3506C188.896 55.5163 204.331 50.0933 204.748 52.5962Z" fill="#F4AE8C"/>
<path d="M195.154 185.669C192.651 192.344 182.639 213.202 171.793 231.139C167.621 237.814 163.45 244.071 159.695 249.494C148.432 246.574 140.923 240.317 135.917 233.642C138.42 228.219 141.34 221.128 143.843 213.619C146.346 206.944 148.849 200.27 150.935 194.012C152.604 189.424 153.855 184.835 154.689 181.498C155.524 178.995 155.941 177.326 156.358 175.658C158.444 164.812 166.787 167.314 177.633 169.4C184.308 170.652 190.982 170.235 193.068 177.326C194.319 181.498 195.154 185.252 195.154 185.669Z" fill="#ABC5D3"/>
<path d="M195.154 185.67C192.651 192.344 182.639 213.202 171.793 231.14C170.124 224.048 165.953 211.533 158.027 203.607C154.69 200.27 152.187 196.516 150.935 193.596C152.604 189.007 153.855 184.418 154.69 181.081L193.068 176.909C194.319 181.498 195.154 185.253 195.154 185.67Z" fill="#ABC5D3"/>
<path d="M192.234 123.096C191.399 122.678 190.982 122.261 190.982 121.427C190.982 121.01 194.319 112.667 199.742 114.335C200.159 114.335 200.577 115.17 200.577 115.587C200.577 116.004 199.742 116.421 199.325 116.421C195.571 115.587 193.068 122.261 193.068 122.261C193.068 122.678 192.651 123.096 192.234 123.096Z" fill="#F4AE8C"/>
<path d="M205.165 314.57H204.331C202.245 314.57 198.074 312.902 194.736 311.233C192.233 309.564 189.73 307.479 188.896 304.976C186.81 299.136 185.559 296.633 183.056 294.964C177.216 289.124 179.302 286.204 180.553 284.535C181.805 283.284 183.056 282.449 183.89 281.615C183.89 284.118 184.725 289.958 188.062 296.633C190.565 300.804 191.816 305.393 192.651 306.644C194.319 308.313 198.491 312.902 205.165 314.57Z" fill="#ABC5D3"/>
<path d="M92.5331 332.508C89.1959 332.508 80.4356 330.422 76.6812 323.748C73.7611 313.736 71.2581 314.153 65.8351 309.147C63.7493 305.393 65.8351 303.307 69.1724 301.221C69.5895 303.724 70.841 306.644 72.9268 309.564C77.5155 316.239 78.767 320.41 80.4356 323.748C81.2699 325.833 87.1101 330.005 92.5331 332.508Z" fill="#ABC5D3"/>
<path d="M238.955 190.675C236.452 198.601 231.446 209.447 221.435 217.79C215.594 215.287 209.754 213.202 203.914 211.95C193.068 209.03 180.553 206.527 168.039 203.607H167.621C154.272 200.27 148.849 187.338 149.267 173.572C149.267 167.731 150.935 164.394 152.187 162.726C155.107 163.977 166.787 165.229 173.879 165.229C175.547 165.229 194.319 171.903 196.405 169.817C206.834 174.823 232.698 185.669 238.955 190.675Z" fill="#ABC5D3"/>
<path opacity="0.44" d="M190.982 118.924C190.982 118.924 163.45 130.188 156.358 144.371C156.775 139.782 156.775 134.776 156.358 129.77C153.438 112.25 152.187 89.7234 159.695 78.4602L176.799 81.7975C176.799 81.7975 177.633 89.7234 168.038 101.821C164.284 106.827 166.787 114.336 173.044 116.004C180.97 117.673 190.982 118.924 190.982 118.924Z" fill="#D86F70"/>
<path d="M190.982 118.924C183.056 118.09 152.186 116.422 150.518 116.004C151.769 114.336 161.781 102.238 169.29 95.9808C177.216 88.8892 178.467 79.7117 175.964 75.123C172.21 68.8657 164.701 69.7 160.112 75.123C155.107 81.3804 149.684 87.2206 144.26 93.8951C138.837 100.57 127.574 119.759 127.574 121.845C127.574 127.685 132.163 132.273 138.003 132.273C145.929 132.273 154.689 132.273 163.45 131.439C172.21 130.605 182.222 128.519 190.148 126.85C192.233 126.433 193.485 118.924 190.982 118.924Z" fill="#F4AE8C"/>
<path opacity="0.59" d="M225.606 227.802C228.109 225.299 229.778 223.213 228.943 221.127C228.943 221.127 236.452 222.379 240.624 221.545C237.703 222.379 231.029 224.465 225.606 227.802Z" fill="#F4AE8C"/>
<path opacity="0.59" d="M107.551 248.243C107.968 247.826 108.385 247.826 110.054 247.408C107.968 248.243 107.134 248.66 107.551 248.243Z" fill="#F4AE8C"/>
<path opacity="0.59" d="M124.654 246.157C125.906 245.322 127.157 244.905 128.408 244.071C129.243 243.654 129.66 243.654 129.66 243.654C130.494 243.236 131.746 241.568 133.414 238.648C133.414 241.151 133.414 244.071 134.249 244.905C134.249 245.739 130.077 246.157 124.654 246.157Z" fill="#F4AE8C"/>
<path d="M260.23 125.182C258.978 125.599 257.727 126.016 256.476 126.85C254.39 123.513 254.39 120.176 255.224 117.673C256.476 117.673 257.727 117.256 258.978 117.256C258.144 120.593 258.978 123.513 260.23 125.182Z" fill="#132541"/>
<path d="M260.23 116.838C258.144 117.255 255.641 117.255 253.555 117.672C253.555 117.672 253.138 116.838 253.973 116.421C254.39 116.004 255.224 116.004 256.476 115.587C258.144 115.587 258.978 115.587 259.396 116.004C260.647 116.004 260.23 116.838 260.23 116.838Z" fill="#132541"/>
<path opacity="0.44" d="M185.976 61.3562L200.577 73.8709C200.577 73.8709 200.577 73.8709 200.577 74.288C200.159 75.1224 200.159 75.5395 199.742 75.9567C198.491 75.5395 196.405 74.7052 194.319 73.4537C189.313 70.5336 186.393 64.2763 185.976 61.3562Z" fill="#F4AE8C"/>
<path d="M259.813 115.587C259.813 116.004 259.813 116.004 259.813 115.587C259.396 116.004 254.39 116.422 254.39 116.422C254.39 116.422 254.39 116.422 254.39 116.004C254.807 115.587 255.641 115.587 256.893 115.17C258.144 115.17 258.979 115.587 259.813 115.587Z" fill="#ABC5D3"/>
<path d="M221.018 40.4985C220.6 56.3504 208.086 64.6936 195.988 63.8592C183.891 63.4421 180.136 56.3504 177.633 41.7499C175.965 31.321 185.559 17.1377 198.074 19.2235C210.589 21.7264 221.435 25.4809 221.018 40.4985Z" fill="#E59A51"/>
<path d="M183.891 28.8184C176.382 43.4188 182.639 48.8419 181.805 55.0992C184.725 60.5223 188.062 69.2825 200.16 75.5399C211.006 80.9629 219.766 58.4365 220.6 47.5904C221.017 42.1674 222.686 32.5728 215.594 27.9841C193.485 14.6351 183.891 28.8184 183.891 28.8184Z" fill="#F4AE8C"/>
<path d="M219.766 33.4069C219.766 33.4069 223.103 37.5784 212.674 37.1613C207.668 37.1613 203.497 39.6642 200.577 43.4186C197.239 47.5902 193.485 50.5103 193.485 50.5103C193.485 50.5103 186.811 54.2647 185.976 61.7735C173.462 46.3387 178.885 20.475 193.902 20.8922C218.097 21.7265 219.766 33.4069 219.766 33.4069Z" fill="#E59A51"/>
<path d="M195.154 50.0933C193.485 53.8477 196.405 55.9334 194.736 56.7678C193.068 57.6021 191.399 56.7678 189.731 53.8477C187.645 50.9276 186.393 48.4246 190.982 46.756C192.651 46.3388 195.988 48.0075 195.154 50.0933Z" fill="#F4AE8C"/>
<path d="M192.234 19.6409C192.234 19.6409 173.462 -2.05118 161.781 19.6409C149.267 43.4189 132.163 25.8983 132.163 25.8983C132.163 25.8983 133.415 38.413 152.187 40.0816C177.633 42.1674 181.388 14.6351 188.479 21.3096C188.896 21.7267 191.399 19.2238 192.234 19.6409Z" fill="#E59A51"/>
<path d="M193.068 19.6407C193.068 20.0579 191.816 20.0579 189.731 20.8922C188.062 21.3093 186.811 22.5608 186.393 22.1436C186.393 21.7265 186.393 20.475 188.896 19.6407C191.816 18.3892 193.068 19.2235 193.068 19.6407Z" fill="#5B124B"/>
<path d="M196.405 169.4V164.811C196.405 164.811 170.124 164.811 162.198 163.977C154.69 163.977 195.571 171.903 196.405 169.4Z" fill="#ABC5D3"/>
</svg>
