<svg width="425" height="333" viewBox="0 0 425 333" fill="none" xmlns="http://www.w3.org/2000/svg">
<path d="M63.6592 51.7817C33.7167 79.4183 12.6732 116.372 3.98364 156.152C-1.56514 181.486 -1.98392 208.39 7.01977 232.676C16.0235 256.963 35.2872 278.109 60.0996 285.437C86.5872 293.289 114.855 284.914 142.18 280.622C169.505 276.33 201.646 277.795 219.234 299.151C227.401 308.991 231.798 322.496 242.895 328.881C256.506 336.733 273.675 330.347 287.39 322.705C350.835 287.531 399.099 225.977 418.048 155.943C425.586 128.306 428.518 98.2615 418.991 71.253C412.186 52.2004 397.947 34.5087 379.416 25.8199C357.221 15.4562 334.084 21.6325 312.412 30.3213C292.102 38.4867 266.975 50.5254 245.094 41.5226C229.599 35.1368 221.014 20.7951 208.556 10.536C194.945 -0.560564 177.776 -0.979302 161.234 2.16123C137.259 6.55798 113.494 16.503 92.9735 29.3792C82.5041 35.8696 72.6629 43.4069 63.6592 51.7817Z" fill="#F0C6B6"/>
<path d="M42 175.767L199.738 264.384L404 169.121L232.526 100L42 175.767Z" fill="#ABC5D3"/>
<path d="M66.3696 175.767L63.7111 174.217C74.5667 170.45 87.4161 166.241 98.9363 162.475C110.457 158.709 122.42 154.721 133.054 151.176C142.802 147.853 152.993 144.308 162.076 139.434C163.848 138.548 165.399 137.441 167.171 136.554C170.938 134.339 174.704 132.124 178.913 130.573C182.015 129.465 185.116 128.579 188.218 127.693C189.547 127.25 190.655 127.028 191.984 126.585C205.941 122.376 234.742 107.089 234.742 107.089L235.849 108.862C235.849 108.862 206.827 124.37 192.427 128.579C191.098 129.022 189.99 129.243 188.661 129.687C185.559 130.573 182.458 131.459 179.578 132.567C175.59 134.117 171.824 136.333 168.279 138.327C166.507 139.213 164.956 140.321 163.184 141.207C153.879 146.302 143.688 149.847 133.718 153.17C122.863 156.936 111.121 160.702 99.601 164.469C88.0808 168.456 77.2252 172.001 66.3696 175.767Z" fill="#EBE9DC"/>
<path d="M99.8225 193.934L97.3856 192.605C119.318 181.971 142.359 170.893 165.177 161.146C168.722 159.595 172.045 158.266 175.59 157.379C177.805 156.715 180.242 156.272 182.679 156.05C187.996 155.164 193.092 154.278 197.08 151.398C198.409 150.512 199.517 149.404 200.624 148.296C201.732 147.188 202.84 146.081 203.947 145.195C206.606 142.979 209.929 141.65 212.809 140.542C228.539 134.117 246.927 127.028 264.65 120.603L266.644 122.376C248.92 128.579 229.425 136.111 213.695 142.536C211.037 143.644 207.935 144.973 205.498 146.745C204.39 147.632 203.283 148.739 202.175 149.625C201.067 150.733 199.738 152.062 198.409 152.949C193.978 156.272 188.439 157.158 183.122 158.044C180.907 158.487 178.47 158.709 176.255 159.373C172.931 160.259 169.83 161.589 166.285 163.14C143.245 172.887 121.755 183.3 99.8225 193.934Z" fill="#EBE9DC"/>
<path d="M127.958 212.322L126.408 210.771C133.275 203.682 145.239 199.251 155.651 195.485C158.753 194.377 161.411 193.269 164.07 192.383C171.602 189.281 178.692 185.072 185.559 180.641C192.87 176.21 200.181 171.558 208.378 168.456C211.258 167.349 214.138 166.463 217.24 165.576C221.228 164.247 225.437 162.918 229.425 161.146C233.191 159.373 236.736 157.158 240.28 154.942C241.388 154.278 242.496 153.392 243.603 152.727C258.447 143.644 276.613 135.89 292.121 132.345L294.115 134.117C278.829 137.662 259.554 145.638 244.933 154.721C243.825 155.385 242.717 156.05 241.609 156.936C238.065 159.152 234.52 161.589 230.532 163.361C226.545 165.133 222.335 166.463 218.126 167.792C215.246 168.678 212.366 169.564 209.486 170.672C201.51 173.773 194.199 178.204 187.11 182.635C180.242 186.844 172.931 191.275 165.399 194.377C162.74 195.485 159.86 196.371 156.98 197.479C146.125 201.466 134.605 205.454 127.958 212.322Z" fill="#EBE9DC"/>
<path d="M159.196 230.045L157.645 228.273C162.741 223.621 170.938 220.076 178.692 216.531C184.23 214.094 189.326 211.657 193.313 208.999C195.307 207.669 197.301 206.119 199.073 204.568C200.624 203.239 202.397 201.909 204.169 200.58C207.714 198.143 211.701 196.149 215.468 194.155L318.263 143.422L319.814 145.195L216.354 196.592C212.588 198.365 208.821 200.359 205.277 202.796C203.504 203.903 201.954 205.233 200.403 206.562C198.409 208.113 196.415 209.663 194.421 211.214C190.212 213.873 184.895 216.31 179.356 218.747C171.824 222.07 164.07 225.614 159.196 230.045Z" fill="#EBE9DC"/>
<path d="M193.313 245.775C192.649 245.775 191.762 245.775 191.098 245.775L190.212 243.559C201.067 244.446 215.911 237.799 223.886 230.932C224.994 229.824 226.102 228.938 227.209 227.83C228.76 226.279 230.311 224.728 232.083 223.399C235.406 220.741 239.173 218.968 242.717 217.196L266.644 205.454C273.955 201.909 281.266 198.143 289.241 195.706C291.013 195.042 292.564 194.599 294.337 194.155C296.995 193.269 299.875 192.383 302.534 191.497C306.078 190.168 309.623 188.174 313.168 186.402C319.814 182.857 328.011 178.648 336.208 174.217C344.405 170.007 352.602 165.577 359.47 162.032L361.464 163.583C354.818 167.127 345.734 171.78 337.537 176.211C329.34 180.42 321.143 184.851 314.275 188.395C310.731 190.168 307.186 192.162 303.42 193.491C300.761 194.599 297.881 195.485 295.001 196.371C293.229 196.814 291.678 197.479 289.906 197.922C282.373 200.58 274.841 204.125 267.751 207.67L243.825 219.411C240.28 221.184 236.514 222.956 233.412 225.393C231.64 226.722 230.089 228.273 228.538 229.602C227.431 230.71 226.323 231.818 224.994 232.925C217.683 239.35 204.39 245.775 193.313 245.775Z" fill="#EBE9DC"/>
<path d="M353.267 192.826C347.728 189.503 341.747 186.18 335.543 182.635C329.34 179.09 322.916 175.546 317.599 172.223C313.611 169.786 309.623 167.349 305.192 165.576C303.198 164.69 300.983 164.026 298.767 163.361C295.001 162.032 291.013 160.924 287.469 158.709C284.589 156.936 281.93 154.721 279.493 152.505C278.607 151.841 277.721 150.955 276.835 150.29C267.087 142.093 255.345 136.554 244.268 131.68C228.76 125.034 213.252 119.053 197.08 114.179L200.403 112.849C216.575 117.945 229.646 122.819 245.154 129.687C256.453 134.561 268.416 140.321 278.386 148.739C279.272 149.404 280.158 150.29 281.044 150.955C283.481 153.17 285.918 155.385 288.798 156.936C292.121 158.93 295.666 160.038 299.654 161.367C301.869 162.032 304.084 162.696 306.3 163.583C310.731 165.355 314.94 167.792 318.928 170.229C324.466 173.552 330.67 177.097 336.873 180.641C343.076 184.186 350.608 188.395 356.147 191.718L353.267 192.826Z" fill="#EBE9DC"/>
<path d="M306.3 214.759C295.001 204.568 273.955 193.712 260.441 189.282C259.776 189.06 259.111 188.838 258.225 188.617C255.124 187.731 251.801 186.623 248.921 185.072C246.04 183.521 243.604 181.528 241.167 179.312C240.502 178.869 239.837 178.204 239.173 177.761C232.305 172.223 224.551 167.792 216.575 164.469L215.468 164.026C212.145 162.696 208.821 161.367 206.384 158.709C204.169 156.272 203.061 153.17 201.954 150.29C201.289 148.296 200.403 146.302 199.517 144.53C195.307 137.662 187.553 135.447 179.356 133.01C174.039 131.459 168.722 129.908 164.291 127.25L166.95 126.142C171.159 128.8 174.925 129.465 180.021 130.794C188.439 133.231 197.08 135.668 201.51 143.201C202.618 145.195 203.504 147.188 204.169 149.404C205.277 152.284 206.163 154.942 208.157 157.158C210.372 159.373 213.474 160.703 216.354 161.81L217.462 162.253C225.88 165.576 233.634 170.229 240.723 175.989C241.388 176.432 242.053 177.097 242.717 177.54C245.154 179.534 247.591 181.528 250.25 182.857C253.13 184.408 256.231 185.294 259.111 186.401C259.776 186.623 260.662 186.845 261.327 187.066C275.284 191.718 296.995 203.017 308.737 213.651L306.3 214.759Z" fill="#EBE9DC"/>
<path d="M256.896 237.799C241.831 229.602 231.862 222.07 225.215 214.094C224.551 213.208 223.886 212.322 223.222 211.657C221.006 208.777 219.012 206.119 216.132 204.346C214.581 203.46 212.809 202.795 210.815 202.131C209.486 201.688 208.157 201.245 206.827 200.58C204.612 199.472 202.84 198.143 201.51 196.371C199.517 193.712 196.637 191.497 192.87 189.724C180.242 183.964 168.279 177.097 156.759 169.121C154.543 167.57 152.107 165.798 149.891 163.804C149.005 162.918 148.34 162.032 147.454 161.367C146.346 160.038 145.239 158.93 143.909 157.822C141.916 156.05 139.257 154.721 136.82 153.17C131.946 150.511 127.072 147.853 125.078 142.536L127.294 141.65C128.845 146.081 133.275 148.518 137.928 151.176C140.586 152.505 143.245 154.056 145.46 156.05C146.79 157.158 147.897 158.487 149.226 159.816C149.891 160.702 150.777 161.367 151.663 162.253C153.657 164.247 156.094 165.798 158.31 167.349C169.608 175.103 181.572 181.97 193.978 187.731C198.187 189.724 201.289 192.161 203.504 195.041C204.39 196.371 205.941 197.478 207.935 198.365C209.043 199.029 210.372 199.472 211.701 199.915C213.695 200.58 215.468 201.245 217.461 202.352C220.785 204.346 223 207.226 225.215 210.106C225.88 210.993 226.545 211.879 227.209 212.543C233.634 220.297 244.711 228.494 259.555 236.47L256.896 237.799Z" fill="#EBE9DC"/>
<path d="M224.329 252.864C215.024 244.224 205.498 237.134 194.421 230.488C187.775 226.5 180.685 222.956 173.818 219.411L138.592 201.466C136.377 200.358 133.718 199.029 132.168 196.592C131.503 195.706 131.06 194.598 130.617 193.712C130.395 193.048 129.952 192.161 129.731 191.497C128.18 188.617 125.078 187.066 121.312 185.515C114.001 182.192 106.026 178.204 98.2717 174.438C90.5177 170.672 81.656 166.462 74.3452 162.918L77.2252 161.81C84.5361 165.133 91.6254 168.678 99.3794 172.444C107.133 176.21 115.109 179.977 122.42 183.521C125.743 185.072 129.731 186.844 131.725 190.611C132.168 191.497 132.611 192.161 132.832 193.048C133.275 193.934 133.497 194.82 134.162 195.484C135.491 197.478 137.706 198.586 139.7 199.694L174.925 217.417C181.793 220.962 188.882 224.507 195.529 228.494C206.606 235.141 217.018 242.895 226.545 251.756L224.329 252.864Z" fill="#EBE9DC"/>
<path d="M199.738 264.384L215.246 257.074L56.1787 170.007L42 175.768L199.738 264.384Z" fill="#EBE9DC"/>
<path d="M223.665 103.545L389.821 175.767L404 169.121L232.526 100L223.665 103.545Z" fill="#EBE9DC"/>
<path d="M154.1 214.316C159.117 214.316 163.184 210.249 163.184 205.233C163.184 200.216 159.117 196.149 154.1 196.149C149.084 196.149 145.017 200.216 145.017 205.233C145.017 210.249 149.084 214.316 154.1 214.316Z" fill="#E59A51"/>
<path d="M160.747 199.03C160.968 199.916 161.19 200.802 161.19 201.688C161.19 206.784 157.202 210.771 152.107 210.771C149.448 210.771 147.233 209.664 145.46 207.891C146.568 211.657 150.113 214.316 154.1 214.316C159.196 214.316 163.184 210.328 163.184 205.233C163.184 202.796 162.297 200.58 160.747 199.03Z" fill="#D86F70"/>
<path d="M203.061 160.038C203.061 160.259 202.84 161.146 202.397 162.475C201.067 166.463 197.966 174.66 196.193 175.546C193.756 176.654 179.356 191.497 178.691 193.712C178.027 196.149 172.488 197.478 171.824 197.922C171.159 198.365 165.842 197.478 165.842 195.485C165.842 193.712 162.962 194.377 172.488 187.952C180.021 182.857 185.781 175.546 188.661 171.336C189.547 170.229 189.99 169.343 190.433 168.9C191.541 167.349 199.295 162.475 202.175 160.702C202.618 160.481 202.84 160.259 203.061 160.038Z" fill="#EBE9DC"/>
<path d="M328.011 158.266C325.796 162.032 322.251 165.576 320.922 166.684C319.592 167.792 312.503 167.792 309.623 168.013C306.965 168.235 307.629 162.032 311.838 160.038C313.832 159.152 314.497 157.158 314.718 154.942C314.94 152.062 314.275 149.182 313.389 147.41C311.174 143.865 303.198 141.428 300.761 140.985C298.324 140.542 286.361 137.441 286.361 137.441L287.69 135.225C287.69 135.225 311.395 132.788 316.934 139.656C320.035 143.422 324.023 146.967 326.46 150.29C328.454 153.17 329.34 155.829 328.011 158.266Z" fill="#E59A51"/>
<path d="M202.175 162.475C200.846 166.463 197.744 174.66 195.972 175.546C193.535 176.654 179.135 191.497 178.47 193.712C177.805 196.149 172.267 197.479 171.602 197.922C170.938 198.365 165.621 197.479 165.621 195.485C165.621 195.485 166.95 196.814 170.716 195.485C174.482 194.156 182.236 186.402 184.009 182.414C185.559 179.091 190.433 174.438 188.439 171.337C189.326 170.229 189.769 169.343 190.212 168.9C191.319 167.349 199.073 162.475 201.953 160.703L202.175 162.475Z" fill="#EBE9DC"/>
<path d="M301.869 153.613C294.78 163.361 288.355 161.367 291.235 162.918C294.115 164.469 286.14 166.02 282.373 169.564C278.607 172.888 277.721 175.546 275.949 176.432C275.062 176.875 272.182 176.875 270.41 176.432C270.188 176.432 270.188 176.432 270.188 176.432C268.859 175.989 268.416 175.103 269.302 173.774C271.739 170.672 280.158 164.026 281.266 163.14C282.152 162.475 281.266 162.032 279.715 162.032C279.272 162.032 278.607 162.032 277.721 162.032C277.499 162.032 277.278 162.032 276.835 162.253C273.29 163.583 265.758 171.78 259.776 173.774C253.13 175.989 236.514 179.755 236.071 183.078C235.849 186.402 236.514 189.946 236.071 190.389C235.628 191.054 226.102 197.257 218.569 200.58C210.815 203.903 194.643 209.22 191.541 212.544C189.99 214.316 186.889 214.094 184.895 212.544C183.344 211.214 182.679 209.22 184.895 207.005C189.769 202.353 197.744 199.694 199.295 199.251C201.067 198.808 214.803 191.276 215.468 190.832C217.905 188.617 216.354 181.749 216.354 181.749L215.246 182.414C214.36 182.414 213.252 182.192 211.923 181.749L199.738 164.912C200.181 163.361 201.067 162.032 202.397 160.481C202.618 160.26 202.84 160.26 203.061 160.038C205.72 158.044 208.821 155.829 210.594 154.943C214.138 153.17 238.508 146.746 239.616 146.302C240.723 146.081 246.262 142.315 246.04 140.985C246.04 139.435 239.616 137.662 250.25 133.231C258.89 129.687 271.961 130.351 277.942 131.238C279.272 131.459 280.379 131.681 280.823 131.902C282.816 132.788 295.444 138.105 300.318 144.752C303.42 147.632 304.084 150.733 301.869 153.613Z" fill="#EBE9DC"/>
<path d="M216.797 181.749C216.797 182.192 216.354 182.414 215.689 182.414C214.803 182.414 213.695 182.192 212.366 181.749C206.606 179.534 196.415 172.445 199.074 164.247C199.517 162.697 201.51 162.032 202.84 160.481C202.84 160.26 203.061 160.26 203.061 160.038C203.061 160.038 203.061 160.038 203.504 160.038C205.055 159.595 209.264 160.924 210.594 162.032C212.144 163.361 216.797 168.457 219.234 169.121C221.449 170.008 216.354 177.983 216.797 181.749Z" fill="#EBE9DC"/>
<path d="M328.011 158.266C325.796 162.032 322.251 165.577 320.922 166.684C319.592 167.792 312.503 167.792 309.623 168.013C306.964 168.235 307.629 162.032 311.838 160.038C313.832 159.152 314.497 157.158 314.718 154.942H314.94C316.269 155.829 318.706 158.044 318.706 154.942C318.706 151.841 316.491 151.619 318.706 149.847C320.922 148.075 323.359 148.961 323.58 150.29C323.802 151.841 321.365 153.17 323.802 151.841C324.688 151.176 325.574 150.955 326.239 150.512C328.454 153.17 329.34 155.829 328.011 158.266Z" fill="#EBE9DC"/>
<path d="M215.911 182.635C215.467 184.408 209.486 189.282 209.264 189.503C209.043 189.946 195.529 193.491 194.643 195.928C193.978 197.7 189.325 197.922 185.116 197.7C183.344 197.7 181.572 197.479 180.242 197.257C178.691 197.036 178.027 196.371 177.805 195.485C177.584 194.377 178.248 192.826 178.913 191.719C179.135 191.497 179.356 191.054 179.578 191.054C180.907 189.946 186.667 182.192 187.996 180.641C187.996 180.641 187.996 180.641 187.996 180.42C189.325 178.869 187.996 175.103 188.218 173.995C188.218 173.774 188.439 173.552 188.439 173.331C189.769 170.894 194.421 164.469 194.421 164.469C196.636 161.146 207.492 163.14 212.809 165.577C215.024 166.684 216.132 169.564 216.354 172.666C216.797 177.318 216.132 181.749 215.911 182.635Z" fill="#EBE9DC"/>
<path d="M193.978 166.463C192.87 167.127 191.763 168.235 191.319 169.786C191.319 169.786 189.99 165.798 191.319 162.918C192.649 160.259 189.104 156.493 189.769 154.942C189.769 154.721 189.99 154.499 190.212 154.499C192.206 153.613 202.84 159.373 204.612 162.918C205.72 165.577 198.187 163.583 193.978 166.463Z" fill="#E59A51"/>
<path opacity="0.6" d="M215.911 182.635C215.468 184.408 209.486 189.282 209.264 189.503C209.043 189.946 195.529 193.491 194.643 195.928C193.978 197.7 189.326 197.922 185.116 197.7C183.344 197.7 181.572 197.479 180.242 197.257C178.692 197.036 178.027 196.371 177.805 195.485C178.027 195.706 178.692 196.371 180.685 196.371C182.901 196.371 187.996 197.036 189.326 196.371C190.655 195.706 193.313 193.048 194.643 192.383C195.75 191.719 199.295 189.06 199.96 187.066C200.624 185.072 198.63 180.42 198.63 179.091C198.63 177.54 199.96 173.774 202.397 173.552C204.834 173.331 208.157 173.995 208.6 174.66C209.264 175.324 212.144 177.983 213.474 177.761C214.803 177.54 215.468 172.001 215.246 170.894C215.468 171.337 215.911 172.223 216.575 173.331C216.797 177.318 216.132 181.749 215.911 182.635Z" fill="#EBE9DC"/>
<path d="M217.018 176.21C216.575 178.204 216.575 177.318 215.689 175.546C215.468 175.324 215.467 174.881 215.246 174.66C213.695 172.444 213.474 166.241 210.594 165.133C210.594 165.133 222.114 157.158 225.658 159.373C225.658 159.595 225.88 159.595 225.88 159.816C227.652 164.69 217.461 173.774 217.018 176.21Z" fill="#E59A51"/>
<path d="M278.607 131.238C276.392 131.238 272.625 131.459 269.081 131.238C264.207 131.016 256.896 134.339 251.8 137.219C246.926 140.099 246.483 140.764 246.483 140.764C246.483 139.213 240.059 137.441 250.693 133.01C259.554 129.687 272.404 130.352 278.607 131.238Z" fill="#EBE9DC"/>
<path d="M301.869 153.613C294.78 163.361 288.355 161.367 291.235 162.918C294.115 164.469 286.139 166.02 282.373 169.564C278.607 172.888 277.721 175.546 275.949 176.432C275.062 176.875 272.182 176.875 270.41 176.432C271.296 176.654 273.29 176.432 275.727 173.552C278.607 170.229 288.355 164.247 288.798 163.14C289.241 162.032 285.918 164.026 295.223 157.823C304.527 151.841 300.983 144.752 300.983 144.752C303.42 147.632 304.084 150.733 301.869 153.613Z" fill="#EBE9DC"/>
<path d="M277.278 162.032C273.733 163.361 266.201 171.558 260.219 173.552C253.573 175.767 236.957 179.534 236.514 182.857C236.292 186.18 236.957 189.724 236.514 190.168C236.071 190.832 226.545 197.035 219.012 200.359C211.258 203.682 195.086 208.999 191.984 212.322C190.433 214.094 187.332 213.873 185.338 212.322C188.439 212.986 192.206 209.663 194.642 207.891C197.079 206.119 209.707 203.903 213.917 202.131C217.904 200.359 235.185 191.275 235.406 188.617C235.849 185.958 235.849 178.869 236.514 175.546C237.179 172.223 245.597 171.115 250.25 169.786C254.902 168.456 266.644 161.146 267.973 153.613C269.302 146.081 274.841 145.859 272.847 147.188C270.631 148.518 269.745 153.613 269.745 153.613C267.751 160.924 273.512 162.032 277.278 162.032Z" fill="#EBE9DC"/>
<path d="M217.018 176.211C216.575 178.205 216.575 177.318 215.689 175.546C215.024 173.774 214.36 171.115 214.36 169.786C214.581 167.57 213.474 168.235 219.455 162.918C222.335 160.481 224.329 159.595 225.659 159.595C227.652 164.69 217.461 173.774 217.018 176.211Z" fill="#E59A51"/>
<path d="M195.307 162.032C194.421 164.469 194.2 166.02 193.756 166.463C192.649 167.127 191.541 168.235 191.098 169.786C191.098 169.786 189.769 165.798 191.098 162.918C192.427 160.26 188.882 156.493 189.547 154.943C190.212 155.164 191.098 155.386 191.541 156.05C192.87 157.38 196.193 159.373 195.307 162.032Z" fill="#E59A51"/>
<path d="M184.895 197.922C183.122 197.922 181.35 197.7 180.021 197.479C176.476 197.036 177.584 193.712 178.913 192.162C180.021 191.94 181.35 191.719 182.679 193.491C184.673 195.928 184.23 197.479 184.895 197.922Z" fill="#132541"/>
<path d="M200.624 178.648C200.624 178.648 199.959 175.768 205.277 176.432C206.827 176.875 204.833 179.091 203.283 179.091C202.175 179.091 200.624 178.648 200.624 178.648Z" fill="#132541"/>
<path d="M188.439 177.097C188.882 177.54 189.547 177.761 190.212 177.318C190.212 177.318 189.547 174.66 188.439 175.103V177.097Z" fill="#132541"/>
<path opacity="0.6" d="M190.212 179.312C189.547 179.755 188.882 180.198 187.996 180.641C189.326 179.091 187.996 175.324 188.218 174.217C188.218 173.995 188.439 173.774 188.439 173.552C188.439 173.552 189.547 174.217 189.99 174.66C190.655 175.103 191.319 178.648 190.212 179.312Z" fill="#EBE9DC"/>
</svg>
