<svg width="476" height="335" viewBox="0 0 476 335" fill="none" xmlns="http://www.w3.org/2000/svg">
<path d="M94.6592 53.7817C64.7167 81.4183 43.6732 118.372 34.9836 158.152C29.4349 183.486 29.0161 210.39 38.0198 234.676C47.0235 258.963 66.2872 280.109 91.0996 287.437C117.587 295.289 145.855 286.914 173.18 282.622C200.505 278.33 232.646 279.795 250.234 301.151C258.401 310.991 262.798 324.496 273.895 330.881C287.506 338.733 304.675 332.347 318.39 324.705C381.835 289.531 430.099 227.977 449.048 157.943C456.586 130.306 459.518 100.262 449.991 73.253C443.186 54.2004 428.947 36.5087 410.416 27.8199C388.221 17.4562 365.084 23.6325 343.412 32.3213C323.102 40.4867 297.975 52.5254 276.094 43.5226C260.599 37.1368 252.014 22.7951 239.556 12.536C225.945 1.43944 208.776 1.0207 192.234 4.16123C168.259 8.55798 144.494 18.503 123.974 31.3792C113.504 37.8696 103.663 45.4069 94.6592 53.7817Z" fill="#F0C6B6"/>
<path d="M76.7254 242.352C76.7254 242.352 75.6214 243.459 74.5174 244.012C71.7575 245.672 67.3417 248.439 67.3417 248.439C64.5818 250.099 61.8219 251.758 59.614 253.418C54.6461 256.738 50.2303 260.611 49.1263 263.378C48.5743 267.251 54.6461 270.571 57.958 273.891C59.614 276.104 60.7179 276.658 64.5818 281.084C65.6857 282.744 67.3417 284.957 68.4456 287.171C68.4456 287.724 68.9976 287.724 68.9976 288.277C68.9976 288.831 69.5496 288.831 69.5496 289.384C70.1016 290.491 70.6536 291.597 71.2056 293.257C71.2056 293.81 71.7575 294.917 71.7575 295.47C71.7575 295.47 71.7575 296.024 71.7575 296.577C71.7575 297.684 72.3095 298.79 72.3095 299.897C72.8615 304.877 71.7575 310.963 69.5496 315.943C66.7897 320.923 63.4778 324.243 60.1659 326.456C56.854 328.669 54.0941 329.776 51.8862 330.883C48.0224 330.883 45.8144 331.436 43.6065 331.436H43.0545C34.2228 332.542 27.0471 331.436 20.4233 328.669C13.2475 325.903 7.17575 323.136 1.10396 317.05L0.551981 316.496C0 316.496 0 315.943 0 315.39L0.551981 314.836C6.62377 314.836 13.2475 314.836 19.3193 314.283C25.3911 313.73 31.4629 313.176 37.5347 311.516C43.0545 309.857 49.1263 306.537 48.0224 301.557C47.4704 298.79 46.3664 296.577 44.7105 293.81L39.7426 287.171C35.8788 281.637 32.5669 276.104 31.4629 269.465C30.9109 266.145 30.9109 262.271 32.5669 258.952C33.6708 255.632 36.4308 252.865 39.1907 251.205C40.2946 250.099 41.3986 249.545 42.5025 248.992C46.9184 246.225 51.8862 244.565 56.854 244.012C62.3739 242.905 67.8937 242.352 73.4135 241.799C73.9655 241.799 75.0694 241.799 75.6214 241.799C76.1734 241.245 76.7254 241.799 76.7254 242.352Z" fill="white"/>
<path opacity="0.45" d="M63.4778 281.084C64.5818 282.744 66.2377 284.957 67.3417 287.171C62.3739 278.318 55.1981 274.444 50.2303 269.465C44.7105 263.931 47.4704 263.378 48.0224 260.611C48.5743 258.398 43.0545 255.078 41.9506 251.758C41.3986 250.098 41.3986 248.992 41.9506 247.885C46.3664 245.119 51.3343 243.459 56.3021 242.905C61.8219 241.799 67.3417 241.245 72.8615 240.692L73.9655 243.459C71.2056 245.119 66.7897 247.885 66.7897 247.885C64.0298 249.545 61.2699 251.205 59.062 252.865C54.0942 256.185 49.6783 260.058 48.5744 262.825C48.0224 266.698 54.0942 270.018 57.406 273.338C58.51 276.104 60.166 276.658 63.4778 281.084Z" fill="#D86F70"/>
<path opacity="0.45" d="M68.4456 315.39C52.9902 338.629 27.5991 331.436 20.4233 329.223C13.2475 326.456 7.17575 323.689 1.10396 317.603L0.551981 317.05C0 316.496 0 315.943 0 315.39C6.62377 322.583 45.2624 335.862 68.4456 315.39Z" fill="#D86F70"/>
<path d="M156.211 286.617C152.899 282.191 130.819 271.678 128.06 269.465C128.612 268.358 135.235 261.718 135.235 261.165C134.131 247.885 126.956 248.992 125.3 247.885C121.988 246.225 119.78 245.119 117.572 244.565C113.156 242.905 109.292 242.352 105.428 241.246C97.7006 239.586 78.3813 237.372 76.7253 237.372C66.2377 238.479 59.0619 248.439 60.7179 258.952C62.3738 269.465 72.3095 267.805 82.7971 266.145C88.8689 265.038 109.292 269.465 107.636 273.891C105.98 279.424 114.812 278.871 116.468 279.424C125.3 281.084 140.203 287.724 141.859 288.277C142.411 288.831 152.899 296.577 155.659 295.47C158.419 293.81 158.419 289.384 156.211 286.617Z" fill="#D86F70"/>
<path opacity="0.58" d="M156.211 286.617C152.899 282.191 130.819 271.678 128.06 269.465C128.612 268.358 135.235 261.718 135.235 261.165C134.131 247.885 126.956 248.992 125.3 247.885C121.988 246.225 119.78 245.119 117.572 244.565C113.156 242.905 109.292 242.352 105.428 241.246C97.7006 239.586 78.3813 237.372 76.7253 237.372C66.2377 238.479 59.0619 248.439 60.7179 258.952C62.3738 269.465 72.3095 267.805 82.7971 266.145C88.8689 265.038 109.292 269.465 107.636 273.891C105.98 279.424 114.812 278.871 116.468 279.424C125.3 281.084 140.203 287.724 141.859 288.277C142.411 288.831 152.899 296.577 155.659 295.47C158.419 293.81 158.419 289.384 156.211 286.617Z" fill="#D86F70"/>
<path d="M262.743 182.041L239.008 175.401C238.456 174.294 238.456 173.741 238.456 173.188C237.352 168.208 239.56 167.101 241.216 161.568C241.768 160.461 241.768 159.355 242.872 158.248C245.632 154.375 248.943 152.162 251.703 151.055C254.463 149.948 256.671 150.502 257.775 152.162C260.535 156.588 261.087 162.121 261.639 167.101C261.639 171.528 261.639 177.061 262.743 182.041Z" fill="#FB9B56"/>
<path opacity="0.45" d="M260.535 179.274C262.191 180.381 244.528 174.294 237.904 172.634C236.8 167.655 239.008 166.548 240.664 161.015C241.216 159.908 241.216 158.802 242.32 157.695C245.08 153.822 248.391 151.608 251.151 150.502C250.599 151.055 246.736 156.588 246.184 161.568C245.632 169.868 257.775 177.614 260.535 179.274Z" fill="white"/>
<path d="M302.486 213.58C302.486 216.346 294.758 218.006 292.55 218.559C290.894 218.559 289.238 218.006 287.03 218.006C280.958 217.453 273.231 217.453 264.951 217.453C244.528 217.453 222.448 219.113 221.896 219.113C220.792 218.559 202.577 205.833 195.953 200.853C195.953 200.853 223.552 173.188 225.208 175.401C228.52 181.487 235.696 193.66 235.696 193.66C235.696 193.66 237.352 194.767 238.456 195.32C240.664 196.427 244.528 196.98 247.287 198.087C250.047 199.747 253.359 200.853 256.119 201.407C263.847 203.62 271.575 204.727 277.646 205.28C284.822 205.833 289.79 205.28 289.79 205.28C292.55 206.386 303.038 210.813 302.486 213.58Z" fill="#FA9145"/>
<path d="M239.008 230.732C237.904 231.286 236.8 231.839 235.144 232.392C230.728 234.052 225.76 234.606 220.792 234.606C199.817 234.606 174.978 226.859 139.099 260.058C120.884 265.591 70.1016 286.064 52.9902 261.165C35.3268 235.712 51.3342 219.113 66.7897 201.96C86.109 181.487 125.852 162.121 157.315 163.781C189.881 165.441 218.033 159.908 243.976 177.614C244.528 178.168 244.528 179.274 245.08 179.827C256.671 202.513 260.535 220.773 239.008 230.732Z" fill="#FB9B56"/>
<path opacity="0.45" d="M287.03 218.006C280.958 217.453 273.231 217.453 264.951 217.453C257.775 215.24 251.703 213.58 251.703 213.58L256.119 201.96C263.847 204.173 271.575 205.28 277.646 205.833C278.198 206.386 285.374 210.26 287.03 218.006Z" fill="white"/>
<path opacity="0.62" d="M237.904 231.286C234.592 232.946 227.968 226.306 226.864 224.646C223 218.56 215.273 219.666 207.545 211.366C194.297 194.767 211.409 177.061 216.929 173.741C222.448 170.421 230.728 171.528 230.728 171.528L242.872 179.274C255.567 201.96 261.087 220.773 237.904 231.286Z" fill="white"/>
<path d="M287.03 220.773C287.03 223.539 285.374 226.306 283.166 228.519C275.991 235.712 259.983 239.032 246.184 229.072C226.864 214.686 225.208 220.773 214.169 210.26C205.889 201.96 210.857 188.127 210.857 188.127C211.409 184.254 219.136 173.188 225.208 172.081C241.216 169.314 250.047 170.974 260.535 179.274C264.399 182.041 265.503 186.467 266.055 190.894C266.607 192.554 266.607 194.214 267.159 195.874C267.711 198.087 268.815 200.3 270.471 202.513C272.127 204.173 280.406 211.92 284.27 216.9C285.926 218.559 287.03 220.219 287.03 220.773Z" fill="#FB9B56"/>
<path opacity="0.45" d="M226.864 234.606C225.208 234.606 223 235.159 220.792 235.159C199.817 235.159 174.978 227.413 139.099 260.612C120.884 266.145 70.1016 286.617 52.9902 261.718C59.6139 265.591 62.3738 268.911 85.0051 265.591C97.7006 263.931 101.013 218.006 117.572 222.986C134.683 227.966 149.035 231.839 166.146 229.073C193.745 224.093 226.864 234.606 226.864 234.606Z" fill="#D86F70"/>
<path d="M257.775 247.332C257.775 247.332 239.008 244.565 228.52 240.692C221.896 238.479 211.961 233.499 205.889 230.179C206.441 228.519 206.993 226.859 207.545 225.199C208.649 220.219 174.978 170.974 166.698 179.827C157.867 188.681 168.354 211.366 168.906 211.92C170.01 212.473 174.978 216.9 176.634 218.56C178.29 220.219 183.258 229.073 181.602 238.479C180.498 245.672 183.81 244.565 187.122 245.672C199.265 250.099 212.513 250.652 224.104 252.312C235.696 253.972 242.872 253.418 253.911 257.845C260.535 260.612 266.055 261.165 266.607 258.398C266.055 255.632 262.743 247.885 257.775 247.332Z" fill="#FA9145"/>
<path d="M214.169 202.513C200.921 199.747 202.577 192.554 198.161 190.894C191.537 188.127 183.258 177.614 183.258 175.954C183.258 172.081 189.881 172.081 193.745 171.528C207.545 170.974 223 172.634 231.832 183.147L214.169 202.513Z" fill="#D86F70"/>
<path d="M208.649 200.853C200.921 198.64 202.025 192 198.161 190.34C191.537 187.574 183.258 177.061 183.258 175.401C183.258 171.528 189.881 171.528 193.745 170.974C205.337 170.421 218.584 171.528 227.968 178.721C230.176 180.381 230.728 183.147 228.52 186.467C225.76 192 218.033 203.62 208.649 200.853Z" fill="#D86F70"/>
<path opacity="0.45" d="M210.305 201.407C200.921 199.747 202.025 192.554 198.161 190.894C191.537 188.127 183.258 177.614 183.258 175.954C183.258 172.081 189.881 172.081 193.745 171.528C205.889 170.974 219.136 172.081 227.968 179.827C230.176 181.487 230.176 184.807 228.52 186.467C226.312 192 216.929 202.513 210.305 201.407Z" fill="#FB9B56"/>
<path d="M215.825 196.427C213.617 198.64 210.305 199.193 208.097 198.087C203.129 195.874 203.129 192 200.369 190.894C194.849 188.68 188.777 180.934 188.777 179.827C188.777 177.061 193.745 177.061 197.057 176.507C205.337 175.954 214.169 177.061 221.344 180.934C224.656 182.594 225.208 187.02 222.448 189.787L215.825 196.427Z" fill="#E8A6A7"/>
<path d="M287.03 220.773C287.03 223.539 285.374 226.306 283.166 228.519C281.51 227.966 279.302 227.413 278.75 226.859C277.646 225.753 277.094 221.326 278.75 219.113C279.854 217.453 282.614 216.9 284.822 216.9C285.926 218.559 287.03 220.219 287.03 220.773Z" fill="#D86F70"/>
<path d="M269.367 235.159C264.399 235.159 259.431 232.946 255.567 229.626C253.911 227.966 251.703 226.306 250.047 225.199C247.839 223.539 246.184 222.433 243.976 221.326C246.184 221.879 248.943 222.986 250.599 224.646C252.255 226.306 253.911 228.519 256.119 229.626C259.983 231.839 264.399 233.499 269.367 235.159Z" fill="#D86F70"/>
<path d="M246.736 200.3C247.839 201.96 244.528 202.513 242.32 202.513C240.112 202.513 237.904 201.407 237.904 200.3C237.904 199.193 240.112 196.98 242.32 196.98C244.528 196.98 246.184 199.193 246.736 200.3Z" fill="#60535D"/>
<path d="M267.711 196.98C266.607 197.534 265.503 196.98 264.951 196.427C264.951 195.32 264.951 193.107 266.055 192.554C266.055 192.554 266.055 192.554 266.607 192.554C267.159 192.554 268.263 196.427 267.711 196.98Z" fill="#5B124B"/>
<path d="M177.738 276.658C177.738 276.658 165.042 273.891 159.523 271.678C158.419 271.125 156.763 270.571 155.659 270.018C156.211 268.911 161.178 255.632 155.659 246.779C148.483 234.606 111.5 220.219 101.013 215.793H100.461C94.3888 213.58 87.213 213.026 80.0373 215.24C68.9976 219.113 61.2699 229.073 60.7179 240.692C59.614 260.058 76.1734 274.444 94.3888 271.678C99.3566 271.125 104.324 270.018 109.292 269.465C113.708 268.911 118.676 268.358 122.54 268.358C129.716 267.251 130.268 272.784 130.82 275.551C130.82 276.104 131.371 276.658 131.923 277.211C134.131 277.764 140.203 279.424 142.411 279.978C151.243 281.084 170.562 282.191 176.634 285.511C182.154 288.277 188.778 288.831 189.329 286.617C189.329 283.297 181.05 277.211 177.738 276.658Z" fill="url(#paint0_linear_23_6)"/>
<path d="M475.808 265.038C475.808 265.591 475.808 267.251 475.256 268.358C474.704 271.125 473.048 273.338 469.736 273.338C465.872 273.891 459.8 270.018 457.04 267.251C451.521 261.718 448.209 253.972 437.721 252.312C434.409 251.205 434.409 247.332 434.961 243.459C435.513 241.799 435.513 240.139 436.065 239.032C436.617 236.819 436.065 232.392 434.961 227.413C433.305 220.22 431.097 212.473 431.097 210.813C432.201 210.26 447.105 205.28 448.209 205.28C448.209 209.153 449.313 217.453 450.968 225.199C451.52 227.966 452.072 230.179 452.624 232.392C453.176 233.499 453.176 234.606 453.728 235.712C456.488 243.459 468.08 253.418 469.184 253.972C470.84 255.078 471.944 255.632 473.048 256.738C475.808 258.952 476.36 261.718 475.808 265.038Z" fill="#F4AE8C"/>
<path opacity="0.45" d="M471.392 262.825C471.944 260.611 474.152 258.398 470.84 256.738C469.184 255.632 459.8 253.418 455.384 251.758C446.553 248.439 444.345 245.119 441.585 242.352C439.377 240.139 439.929 237.372 440.481 235.712C452.072 235.159 452.624 231.839 452.624 231.839C452.072 229.626 451.52 227.413 450.968 224.646L435.513 226.859C436.617 231.839 437.169 236.266 436.617 238.479C436.617 239.032 436.065 239.586 436.065 240.139V240.692C436.065 241.245 435.513 241.799 435.513 242.352C434.961 246.225 434.961 250.652 438.273 251.205C449.313 252.865 452.624 261.165 457.592 266.145C460.352 268.911 466.976 272.784 470.288 272.231C473.048 272.231 474.704 270.018 475.808 267.251C472.496 268.358 470.84 266.698 471.392 262.825Z" fill="#F4AE8C"/>
<path d="M427.785 81.3374C427.785 81.3374 427.785 81.8907 427.233 82.444C426.681 82.9973 421.714 80.7841 421.714 80.7841C421.714 80.7841 426.129 80.2308 427.785 81.3374Z" fill="#D86F70"/>
<path d="M419.506 35.9655C420.058 25.4525 415.642 14.9395 407.362 8.29973C401.842 3.87321 394.114 0 384.179 0C359.892 0 353.268 12.1729 346.092 34.8589C341.124 50.3517 325.669 59.758 316.837 63.6313C312.421 65.8445 310.213 69.7177 308.557 74.1442C303.59 88.5304 289.79 125.049 310.213 139.989C329.533 154.375 378.107 86.3172 402.946 88.5304C435.513 91.297 418.954 51.4583 419.506 35.9655Z" fill="#FFFBF2"/>
<path d="M454.832 117.303C450.417 123.389 439.929 122.283 432.753 118.963C422.817 114.536 416.194 114.536 405.706 109.003C401.29 106.79 396.322 104.023 391.907 101.81C385.835 98.4901 380.315 95.1702 374.795 91.297C367.067 85.7639 365.411 75.2509 370.931 67.5044C376.451 60.3113 386.387 58.0981 394.114 63.0779C402.946 68.6111 411.226 74.1442 420.61 79.1241C421.162 79.1241 421.162 79.6774 421.714 79.6774C422.817 80.2307 424.473 80.784 425.577 81.8906C426.129 82.444 426.681 82.444 427.785 82.9973C435.513 86.8705 443.241 91.297 450.417 96.2768C457.592 100.703 459.8 110.11 454.832 117.303Z" fill="#F4AE8C"/>
<path opacity="0.55" d="M423.369 106.237L409.018 96.8302L407.914 87.9771L422.265 80.2307C423.369 80.784 425.025 81.3373 426.129 82.444C425.577 82.444 419.506 82.444 415.642 86.8705C413.434 89.0838 417.85 90.7437 421.162 91.8503C424.473 93.5103 429.441 97.3835 433.305 96.8302C437.169 96.2769 442.137 95.7235 446.001 96.8302C449.313 96.8302 423.369 106.237 423.369 106.237Z" fill="#F4AE8C"/>
<path d="M427.785 81.3372C426.129 80.2306 412.882 81.8905 411.778 90.7436C410.674 97.3834 400.186 100.15 391.907 102.363C385.835 99.0433 380.315 95.7234 374.795 91.8502C367.067 86.3171 365.411 75.8041 370.931 68.0577C376.451 60.8646 386.387 58.6513 394.114 63.6311C402.946 69.1643 410.122 71.9309 420.058 76.9107C422.265 78.0173 425.577 79.6773 427.785 81.3372Z" fill="#E59A51"/>
<path d="M304.142 185.914C303.59 179.827 309.661 154.928 309.109 143.862C309.109 133.349 307.453 121.729 307.453 111.77V107.343C307.453 92.4036 307.453 77.4641 307.453 77.4641C309.109 59.758 326.221 58.6514 346.644 57.5448C352.716 57.5448 358.788 56.9914 364.859 56.4381C404.602 52.5649 397.426 76.9108 408.466 105.683C410.122 109.556 410.674 158.801 412.33 167.654C444.897 192 310.765 268.358 304.142 185.914Z" fill="#E59A51"/>
<path opacity="0.58" d="M388.595 79.1241C388.595 79.1241 392.459 92.957 391.355 98.4902C396.322 95.1703 388.595 79.1241 388.595 79.1241Z" fill="#E59A51"/>
<path d="M369.827 73.0377C363.755 63.6313 354.924 55.8849 354.372 44.8186C352.164 3.87325 404.05 -6.63974 413.986 27.6658C422.817 59.7581 396.322 113.983 369.827 73.0377Z" fill="#F4AE8C"/>
<path d="M446.001 164.888C444.345 154.375 442.689 143.862 440.481 133.349C439.377 127.816 438.273 122.836 436.065 116.75C434.961 113.983 434.409 110.663 432.753 107.343C432.201 105.683 428.337 99.0435 426.681 97.3835C425.577 96.2769 425.025 95.7236 423.921 94.6169C422.265 93.5103 420.61 92.4037 418.402 91.297C416.194 90.1904 413.434 89.6371 411.226 89.6371C407.914 89.6371 405.154 90.7437 402.394 92.4037C399.634 94.0636 397.426 96.2769 396.322 99.0434L358.788 169.868C356.58 174.294 354.924 179.274 354.372 184.807C354.372 187.021 354.372 188.681 354.372 190.34C356.028 207.493 369.827 221.326 387.491 222.433C396.874 222.986 405.706 219.666 412.33 214.133C417.298 209.706 421.162 204.727 422.817 198.64C425.577 209.153 428.337 220.219 430.545 231.286C431.649 235.159 454.28 234.052 453.728 227.413C452.072 206.387 449.313 185.914 446.001 164.888Z" fill="#E59A51"/>
<path opacity="0.39" d="M321.253 135.562C319.597 130.029 312.421 115.643 309.661 99.5967C306.901 85.2105 308.005 79.1241 308.005 79.1241C309.661 61.418 320.701 74.1442 341.124 73.0376L358.788 113.983L316.837 166.548C324.565 154.375 324.565 148.288 321.253 135.562Z" fill="#E59A51"/>
<path d="M468.08 267.251C466.424 270.571 462.008 272.231 459.248 272.231C458.144 272.231 454.28 271.678 453.176 271.124C453.176 271.124 430.545 263.378 425.025 263.378C420.61 263.378 415.09 261.165 417.85 250.652C419.506 244.012 417.298 236.266 415.09 229.626C412.33 221.326 408.466 214.133 407.914 212.473C409.57 211.92 424.473 209.153 431.097 209.706C432.201 212.473 432.753 223.539 434.409 232.946C434.961 234.606 434.961 236.819 435.513 237.925C436.065 239.585 436.065 240.692 436.617 241.799C441.033 247.332 452.624 253.418 462.008 255.632C480.223 256.738 469.736 262.825 468.08 267.251Z" fill="#F4AE8C"/>
<path d="M390.803 28.7724C390.803 28.7724 404.602 44.8185 413.986 45.3719C429.993 45.9252 415.642 4.97984 399.082 7.74642C385.283 9.95968 373.139 -12.7262 347.748 42.052C341.676 55.8848 325.669 50.905 314.629 64.7379C317.389 65.2912 333.949 55.3315 354.372 116.196C360.996 135.562 374.795 75.8042 369.275 53.6716C372.035 40.9453 389.699 46.4785 390.803 28.7724Z" fill="#FFFBF2"/>
<path opacity="0.45" d="M434.961 237.925C434.961 238.479 432.201 242.905 422.265 243.459C419.506 245.672 417.85 249.545 417.298 250.652C418.954 244.012 416.746 236.266 414.538 229.626L433.857 232.946C433.857 234.606 434.409 236.266 434.961 237.925Z" fill="#F4AE8C"/>
<path d="M364.859 54.2248C367.067 58.6514 369.275 61.9713 372.035 61.4179C374.795 60.8646 372.035 56.4381 374.243 52.5649C375.347 48.1384 373.139 43.7118 368.171 44.8185C362.652 45.9251 363.204 51.4583 364.859 54.2248Z" fill="#F4AE8C"/>
<path d="M412.882 238.479C406.81 217.453 391.355 173.188 390.803 171.528C389.699 179.274 386.387 196.98 386.387 196.98C381.971 218.006 362.1 231.286 341.124 227.413C327.325 224.646 316.837 215.24 312.421 203.067C310.213 196.427 309.109 189.234 310.765 182.041C311.869 175.954 314.629 170.974 317.941 165.995C325.117 156.588 332.845 144.969 340.572 133.349C348.852 121.729 368.723 98.4901 368.723 98.4901L372.035 95.1702C379.211 87.9771 390.803 87.9771 397.978 94.6169C399.634 96.2768 400.738 97.9367 401.842 99.5967C407.914 112.323 410.674 122.836 413.986 133.902C417.298 144.969 419.506 156.035 422.266 166.548C427.233 188.127 431.649 210.26 435.513 231.839C436.617 239.585 413.986 243.459 412.882 238.479Z" fill="#ABC5D3"/>
<path d="M386.939 129.476C382.523 130.029 378.107 126.156 378.107 121.729C378.107 118.409 379.763 115.09 382.523 113.43C391.907 108.45 401.842 105.683 411.226 102.917C421.162 100.15 430.545 97.9368 441.033 96.2769C448.209 95.1702 455.384 100.15 456.488 107.343C457.592 114.536 452.624 121.729 445.449 122.836L386.939 129.476Z" fill="#F4AE8C"/>
<path d="M390.803 171.528C389.699 179.274 386.387 196.98 386.387 196.98C381.971 218.006 362.1 231.286 341.124 227.413C327.325 224.646 316.837 215.24 312.421 203.067C312.421 203.067 312.973 203.067 313.525 203.62C325.669 225.199 365.963 211.366 365.963 183.701C365.963 154.375 378.107 128.369 378.107 128.369C378.107 128.369 379.211 153.822 390.803 171.528Z" fill="#ABC5D3"/>
<path d="M390.803 128.922C388.595 129.476 386.939 130.582 385.835 132.242C383.075 135.562 382.523 141.095 382.523 144.415C381.419 145.522 380.315 146.075 380.315 146.075C379.763 146.075 369.275 139.989 361.548 136.116C359.892 133.902 359.892 131.689 361.548 130.029C362.652 128.369 363.756 127.263 364.859 126.156C372.035 118.963 383.075 114.536 383.075 114.536C383.075 114.536 401.29 125.603 390.803 128.922Z" fill="#F4AE8C"/>
<path opacity="0.48" d="M385.835 132.242C383.075 135.562 382.523 141.095 382.523 144.415C381.419 145.522 380.315 146.075 380.315 146.075C379.763 146.075 369.275 139.989 361.548 136.116C359.892 133.902 359.892 131.689 361.548 130.029C362.652 128.369 363.756 127.263 364.859 126.156C369.827 127.263 379.211 130.582 385.835 132.242Z" fill="#F4AE8C"/>
<path d="M315.733 112.323C315.733 112.323 316.285 113.43 321.253 110.11C322.357 105.683 314.629 109.557 315.733 112.323Z" fill="#D86F70"/>
<path d="M426.129 148.288C425.577 152.162 422.817 154.928 418.954 154.928C405.706 156.035 393.011 156.035 379.763 154.928C373.139 154.375 366.515 153.822 359.34 152.162C352.164 150.502 345.54 149.395 336.708 143.309C335.604 142.755 335.052 141.649 334.501 140.542L319.045 110.11L317.389 106.79C313.525 98.49 304.694 69.1643 312.973 65.2911C323.461 60.3113 336.156 76.9107 340.572 84.6571C340.572 85.2105 343.332 91.2969 346.644 99.5967C349.404 106.79 353.268 115.643 357.132 123.389C359.34 125.049 363.204 126.709 366.515 127.816C372.035 130.029 377.555 131.689 383.627 132.796C395.218 135.562 420.058 138.882 420.058 138.882C423.921 140.542 426.681 144.415 426.129 148.288Z" fill="#F4AE8C"/>
<path d="M346.644 100.703C345.54 95.7236 314.629 109.556 316.285 111.77L314.629 108.45C310.765 100.15 304.694 69.7178 312.973 65.8446C323.461 60.8647 336.156 77.4642 340.572 85.2106C340.572 86.3172 342.78 92.4037 346.644 100.703Z" fill="#E59A51"/>
<path opacity="0.48" d="M356.58 125.049C356.58 125.049 349.404 125.049 347.196 130.029C352.164 126.709 356.58 125.049 356.58 125.049Z" fill="#F4AE8C"/>
<path d="M419.506 139.989C419.506 139.989 426.681 138.882 428.337 138.329C429.993 137.775 440.481 136.116 442.689 136.669C444.897 137.222 444.897 138.329 444.345 140.542C443.793 141.649 444.897 141.649 444.897 142.755C443.793 144.415 444.897 145.522 444.897 146.629C444.345 147.735 444.345 148.842 444.897 149.948C446.001 151.608 443.241 152.715 438.273 152.715C429.993 152.715 430.545 153.822 418.954 154.375C407.914 155.482 419.506 139.989 419.506 139.989Z" fill="#F4AE8C"/>
<path d="M421.162 139.989C422.817 138.882 424.473 137.776 426.129 137.222C427.785 136.116 429.441 135.562 431.097 134.456C432.201 133.902 432.753 133.902 433.857 133.349C434.409 133.349 434.961 133.349 435.513 133.349H436.617C438.273 133.349 439.929 133.902 441.585 133.902C442.137 133.902 442.689 134.456 442.689 135.009C442.689 135.562 442.137 136.116 441.585 136.116C439.929 136.116 438.273 136.669 436.617 137.222L436.065 137.776C436.065 137.776 435.513 137.776 435.513 138.329C434.961 138.882 434.409 138.882 433.857 139.435C431.649 141.649 429.441 143.862 428.337 146.629C427.233 148.842 423.921 149.948 421.713 148.289C419.506 147.182 418.402 143.862 420.058 141.649C420.058 141.095 420.61 140.542 421.162 139.989Z" fill="#F4AE8C"/>
<path d="M398.53 256.738C398.53 262.825 395.77 318.156 333.949 318.156C275.439 318.156 269.367 262.825 269.367 256.738C269.367 250.652 298.07 245.672 333.949 245.672C369.275 245.672 398.53 250.652 398.53 256.738Z" fill="#ABC5D3"/>
<path d="M398.53 256.738C398.53 257.845 397.426 259.505 394.666 260.612C385.835 265.038 362.1 267.805 333.949 267.805C302.486 267.805 276.542 263.931 270.471 258.952C269.367 258.398 269.367 257.292 269.367 256.738C269.367 254.525 274.335 251.759 282.614 250.099C283.166 250.099 283.718 250.099 284.27 249.545H284.822C287.582 248.992 290.894 248.439 294.206 247.885C298.07 247.332 302.486 246.779 307.453 246.225C315.733 245.672 324.565 245.119 333.949 245.119C340.572 245.119 346.644 245.119 352.716 245.672C354.372 245.672 355.476 245.672 356.58 245.672C357.684 245.672 359.34 245.672 360.444 245.672C362.652 245.672 364.307 246.225 366.515 246.225C385.835 248.992 398.53 252.865 398.53 256.738Z" fill="#ABC5D3"/>
<path d="M394.666 260.612C395.77 260.058 396.874 259.505 397.426 258.952C393.562 256.185 382.523 253.418 367.067 251.758C364.859 251.758 363.204 251.205 360.996 251.205C359.892 251.205 358.788 251.205 357.132 251.205C356.028 251.205 354.372 251.205 353.268 251.205C347.196 250.652 341.124 250.652 334.5 250.652C325.117 250.652 316.285 251.205 308.005 251.758C303.038 252.312 298.622 252.865 294.758 253.418C291.446 253.972 288.134 254.525 285.374 255.078H284.822C284.27 255.078 283.718 255.078 283.166 255.632C277.094 256.738 272.679 258.952 270.471 260.612C277.094 265.591 302.486 268.911 333.397 268.911C362.1 267.805 385.835 264.485 394.666 260.612Z" fill="#ABC5D3"/>
<path d="M394.666 260.612C385.835 265.038 362.1 267.805 333.949 267.805C302.486 267.805 276.542 263.931 270.471 258.952C272.127 257.845 273.783 256.738 274.887 256.738C278.198 257.292 281.51 255.078 280.958 252.865C280.958 251.205 280.406 248.992 282.062 248.439C282.614 248.439 283.718 247.885 284.27 247.885C284.27 247.885 285.926 248.439 286.478 248.439C289.238 248.439 288.686 252.312 289.79 253.418C290.894 254.525 293.654 250.652 294.758 247.885C295.31 246.779 295.31 246.225 295.31 245.672C294.758 244.012 297.518 241.799 297.518 241.799C297.518 241.799 303.59 240.139 305.246 241.799C306.349 242.905 305.246 245.672 305.246 245.672C305.246 245.672 306.349 246.225 308.005 246.779C310.213 247.332 312.421 248.439 312.973 248.992C313.525 250.099 312.973 252.865 312.973 252.865C312.973 252.865 314.629 257.845 315.733 256.738C316.837 256.185 322.357 256.738 322.357 256.738C322.357 256.738 320.149 255.078 324.013 252.865C327.877 250.652 331.189 256.738 331.189 256.738C331.189 256.738 341.676 253.418 337.812 249.545C333.949 245.672 343.884 246.225 343.884 248.439C343.884 250.652 341.676 251.758 343.884 252.865C346.092 253.972 353.268 255.078 353.268 252.865C352.716 250.652 351.06 248.439 352.716 246.225C352.716 246.225 352.716 245.672 353.268 245.672C355.476 242.905 357.132 245.119 357.132 245.672C357.132 245.672 357.132 246.225 356.58 246.225C356.028 247.332 353.82 248.992 357.132 248.992C358.236 248.992 359.34 247.885 360.444 246.779C362.1 244.565 360.444 241.799 363.756 241.245C367.067 240.692 368.723 242.905 366.515 245.672L367.067 247.332L367.619 250.099C367.619 250.099 369.827 248.439 372.587 249.545C375.899 250.099 377.555 248.992 380.867 251.205C384.179 253.418 384.179 253.418 384.179 253.418C384.179 253.418 385.835 258.398 386.387 257.292C390.251 256.185 393.01 256.738 393.01 256.738C394.114 257.845 394.666 258.952 394.666 260.612Z" fill="#E7B54F"/>
<path opacity="0.59" d="M328.981 263.378C328.981 263.378 326.773 262.825 324.013 264.485C324.013 265.591 322.357 262.272 322.357 262.272C322.357 262.272 322.357 262.272 319.597 260.612C316.837 258.952 315.733 260.612 313.525 260.058C311.317 260.058 309.661 261.165 309.661 261.165L309.109 258.952L308.557 257.845C309.661 255.632 308.557 253.972 306.349 254.525C304.142 255.078 305.797 256.738 304.694 258.952C304.142 260.058 303.59 260.612 302.486 261.165C300.278 261.718 301.382 260.058 301.934 259.505V258.952C301.934 258.398 300.278 257.292 299.174 259.505C299.174 259.505 299.174 259.505 299.174 260.058C298.07 261.718 299.726 263.378 300.278 265.038C300.83 266.698 295.31 266.698 293.654 266.145C291.998 265.591 293.654 264.485 293.102 262.825C293.102 261.165 285.374 261.718 288.686 264.485C289.238 265.038 289.238 265.591 289.238 265.591C299.174 267.251 312.973 268.358 327.877 268.911C329.533 268.358 330.637 267.805 331.741 267.251C330.637 264.485 330.085 263.931 328.981 263.378Z" fill="#E7B54F"/>
<path opacity="0.59" d="M375.899 256.185C375.899 256.185 374.795 254.525 373.691 256.185C373.691 257.292 375.899 253.972 375.899 253.972C375.899 253.972 375.899 253.972 373.691 252.865C371.483 251.759 370.931 253.418 369.275 253.418C367.619 253.418 367.067 255.078 367.067 255.078L365.963 253.418L365.411 252.312C365.963 249.545 364.859 248.439 363.204 249.545C362.1 250.652 363.203 251.759 362.652 253.972C362.652 255.078 362.1 256.185 361.548 256.185C360.444 256.738 360.444 255.078 360.996 254.525V253.972C360.996 253.418 359.892 252.312 359.34 254.525C359.34 254.525 359.34 254.525 359.34 255.078C358.788 257.292 360.444 257.845 360.996 259.505C361.548 261.165 357.684 261.718 356.58 261.165C355.476 260.612 356.028 259.505 355.476 257.845C354.924 256.185 350.508 257.845 352.716 260.058C353.268 260.612 356.58 263.378 356.58 263.931C363.755 264.485 358.236 261.718 368.171 260.058C370.379 260.058 375.899 261.718 376.451 261.165C376.451 260.058 376.451 256.738 375.899 256.185Z" fill="#E7B54F"/>
<path opacity="0.48" d="M387.491 264.485C384.731 270.571 374.795 302.11 327.877 302.11C295.862 302.11 279.854 285.511 271.575 270.018C275.991 288.277 290.894 318.71 333.949 318.71C394.114 318.71 397.978 265.591 398.53 259.505C397.426 261.165 394.666 262.825 387.491 264.485Z" fill="#ABC5D3"/>
<path d="M307.453 273.338C285.926 272.785 273.231 266.145 272.679 266.145C272.127 266.145 272.127 265.038 272.127 265.038C272.127 264.485 273.231 264.485 273.231 264.485C273.231 264.485 285.926 270.571 307.453 271.678C308.005 271.678 308.557 272.231 308.557 272.785C308.557 272.785 308.005 273.338 307.453 273.338Z" fill="#EBE9DC"/>
<path d="M325.117 274.444C320.149 274.444 315.733 273.891 313.525 273.891C312.973 273.891 312.421 273.891 312.421 273.338C312.421 272.785 312.973 272.231 313.525 272.231H314.077C316.837 272.231 323.461 272.785 330.637 272.785C331.189 272.785 331.741 273.338 331.741 273.891C331.741 274.444 331.189 274.998 330.637 274.998C328.981 274.444 326.773 274.444 325.117 274.444Z" fill="#EBE9DC"/>
<path d="M253.911 302.663C252.807 298.79 250.047 296.577 253.911 297.684C257.775 298.79 257.775 299.897 257.775 301.004C257.775 302.11 257.223 302.11 258.879 302.663C260.535 303.217 264.951 305.43 262.191 305.43C259.431 305.43 258.327 305.43 258.327 305.43C258.327 305.43 259.983 308.75 257.223 309.303C254.463 310.41 253.359 311.517 252.807 309.303C252.255 307.09 252.255 304.877 250.047 305.983C248.391 307.09 247.287 309.857 246.736 307.09C245.632 303.77 252.255 303.77 252.255 303.77L253.911 302.663Z" fill="#E7B54F"/>
<path d="M237.904 271.124C237.904 271.124 242.32 266.698 242.32 268.911C242.872 271.124 242.32 272.231 243.424 272.231C245.08 272.231 246.184 269.465 246.184 272.231C245.632 274.998 246.184 275.551 243.424 274.998C240.664 274.444 238.456 274.444 239.56 276.104C240.664 277.211 243.976 278.871 240.112 278.871C236.248 278.871 235.696 279.978 235.696 277.764C235.144 275.551 234.592 273.338 232.936 275.551C231.28 277.211 227.968 279.978 228.52 276.104C229.072 271.678 231.28 271.124 232.936 272.231C235.144 272.231 237.904 272.231 237.904 271.124Z" fill="#E7B54F"/>
<path d="M421.714 284.957C421.714 284.957 418.402 290.491 417.85 288.277C417.298 286.064 417.298 284.957 416.194 285.511C415.09 286.064 413.986 288.277 413.986 286.064C413.986 283.297 413.434 282.744 416.194 282.744C418.954 282.744 421.162 282.191 420.058 281.084C418.954 279.978 415.642 279.424 418.954 278.871C422.817 278.318 422.817 277.211 423.369 278.871C423.921 280.531 425.025 282.744 426.129 280.531C427.233 278.318 429.993 274.998 429.993 279.424C429.993 283.851 428.337 284.957 426.681 284.404C424.473 283.297 421.714 284.404 421.714 284.957Z" fill="#E7B54F"/>
<path d="M206.993 272.231C205.889 275.551 205.889 277.764 208.649 276.658C210.857 275.551 212.513 272.784 213.617 274.444C214.721 275.551 214.721 279.977 216.929 276.658C219.136 273.338 224.104 273.338 219.136 272.231C214.169 271.124 213.065 269.465 213.065 268.911C213.065 268.358 211.961 263.931 209.753 268.358C207.545 272.784 200.921 265.591 200.921 268.911C200.921 271.678 206.993 272.231 206.993 272.231Z" fill="#E7B54F"/>
<defs>
<linearGradient id="paint0_linear_23_6" x1="124.998" y1="213.831" x2="124.998" y2="287.983" gradientUnits="userSpaceOnUse">
<stop stop-color="#FB9B56"/>
<stop offset="1" stop-color="#E59A51"/>
</linearGradient>
</defs>
</svg>
