<svg width="425" height="373" viewBox="0 0 425 373" fill="none" xmlns="http://www.w3.org/2000/svg">
<path d="M63.6592 81.7817C33.7167 109.418 12.6732 146.372 3.98364 186.152C-1.56514 211.486 -1.98392 238.39 7.01977 262.676C16.0235 286.963 35.2871 308.109 60.0996 315.437C86.5872 323.289 114.855 314.914 142.18 310.622C169.505 306.33 201.646 307.795 219.234 329.151C227.401 338.991 231.798 352.496 242.895 358.881C256.506 366.733 273.675 360.347 287.39 352.705C350.835 317.531 399.099 255.977 418.048 185.943C425.586 158.306 428.518 128.262 418.991 101.253C412.186 82.2004 397.947 64.5087 379.416 55.8199C357.221 45.4562 334.084 51.6325 312.412 60.3213C292.102 68.4867 266.975 80.5254 245.094 71.5226C229.599 65.1368 221.014 50.7951 208.556 40.536C194.945 29.4394 177.776 29.0207 161.234 32.1612C137.259 36.558 113.494 46.503 92.9735 59.3792C82.5041 65.8696 72.6629 73.4069 63.6592 81.7817Z" fill="#F0C6B6"/>
<path d="M359.446 232.445H350.512V307.441H359.446V232.445Z" fill="#132541"/>
<path d="M99.8597 232.445H90.9256V307.441H99.8597V232.445Z" fill="#132541"/>
<path opacity="0.5" d="M99.8597 232.445H90.9256V307.441H99.8597V232.445Z" fill="#132541"/>
<path d="M85.2392 231.878L78.9827 329.019L87.8981 329.594L94.1546 232.453L85.2392 231.878Z" fill="#132541"/>
<path opacity="0.5" d="M359.446 232.445H350.512V307.441H359.446V232.445Z" fill="#132541"/>
<path d="M344.644 232.22L338.387 329.362L347.302 329.937L353.559 232.795L344.644 232.22Z" fill="#132541"/>
<path d="M105.965 131.694L93.1254 211.622L104.396 213.435L117.236 133.507L105.965 131.694Z" fill="#132541"/>
<path d="M362.346 140.985L349.507 220.913L360.777 222.726L373.617 142.798L362.346 140.985Z" fill="#132541"/>
<path d="M53.2037 193.705L57.6707 171.355L408.584 174.832L404.613 195.692L53.2037 193.705Z" fill="#ABC5D3"/>
<path d="M58.6634 166.389L60.6488 149.005L413.548 152.482L410.073 168.872L58.6634 166.389Z" fill="#ABC5D3"/>
<path d="M61.6415 141.059L65.1159 125.166L417.518 129.139L414.54 143.542L61.6415 141.059Z" fill="#ABC5D3"/>
<path d="M13 240.391V224.001H381.285V239.398L13 240.391Z" fill="#605B55"/>
<path d="M13 224.001H381.285L402.628 211.585H42.2841L13 224.001Z" fill="#ABC5D3"/>
<path d="M381.285 224.001V239.398L402.628 224.001V211.585L381.285 224.001Z" fill="#132541"/>
<path d="M417.518 129.139L420 130.629L417.518 143.542H414.54L417.518 129.139Z" fill="#132541"/>
<path d="M413.548 152.482L416.526 153.972L412.555 168.872H410.073L413.548 152.482Z" fill="#132541"/>
<path d="M408.584 174.335L411.562 176.322L407.591 195.692H404.613L408.584 174.335Z" fill="#132541"/>
<path d="M271.098 312.407C274.572 309.427 288.966 319.857 289.462 321.347C289.959 322.341 288.966 325.817 285.491 325.817C278.543 325.321 264.149 318.864 271.098 312.407Z" fill="#8D9DB7"/>
<path d="M312.294 280.124C310.309 284.594 308.323 288.567 305.841 292.541C303.856 296.514 301.374 300.487 299.389 304.461C294.922 312.407 289.959 320.354 284.002 327.804C281.521 330.784 276.557 331.777 273.579 328.797C270.601 326.314 270.105 322.837 271.594 319.36C275.565 311.911 278.543 303.964 281.521 296.017C283.01 292.044 284.499 287.574 285.491 283.601C286.981 279.628 287.973 275.158 288.966 271.184C290.951 264.231 297.404 260.258 304.352 262.244C311.301 264.231 315.272 270.688 313.287 277.641C312.79 278.634 312.294 279.627 312.294 280.124Z" fill="#F4AE8C"/>
<path d="M199.624 331.777C199.624 331.777 200.121 329.79 208.559 329.294C216.996 328.797 219.478 330.287 218.982 331.777C218.485 333.267 212.033 338.234 212.033 338.234L198.135 335.254L199.624 331.777Z" fill="#8D9DB7"/>
<path d="M212.529 309.427C214.018 314.394 215.507 318.864 216.5 323.831C216.996 326.314 217.493 328.797 217.989 331.281C218.485 333.764 218.982 336.247 218.982 340.22C218.982 344.69 215.011 348.664 210.544 348.664C206.077 348.664 202.602 345.187 202.106 341.214V340.717C202.106 339.724 201.61 337.737 201.113 335.751C200.617 333.764 200.121 331.777 199.128 329.294C197.639 324.824 196.15 320.851 194.661 316.381C192.676 311.414 195.157 305.951 200.121 303.964C205.084 301.977 210.544 304.461 212.529 309.427C212.033 308.931 212.033 309.427 212.529 309.427Z" fill="#F4AE8C"/>
<path d="M262.66 45.6997C257.2 59.1096 252.733 62.5862 239.332 62.5862C225.93 62.5862 228.412 40.2364 218.485 29.8065C212.033 23.3499 208.559 -0.489906 223.945 1.9934C235.361 3.98005 238.339 0.503418 243.799 0.503418C250.251 0.503418 259.682 8.45001 265.638 15.8999C272.09 25.3365 268.12 32.2898 262.66 45.6997Z" fill="#2D2C2C"/>
<path d="M342.571 219.531C336.118 241.384 306.834 299.494 301.374 303.467C298.893 305.951 291.448 303.964 289.462 303.467C287.477 302.971 280.528 298.997 279.535 296.017C278.543 286.084 287.477 268.701 299.389 231.948C284.995 229.465 270.601 233.935 258.689 228.471C255.215 226.981 250.748 226.485 246.777 227.975C231.887 232.941 211.04 229.961 199.128 231.948C199.128 238.405 217.493 294.031 215.507 316.877C214.515 321.844 199.128 325.817 195.654 320.85L195.157 320.354C191.683 311.414 189.201 302.474 185.23 293.534C175.304 270.688 163.888 247.841 153.465 226.485C145.523 216.055 150.983 201.652 159.917 196.685C177.289 189.732 211.537 178.308 236.354 180.792C242.806 181.288 248.762 183.275 253.726 186.255C262.163 179.302 276.061 176.818 288.966 182.778C309.812 188.242 338.104 193.705 342.074 216.055C342.571 217.048 342.571 218.538 342.571 219.531Z" fill="#846C7F"/>
<path d="M291.944 146.026C291.944 146.026 288.966 173.342 299.389 186.752C298.893 187.745 297.9 188.738 296.411 189.235C293.929 190.228 290.455 191.222 285.988 192.215C283.506 192.712 281.024 192.712 278.046 193.208C256.207 194.698 222.952 192.215 211.537 186.752C209.055 185.758 207.566 184.268 207.566 183.275C217.493 178.309 212.529 153.972 211.537 148.509C210.544 143.046 202.106 103.313 200.617 98.3459C199.624 93.876 199.128 90.3993 199.128 87.916C200.121 74.0095 218.485 80.4661 250.251 54.6396C278.543 75.0028 306.834 69.0429 306.834 86.426C306.834 87.916 304.352 96.8559 301.871 107.286C297.404 123.676 291.944 144.039 291.944 146.026Z" fill="#8D9DB7"/>
<path d="M279.039 153.972C279.039 153.475 279.535 153.475 279.535 153.475C279.535 152.482 279.039 153.475 279.039 153.972Z" fill="#F4AE8C"/>
<path d="M255.215 94.3725C253.726 95.8625 252.733 97.3525 251.244 98.3458C249.259 99.8358 246.281 99.3392 242.31 93.8759C237.346 87.9159 230.398 77.9827 231.39 71.5261C231.887 69.5394 232.879 68.0494 234.865 67.0561H235.361C235.857 67.0561 235.857 64.0761 235.857 59.6062C235.857 51.6596 235.361 39.7397 235.361 39.7397C235.361 39.7397 258.689 31.2964 260.178 35.7664L260.674 50.1696V53.1496L261.171 60.5995C274.572 67.0561 264.645 83.9426 255.215 94.3725Z" fill="#F4AE8C"/>
<path opacity="0.41" d="M307.33 293.534C300.878 303.964 306.338 299.494 301.374 303.964C300.382 306.447 291.448 304.461 289.462 303.964C287.477 303.467 279.039 298.997 279.535 296.017C280.032 287.077 287.477 269.198 299.389 232.445C284.995 229.961 270.601 234.431 258.689 228.968C255.215 227.478 250.748 226.981 246.777 228.471C231.887 233.438 211.04 230.458 199.128 232.445C199.128 238.901 217.493 294.527 215.507 317.374C214.018 322.837 199.128 326.314 195.654 321.347L195.157 320.354C191.683 311.414 189.201 302.474 185.23 294.031C195.654 274.661 184.734 231.948 178.282 220.525C204.588 224.995 240.324 222.511 246.28 219.035C252.237 215.558 263.156 218.538 265.638 220.525C268.616 222.511 296.411 227.478 304.849 224.995C301.374 236.915 290.951 277.144 307.33 293.534Z" fill="#846C7F"/>
<path opacity="0.28" d="M299.389 186.752C298.893 187.745 297.9 188.738 296.411 189.235L285.988 191.718C283.506 192.215 281.024 192.215 278.046 192.712C282.017 191.222 286.484 189.235 289.959 187.248C299.389 181.785 283.01 157.945 279.039 157.449C274.572 156.952 259.185 166.885 257.696 161.919C257.2 158.939 276.557 150.495 280.528 128.642C279.535 116.226 287.477 94.8691 287.477 94.8691L301.871 107.782C297.404 124.172 291.944 144.039 291.944 146.025C291.944 146.025 288.966 173.838 299.389 186.752Z" fill="#8D9DB7"/>
<path d="M297.404 79.9693C283.01 91.3925 284.499 117.219 284.499 128.146C284.499 145.032 284.002 157.449 283.506 157.449L283.01 157.945C289.462 159.932 296.411 167.382 302.367 168.872C303.856 160.429 306.834 140.065 306.834 136.589C307.827 128.146 313.783 67.0561 297.404 79.9693Z" fill="#8D9DB7"/>
<path d="M253.229 188.738C250.748 193.705 257.696 201.652 262.66 199.168C268.12 196.685 285.491 187.248 289.462 184.268C296.907 179.302 298.396 176.818 301.871 172.845C302.863 171.355 302.863 169.865 303.36 165.892C304.849 158.442 287.477 148.012 284.002 157.449C279.039 163.409 259.682 183.772 253.229 188.738Z" fill="#F4AE8C"/>
<path opacity="0.28" d="M211.537 186.752C209.055 185.758 207.566 184.268 207.566 183.275C217.493 178.308 212.529 153.972 211.537 148.509C210.544 143.045 202.106 103.312 200.617 98.3458C199.624 93.8758 199.128 90.3992 199.128 87.9159L210.544 87.4192C210.544 87.4192 214.515 106.292 214.515 124.172C214.515 142.052 216.004 141.555 217.989 157.449C219.974 172.845 232.383 188.738 236.354 192.215C238.339 193.208 220.471 187.745 211.537 186.752Z" fill="#8D9DB7"/>
<path d="M150.487 159.435C150.487 159.435 163.391 158.939 171.829 157.945C177.289 157.449 182.252 159.932 187.712 157.449C191.187 157.449 193.668 153.972 194.165 153.972C196.15 146.025 202.106 140.065 190.69 133.609C186.72 132.615 182.749 134.105 178.778 134.602C174.311 135.099 149.99 145.032 143.538 149.502C139.071 152.979 145.027 162.415 150.487 159.435Z" fill="#F4AE8C"/>
<path opacity="0.5" d="M260.674 50.6663L235.857 60.1028C235.857 64.0761 235.857 67.0561 235.361 67.5528C232.879 68.5461 231.887 70.0361 231.39 72.0227C232.879 72.5194 237.346 72.0227 240.821 70.5327C260.178 61.5928 260.674 54.6396 260.674 54.6396V50.6663Z" fill="#F4AE8C"/>
<path d="M205.084 79.4727C209.551 76.4927 217.493 94.8692 206.077 129.139C202.106 140.562 195.157 153.475 194.165 153.972C195.654 151.489 187.216 137.085 179.274 134.602C186.72 114.736 190.194 88.9093 205.084 79.4727Z" fill="#8D9DB7"/>
<path d="M261.667 41.7264C258.193 60.1029 249.259 63.5796 236.354 69.0429C220.967 75.9961 216.5 51.6597 218.485 33.2832C219.974 20.8666 229.405 8.45008 242.806 10.9334C257.2 12.92 265.141 22.8533 261.667 41.7264Z" fill="#F4AE8C"/>
<path d="M218.982 31.7932C218.982 31.7932 222.456 19.3766 226.427 18.88C227.916 21.3633 246.28 22.8533 250.251 23.8466C252.733 24.8399 250.251 32.2898 250.251 35.2698C250.251 36.2631 251.244 37.7531 252.237 38.2498C258.193 41.7264 260.178 49.673 260.178 49.673C260.178 49.673 272.587 17.8866 256.207 11.9267C239.828 5.96675 218.485 7.45674 218.982 31.7932Z" fill="#2D2C2C"/>
<path d="M258.689 42.7197C257.2 46.1963 254.222 48.183 252.733 47.1896C251.244 46.1963 253.726 43.2163 252.733 39.7397C251.74 36.2631 255.711 33.7798 258.689 35.2697C261.667 36.7597 260.674 39.7397 258.689 42.7197Z" fill="#F4AE8C"/>
<path d="M262.66 199.168C262.66 199.168 254.222 208.108 251.244 208.605C247.77 209.102 235.857 196.685 240.821 195.195C245.784 193.705 253.229 189.235 253.229 189.235L262.66 199.168Z" fill="#F4AE8C"/>
<path opacity="0.73" d="M251.244 98.3459C249.259 99.8359 246.281 99.3392 242.31 93.8759C237.346 87.916 230.398 77.9827 231.39 71.5261C231.39 71.5261 231.887 71.5261 231.887 72.5194C232.383 76.9894 236.85 85.9293 239.828 89.9026C242.806 93.8759 245.288 96.8559 247.273 97.3526C249.259 98.3459 251.244 98.3459 251.244 98.3459Z" fill="#F4AE8C"/>
<path d="M223.945 349.16C223.945 351.147 223.449 353.134 221.96 354.127C219.974 355.617 216.996 357.107 213.522 358.597C209.551 360.087 207.07 363.067 205.084 366.544C204.091 368.034 203.099 369.027 201.61 369.523C196.646 371.013 181.26 374.987 176.296 371.013C174.807 369.524 173.318 368.034 172.822 366.544C171.333 363.067 172.822 358.597 180.763 353.134C194.165 343.2 196.646 335.254 199.624 331.281C201.113 336.744 218.982 331.281 218.982 331.281C218.982 331.281 223.945 342.207 223.945 349.16Z" fill="#605B55"/>
<path d="M223.945 349.16C223.945 351.147 223.449 353.133 221.96 354.127C219.974 355.617 216.996 357.107 213.522 358.597C209.551 360.087 207.07 363.067 205.084 366.543C204.091 368.033 203.099 369.027 201.61 369.523C196.646 371.013 181.26 374.987 176.296 371.013C174.807 369.523 173.318 368.033 172.822 366.543C173.318 366.543 173.815 366.047 173.815 366.047C174.807 365.053 175.304 363.563 176.793 363.563C178.282 363.563 178.282 365.55 180.267 367.04C181.756 368.53 196.646 368.033 200.121 367.04C203.595 366.047 204.588 359.59 212.033 356.61C218.982 354.127 223.945 349.16 223.945 349.16Z" fill="#8D9DB7"/>
<path d="M294.922 359.59C294.922 360.087 294.426 360.087 294.426 360.584C293.433 362.57 287.973 363.067 280.528 363.563C275.565 363.563 270.601 357.107 269.609 352.637C268.616 348.167 270.601 339.724 269.609 337.737C268.12 334.26 263.156 331.777 263.652 326.81C263.652 325.817 264.149 325.32 264.149 324.824C265.141 320.851 267.127 317.871 267.127 317.871C268.616 315.387 269.609 313.897 270.601 313.401C271.594 311.911 273.083 314.891 273.083 314.891C273.083 314.891 273.579 324.327 282.513 325.32C289.959 325.817 289.959 322.837 289.959 322.34C289.959 322.837 290.951 325.32 289.959 330.784C289.462 332.77 291.448 347.174 294.922 350.65C297.404 352.637 295.915 357.604 294.922 359.59Z" fill="#605B55"/>
<path d="M294.922 359.59C294.922 360.087 294.426 360.087 294.426 360.583C293.433 362.57 287.973 363.067 280.528 363.563C275.565 363.563 270.601 357.107 269.609 352.637C268.616 348.167 270.601 339.724 269.609 337.737C268.12 334.26 263.156 331.777 263.652 326.81C263.652 325.817 264.149 325.32 264.149 324.824C265.141 326.81 268.616 333.267 270.601 335.254C272.587 337.24 271.098 347.67 271.594 350.65C272.09 353.63 276.557 361.08 279.535 361.577C282.513 362.073 286.98 356.61 289.462 356.61C291.448 356.61 290.951 358.1 292.44 359.59C293.433 360.087 294.426 360.087 294.922 359.59Z" fill="#8D9DB7"/>
<path d="M194.165 212.578C191.187 213.075 188.705 210.591 188.209 208.108C188.209 207.611 188.209 207.611 188.209 207.115C188.209 206.121 187.712 204.631 187.216 203.638C186.719 202.148 186.223 201.155 185.23 200.161C185.23 199.665 184.734 199.665 184.734 199.168L184.238 198.671L183.245 198.175C182.749 197.678 181.26 197.182 180.267 196.685C177.785 195.692 174.807 195.195 171.829 194.698C170.34 194.698 166.866 194.202 164.384 194.698C159.421 194.698 155.45 191.222 154.954 186.255C154.954 181.288 158.428 177.315 163.391 176.818C164.384 176.818 165.377 176.818 165.873 177.315H166.369C170.34 178.308 173.318 179.302 176.793 180.792C180.267 182.282 183.741 183.275 187.216 185.262C188.705 186.255 190.69 187.248 192.676 189.235C193.668 190.228 194.661 191.222 195.157 192.215C195.157 192.712 195.654 192.712 195.654 193.208L196.15 193.705C196.15 194.202 196.646 194.698 196.646 195.195C197.143 197.181 197.639 198.671 198.135 200.658C198.632 202.645 199.128 204.135 199.128 206.618C199.128 209.598 197.143 212.081 194.165 212.578Z" fill="#EBE9DC"/>
<path d="M168.355 188.738C167.362 188.242 148.005 196.685 133.115 203.142C130.137 204.632 127.655 205.625 125.173 206.618C121.699 208.108 118.721 209.598 117.232 210.095C117.232 210.095 108.298 209.598 100.852 207.115C97.378 205.128 93.9037 202.645 92.4146 199.665C89.4366 191.222 85.4658 187.745 99.3634 177.315C101.349 175.825 103.334 174.832 105.816 173.342C113.261 169.865 123.188 166.389 133.115 162.912C142.049 159.435 150.983 155.462 156.443 150.992C164.88 148.012 182.252 148.012 185.23 161.919C185.727 163.409 185.727 164.899 185.727 166.885C187.216 180.792 182.252 197.182 168.355 188.738Z" fill="#605B55"/>
<path d="M189.201 147.515C187.216 150.992 185.727 154.469 185.727 157.945C185.727 159.435 185.727 160.925 185.23 161.919C183.741 166.389 175.8 168.872 171.829 165.395C170.34 163.905 168.851 162.415 167.859 161.422C165.873 159.435 163.391 157.945 160.91 156.455C158.428 155.462 156.443 153.475 156.939 150.495C157.435 145.032 156.443 141.059 155.45 138.079C153.961 134.602 154.457 130.629 155.946 127.649C157.435 124.669 160.413 121.689 163.888 120.696C166.866 119.702 169.844 119.206 173.815 120.199C178.778 121.192 182.749 124.669 184.238 129.139C185.23 132.615 186.223 138.575 188.705 142.549C189.698 144.535 189.698 146.025 189.201 147.515Z" fill="#EBE9DC"/>
<path d="M170.837 150.495C172.822 149.005 176.296 147.515 179.771 148.012C181.26 148.509 182.252 149.999 181.26 151.489C179.274 155.462 179.274 155.462 177.785 156.455C176.296 157.449 172.822 154.965 170.837 153.475C169.348 152.979 169.844 151.489 170.837 150.495Z" fill="#132541"/>
<path d="M173.815 161.919C175.304 161.919 176.793 162.415 178.282 161.919C179.771 161.422 180.763 160.925 182.252 159.932C181.756 160.429 181.26 161.422 180.763 161.919C180.267 162.415 179.274 162.912 178.778 162.912C176.793 162.912 175.304 162.415 173.815 161.919Z" fill="#132541"/>
<path d="M179.54 136.587C181.169 136.364 182.37 135.302 182.222 134.215C182.074 133.128 180.632 132.427 179.003 132.65C177.373 132.873 176.172 133.934 176.321 135.022C176.469 136.109 177.91 136.809 179.54 136.587Z" fill="#132541"/>
<path d="M163.981 140.416C165.82 139.868 167.057 138.571 166.744 137.519C166.431 136.468 164.686 136.06 162.847 136.608C161.008 137.156 159.771 138.453 160.084 139.505C160.397 140.556 162.142 140.964 163.981 140.416Z" fill="#132541"/>
<path d="M185.23 123.676C187.712 125.166 189.698 127.152 191.683 129.139C193.172 131.622 194.661 134.106 195.654 136.589C196.646 139.569 196.646 142.549 196.646 145.032C196.646 148.012 195.157 150.992 193.668 152.979C192.676 154.965 191.683 154.965 190.69 154.469C190.194 153.972 189.698 153.475 189.698 152.979V152.482C189.201 149.999 189.201 147.515 188.705 145.529C188.209 143.542 187.712 141.059 187.216 139.072C185.727 135.099 183.741 130.629 182.252 125.662C181.756 124.669 182.749 123.676 183.741 123.179C184.238 123.676 184.734 123.676 185.23 123.676Z" fill="#605B55"/>
<path d="M156.939 150.495C157.435 145.032 156.443 141.059 155.45 138.079C153.961 134.602 154.457 130.629 155.946 127.649C155.946 127.649 158.924 135.596 158.428 142.052C157.932 148.509 160.413 157.449 162.399 162.415C158.428 159.435 156.443 154.965 156.939 150.495Z" fill="#EBE9DC"/>
<path d="M158.428 131.125C158.428 133.609 157.932 136.589 157.435 138.575C156.939 141.059 156.939 143.542 156.443 145.529C156.443 147.515 156.443 149.502 156.443 151.489C156.939 153.475 157.435 154.965 157.932 156.952L158.428 157.945C159.421 160.429 157.932 162.912 155.45 163.905C153.961 164.402 152.472 164.402 151.479 163.409C148.501 161.422 146.019 158.442 144.53 154.965C143.041 151.489 143.041 148.012 143.538 144.535C144.034 141.059 145.027 138.079 146.019 135.099C147.509 132.119 148.998 129.635 151.479 127.152C152.968 125.662 155.45 125.662 156.939 127.152C157.932 128.145 157.932 129.139 157.932 130.132L158.428 131.125Z" fill="#EBE9DC"/>
<path d="M164.88 134.602C164.88 134.602 160.91 134.105 158.924 139.569C156.939 145.032 155.45 134.602 164.88 134.602Z" fill="#EBE9DC"/>
<path d="M175.8 133.112C175.8 133.112 178.282 130.629 183.245 133.609C188.209 136.589 183.245 127.152 175.8 133.112Z" fill="#EBE9DC"/>
<path d="M194.165 212.578C191.187 213.075 188.705 210.591 188.209 208.108C188.209 207.611 188.209 207.611 188.209 207.115C188.209 206.121 187.712 204.631 187.216 203.638C186.72 202.148 186.223 201.155 185.23 200.161C185.23 199.665 184.734 199.665 184.734 199.168L184.238 198.671L183.245 198.175C182.749 197.678 181.26 197.181 180.267 196.685C177.785 195.691 174.807 195.195 171.829 194.698L164.88 186.255L182.749 183.275C182.749 183.275 180.763 189.732 183.741 194.201C186.72 198.671 188.209 201.155 188.209 205.128C190.194 209.598 191.187 211.585 194.165 212.578Z" fill="#EBE9DC"/>
<path d="M185.727 177.315C185.23 180.792 184.238 184.268 182.749 186.752C181.756 188.242 180.267 189.732 178.778 190.228C176.296 191.718 172.822 191.222 168.355 188.738C167.362 187.745 145.523 197.678 130.633 204.135C128.648 205.128 127.159 205.625 125.173 206.618C126.662 203.638 128.648 199.665 129.144 195.195C129.144 189.235 130.137 183.772 132.122 178.308C134.107 173.342 136.589 170.362 146.019 167.382C156.443 163.905 181.26 181.288 186.223 166.388C186.223 169.865 186.223 173.838 185.727 177.315Z" fill="#EBE9DC"/>
<path d="M164.88 182.282C156.939 182.778 160.413 178.805 156.939 176.322C155.45 175.328 154.457 174.832 154.457 174.832C154.457 174.832 143.538 175.328 139.567 177.812C137.085 180.295 135.596 192.712 132.122 200.162C129.144 203.638 125.173 203.142 124.18 200.162C126.166 183.275 110.283 180.295 110.283 180.295L101.349 207.115C108.794 210.095 117.728 210.095 117.728 210.095C119.217 209.598 121.699 208.605 125.669 206.618C128.151 205.625 130.633 204.632 133.611 203.142C144.034 198.672 167.859 188.242 168.851 188.738C172.326 190.725 175.304 191.222 177.289 190.725C175.304 183.772 168.851 182.778 164.88 182.282Z" fill="#EBE9DC"/>
<path d="M177.289 190.725C177.785 190.725 178.282 190.228 178.778 190.228L177.289 190.725Z" fill="#EBE9DC"/>
<path d="M181.26 199.168C181.26 200.658 181.26 201.652 180.763 202.645C178.282 208.605 169.844 204.135 169.844 199.168C167.859 195.195 167.362 195.692 166.866 194.698C161.406 196.685 157.435 199.665 153.961 202.148C150.487 205.128 147.509 208.108 145.027 210.591C126.662 221.518 139.567 180.792 140.063 177.812C148.005 161.919 163.888 179.798 154.954 188.242C155.946 187.745 157.435 186.752 158.428 186.255C170.34 177.812 179.771 190.725 181.26 199.168Z" fill="#EBE9DC"/>
<path d="M154.457 188.242C154.457 188.242 148.005 192.215 147.012 195.692C153.465 190.228 154.457 188.242 154.457 188.242Z" fill="#EBE9DC"/>
<path d="M180.267 202.645C177.785 208.605 169.348 204.135 169.348 199.168C167.362 195.195 166.866 195.692 166.37 194.698C166.37 194.698 170.837 197.182 171.333 199.168C172.326 201.652 176.793 205.128 180.267 202.645Z" fill="#EBE9DC"/>
<path d="M120.706 209.101C120.21 209.101 119.217 208.605 118.721 208.605C123.684 195.195 122.195 190.725 115.246 183.772C112.268 180.792 102.838 172.845 92.4146 183.275C85.9622 189.732 86.4585 201.155 89.4366 212.578C90.4293 217.545 97.8744 219.035 105.32 218.041C110.283 217.545 116.239 217.545 117.728 218.041C118.224 218.041 118.721 218.041 119.217 218.041C121.202 218.041 123.188 216.551 123.684 214.565C124.677 212.578 123.188 209.598 120.706 209.101Z" fill="#EBE9DC"/>
<path d="M185.727 177.315C185.23 180.792 184.238 184.268 182.749 186.752C180.763 185.758 180.763 180.792 182.252 178.308C183.245 176.322 184.734 176.818 185.727 177.315Z" fill="#605B55"/>
<path d="M131.129 168.375C131.129 169.865 124.677 172.845 122.195 171.852C119.713 171.355 117.728 175.825 109.29 174.335C107.801 173.839 106.809 173.342 106.312 172.845C113.757 169.369 123.684 165.892 133.611 162.415C138.078 163.905 131.129 167.382 131.129 168.375Z" fill="#EBE9DC"/>
<path d="M118.721 208.605C118.721 208.605 110.283 209.101 104.327 211.585C108.794 211.585 118.721 208.605 118.721 208.605Z" fill="#EBE9DC"/>
<path d="M144.034 149.502C144.034 149.502 135.1 157.449 133.611 158.939C132.122 160.429 128.648 164.898 128.648 167.878C128.648 170.858 144.53 164.898 147.012 158.939C145.523 157.945 144.034 149.502 144.034 149.502Z" fill="#F4AE8C"/>
<path d="M240.821 194.698C240.821 194.698 235.361 196.685 236.354 202.645C237.346 208.605 237.843 211.088 239.828 211.585C241.813 211.585 252.237 212.578 254.718 211.585C257.696 210.591 261.171 206.618 260.674 205.128C260.178 204.135 259.682 201.652 257.696 201.652C256.207 201.652 240.821 194.698 240.821 194.698Z" fill="#F4AE8C"/>
</svg>
