<svg width="425" height="367" viewBox="0 0 425 367" fill="none" xmlns="http://www.w3.org/2000/svg">
<path d="M63.6592 85.7817C33.7167 113.418 12.6732 150.372 3.98364 190.152C-1.56514 215.486 -1.98392 242.39 7.01977 266.676C16.0235 290.963 35.2872 312.109 60.0996 319.437C86.5872 327.289 114.855 318.914 142.18 314.622C169.505 310.33 201.646 311.795 219.234 333.151C227.401 342.991 231.798 356.496 242.895 362.881C256.506 370.733 273.675 364.347 287.39 356.705C350.835 321.531 399.099 259.977 418.048 189.943C425.586 162.306 428.518 132.262 418.991 105.253C412.186 86.2004 397.947 68.5087 379.416 59.8199C357.221 49.4562 334.084 55.6325 312.412 64.3213C292.102 72.4867 266.975 84.5254 245.094 75.5226C229.599 69.1368 221.014 54.7951 208.556 44.536C194.945 33.4394 177.776 33.0207 161.234 36.1612C137.259 40.558 113.494 50.503 92.9735 63.3792C82.5041 69.8696 72.6629 77.4069 63.6592 85.7817Z" fill="#F0C6B6"/>
<path d="M123.257 287.43C121.99 294.187 120.301 300.944 118.611 307.278C118.189 308.967 117.767 310.656 116.922 312.345C116.078 314.035 116.5 315.724 116.078 317.413C116.078 317.413 115.655 321.213 114.811 325.436C113.966 329.237 113.122 333.46 111.855 335.149C111.01 335.994 108.054 338.95 107.21 338.95C107.21 338.95 107.21 338.95 106.787 338.95C106.365 338.95 105.943 339.372 105.52 339.372C105.098 339.372 105.098 339.372 104.676 339.794C101.72 340.216 98.7638 338.105 98.3415 335.149C97.9192 332.193 102.564 327.97 102.564 327.97C102.564 327.548 102.142 322.903 102.142 322.903C101.72 321.213 101.72 319.947 101.298 318.257C100.875 316.568 100.875 315.301 100.031 313.612C99.1861 311.923 98.3415 310.656 97.9192 308.967L90.7403 290.386C87.362 281.096 91.1626 270.539 100.031 266.738C108.476 262.937 118.611 267.16 121.99 276.451C124.101 279.829 124.101 283.63 123.257 287.43Z" fill="#ABC5D3"/>
<path d="M117.344 312.345C116.5 314.034 116.922 315.723 116.5 317.412C116.5 317.412 116.5 319.102 115.655 323.325C113.544 322.48 111.855 325.436 110.588 326.281C109.321 327.125 108.054 336.416 107.632 338.949C107.21 338.949 106.787 339.372 106.365 339.372C105.098 333.459 102.987 316.99 102.987 316.99L117.344 312.345Z" fill="#ABC5D3"/>
<path d="M154.928 285.741C153.239 288.275 151.55 289.964 149.439 290.809C147.327 292.076 145.638 292.498 143.949 292.498C143.527 292.498 143.527 292.498 143.104 292.498C141.415 292.498 139.726 292.076 138.037 291.653C131.28 289.12 125.79 283.208 125.368 282.363C123.257 279.829 120.723 272.65 122.834 270.539C124.946 268.427 131.28 272.228 133.392 274.339C134.236 275.184 135.503 276.451 136.77 277.718C138.881 279.407 141.415 281.096 143.527 281.096C143.949 281.096 144.793 281.096 146.06 278.985C146.483 278.562 146.905 278.14 147.327 277.718C149.016 276.451 151.55 276.451 153.662 277.718C156.195 279.407 156.618 283.208 154.928 285.741Z" fill="#132541"/>
<path opacity="0.34" d="M138.037 291.653C131.28 289.12 125.79 283.208 125.368 282.363C123.257 279.829 120.723 272.65 122.834 270.539C124.946 268.427 131.28 272.228 133.392 274.339C134.236 275.184 135.503 276.451 136.77 277.718C138.037 281.096 139.304 286.164 138.037 291.653Z" fill="#132541"/>
<path d="M91.5848 339.372C91.5848 338.105 91.1625 337.26 91.1625 336.416C90.7402 334.304 90.7402 332.615 90.3179 330.926C89.4733 326.281 87.3619 319.102 86.095 314.457C85.2504 311.501 84.8281 309.389 84.8281 309.389C82.7167 305.166 78.0715 303.055 73.8486 305.166C69.6257 307.278 67.9365 312.345 70.048 316.99C70.4703 317.413 70.4703 318.257 70.8926 319.102C73.004 324.592 75.5378 330.081 77.2269 335.571C77.2269 335.571 77.2269 335.571 77.2269 335.994C77.6492 337.683 78.9161 341.061 78.9161 341.483C79.3384 342.328 75.5378 344.439 75.5378 344.439C73.004 345.284 72.1594 347.818 73.004 350.774C73.8486 353.73 75.96 354.152 78.9161 353.307C80.183 352.885 81.4498 352.463 82.7167 352.041C83.139 352.041 83.9836 351.618 84.4059 351.196C85.2504 350.774 86.095 350.351 87.3619 349.929C87.7842 349.507 88.2065 349.085 89.051 348.662C89.4733 348.24 89.4733 348.24 89.8956 347.818C90.3179 346.973 90.7402 346.128 90.7402 346.128C90.7402 345.706 91.1625 345.284 91.1625 344.862V344.017C91.5848 341.483 91.5848 340.639 91.5848 339.372Z" fill="#ABC5D3"/>
<path d="M91.5848 343.595V344.44C91.5848 344.862 91.1625 345.284 91.1625 345.706C91.1625 346.129 90.7402 346.973 90.318 347.396C89.8957 347.818 89.8957 348.24 89.4734 348.24C89.0511 348.662 88.2065 349.085 87.7842 349.507C86.9396 349.929 85.6728 350.774 84.8282 350.774C84.4059 351.196 83.5613 351.196 83.139 351.619C90.318 346.973 89.4734 335.149 87.3619 332.615C86.0951 330.926 81.0276 333.038 78.0715 334.305C78.0715 334.305 78.0715 334.305 78.0715 333.882C75.9601 328.393 73.8486 322.903 71.7372 317.413V313.612L87.3619 312.768C88.6288 317.835 90.7402 325.014 91.5848 329.237C92.0071 330.926 92.4294 332.615 92.4294 334.727C92.4294 335.571 92.8517 336.838 92.8517 337.683C91.5848 340.639 91.5848 341.484 91.5848 343.595Z" fill="#ABC5D3"/>
<path d="M136.348 299.676C135.081 305.166 132.547 309.389 126.213 313.19C121.567 315.724 115.655 317.413 109.743 319.102C103.831 320.791 98.3414 324.592 93.274 325.858C83.9836 327.548 76.3824 325.014 75.5378 325.014C73.8486 325.014 69.2034 318.257 67.5143 308.122C67.092 306.855 67.092 305.166 66.6697 303.477C65.8251 295.454 70.048 296.72 75.1155 289.119C77.6492 284.896 80.6053 279.829 84.4059 275.606C88.2065 271.383 93.274 268.849 97.0746 265.893C101.72 262.515 106.365 262.093 111.432 263.36C117.345 264.626 123.679 264.626 127.902 268.005C132.969 271.805 133.814 278.562 135.925 283.629C136.77 286.586 136.77 297.143 136.348 299.676Z" fill="#132541"/>
<path opacity="0.34" d="M136.348 299.676C135.081 305.166 132.547 309.389 126.213 313.19C121.567 315.723 115.655 317.413 109.743 319.102C103.831 320.791 98.3415 324.592 93.274 325.858C83.9836 327.548 76.3824 325.014 75.5378 325.014C73.8486 325.014 69.2034 318.257 67.5143 308.122L75.9601 300.521C75.9601 300.521 83.5613 301.788 85.6728 312.767C87.7842 323.747 136.77 300.521 136.77 292.92C136.77 291.653 136.77 297.143 136.348 299.676Z" fill="#132541"/>
<path d="M131.28 314.457C130.858 316.146 131.28 317.413 131.28 318.679C131.28 319.102 131.28 319.102 131.28 319.524C131.28 319.524 132.547 333.46 130.435 337.683C130.013 338.949 129.169 340.216 128.324 341.061C127.902 341.483 127.479 341.905 126.635 342.328C126.635 342.75 126.635 343.172 126.213 343.172C125.79 343.595 125.79 343.595 124.946 344.017C121.99 345.284 120.301 345.706 119.034 342.75C117.767 339.794 120.723 333.037 120.723 333.037C120.723 332.615 118.189 325.014 117.767 323.747C117.344 322.48 116.922 320.791 115.655 319.524C114.811 318.257 113.544 316.99 112.699 315.301C112.699 315.301 109.321 302.21 102.142 298.832C98.7637 294.609 99.186 278.984 106.787 273.494C114.388 268.005 124.946 270.116 130.435 278.562C132.547 281.94 133.392 285.319 133.392 289.119C133.392 289.119 132.969 303.055 132.547 309.811C132.125 311.078 131.702 312.767 131.28 314.457Z" fill="#ABC5D3"/>
<path d="M108.899 302.21C108.899 306.433 108.476 310.656 108.476 314.879C108.476 319.524 108.054 323.747 107.632 328.392C107.21 333.037 106.787 337.26 105.943 342.328C105.943 343.172 105.098 346.128 104.676 346.973C103.831 348.24 103.409 349.507 102.142 350.774C101.297 352.04 100.031 353.307 98.7637 354.152C97.9192 354.574 97.4969 354.996 96.6523 355.419C95.8077 355.841 95.3854 355.841 93.6963 356.263C90.7402 356.686 87.7842 354.574 87.3619 351.618C86.9396 348.24 89.0511 345.284 92.0071 344.861C93.274 344.861 93.274 340.216 93.274 340.216C93.274 336.838 92.8517 332.615 92.4294 328.392C91.5848 320.369 90.7402 311.923 89.4733 303.899C88.6288 297.987 92.4294 292.92 97.4969 291.653C102.987 290.808 108.054 294.609 108.899 300.521C108.899 300.521 108.899 301.366 108.899 302.21Z" fill="#ABC5D3"/>
<path d="M154.928 285.741C153.239 288.275 151.55 289.964 149.439 290.809C149.439 289.542 149.861 288.697 150.283 287.43C151.972 283.63 149.861 279.829 147.327 277.295C149.016 276.028 151.55 276.028 153.661 277.295C156.195 279.407 156.618 283.207 154.928 285.741Z" fill="#ABC5D3"/>
<path d="M131.28 314.457C130.858 316.146 131.28 317.413 131.28 318.68C129.591 318.257 128.324 317.413 127.479 316.568C123.257 311.923 112.277 314.879 112.277 314.879C112.277 314.879 108.899 301.788 99.186 299.254C92.8517 294.187 97.0746 277.717 104.676 272.228C112.277 266.738 126.213 268.427 131.702 276.873C133.814 280.251 134.658 285.319 134.236 288.697C134.236 288.697 132.547 302.21 132.125 308.967C132.125 311.078 131.702 312.768 131.28 314.457Z" fill="#132541"/>
<path d="M108.899 302.21C108.899 306.433 108.477 310.656 108.477 314.879C105.52 314.034 100.453 313.612 99.1861 319.946C98.3415 324.591 95.3855 326.703 92.8518 328.392C92.0072 320.369 88.2066 302.632 88.2066 302.632C87.362 296.72 93.274 290.386 98.3415 289.541C103.409 288.274 108.899 301.365 108.899 302.21Z" fill="#132541"/>
<path d="M78.0715 330.081C75.9601 331.348 73.4264 332.615 70.4703 333.882C68.7812 334.304 67.5143 335.149 66.2474 335.571C65.4028 335.994 64.5583 336.416 63.7137 336.416C61.6022 337.26 60.3354 337.683 59.0685 337.683C57.3793 338.95 53.5787 339.372 48.0889 335.149C46.3998 333.882 47.2444 327.97 47.6667 326.703V326.281C47.2444 324.592 45.1329 316.146 46.3998 313.19C46.3998 312.768 46.8221 312.768 46.8221 312.345C48.0889 309.812 48.9335 307.7 50.2004 306.011C53.5787 300.521 57.3793 297.987 65.8251 297.565C72.5818 297.143 79.3384 300.521 82.7167 306.856C83.9836 309.389 84.4059 314.457 83.139 316.99C80.6053 322.903 83.9836 326.703 78.0715 330.081Z" fill="#132541"/>
<path d="M66.2474 335.571C63.2914 336.838 60.3354 338.105 59.0685 337.683C57.8016 338.528 55.6902 338.95 53.1564 338.105C51.8896 337.683 50.2004 336.416 48.089 335.149C47.2444 334.727 47.2444 333.038 47.2444 331.771C47.2444 329.659 47.6667 327.548 47.6667 326.703C50.2004 326.281 57.3794 325.859 58.2239 327.548C59.4908 330.926 61.6023 333.038 62.4468 333.46C62.4468 333.882 64.9806 334.305 66.2474 335.571Z" fill="#ABC5D3"/>
<path d="M50.2004 308.545C49.7781 309.389 48.089 311.078 46.8221 312.345C48.089 309.811 48.9335 307.7 50.2004 306.011C50.6227 306.855 50.6227 307.7 50.2004 308.545Z" fill="#ABC5D3"/>
<path d="M79.3385 308.967C80.6053 313.19 87.362 319.524 80.183 320.369C74.6933 320.791 66.2475 316.568 69.2035 309.812C70.8926 305.589 69.6258 302.633 68.3589 300.521C67.5143 299.677 68.3589 297.988 69.6258 298.41C75.1155 298.832 80.183 302.211 79.3385 308.967Z" fill="#ABC5D3"/>
<path d="M53.1564 338.105C51.8896 337.683 50.2004 336.416 48.089 335.149C47.2444 334.727 47.2444 333.038 47.2444 331.771C48.9335 331.771 51.045 331.771 51.8896 332.615C52.7342 333.882 53.1564 336.838 53.1564 338.105Z" fill="#132541"/>
<path d="M59.0685 337.683L59.4908 333.037C60.3353 335.571 59.913 337.26 59.0685 337.683Z" fill="#132541"/>
<path opacity="0.34" d="M78.0716 330.081C75.9601 331.348 73.4264 332.615 70.4703 333.882C68.7812 334.304 67.5143 335.149 66.2474 335.571C65.4028 335.993 64.5583 336.416 63.7137 336.416C64.9806 335.571 67.092 333.037 67.9366 331.771C69.6257 328.392 67.092 322.902 66.2474 319.102C65.4028 314.879 66.2474 311.923 66.2474 311.923H68.7812L78.0716 330.081Z" fill="#132541"/>
<path d="M73.0041 307.278C73.8487 307.278 74.271 307.7 74.6933 308.122C77.227 311.923 87.362 325.859 85.2505 331.771C82.7168 338.527 68.3589 333.46 67.5144 319.947C67.5144 316.568 65.8252 314.034 66.6698 312.345C67.9366 308.122 71.315 307.278 73.0041 307.278Z" fill="#132541"/>
<path d="M57.8016 318.68C58.2238 319.524 57.8016 320.369 57.3793 320.791C56.5347 321.214 55.6901 320.791 55.2678 319.947C54.8455 319.102 55.2678 318.258 55.6901 317.835C56.5347 317.413 57.3793 317.835 57.8016 318.68Z" fill="#E7B54F"/>
<path d="M56.5348 319.102C56.9571 319.102 57.8016 319.102 57.3793 319.947C57.3793 320.791 56.5348 320.791 56.1125 320.791C55.6902 320.791 55.2679 319.947 55.2679 319.102C55.6902 318.68 56.1125 319.102 56.5348 319.102Z" fill="#132541"/>
<path opacity="0.34" d="M54.4233 320.369C54.4233 320.369 57.8016 318.257 58.6462 318.68C59.4907 319.102 57.8016 321.213 55.2678 321.636C56.5347 322.058 59.0685 321.213 59.4907 319.946C59.913 319.102 59.913 317.835 58.2239 317.835C56.5347 318.257 55.2678 319.102 54.4233 320.369Z" fill="#132541"/>
<path d="M54.4232 320.369C54.4232 320.369 56.1124 318.257 58.2239 317.835C60.3353 317.413 54.8455 314.879 54.4232 320.369Z" fill="#132541"/>
<path d="M55.2679 321.635C55.2679 321.635 57.8016 321.213 59.0685 319.102C60.7577 317.413 59.9131 323.747 55.2679 321.635Z" fill="#132541"/>
<path d="M373.675 279.406C373.675 280.251 373.675 281.518 373.252 282.362C372.408 284.896 371.986 287.43 371.563 289.964C371.141 292.497 370.296 295.031 369.874 297.565C369.452 300.521 368.607 303.055 368.185 306.011C367.34 308.967 366.918 311.5 366.918 313.612C366.496 316.146 366.074 318.679 365.651 321.635L365.229 325.436C365.229 326.703 364.807 327.97 364.807 329.237C364.807 331.348 364.807 333.46 365.229 335.149C365.651 335.993 371.563 341.061 370.719 344.439C369.874 347.395 366.918 348.662 363.118 347.817C362.695 347.817 361.428 347.817 358.895 345.706C358.05 344.861 356.361 340.216 355.939 338.527C354.249 334.726 354.249 331.77 354.249 328.392L355.094 311.923C355.094 308.544 355.516 305.166 355.516 301.365C355.516 299.676 355.516 297.565 355.516 295.876C355.516 293.342 355.516 290.386 355.516 287.852C355.516 285.318 355.516 282.362 355.516 279.829C355.516 274.339 359.317 270.116 364.384 270.116C369.03 269.694 373.252 273.917 373.675 279.406Z" fill="#E59A51"/>
<path opacity="0.8" d="M373.675 279.406C373.675 280.251 373.675 281.518 373.252 282.362C372.408 284.896 371.986 287.43 371.563 289.964C371.141 292.497 370.296 295.031 369.874 297.565C369.452 300.521 368.607 303.055 368.185 306.011C362.273 305.588 358.472 303.477 355.516 301.365C355.516 299.676 355.516 297.565 355.516 295.876C355.516 293.342 355.516 290.386 355.516 287.852C355.516 285.318 355.516 282.362 355.516 279.829C355.516 274.339 359.317 270.116 364.384 270.116C369.03 269.694 373.252 273.917 373.675 279.406Z" fill="#E59A51"/>
<path d="M279.926 231.266L271.903 242.245C271.058 239.711 270.214 236.755 268.947 234.222C268.102 232.532 267.68 231.266 266.413 229.999C264.724 227.887 263.457 226.198 262.19 223.664C260.923 221.553 259.656 219.019 259.234 216.063C258.812 213.107 259.234 209.729 260.501 207.617C261.346 206.35 262.19 205.506 263.035 204.661C264.302 203.817 265.568 203.394 266.835 203.817C269.369 204.239 271.481 205.928 272.747 207.617C273.592 208.462 274.014 209.729 274.437 210.573C274.859 211.418 275.281 212.685 274.859 213.952C274.859 212.685 274.437 211.84 273.592 210.996C272.747 210.151 272.325 209.306 271.481 208.462C269.791 207.195 268.102 206.35 266.413 206.35C264.724 206.35 263.879 208.04 263.035 209.729C262.19 211.418 262.612 213.107 263.035 214.796C264.302 218.175 267.258 221.131 270.636 224.087C272.325 225.776 274.014 227.465 275.281 228.732C277.393 229.576 278.659 230.421 279.926 231.266Z" fill="#E59A51"/>
<path d="M287.95 263.36C288.372 263.782 288.794 264.204 289.217 264.627C290.061 265.471 290.484 266.316 290.906 267.583C291.75 269.694 292.595 271.806 292.595 273.917C292.595 275.184 292.173 276.451 292.173 277.718C291.75 278.984 291.328 280.251 290.484 281.518C289.217 284.052 287.105 287.008 284.994 289.542L283.727 290.809C282.882 291.653 282.46 292.498 282.46 293.342V297.565C282.46 298.832 282.46 300.521 282.46 301.788C282.46 303.055 282.882 304.744 282.882 306.433C282.882 307.278 283.305 308.123 283.305 308.967C283.305 309.389 283.727 309.812 283.727 310.234C283.727 310.656 283.727 310.656 284.149 311.079C284.149 311.501 284.149 311.501 284.994 312.345C285.838 313.19 287.105 314.035 288.794 314.457C290.906 314.879 293.862 314.879 295.129 313.612C297.24 311.501 295.129 308.545 293.017 306.011C293.017 306.011 293.017 303.055 293.017 302.21C293.017 301.366 293.44 300.944 293.44 300.099C295.551 298.41 298.085 296.721 300.196 294.609C301.041 293.765 301.463 293.342 302.308 292.498C303.997 290.809 305.264 288.697 306.531 286.586C307.798 284.474 309.064 281.941 309.909 278.984C310.754 276.451 311.176 273.495 311.176 270.539L287.95 263.36Z" fill="#E59A51"/>
<path opacity="0.58" d="M279.926 231.266L271.903 242.245C271.058 239.711 271.058 238.444 269.791 235.911C271.481 233.799 274.859 230.843 278.237 229.999C279.082 230.843 278.66 230.421 279.926 231.266Z" fill="#E59A51"/>
<path opacity="0.8" d="M311.176 269.694C311.176 272.65 310.754 275.606 309.909 278.139C309.064 280.673 307.798 283.207 306.531 285.741C305.264 287.852 303.575 289.964 302.308 291.653C301.463 292.497 301.041 293.342 300.196 293.764C295.973 292.92 295.129 288.274 292.173 289.541C290.061 290.386 287.105 290.808 285.838 301.788C284.572 312.345 288.372 314.034 288.372 314.034C286.683 313.612 285.416 312.767 284.572 311.923C284.149 311.078 284.149 311.078 283.727 310.656C283.727 310.234 283.305 310.234 283.305 309.811C283.305 309.389 282.882 308.967 282.882 308.544C282.46 307.7 282.46 306.855 282.46 306.011C282.038 304.321 282.038 303.055 282.038 301.365C282.038 300.099 282.038 298.409 282.038 297.143V292.92C282.038 292.075 282.46 290.808 283.305 290.386L284.572 289.119C286.683 286.585 288.794 284.052 290.061 281.096C290.906 279.829 291.328 278.562 291.75 277.295C292.173 276.028 292.173 274.761 292.173 273.494C292.173 271.383 291.75 269.271 290.484 267.16C290.061 266.315 289.217 265.048 288.794 264.204C288.372 263.782 287.95 263.359 287.528 262.937L311.176 269.694Z" fill="#E59A51"/>
<path d="M376.208 278.14C376.208 278.562 375.786 279.407 375.786 279.829C372.83 287.853 366.496 294.187 355.939 295.032C314.554 298.832 313.287 302.21 299.774 285.741C284.149 278.14 279.926 281.096 274.859 275.606C267.68 267.583 263.879 262.515 264.724 252.803C265.146 245.624 268.525 238.867 274.859 234.222C276.548 232.955 278.237 231.688 280.349 230.843C302.73 217.752 328.067 242.245 352.138 232.955C357.205 230.843 361.851 238.867 366.496 240.978C369.03 242.245 371.141 244.357 373.252 247.313C373.675 247.735 373.675 248.157 374.097 248.58C377.475 256.603 378.742 268.427 376.208 278.14Z" fill="#E59A51"/>
<path opacity="0.58" d="M355.939 295.031C314.554 298.832 313.287 302.21 299.774 285.741C283.305 278.14 279.926 281.096 274.859 275.606C267.68 267.583 263.879 262.515 264.724 252.802C265.568 276.451 288.794 268.005 292.595 273.495C296.396 278.984 312.02 280.674 320.044 284.052C328.49 287.008 349.604 283.207 349.604 288.275C349.604 292.92 355.939 295.031 355.939 295.031Z" fill="#E59A51"/>
<path opacity="0.8" d="M376.208 278.14C370.296 277.295 359.739 269.272 359.317 266.738C355.516 268.427 347.493 266.316 348.76 253.225C349.604 243.934 364.384 246.046 372.408 247.735C372.83 248.157 372.83 248.58 373.252 249.002C377.475 256.603 378.742 268.427 376.208 278.14Z" fill="#E59A51"/>
<path d="M403.235 268.427C403.235 268.849 402.813 269.694 402.391 270.116C401.546 271.805 399.857 273.072 398.168 273.917C385.921 278.562 371.563 268.427 365.229 265.893C360.584 264.204 356.361 260.404 354.249 255.758C348.76 244.779 345.804 238.444 353.827 230.421C363.962 220.708 372.408 219.864 379.587 223.242C388.877 227.465 394.789 233.377 394.789 240.556C394.789 240.978 394.789 241.401 394.789 241.823V242.245C394.789 242.667 394.789 242.667 394.789 243.09C394.789 243.934 394.789 244.779 395.212 245.623C395.212 246.046 395.634 246.468 395.634 246.89C398.59 253.647 401.124 257.025 402.813 259.981C404.08 262.515 404.502 264.626 403.235 268.427Z" fill="#E59A51"/>
<path d="M375.364 236.333C374.942 237.178 374.519 238.022 374.097 238.867C371.986 245.201 362.695 269.694 353.405 265.471C342.848 260.826 350.449 230.843 367.34 227.887C380.854 225.776 377.053 233.377 375.364 236.333Z" fill="#E7B54F"/>
<path d="M279.926 241.401C272.325 242.245 266.413 249.424 267.258 258.292C267.258 258.292 267.258 258.714 267.68 259.137L268.102 260.404C268.102 261.248 268.525 262.093 268.525 262.515C268.947 264.204 268.947 265.471 269.369 267.16C269.791 270.539 269.791 273.495 269.369 276.451C269.369 279.407 268.525 282.363 267.68 285.319C266.835 287.853 265.569 290.386 263.457 292.498L261.346 294.609C260.501 295.454 260.079 296.721 260.501 297.987C260.923 301.788 261.768 305.589 262.612 309.389L263.879 314.879C264.302 316.568 265.146 322.48 267.68 324.592C270.636 327.125 274.014 327.548 278.237 326.281C280.349 325.436 282.46 321.636 276.548 316.991C275.703 316.146 274.859 313.19 274.437 311.501C274.014 309.812 273.592 308.545 273.592 306.856C273.17 305.166 273.17 303.9 273.17 302.21C276.126 300.099 279.082 297.987 281.193 295.031C284.149 291.231 286.683 287.008 288.372 282.785C290.484 278.562 291.751 273.917 293.017 269.694C293.44 267.583 293.862 265.049 294.284 262.937C294.284 261.67 294.707 260.826 294.707 259.559V257.87C294.707 257.025 294.707 256.603 294.707 255.758C294.284 246.89 287.528 240.556 279.926 241.401Z" fill="#E59A51"/>
<path d="M350.449 280.674C349.182 275.606 344.114 272.65 339.469 273.917C334.824 275.606 330.179 277.295 325.956 278.984L322.578 280.251L320.466 280.674L319.199 281.096C318.355 281.518 317.932 281.518 317.088 282.363C315.821 283.207 314.132 284.896 313.287 286.586C312.443 288.275 312.02 289.964 312.02 291.231C311.598 293.765 312.02 295.876 312.443 297.565C312.865 300.943 314.132 303.477 314.976 306.011C315.821 308.545 316.666 311.078 317.933 313.19C318.777 315.724 319.622 317.835 320.466 319.947C320.889 320.791 321.311 322.058 321.733 322.903H320.466C319.199 322.48 317.51 321.636 316.666 322.903C314.554 324.592 314.132 327.97 315.821 330.081C316.666 331.348 317.933 332.615 319.622 333.46C321.311 334.304 323.422 334.304 324.689 333.882C326.378 333.46 327.223 333.038 328.49 332.615C328.912 332.193 329.334 332.193 329.757 331.771C330.179 331.348 330.601 331.348 331.446 330.504C332.29 329.659 333.135 327.97 333.135 326.281V325.859C333.135 322.058 332.713 319.102 331.868 316.568C331.023 313.612 330.601 311.078 329.757 308.545C328.912 306.011 328.49 303.477 327.645 301.366C327.223 299.677 326.801 297.565 326.378 295.876L329.757 295.454C334.402 294.609 339.047 293.765 343.27 293.342C343.692 293.342 350.449 292.075 350.871 291.653C355.516 289.964 351.716 285.741 350.449 280.674Z" fill="#E59A51"/>
<path opacity="0.8" d="M320.888 322.903C320.888 322.903 320.466 324.592 321.733 326.281C323 327.97 322.578 327.125 320.888 322.903Z" fill="#E59A51"/>
<path d="M380.431 249.002C382.064 249.002 383.388 248.245 383.388 247.312C383.388 246.38 382.064 245.623 380.431 245.623C378.799 245.623 377.475 246.38 377.475 247.312C377.475 248.245 378.799 249.002 380.431 249.002Z" fill="#132541"/>
<path d="M395.212 246.046C394.789 246.046 394.367 245.623 393.945 245.201C393.945 244.779 393.945 243.934 394.789 243.512C394.789 244.356 395.212 245.201 395.212 246.046Z" fill="#132541"/>
<path d="M403.235 268.427C403.235 268.849 402.813 269.694 402.39 270.116C401.546 270.116 400.701 269.694 400.279 269.694C398.59 268.849 395.634 263.782 397.323 262.093C398.59 260.826 400.701 260.403 402.813 260.403C404.08 262.515 404.502 264.626 403.235 268.427Z" fill="#132541"/>
<path d="M396.901 274.761C391.411 274.339 385.921 273.495 381.698 270.116C383.81 271.383 386.766 272.228 389.3 273.072C391.833 273.495 394.367 273.917 397.323 273.917L396.901 274.761Z" fill="#132541"/>
<path opacity="0.8" d="M383.81 245.201C383.81 245.201 378.32 240.134 375.364 246.89C379.587 244.356 383.81 245.201 383.81 245.201Z" fill="#E59A51"/>
<path opacity="0.8" d="M394.789 240.978C394.789 241.4 394.789 241.823 394.789 242.245V242.667C394.367 243.09 393.945 243.09 393.522 243.512C393.945 242.245 394.367 241.4 394.789 240.978Z" fill="#E59A51"/>
<path d="M155.351 139.206C154.084 146.808 157.884 155.253 157.04 157.787C156.618 159.899 156.195 159.476 154.928 158.632C154.084 158.209 152.395 157.787 149.861 158.209C146.483 158.632 144.793 159.054 143.527 158.632C143.104 158.632 143.104 159.054 143.104 158.632C142.682 156.098 144.793 150.186 144.793 146.385C144.793 143.852 145.216 136.673 145.216 136.673C145.216 136.673 156.618 133.717 155.351 139.206Z" fill="#F4AE8C"/>
<path d="M147.749 149.763C146.483 151.03 145.216 152.297 143.949 153.564C143.527 153.986 143.527 154.409 143.104 154.409V153.986C143.104 153.986 143.104 154.409 143.104 154.831C143.104 156.098 142.682 156.942 142.26 158.209C141.837 158.632 141.415 159.054 140.57 159.054C140.148 158.632 139.726 158.209 139.726 157.787C139.726 156.942 140.148 156.098 139.726 155.676C139.726 155.253 139.726 155.676 139.726 155.253C139.726 154.831 139.726 154.831 139.726 154.409V153.986C139.726 153.564 139.726 153.564 139.726 153.564C140.148 153.142 140.148 152.719 140.57 152.297C141.415 150.608 142.682 148.919 143.949 147.23C144.793 146.385 146.06 145.963 146.905 146.807C148.594 146.807 149.016 148.074 147.749 149.763C148.172 149.341 148.172 149.341 147.749 149.763Z" fill="#F4AE8C"/>
<path d="M70.8926 298.41C70.0481 297.988 69.2035 297.988 67.9366 297.988C83.1391 288.275 133.392 206.773 142.682 159.054V158.632C142.682 158.21 146.06 151.875 150.705 151.875C153.239 151.875 155.773 153.564 157.884 157.365C163.796 167.922 168.019 202.128 165.063 213.53C164.641 215.641 163.797 217.33 162.53 217.753C161.263 218.597 157.462 220.286 154.928 218.175C151.972 216.063 151.128 210.996 151.55 202.128C151.972 197.06 152.395 191.993 153.239 187.348C154.928 175.101 156.195 164.966 149.439 157.365L151.128 155.676C158.729 164.122 157.04 175.101 155.351 187.77C154.506 192.415 154.084 197.483 153.662 202.55C153.239 212.263 154.928 215.219 156.195 216.486C157.462 217.33 159.151 217.33 161.685 215.641C162.107 215.641 162.53 214.796 162.952 212.685C165.908 201.705 161.685 167.922 156.195 158.21C154.506 155.254 152.817 153.564 151.128 153.564C148.172 153.564 145.638 157.365 144.793 159.054C135.081 208.04 86.0951 288.697 70.8926 298.41Z" fill="#605B55"/>
<path d="M153.239 263.359C153.239 262.937 149.016 240.134 146.06 213.107C145.638 213.529 144.793 213.529 144.793 213.529C140.571 212.685 140.571 181.857 141.415 172.145C142.682 153.564 146.905 153.142 148.172 153.142V154.409C149.861 153.986 151.55 153.986 154.084 154.831C162.53 157.365 151.55 199.594 151.55 200.016C150.283 204.661 149.439 208.039 148.594 210.151C151.55 238.444 155.773 262.937 156.195 263.359H153.239ZM143.527 171.3C142.26 186.08 143.527 206.35 145.216 210.995C145.216 210.573 145.638 210.151 145.638 209.729C144.371 197.06 143.527 183.547 143.527 171.3ZM149.861 156.098C149.016 156.098 148.172 156.098 147.327 156.52C146.06 157.365 145.638 158.631 145.638 158.631C144.793 172.145 145.638 188.614 147.327 204.239C151.128 191.992 155.773 167.922 154.084 159.054C153.662 156.942 153.239 156.52 152.817 156.52C151.972 156.52 150.706 156.098 149.861 156.098Z" fill="#ABC5D3"/>
<path opacity="0.46" d="M154.928 157.787C154.084 157.365 152.395 156.52 149.861 156.943C146.483 157.365 144.371 159.477 143.527 159.477C143.527 159.054 143.104 159.054 143.527 158.632C143.527 158.632 144.371 150.608 147.749 149.764C149.861 149.342 153.662 149.764 154.506 151.031C154.506 151.031 155.351 154.831 154.928 157.787Z" fill="#F4AE8C"/>
<path d="M142.682 159.054C143.104 156.52 143.527 153.986 145.216 151.453C145.638 151.03 146.06 150.608 146.905 151.03C147.327 151.453 147.75 151.875 147.327 152.297C146.905 153.986 146.905 156.52 146.905 158.632C146.905 159.898 146.06 160.743 145.216 160.743C143.949 160.743 143.104 159.898 143.104 159.054C142.682 159.054 142.682 159.054 142.682 159.054Z" fill="#F4AE8C"/>
<path d="M146.483 159.054L147.327 153.142C147.327 152.298 148.172 151.875 149.016 151.875C149.861 151.875 150.283 152.298 150.283 153.142L151.128 159.054C151.128 160.321 150.283 161.166 149.016 161.588C147.75 161.588 146.905 160.743 146.483 159.476C146.483 159.476 146.483 159.054 146.483 159.054Z" fill="#F4AE8C"/>
<path d="M150.283 159.054V156.098C150.283 155.254 150.283 153.987 149.861 153.564C149.861 152.72 150.283 151.875 151.128 151.875C151.972 151.875 152.817 152.298 152.817 153.142C153.239 154.409 153.239 155.254 153.662 156.52L154.084 159.476C154.084 160.743 153.662 161.588 152.395 161.588C151.55 161.166 150.705 160.321 150.283 159.054Z" fill="#F4AE8C"/>
<path d="M154.506 158.209C154.506 156.942 154.506 155.253 154.084 154.409C154.084 153.986 154.084 153.142 154.928 153.142C155.351 153.142 156.195 153.142 156.195 153.564C157.04 155.253 157.462 156.52 157.884 158.209C157.884 159.054 157.462 159.898 156.618 159.898C155.351 159.898 154.506 159.476 154.506 158.209C154.506 158.631 154.506 158.631 154.506 158.209Z" fill="#F4AE8C"/>
<path d="M269.791 149.763C269.369 149.763 269.791 152.297 269.369 152.719C268.102 154.408 267.68 155.253 265.991 157.787C265.568 158.209 265.991 159.054 263.035 158.631C261.346 158.209 257.967 158.209 256.7 153.564C256.278 152.297 255.433 151.03 254.589 149.763C252.477 147.23 250.788 146.807 250.788 146.807L257.123 140.473C257.123 140.473 260.079 145.54 264.724 146.807C264.724 147.23 265.991 148.074 269.791 149.763Z" fill="#F4AE8C"/>
<path d="M260.501 143.852L265.991 144.274C266.835 144.274 267.68 144.274 268.947 144.696C269.369 144.696 269.369 144.696 269.791 145.118C270.214 145.118 270.636 145.963 270.636 145.963C270.636 146.385 270.636 146.385 271.058 146.385C271.481 146.808 271.903 147.23 271.481 148.074C271.058 148.497 270.636 148.497 270.214 148.497C269.791 148.497 268.947 147.652 268.524 147.23C268.524 147.23 268.524 147.23 268.102 147.23C267.258 147.23 266.413 147.23 265.568 147.23L260.079 147.652C258.812 147.652 257.967 146.808 257.967 145.963C257.967 145.118 258.812 143.852 260.501 143.852C260.079 143.429 260.079 143.852 260.501 143.852Z" fill="#F4AE8C"/>
<path d="M349.182 237.178C315.821 213.107 289.639 185.658 271.48 155.676C269.791 153.142 267.68 150.186 265.568 150.608C264.302 151.031 263.457 152.297 262.612 154.409L263.879 154.831C263.879 154.831 257.967 174.256 263.879 194.949C264.724 197.905 263.879 199.172 263.457 200.016C262.612 200.861 261.768 200.861 260.501 200.438C257.967 199.172 255.433 195.371 255.011 189.459C254.589 182.702 256.7 151.453 265.146 148.919C267.68 148.074 270.636 150.186 273.592 154.831C291.75 184.814 317.51 211.84 350.871 235.911L349.182 237.178ZM259.656 163.277C257.967 172.145 256.7 183.125 257.123 189.037C257.123 194.104 259.656 197.06 261.345 197.905C261.768 197.905 261.768 197.905 261.768 197.905C261.768 197.905 262.19 197.06 261.768 195.371C257.967 182.702 258.389 170.878 259.656 163.277Z" fill="#5B124B"/>
<path opacity="0.66" d="M268.524 152.297C266.413 153.564 264.724 155.675 263.035 157.787C261.768 157.365 259.656 156.52 259.234 155.675C258.812 154.408 257.967 151.03 259.234 150.608C260.501 150.186 263.879 148.074 265.568 148.496C267.258 148.496 268.102 151.452 268.102 151.452C268.102 151.452 268.524 151.875 268.524 152.297Z" fill="#F4AE8C"/>
<path d="M266.835 148.919C267.68 149.341 268.524 150.186 268.947 150.186C269.791 150.186 271.058 150.608 271.058 151.875C271.058 152.719 270.636 153.986 269.369 153.986C268.947 153.986 268.524 153.986 268.102 153.986L267.68 153.142C265.991 152.297 265.568 151.453 265.146 150.186C264.724 149.763 265.146 148.919 265.568 148.497C265.991 148.497 266.413 148.497 266.835 148.919Z" fill="#F4AE8C"/>
<path d="M266.835 155.675C265.991 155.253 265.569 154.408 264.724 153.986C263.879 153.142 263.457 152.719 262.612 151.452C262.19 151.03 262.612 150.186 263.035 149.763C263.457 149.341 263.879 149.763 264.302 150.186V150.608C264.724 151.03 265.146 151.452 265.991 151.875C266.835 152.297 267.258 152.719 268.102 153.142C268.947 153.564 268.947 154.408 268.525 155.253C268.947 156.098 267.68 156.52 266.835 155.675C266.835 156.098 266.835 155.675 266.835 155.675Z" fill="#F4AE8C"/>
<path d="M265.146 157.365L261.768 153.987C261.346 153.564 261.346 152.72 261.768 152.298C262.19 151.875 262.612 151.875 263.035 152.298L266.835 155.254C267.68 155.676 267.68 156.52 267.258 157.365C266.835 158.21 265.991 158.21 265.146 157.365C265.146 157.787 265.146 157.787 265.146 157.365Z" fill="#F4AE8C"/>
<path d="M263.879 159.476C263.457 159.476 263.457 159.476 263.457 159.476C263.457 159.476 261.346 158.209 260.501 156.943C260.079 156.52 260.501 155.676 260.923 155.253C261.346 154.831 262.19 155.253 262.612 155.676C263.035 156.52 264.302 157.365 264.724 157.787C265.146 158.209 265.569 158.632 265.146 159.476C264.724 159.054 264.302 159.476 263.879 159.476Z" fill="#F4AE8C"/>
<path d="M235.586 331.77C235.586 332.193 235.164 332.615 235.164 333.037C233.474 335.149 227.985 336.838 225.873 335.993C224.184 335.571 217.005 333.037 217.427 325.858C215.738 325.014 209.826 323.747 209.404 322.902C206.448 320.369 206.448 317.835 207.292 314.879C208.559 311.923 210.248 308.967 211.938 305.166C212.36 304.322 212.782 303.055 212.782 302.21C215.738 300.943 219.961 299.676 222.495 299.254C224.184 298.832 225.029 298.832 225.029 298.832C225.029 298.832 225.029 299.254 225.029 299.676C225.451 301.788 226.295 308.544 227.14 312.767C227.14 313.612 227.562 314.457 227.985 315.301C228.407 316.568 228.829 318.257 229.252 319.524C230.096 321.635 231.363 323.747 232.63 325.436C234.741 327.548 236.008 329.659 235.586 331.77Z" fill="#E7B54F"/>
<path opacity="0.35" d="M211.938 305.166C211.938 306.855 213.204 308.544 216.583 310.656C222.917 314.456 225.873 319.102 229.251 319.524C228.829 318.257 228.407 316.568 227.985 315.301C227.562 314.456 227.562 313.612 227.14 312.767C226.295 308.544 225.451 301.788 225.029 299.676L222.495 299.254C219.961 299.676 215.738 300.943 212.782 302.21L211.938 305.166Z" fill="#E7B54F"/>
<path d="M235.586 331.771C235.586 332.193 235.164 332.615 235.164 333.037C233.474 335.149 227.985 336.838 225.873 335.993C224.184 335.571 217.005 333.037 217.427 325.858C215.738 325.014 209.826 323.747 209.404 322.902C206.448 320.369 206.448 317.835 207.292 314.879C208.137 316.146 209.826 319.524 214.471 321.213C217.85 322.48 217.85 322.902 217.85 323.325C217.85 324.169 220.383 333.037 226.295 334.304C229.674 334.304 232.63 329.659 233.897 330.081C235.164 330.504 234.741 330.926 235.586 331.771Z" fill="#E59A51"/>
<path d="M210.671 334.304C210.671 335.571 209.826 336.416 208.982 336.416H192.09C191.245 336.416 190.401 335.571 190.401 334.727C190.401 334.304 190.401 334.305 190.401 333.882C189.978 326.703 192.09 322.903 192.512 319.102C192.934 317.413 192.934 316.146 192.512 314.035C192.09 311.501 193.357 309.389 195.046 308.122C195.468 307.7 195.891 307.7 196.313 307.278C198.424 306.433 200.536 306.433 202.225 306.433C204.336 306.856 206.025 308.122 205.603 310.234C205.181 312.768 205.603 314.879 206.025 317.413C208.137 322.48 210.671 326.703 210.671 334.304Z" fill="#E7B54F"/>
<path d="M210.671 334.305C210.671 335.571 209.826 336.416 208.982 336.416H192.09C191.245 336.416 190.401 335.571 190.401 334.727C190.401 334.305 190.401 334.305 190.401 333.882C192.09 333.46 194.201 333.038 196.313 331.349C201.38 327.126 203.492 330.926 206.026 332.615C207.292 333.46 208.982 333.882 210.671 334.305Z" fill="#E59A51"/>
<path opacity="0.35" d="M206.87 317.835C204.336 319.524 201.803 319.524 197.158 319.946C195.046 319.946 193.779 319.946 192.935 319.524C193.357 317.835 193.357 316.568 192.935 314.457C192.512 311.923 193.779 309.812 195.468 308.545C195.891 308.122 196.313 308.122 196.735 307.7C198.847 306.855 200.958 306.855 202.647 306.855C203.914 307.7 205.181 308.967 206.026 310.656C206.026 313.19 206.448 315.301 206.87 317.835Z" fill="#E7B54F"/>
<path d="M198.002 47.5691C198.002 47.5691 182.8 28.1438 194.624 12.0967C206.448 -3.9503 230.096 9.56299 226.296 23.0763C222.495 36.1673 198.002 47.5691 198.002 47.5691Z" fill="#E7B54F"/>
<path d="M182.8 54.7482C182.8 54.7482 185.756 51.7921 189.556 49.6807C191.245 48.4138 193.357 47.5692 195.046 47.147C199.691 45.8801 213.205 47.5692 220.806 52.2144C222.073 53.059 223.339 53.9036 224.184 55.1705C228.829 61.5048 182.8 54.7482 182.8 54.7482Z" fill="#D86F70"/>
<path d="M252.477 149.764C251.633 149.341 250.366 148.075 248.677 146.808C245.298 143.852 240.653 139.629 238.964 137.94C236.853 135.828 230.518 126.115 229.251 123.582C229.251 123.159 227.985 121.893 227.985 121.893C227.985 121.47 226.718 118.514 226.718 118.514C226.295 117.247 225.873 116.403 225.873 115.136C225.451 113.869 224.606 91.91 225.028 75.4406C225.451 65.3057 226.295 56.8599 228.829 56.8599C236.008 56.8599 236.008 68.684 237.697 85.9979C237.697 85.9979 241.076 114.291 241.076 114.714C241.076 114.714 244.032 118.937 245.721 121.048C246.988 123.159 258.389 140.473 258.389 140.473C260.923 142.162 255.011 151.453 252.477 149.764Z" fill="#D86F70"/>
<path opacity="0.73" d="M248.677 146.808C245.298 143.852 240.653 139.629 238.964 137.94C236.853 135.828 230.518 126.115 229.251 123.582C229.251 123.159 227.985 121.893 227.985 121.893C227.985 121.47 226.718 118.514 226.718 118.514C226.295 117.247 225.873 116.403 225.873 115.136C225.451 113.869 224.606 91.9099 225.028 75.4406L228.829 69.9508C228.829 69.9508 232.207 103.734 234.319 115.558C234.741 118.514 235.163 121.47 235.163 124.426C236.008 129.071 237.697 134.561 248.677 146.808Z" fill="#D86F70"/>
<path d="M209.404 241.4C208.137 249.846 208.559 276.873 208.137 297.565C208.137 303.899 207.715 309.811 207.292 314.457C204.759 317.835 193.357 319.102 192.935 316.146C187.867 295.453 189.134 268.427 185.756 243.089C184.911 236.755 184.911 237.177 183.644 228.309C181.11 210.995 176.465 177.634 175.198 168.344C175.198 166.655 174.776 165.81 174.776 165.81C174.354 161.165 175.198 156.942 176.043 153.986C180.688 138.784 197.58 140.895 203.914 153.564C204.336 154.831 204.759 155.675 205.181 157.365C205.603 159.054 206.026 160.743 206.026 162.432L206.448 175.945L206.87 183.124L207.715 201.283L208.982 236.755C208.982 238.444 209.404 239.711 209.404 241.4Z" fill="#FF4C00"/>
<path d="M238.542 237.178C238.542 237.6 238.542 237.6 238.542 239.289C236.853 249.846 233.897 289.964 227.14 305.166C226.718 306.011 224.606 305.589 223.762 306.011C219.961 306.855 211.093 304.322 211.515 302.633C211.938 281.096 218.272 237.178 218.272 236.755C217.427 226.62 214.894 213.529 211.938 202.55C210.248 196.215 208.982 189.459 207.715 183.124C207.292 180.591 206.87 178.479 206.448 175.946C205.603 169.611 204.759 163.699 204.759 157.365V156.942C205.181 155.676 205.603 154.831 206.025 153.564C211.938 140.473 230.941 136.25 234.741 153.142C235.164 155.676 235.586 158.209 235.586 161.588C235.586 162.855 235.586 164.121 235.586 165.811C236.853 188.192 238.542 214.796 238.542 237.178Z" fill="#FF4D00"/>
<path opacity="0.39" d="M236.008 165.81C234.319 167.922 231.363 169.611 227.562 170.033C214.471 171.722 209.404 179.746 207.292 179.746C206.87 177.212 206.87 178.057 206.448 175.945V179.746C204.336 179.746 202.225 181.435 192.512 179.746C181.533 177.635 174.776 168.344 174.776 168.344C174.776 166.655 174.354 165.81 174.354 165.81C173.931 161.165 174.776 156.942 175.621 153.986L203.492 153.564H206.025L234.741 153.142C235.164 155.675 235.586 158.209 235.586 161.588C235.586 163.277 236.008 164.544 236.008 165.81Z" fill="#132541"/>
<path d="M236.008 154.409L235.586 160.321C235.586 160.321 234.741 161.588 233.897 162.01L233.474 162.432C233.052 162.855 232.63 162.855 232.207 163.277L231.785 163.699C231.363 164.121 231.363 164.121 230.941 164.544L230.518 164.966C230.096 164.966 230.096 165.388 229.674 165.388C229.674 165.388 229.674 165.388 229.251 165.388H228.829C228.407 165.388 227.985 165.811 227.985 165.811C227.985 165.811 227.562 165.811 227.562 166.233C227.14 166.233 226.718 166.655 226.295 166.655C226.295 166.655 225.873 166.655 225.873 167.078C225.451 167.078 225.029 167.5 224.606 167.5H224.184C223.762 167.5 223.339 167.922 222.917 167.922H222.495C222.073 167.922 222.073 167.922 221.65 168.344C221.65 168.344 221.65 168.344 221.228 168.344C220.806 168.344 220.383 168.767 219.961 168.767H219.539C219.116 168.767 218.694 168.767 218.272 169.189H217.85C217.427 169.189 217.005 169.189 216.16 169.611H215.738C215.316 169.611 214.894 169.611 214.894 169.611H214.471C214.049 169.611 214.049 169.611 214.049 169.611H213.627C213.204 169.611 212.36 169.611 211.938 170.034H211.515C211.093 170.034 210.671 170.034 210.248 170.034H209.826C209.404 170.034 208.559 170.034 208.137 170.034H207.715C207.292 170.034 206.87 170.034 206.448 170.034H206.026C205.603 170.034 205.181 170.034 204.336 170.034H203.914C203.492 170.034 203.069 170.034 203.069 170.034H202.647C202.225 170.034 202.225 170.034 201.803 170.034H201.38C200.958 170.034 200.536 170.034 200.113 170.034H199.691C199.269 170.034 198.847 170.034 198.424 170.034C198.002 170.034 198.002 170.034 198.002 170.034H196.735H196.313H194.624C194.201 170.034 193.779 170.034 193.357 170.034C192.935 170.034 192.934 170.034 192.934 170.034C192.512 170.034 191.668 170.034 191.245 170.034C190.823 170.034 190.823 170.034 190.823 170.034C190.401 170.034 189.978 170.034 189.556 170.034H189.134C188.712 170.034 188.289 170.034 187.867 169.611C187.445 169.611 187.445 169.611 187.445 169.611C187.022 169.611 186.6 169.611 186.178 169.189C185.756 169.189 185.756 169.189 185.756 169.189C185.333 169.189 184.911 169.189 184.489 168.767C184.066 168.767 184.066 168.767 184.066 168.767C183.644 168.767 183.222 168.344 182.8 168.344C182.377 168.344 182.377 168.344 182.377 167.922C181.955 167.922 181.955 167.5 181.533 167.5C181.11 167.5 181.11 167.078 181.11 167.078C180.688 167.078 180.688 166.655 180.266 166.655C179.844 166.655 179.844 166.233 179.844 166.233C179.421 165.811 178.999 165.388 178.577 164.966L178.154 164.544C178.154 163.277 177.732 159.054 177.732 159.054L236.008 154.409Z" fill="#D86F70"/>
<path opacity="0.44" d="M236.008 154.409L235.586 160.321C235.586 160.321 234.741 161.588 233.897 162.01L233.474 162.432C233.052 162.855 232.63 162.855 232.207 163.277L231.785 163.699C231.363 164.121 231.363 164.121 230.941 164.544L230.518 164.966C230.096 164.966 230.096 165.388 229.674 165.388C229.674 165.388 229.674 165.388 229.251 165.388H228.829C228.407 165.388 227.985 165.811 227.985 165.811C227.985 165.811 227.562 165.811 227.562 166.233C227.14 166.233 226.718 166.655 226.295 166.655C226.295 166.655 225.873 166.655 225.873 167.078C225.451 167.078 225.029 167.5 224.606 167.5H224.184C223.762 167.5 223.339 167.922 222.917 167.922H222.495C222.073 167.922 222.073 167.922 221.65 168.344C221.65 168.344 221.65 168.344 221.228 168.344C220.806 168.344 220.383 168.767 219.961 168.767H219.539C219.116 168.767 218.694 168.767 218.272 169.189H217.85C217.427 169.189 217.005 169.189 216.16 169.611H215.738C215.316 169.611 214.894 169.611 214.894 169.611H214.471C214.049 169.611 214.049 169.611 214.049 169.611H213.627C213.204 169.611 212.36 169.611 211.938 170.034H211.515C211.093 170.034 210.671 170.034 210.248 170.034H209.826C209.404 170.034 208.559 170.034 208.137 170.034H207.715C207.292 170.034 206.87 170.034 206.448 170.034H206.026C205.603 170.034 205.181 170.034 204.336 170.034H203.914C203.492 170.034 203.069 170.034 203.069 170.034H202.647C202.225 170.034 202.225 170.034 201.803 170.034H201.38C200.958 170.034 200.536 170.034 200.113 170.034H199.691C199.269 170.034 198.847 170.034 198.424 170.034C198.002 170.034 198.002 170.034 198.002 170.034H196.735H196.313H194.624C194.201 170.034 193.779 170.034 193.357 170.034C192.935 170.034 192.934 170.034 192.934 170.034C192.512 170.034 191.668 170.034 191.245 170.034C190.823 170.034 190.823 170.034 190.823 170.034C190.401 170.034 189.978 170.034 189.556 170.034H189.134C188.712 170.034 188.289 170.034 187.867 169.611C187.445 169.611 187.445 169.611 187.445 169.611C187.022 169.611 186.6 169.611 186.178 169.189C185.756 169.189 185.756 169.189 185.756 169.189C185.333 169.189 184.911 169.189 184.489 168.767C184.066 168.767 184.066 168.767 184.066 168.767C183.644 168.767 183.222 168.344 182.8 168.344C182.377 168.344 182.377 168.344 182.377 167.922C181.955 167.922 181.955 167.5 181.533 167.5C181.11 167.5 181.11 167.078 181.11 167.078C180.688 167.078 180.688 166.655 180.266 166.655C179.844 166.655 179.844 166.233 179.844 166.233C179.421 165.811 178.999 165.388 178.577 164.966L178.154 164.544C178.154 163.277 177.732 159.054 177.732 159.054L236.008 154.409Z" fill="#D86F70"/>
<path opacity="0.73" d="M182.8 54.7481C182.8 54.7481 185.756 51.7921 189.556 49.6807C190.823 50.9475 193.357 52.2144 196.313 53.059C201.803 54.7481 214.049 54.3259 220.806 51.7921C222.073 52.6367 223.339 53.4813 224.184 54.7481C228.829 61.5048 182.8 54.7481 182.8 54.7481Z" fill="#D86F70"/>
<path d="M234.319 162.01L233.897 156.52H233.052L233.474 162.432L234.319 162.01Z" fill="#5B124B"/>
<path d="M232.208 163.699L231.785 158.21L232.63 157.787V163.277L232.208 163.699Z" fill="#5B124B"/>
<path d="M231.363 164.121L230.941 164.544L230.518 159.476H230.941L231.363 164.121Z" fill="#5B124B"/>
<path d="M229.674 165.388C229.252 165.388 229.252 165.81 229.252 165.81L228.829 159.476H229.252L229.674 165.388Z" fill="#5B124B"/>
<path d="M228.407 165.811C228.407 165.811 227.985 165.811 227.985 166.233L227.562 160.321H227.985L228.407 165.811Z" fill="#5B124B"/>
<path d="M226.296 166.655C226.296 166.655 225.873 166.655 225.873 167.077L225.451 161.588H225.873L226.296 166.655Z" fill="#5B124B"/>
<path d="M224.606 167.5H224.184L223.34 162.01H223.762L224.606 167.5Z" fill="#5B124B"/>
<path d="M222.917 167.922H222.495L222.073 162.432H222.495L222.917 167.922Z" fill="#5B124B"/>
<path d="M220.806 168.767L220.383 162.432H220.806L221.228 168.344L220.806 168.767Z" fill="#5B124B"/>
<path d="M219.539 168.767H219.117L218.694 162.855H219.117L219.539 168.767Z" fill="#5B124B"/>
<path d="M217.85 169.189H217.427C216.583 163.277 217.005 163.277 217.427 163.277V163.699H217.85C217.427 164.121 217.427 166.655 217.85 169.189Z" fill="#5B124B"/>
<path d="M215.738 169.611H215.316L214.894 164.544H215.316L215.738 169.611Z" fill="#5B124B"/>
<path d="M213.204 170.034H212.782L212.36 164.966H212.782L213.204 170.034Z" fill="#5B124B"/>
<path d="M214.049 170.034H213.627L213.205 164.966H213.627L214.049 170.034Z" fill="#5B124B"/>
<path d="M210.671 170.455H210.248L209.826 165.81H210.248L210.671 170.455Z" fill="#5B124B"/>
<path d="M208.982 170.878H208.559L208.137 166.655H208.559L208.982 170.878Z" fill="#5B124B"/>
<path d="M206.87 170.878H206.448V166.233H206.87V170.878Z" fill="#5B124B"/>
<path d="M205.181 171.3H204.759V167.5H205.181V171.3Z" fill="#5B124B"/>
<path d="M203.07 167.5V171.723H202.647V167.5H203.07Z" fill="#5B124B"/>
<path d="M201.38 167.5V171.3H200.958V167.5H201.38Z" fill="#5B124B"/>
<path d="M199.691 171.722H199.269L198.847 167.922H199.269L199.691 171.722Z" fill="#5B124B"/>
<path d="M198.002 167.5V171.723H197.58V167.5H198.002Z" fill="#5B124B"/>
<path d="M196.313 171.723C195.891 171.723 195.891 171.723 195.891 171.723L195.468 167.5H195.891L196.313 171.723Z" fill="#5B124B"/>
<path d="M194.624 167.5V171.723H194.202V167.5H194.624Z" fill="#5B124B"/>
<path d="M192.935 167.5H192.512V171.723H192.935V167.5Z" fill="#5B124B"/>
<path d="M191.245 167.922V171.722C190.823 171.722 190.823 171.722 190.823 171.722V167.922H191.245Z" fill="#5B124B"/>
<path d="M189.134 171.723C188.712 171.723 188.712 171.723 188.712 171.723L188.289 167.5H188.712L189.134 171.723Z" fill="#5B124B"/>
<path d="M187.445 171.722C187.023 171.722 187.023 171.722 187.023 171.722L186.6 167.922H187.023L187.445 171.722Z" fill="#5B124B"/>
<path d="M185.333 171.3C184.911 171.3 184.911 171.3 184.911 171.3L184.489 167.5H184.911L185.333 171.3Z" fill="#5B124B"/>
<path d="M183.222 166.655V170.878C182.8 170.878 182.8 170.878 182.8 170.878V167.078H183.222V166.655Z" fill="#5B124B"/>
<path d="M181.533 166.233V170.456C181.11 170.456 181.11 170.456 181.11 170.456V166.233H181.533Z" fill="#5B124B"/>
<path d="M179.844 165.388V169.611C179.421 169.611 179.421 169.611 179.421 169.189V164.966H179.844V165.388Z" fill="#5B124B"/>
<path d="M178.999 164.544L178.577 168.767C178.154 168.767 178.154 168.345 178.154 168.345L178.577 164.122L178.999 164.544Z" fill="#5B124B"/>
<path d="M177.31 163.277V167.922C176.888 167.922 176.888 167.5 176.888 167.5V163.277H177.31Z" fill="#5B124B"/>
<path d="M175.621 166.655C175.621 166.655 175.198 166.233 174.776 165.811L174.354 160.743H174.776L175.621 166.655Z" fill="#5B124B"/>
<path d="M236.008 153.564C236.008 162.01 195.468 172.567 179.844 165.811C176.043 164.121 173.931 161.588 173.931 157.787C173.931 156.52 177.31 140.473 178.154 124.426C178.154 122.315 178.577 117.669 178.577 112.18C178.577 111.757 178.577 111.335 178.577 110.491C178.577 110.068 178.577 110.068 178.577 109.646C178.577 105.423 178.999 100.356 178.999 95.2881C178.999 93.5989 178.999 91.4874 178.999 89.376C179.421 77.1296 179.844 64.4609 180.266 55.5928C186.6 54.3259 189.979 53.9036 198.424 53.059C229.252 52.6367 233.052 58.1265 231.363 58.5488C231.363 58.5488 230.941 100.778 232.63 132.872C233.052 137.095 233.052 141.318 233.474 145.118L235.164 150.608L236.008 153.564Z" fill="#D86F70"/>
<path d="M215.738 53.4816C215.738 53.9039 215.738 53.9039 215.738 54.3262C215.316 59.816 211.515 64.4611 205.181 64.4611C200.114 64.4611 197.157 58.5491 197.157 53.0593H198.002L198.847 43.7689V41.2352C198.847 36.1677 214.894 36.1677 214.894 41.2352V42.9243L215.738 53.4816Z" fill="#F4AE8C"/>
<path opacity="0.42" d="M222.073 254.069C219.539 259.559 215.316 298.832 218.694 302.21C219.961 303.477 221.65 304.322 223.339 305.589C219.539 306.433 210.671 303.9 211.093 302.21C211.515 280.674 217.85 236.755 217.85 236.333C217.005 225.354 214.471 213.952 211.938 202.55C212.782 205.084 222.495 232.533 222.495 235.911C222.917 239.289 223.762 243.934 226.295 246.468C229.251 249.002 224.606 248.58 222.073 254.069Z" fill="#132541"/>
<path opacity="0.42" d="M209.404 241.4C208.137 249.846 208.559 276.873 208.137 297.565C207.715 293.764 207.292 288.275 206.87 280.673C206.026 259.559 200.536 256.181 201.38 254.491C201.803 252.802 205.603 248.157 206.026 245.623C206.448 243.934 207.292 217.33 207.715 201.283L208.982 236.755C208.982 238.444 209.404 239.711 209.404 241.4Z" fill="#132541"/>
<path opacity="0.44" d="M215.738 53.4812C215.738 53.9035 215.738 53.9035 215.738 54.3258C214.471 54.7481 212.782 54.7481 211.093 54.7481C203.069 54.3258 198.424 43.7685 198.424 43.7685L210.671 38.701L214.894 42.5017L215.738 53.4812Z" fill="#F4AE8C"/>
<path opacity="0.73" d="M232.207 108.379C231.363 108.801 220.806 126.115 208.137 129.071C197.157 131.605 205.603 126.96 213.627 123.159C215.738 122.315 217.85 121.048 219.539 119.359C225.029 113.447 232.207 108.379 232.207 108.379Z" fill="#D86F70"/>
<path opacity="0.73" d="M192.935 53.4814C192.935 53.4814 195.468 64.4609 203.492 66.9947C198.002 60.238 197.157 58.9711 197.157 53.0591C193.779 53.4814 192.935 53.4814 192.935 53.4814Z" fill="#D86F70"/>
<path opacity="0.73" d="M205.181 66.9948C205.181 66.9948 214.471 66.5725 217.427 59.3935C220.806 53.9038 223.339 54.7483 223.339 54.7483C221.228 54.3261 218.272 53.9038 215.738 53.9038C215.738 53.4815 219.117 60.6604 205.181 66.9948Z" fill="#D86F70"/>
<path d="M225.029 26.0327C225.029 28.1441 225.029 29.8333 224.606 31.5225C223.339 43.7689 218.694 53.0593 212.782 53.0593C206.026 53.0593 199.269 46.7249 195.468 38.7014C192.512 32.7893 191.668 25.6104 194.201 19.2761C194.201 19.2761 194.201 18.8538 194.624 18.8538C197.157 12.0971 201.803 10.408 209.826 10.408C220.806 10.8302 225.029 20.9652 225.029 26.0327Z" fill="#F4AE8C"/>
<path d="M214.049 18.4313C214.049 18.4313 222.495 20.5427 224.606 33.2114C231.785 23.4987 225.873 10.4077 217.427 9.14087C208.982 7.45171 207.292 9.14087 207.292 9.14087C207.292 9.14087 192.934 12.9415 192.09 20.1204C190.823 31.1 196.313 39.1235 196.313 39.1235C196.313 39.1235 203.069 26.4548 214.049 18.4313Z" fill="#E7B54F"/>
<path d="M210.671 13.3636C210.671 16.742 210.248 20.1203 209.826 23.4986C209.404 26.8769 208.559 30.2553 207.292 33.2113C206.025 36.5896 204.759 39.5456 203.069 42.5017C201.38 45.4577 199.269 48.4137 196.313 50.1029C198.847 47.5692 200.113 44.6131 201.803 41.6571C203.069 38.7011 204.336 35.745 205.603 32.3667C207.292 26.0324 208.982 19.698 210.671 13.3636Z" fill="#E7B54F"/>
<path d="M216.16 16.3196C218.272 18.431 219.961 20.5425 221.65 23.0762C223.339 25.61 224.184 28.1437 225.029 31.0997C225.873 34.0558 226.295 36.5895 225.873 39.5455C225.451 42.5016 224.606 45.4576 223.339 47.5691C224.184 44.613 224.606 42.0793 224.184 39.5455C224.184 37.0118 223.339 34.0558 222.917 31.522C221.228 26.0323 219.116 21.3871 216.16 16.3196Z" fill="#E7B54F"/>
<path opacity="0.59" d="M227.985 25.6104C227.985 27.7219 226.295 31.1002 225.451 31.9448C222.917 32.3671 219.539 31.9448 216.16 31.5225C207.715 29.8333 194.624 21.8098 194.624 21.8098V18.8538C197.157 12.0971 201.803 10.408 209.826 10.408C220.806 10.8302 227.985 20.5429 227.985 25.6104Z" fill="#F4AE8C"/>
<path d="M225.873 15.4752C226.718 17.5867 225.029 18.4312 223.339 19.2758C218.694 20.965 209.826 19.6981 203.492 20.1204C200.113 20.5427 197.58 20.965 194.624 21.8096C194.624 21.8096 192.512 22.6542 189.979 23.4987C189.556 21.3873 191.245 4.49567 200.958 1.96193C203.914 1.11735 206.448 1.11735 208.559 0.695055C213.204 0.272765 216.583 1.11735 219.117 2.38422C223.339 5.34025 225.029 10.4077 225.873 15.4752Z" fill="#605B55"/>
<path d="M225.029 17.1642C225.029 17.1642 222.073 20.5425 203.492 20.5425C203.069 12.0967 206.025 5.34003 208.137 1.53942C212.782 1.11713 216.16 1.96171 218.694 3.22858C222.917 8.29606 225.029 17.1642 225.029 17.1642Z" fill="#EBE9DC"/>
<path d="M192.935 22.2317C192.935 22.2317 210.671 26.0323 213.204 26.8769C215.738 27.7215 232.63 25.61 233.897 23.9209C235.164 22.2317 225.873 15.8973 225.873 15.8973C227.985 20.1202 195.468 19.2757 192.935 22.2317Z" fill="#605B55"/>
<path d="M193.357 22.6539C196.735 23.0762 200.114 23.9208 203.492 24.7654C206.87 25.61 210.248 26.4545 213.627 26.8768C217.005 26.8768 220.383 26.4545 223.762 26.0323C225.451 26.0323 227.14 25.61 228.829 25.1877C230.518 24.7654 232.208 24.7654 233.897 23.9208C230.941 25.61 227.562 26.0323 224.184 26.4545C220.806 26.8768 217.427 26.8768 214.049 27.2991C210.671 26.4545 207.292 26.0323 203.914 25.1877C200.114 24.3431 196.735 23.4985 193.357 22.6539Z" fill="#605B55"/>
<path d="M203.069 20.5425C201.803 10.8299 207.715 1.11719 208.137 1.11719L208.559 1.53948C208.559 1.53948 202.647 11.2522 203.914 20.5425H203.069Z" fill="#5B124B"/>
<path d="M225.029 17.1643C223.762 10.4076 218.694 3.22869 218.694 3.22869L219.117 2.8064C219.117 2.8064 224.184 10.4076 225.451 17.1643H225.029Z" fill="#5B124B"/>
<path opacity="0.38" d="M227.985 17.1644C225.873 15.4752 225.873 15.4752 225.873 15.4752C227.985 20.1204 195.468 19.2758 192.935 22.2319C192.935 22.2319 192.512 22.2319 195.891 22.6542C201.38 23.0764 229.674 20.965 227.985 17.1644Z" fill="#605B55"/>
<path opacity="0.73" d="M178.154 159.476C177.31 156.52 187.445 160.321 196.313 159.476C205.181 158.632 186.178 151.03 181.955 148.074C177.732 144.696 179.843 122.315 179.843 118.092C179.843 116.825 179.843 114.713 179.843 112.602C179.843 109.224 181.533 106.69 184.489 105.423C188.712 103.734 194.201 102.889 194.624 101.2C194.624 100.356 192.512 100.778 191.668 100.356C182.377 99.511 182.377 92.7543 182.377 92.7543C182.377 83.4639 183.222 66.15 183.222 66.15L179.843 89.376C179.843 93.5989 179.421 97.8218 179.421 102.045C179.421 104.156 179.421 106.268 179.421 107.957C178.999 115.558 178.999 121.892 178.999 124.426C177.732 140.473 174.776 156.098 174.776 157.787C174.776 161.588 176.887 164.121 180.688 165.811C184.911 167.5 190.401 168.767 201.38 167.5C195.046 166.655 179.843 165.811 178.154 159.476Z" fill="#D86F70"/>
<path d="M178.999 93.1767C178.577 94.0213 178.577 94.4435 178.154 95.7104C175.198 102.045 168.019 113.024 168.019 113.024C167.175 114.713 161.263 130.761 158.729 138.362C158.729 138.362 158.729 138.362 158.729 138.784C157.884 140.895 157.462 142.162 157.462 142.162L156.618 145.541C156.618 145.541 143.949 148.074 143.949 144.274C143.949 140.895 145.638 128.649 146.483 125.693C147.749 119.781 151.128 109.224 154.084 105.423C154.506 104.579 156.618 99.511 157.462 97.3996C158.729 93.599 174.776 51.7922 181.955 55.5928C184.066 56.8597 183.644 82.1971 178.999 93.1767Z" fill="#D86F70"/>
<path opacity="0.73" d="M178.154 95.2881C175.198 101.622 168.019 112.602 168.019 112.602C167.175 114.291 161.263 130.338 158.729 137.939C159.996 134.139 162.53 119.359 161.263 116.403C159.996 113.447 155.773 109.646 162.107 107.112C168.442 105.001 177.31 96.1327 178.154 95.2881Z" fill="#D86F70"/>
<path opacity="0.73" d="M214.894 98.6663C214.894 98.6663 220.383 103.311 229.252 98.6663C233.897 97.3994 225.873 104.578 223.339 105.001C222.917 105.001 214.471 104.156 214.894 98.6663Z" fill="#D86F70"/>
<path d="M351.293 233.377C351.293 233.377 345.381 240.978 349.182 249.846C348.76 252.38 348.76 253.224 348.76 253.224C348.76 253.224 344.114 247.735 347.07 238.867C348.337 235.066 349.604 234.221 350.026 233.799C350.871 233.377 351.293 233.377 351.293 233.377Z" fill="#D86F70"/>
<path d="M182.377 245.201C180.688 245.623 178.999 246.468 177.31 247.735C176.043 249.002 174.354 250.269 173.509 251.536C172.242 253.225 171.398 254.492 170.975 256.181V256.603C170.553 257.448 170.553 257.87 170.131 258.714C169.709 259.559 169.709 260.404 169.709 261.248L162.952 258.714C163.374 257.448 164.219 256.603 164.641 255.758C165.063 255.336 165.486 254.914 165.486 254.492C165.908 254.069 165.908 253.647 166.33 253.225C167.597 251.536 169.286 250.269 170.975 249.002C172.665 247.735 174.354 246.89 176.465 246.046C178.577 245.201 180.688 245.201 182.377 245.201Z" fill="#E59A51"/>
<path opacity="0.44" d="M170.975 257.025C170.553 257.87 170.553 258.292 170.131 259.137C169.709 259.981 169.709 260.826 169.709 261.67L162.952 258.714C163.374 257.447 164.219 256.603 164.641 255.758C165.063 255.336 165.486 254.914 165.486 254.491C167.597 254.491 169.709 255.336 170.975 257.025Z" fill="#E59A51"/>
<path d="M172.664 324.17C172.242 330.082 172.242 336.838 172.664 341.483C173.087 344.017 171.82 344.862 168.864 344.862C165.486 344.862 163.796 344.017 164.219 341.483C165.063 336.838 165.486 330.082 165.486 323.747C165.486 318.257 165.063 313.612 165.063 311.501C165.063 311.079 165.063 310.656 165.063 310.656C165.063 308.123 167.175 306.011 169.286 306.433C171.398 306.433 173.509 308.545 173.087 311.079C173.087 311.079 173.087 311.501 173.087 312.345C173.087 314.457 172.664 319.102 172.664 324.17Z" fill="#EBE9DC"/>
<path d="M155.351 341.906C152.395 342.328 149.016 338.95 149.861 334.727C150.283 330.926 150.283 327.97 149.438 325.859C149.016 323.325 147.749 322.058 147.749 320.791C147.327 316.991 147.327 315.302 146.482 311.501C146.482 311.079 146.905 310.656 147.327 310.234C149.438 309.39 154.506 310.234 154.506 310.234V310.656C154.928 314.035 156.195 319.947 157.04 325.437C157.04 325.859 157.04 326.281 157.04 327.126C157.04 328.393 157.462 329.659 157.884 330.926C159.151 334.305 159.151 341.484 155.351 341.906Z" fill="#EBE9DC"/>
<path d="M154.928 310.656C155.351 314.035 156.617 319.947 157.462 325.437C156.617 325.014 155.351 324.592 154.084 323.747C152.395 322.481 150.705 324.592 149.861 325.859C149.439 323.325 148.172 322.058 148.172 320.791C147.749 316.991 147.749 315.302 146.905 311.501C146.905 311.079 147.327 310.656 147.749 310.234L154.928 310.656Z" fill="#EBE9DC"/>
<path d="M173.509 312.345L165.486 311.501C165.486 313.612 165.908 318.257 165.908 323.747C167.175 323.325 168.019 322.903 168.864 322.903C170.131 322.48 171.82 323.325 173.087 324.169L173.509 312.345Z" fill="#EBE9DC"/>
<path d="M177.31 295.454C177.31 298.832 177.31 301.788 176.887 304.322C175.621 319.947 169.708 319.947 160.418 319.947C150.705 319.947 143.104 321.213 140.993 303.9C140.57 301.366 140.57 298.832 140.57 295.454C140.57 281.94 149.439 270.961 159.996 270.961C170.975 270.961 177.31 281.94 177.31 295.454Z" fill="#E59A51"/>
<path opacity="0.44" d="M176.887 303.9C175.621 319.524 169.708 319.524 160.418 319.524C150.705 319.524 143.104 320.791 140.993 303.477H146.905C146.905 303.477 151.128 316.146 157.04 316.568C165.486 316.991 169.708 316.146 170.975 306.856C171.398 303.055 173.931 303.055 176.887 303.9Z" fill="#E59A51"/>
<path d="M149.016 358.797C149.016 361.331 146.905 362.176 143.104 362.176C139.726 362.176 136.348 360.909 136.77 357.953C136.77 357.53 136.77 357.53 136.77 357.108C137.192 354.574 138.459 349.929 138.459 348.24C138.459 347.395 138.459 339.372 138.459 334.304C138.459 333.46 138.459 332.615 138.459 332.193C138.459 327.97 138.037 323.325 138.037 319.102C138.037 314.879 138.037 310.234 138.881 306.011C139.304 303.477 141.415 301.366 143.949 302.21C145.638 302.633 147.327 304.322 147.327 306.011C147.749 307.7 147.749 309.812 148.172 311.501C148.172 314.035 148.594 316.568 148.594 319.102C148.594 323.325 148.594 327.97 148.172 332.193C147.327 349.507 149.016 357.953 149.016 357.953C149.016 358.375 149.016 358.797 149.016 358.797Z" fill="#EBE9DC"/>
<path d="M183.222 334.727C182.377 339.794 180.688 343.172 180.266 344.017C179.843 345.706 178.999 347.395 178.154 348.662C177.31 349.929 176.887 351.196 176.043 352.463C174.776 355.419 168.442 357.108 166.752 354.997C166.33 354.574 166.33 354.152 166.33 353.73C165.063 350.774 165.908 346.551 168.019 344.862C168.864 344.017 170.131 343.172 170.553 342.328C171.398 341.483 171.82 341.061 172.242 340.216C172.664 339.372 173.087 338.105 173.509 336.838C173.931 335.571 173.931 334.304 173.931 332.615C173.931 332.615 172.664 322.902 172.242 320.369L171.398 313.612C170.975 311.923 170.975 309.811 170.553 308.122C170.553 307.7 170.553 307.278 170.553 306.855C170.131 304.322 173.509 288.697 175.621 288.697C177.732 288.275 178.154 303.899 180.688 311.923C181.11 314.457 181.955 316.568 182.377 319.102C182.799 321.636 183.222 324.169 183.222 326.703C183.644 330.081 183.644 332.615 183.222 334.727Z" fill="#EBE9DC"/>
<path d="M186.6 289.541C183.644 292.075 179.421 291.231 178.999 287.43V287.008C178.577 282.785 174.354 278.14 174.354 278.14L173.931 276.873L169.708 259.136C169.708 259.136 175.62 260.826 177.732 262.515C179.843 263.782 179.421 268.849 181.533 272.227C184.489 276.873 189.556 287.008 186.6 289.541Z" fill="#E59A51"/>
<path opacity="0.44" d="M180.266 288.275C179.843 288.275 178.999 288.275 178.577 287.853V287.43C178.154 283.207 173.931 278.562 173.931 278.562L173.509 277.295L174.354 266.316C174.354 266.316 176.887 264.204 177.31 268.849C178.154 273.495 179.843 279.829 181.955 282.785C184.911 285.319 183.644 287.853 180.266 288.275Z" fill="#E59A51"/>
<path d="M150.705 258.714C150.705 258.714 149.861 278.14 148.172 280.674C147.749 281.518 146.905 282.363 146.06 283.63C144.371 285.741 142.682 288.697 140.993 291.653C140.993 292.075 140.57 292.498 140.57 292.498C138.459 295.454 135.081 294.187 133.814 291.653C132.125 288.697 134.658 284.052 137.614 277.295C140.57 270.539 140.993 264.204 142.682 262.093C143.949 259.559 150.705 258.714 150.705 258.714Z" fill="#E59A51"/>
<path opacity="0.44" d="M145.638 283.207C143.949 285.318 142.26 288.274 140.57 291.231C140.57 291.653 140.148 292.075 140.148 292.075C138.881 291.653 137.614 290.386 137.192 289.964C135.925 288.274 136.77 283.629 138.881 281.518C140.57 279.829 140.57 278.14 141.415 272.227C142.26 266.738 144.371 267.16 144.371 267.16C144.371 267.16 145.216 276.028 145.638 283.207Z" fill="#E59A51"/>
<path d="M173.087 288.275C172.242 291.653 170.975 294.609 169.708 297.565C169.286 298.832 168.864 300.099 168.442 301.788C167.175 306.855 163.374 308.122 159.573 308.122C155.351 308.122 151.55 306.433 150.283 300.521C149.861 298.41 149.438 296.298 148.594 294.187C147.327 291.231 146.482 287.852 145.638 284.474C144.793 281.096 143.104 273.495 145.216 269.272C148.172 262.937 152.817 256.603 159.996 256.603C167.597 256.603 170.975 259.981 174.354 266.316C176.043 270.961 174.354 284.052 173.087 288.275Z" fill="#EBE9DC"/>
<path d="M169.286 288.697C169.286 288.697 168.019 300.099 165.063 303.9C164.641 304.322 164.641 304.744 164.219 304.744C164.219 304.744 164.219 304.744 163.796 304.744C159.996 306.856 158.729 305.589 154.928 304.744C154.506 304.744 154.084 304.322 154.084 303.9C151.128 300.944 149.861 288.275 149.861 288.275H150.705C150.705 288.275 151.55 299.677 154.506 299.677C154.928 299.677 154.928 299.677 155.351 299.677C157.04 299.677 158.729 298.832 162.952 299.677C163.374 299.677 163.796 299.677 164.219 299.677C164.641 299.677 164.641 299.677 165.063 299.254C165.486 298.832 166.33 298.41 166.752 297.565C168.019 294.609 168.864 289.964 169.286 287.853V288.697Z" fill="#132541"/>
<path d="M155.773 287.853C157.462 287.43 160.84 286.586 163.796 287.853C164.641 288.275 165.063 289.119 165.063 290.386C164.219 292.92 161.263 295.876 159.996 295.876C159.996 295.876 155.351 294.609 154.928 290.809C154.084 289.119 154.506 287.853 155.773 287.853Z" fill="#132541"/>
<path d="M173.087 288.275C166.752 286.586 162.53 280.251 162.107 279.407C161.263 278.14 162.53 271.383 162.107 268.849C161.685 266.316 159.574 267.583 159.574 267.583C161.263 276.873 153.661 282.363 151.55 282.363C150.283 282.363 147.327 283.63 145.216 284.474C144.371 281.096 140.57 272.65 145.638 263.36C148.172 258.714 152.395 257.025 159.574 257.025C167.175 257.025 173.509 259.981 175.621 266.316C179.421 276.028 174.354 284.052 173.087 288.275Z" fill="#E59A51"/>
<path d="M169.708 277.295C171.108 277.295 172.242 276.161 172.242 274.761C172.242 273.362 171.108 272.227 169.708 272.227C168.309 272.227 167.175 273.362 167.175 274.761C167.175 276.161 168.309 277.295 169.708 277.295Z" fill="#132541"/>
<path d="M150.705 277.295C152.338 277.295 153.661 276.161 153.661 274.761C153.661 273.362 152.338 272.227 150.705 272.227C149.073 272.227 147.749 273.362 147.749 274.761C147.749 276.161 149.073 277.295 150.705 277.295Z" fill="#132541"/>
<path d="M163.796 309.811C162.107 311.078 159.996 311.923 156.617 310.656C154.928 310.234 154.084 306.855 154.084 303.899C154.084 301.788 154.084 300.099 154.084 300.099C155.773 300.099 157.462 299.254 162.53 300.099C163.374 300.099 163.796 300.099 164.641 299.676C164.641 299.676 165.063 301.365 165.063 303.477C165.063 306.433 164.641 308.967 163.796 309.811Z" fill="#D86F70"/>
<path opacity="0.35" d="M164.219 303.055C164.219 303.477 164.219 303.899 164.219 304.744C164.219 306.433 163.796 308.122 163.374 308.967C162.107 310.234 159.996 311.5 157.462 309.811C155.773 308.967 155.773 307.278 155.351 304.744C155.351 304.322 155.351 303.899 155.351 303.477C155.351 302.21 155.351 300.943 155.351 300.099C157.04 300.099 158.729 299.254 162.952 300.099C163.374 300.099 163.796 300.099 164.219 300.099C163.796 300.943 164.219 302.21 164.219 303.055Z" fill="#D86F70"/>
<path d="M146.482 314.035C143.526 319.102 143.104 322.903 143.949 325.859C144.793 328.815 144.371 332.615 142.682 333.46C141.837 333.882 140.148 340.217 138.459 340.639C138.459 339.794 138.459 333.038 138.459 332.193C138.459 327.97 138.037 323.325 138.037 319.102C138.037 314.879 138.037 310.234 138.881 306.011C139.304 303.477 140.57 290.809 142.682 291.231C144.371 291.653 146.905 304.322 147.327 306.011C147.749 307.7 147.749 309.812 148.172 311.501C147.749 311.923 147.327 312.768 146.482 314.035Z" fill="#E59A51"/>
<path d="M183.222 334.727C181.533 334.727 181.955 331.771 181.955 330.504C181.955 328.815 179.421 325.859 178.576 325.436C177.732 325.436 177.732 322.48 178.576 320.791C179.421 319.102 177.31 315.724 177.31 315.724C177.31 315.724 175.62 314.457 174.776 313.612C173.509 312.768 173.509 311.078 174.776 307.7C175.62 305.589 173.087 306.855 170.975 308.122C170.975 307.7 170.975 307.278 170.975 306.855C170.553 304.322 173.931 288.697 176.043 288.697C178.154 288.275 178.576 303.899 181.11 311.923C181.533 314.457 182.377 316.568 182.799 319.102C183.222 321.636 183.644 324.169 183.644 326.703C183.644 330.081 183.644 332.615 183.222 334.727Z" fill="#E59A51"/>
<path d="M173.509 341.906C172.242 344.862 165.908 347.818 166.33 354.575C165.063 351.619 165.908 347.396 168.019 345.707C168.864 344.862 170.131 344.017 170.553 343.173C171.398 342.328 171.82 341.906 172.242 341.061C172.664 340.217 173.087 338.95 173.509 337.683C173.931 336.416 173.931 335.149 173.931 333.46C174.354 333.46 174.776 338.528 173.509 341.906Z" fill="#EBE9DC"/>
<path d="M149.016 358.797C149.016 361.331 146.905 362.176 143.104 362.176C139.726 362.176 136.348 360.909 136.77 357.953C136.77 357.531 136.77 357.531 136.77 357.108C137.192 358.375 137.614 359.22 139.304 359.642C141.837 360.487 146.905 360.487 149.016 358.797Z" fill="#EBE9DC"/>
</svg>
