<svg width="491" height="370" viewBox="0 0 491 370" fill="none" xmlns="http://www.w3.org/2000/svg">
<path d="M105.659 81.7817C75.7167 109.418 54.6732 146.372 45.9836 186.152C40.4349 211.486 40.0161 238.39 49.0198 262.676C58.0235 286.963 77.2871 308.109 102.1 315.437C128.587 323.289 156.855 314.914 184.18 310.622C211.505 306.33 243.646 307.795 261.234 329.151C269.401 338.991 273.798 352.496 284.895 358.881C298.506 366.733 315.675 360.347 329.39 352.705C392.835 317.531 441.099 255.977 460.048 185.943C467.586 158.306 470.518 128.262 460.991 101.253C454.186 82.2004 439.947 64.5087 421.416 55.8199C399.221 45.4562 376.084 51.6325 354.412 60.3213C334.102 68.4867 308.975 80.5254 287.094 71.5226C271.599 65.1368 263.014 50.7951 250.556 40.536C236.945 29.4394 219.776 29.0207 203.234 32.1612C179.259 36.558 155.494 46.503 134.974 59.3792C124.504 65.8696 114.663 73.4069 105.659 81.7817Z" fill="#F0C6B6"/>
<path d="M245.5 369.854C381.086 369.854 491 340.184 491 303.584C491 266.984 381.086 237.313 245.5 237.313C109.914 237.313 0 266.984 0 303.584C0 340.184 109.914 369.854 245.5 369.854Z" fill="#ABC5D3"/>
<path opacity="0.57" d="M240.686 353.934C356.435 353.934 450.268 332.055 450.268 305.065C450.268 278.075 356.435 256.195 240.686 256.195C124.937 256.195 31.1041 278.075 31.1041 305.065C31.1041 332.055 124.937 353.934 240.686 353.934Z" fill="#ABC5D3"/>
<path d="M267.717 304.324C263.644 310.248 262.533 313.209 256.238 316.912C250.684 320.614 241.797 315.431 246.611 310.618C251.054 305.805 256.238 295.439 258.83 288.775C260.682 283.591 264.014 280.63 266.236 286.553C267.717 290.255 271.05 301.362 267.717 304.324Z" fill="#F4AE8C"/>
<path d="M191.808 196.959C184.403 195.478 178.108 195.478 170.702 196.219C167.37 196.589 162.556 195.478 164.037 191.776C164.037 191.776 169.591 189.925 172.183 189.184C176.627 188.074 188.476 181.41 192.919 181.41C195.882 181.41 195.882 180.669 198.474 181.41C206.62 183.631 200.695 200.291 191.808 196.959Z" fill="#F4AE8C"/>
<path d="M245.5 144.017C235.132 148.83 225.505 154.754 215.877 160.677C210.693 164.009 205.879 166.971 200.695 170.303C196.622 172.894 192.179 175.116 191.438 180.299C192.179 184.742 195.882 188.814 197.363 189.925C202.176 191.776 205.879 188.814 209.582 186.593C224.394 177.707 239.946 168.452 256.609 162.528C254.757 155.494 253.646 147.719 249.943 141.796C248.833 142.906 247.351 143.277 245.5 144.017Z" fill="#687C86"/>
<path d="M291.045 39.6138L285.861 164.749L264.385 152.162L267.347 107.735C266.977 107.735 218.099 41.8351 291.045 39.6138Z" fill="#E7B54F"/>
<path d="M240.686 289.145H233.281L231.799 265.821H242.538L240.686 289.145Z" fill="#132541"/>
<path d="M360.289 300.622H353.253L351.402 277.668H362.14L360.289 300.622Z" fill="#132541"/>
<path d="M439.16 259.527H432.124L430.273 236.203H441.011L439.16 259.527Z" fill="#132541"/>
<path d="M349.551 281L219.21 270.263V243.237H353.624L349.551 281Z" fill="#E59A51"/>
<path d="M449.898 198.44L288.083 191.406L291.045 39.6138C339.183 25.9155 393.985 28.1369 451.75 39.6138L449.898 198.44Z" fill="#E59A51"/>
<path d="M451.75 39.6138L433.235 157.715L423.238 155.124L426.2 117.361C426.2 117.731 396.577 46.2778 451.75 39.6138Z" fill="#E7B54F"/>
<path d="M269.569 108.105L269.198 151.051L212.915 188.444V225.466L287.713 191.406L288.083 165.12L290.675 39.6138C220.691 44.0565 269.569 108.105 269.569 108.105Z" fill="#E59A51"/>
<path opacity="0.55" d="M349.551 281L219.21 270.263V243.237H353.624L349.551 281Z" fill="#E59A51"/>
<path opacity="0.36" d="M220.691 250.642C220.691 250.642 234.021 256.195 271.05 258.046C308.078 259.897 341.034 259.157 347.329 254.344C346.958 249.161 346.958 246.939 346.958 246.939L221.061 243.237L220.691 250.642Z" fill="#E59A51"/>
<path opacity="0.55" d="M290.675 154.753C289.194 164.749 288.083 174.375 288.083 184.371V191.406L214.766 224.726L213.285 225.466V188.444L269.569 151.051L269.939 108.105C269.939 108.105 221.061 44.0565 291.416 39.6138C282.158 42.5756 283.64 61.8272 286.602 85.1513C289.194 108.105 293.637 134.391 290.675 154.753Z" fill="#E59A51"/>
<path d="M363.251 228.428L356.586 235.833L344.367 249.531C343.626 250.271 342.145 250.642 340.664 251.382C316.595 259.157 214.396 251.382 219.21 243.607L221.431 216.211L348.44 227.688L355.105 228.428H363.251Z" fill="#E59A51"/>
<path opacity="0.18" d="M356.586 235.833L344.367 249.531C343.626 250.271 343.626 250.271 342.145 250.642C343.996 242.867 341.404 233.241 341.404 233.241L355.105 228.058L356.586 235.833Z" fill="#E59A51"/>
<path d="M221.802 215.841L288.083 191.406L428.422 195.108L346.218 231.39C331.777 242.497 216.988 224.356 221.802 215.841Z" fill="#E7B54F"/>
<path d="M269.569 151.051C269.569 151.051 187.365 169.933 197.363 193.627C207.36 217.321 222.542 193.627 222.542 193.627L283.64 167.341C286.602 166.23 287.713 162.158 285.861 159.937C282.529 155.864 277.345 152.162 269.569 151.051Z" fill="#E7B54F"/>
<path d="M222.542 192.516C222.542 192.886 222.542 193.257 222.542 193.627L221.802 215.84L219.95 269.893C219.21 271.744 216.247 272.855 212.915 273.225C206.99 273.225 200.325 270.633 201.066 265.45L197.363 193.257C196.622 185.112 202.176 177.707 209.952 177.707C216.988 177.707 222.542 184.371 222.542 192.516Z" fill="#E59A51"/>
<path d="M423.238 155.494C423.238 155.494 332.517 172.154 343.626 199.18C354.735 225.836 375.841 199.18 375.841 199.18L431.384 163.268C433.976 157.715 430.273 154.013 423.238 155.494Z" fill="#E7B54F"/>
<path opacity="0.18" d="M221.802 215.841L219.58 243.237C219.58 244.718 219.95 245.088 221.061 245.459L220.321 269.893C219.58 271.744 216.618 272.855 213.285 273.225C214.026 272.115 219.58 270.263 217.729 252.123C215.137 233.982 221.802 215.841 221.802 215.841Z" fill="#E59A51"/>
<path d="M372.879 282.111C370.287 288.034 347.329 286.183 348.81 277.298L343.996 199.181C343.256 189.925 350.661 181.78 359.919 181.78C369.546 181.78 376.581 189.925 375.841 199.181L372.879 282.111Z" fill="#E59A51"/>
<path d="M430.643 119.582L431.384 156.975C431.384 160.677 429.532 164.009 426.57 166.23L375.841 199.551L372.508 282.851L436.198 247.31C445.825 241.756 451.75 231.76 451.75 220.653V176.597V149.57L452.12 39.9841C408.056 49.9802 426.57 106.254 430.273 116.25C430.273 117.361 430.643 118.472 430.643 119.582Z" fill="#E59A51"/>
<path opacity="0.55" d="M451.75 39.6138V92.5558C448.047 129.208 442.492 178.078 435.087 203.993C422.497 248.42 373.249 273.225 373.249 273.225C373.249 273.225 372.879 275.076 372.508 278.038L375.841 199.18L425.83 166.23C429.162 164.009 431.384 160.307 431.014 156.234L430.273 119.952C430.273 118.471 429.903 117.361 429.532 116.25C425.83 105.143 408.056 49.6098 451.75 39.6138Z" fill="#E59A51"/>
<path opacity="0.47" d="M451.75 92.926V149.57V220.283C451.75 231.39 445.825 241.386 436.198 246.939L372.508 282.481L372.879 278.038C373.249 275.076 373.619 273.225 373.619 273.225C373.619 273.225 422.867 248.42 435.457 203.993C442.492 178.448 448.417 129.208 451.75 92.926Z" fill="#D86F70"/>
<path opacity="0.36" d="M290.675 154.754C289.194 164.75 288.083 174.375 288.083 184.372V191.406L221.802 215.841V211.028C221.802 211.028 268.828 196.219 280.307 181.78C291.786 167.711 289.934 134.762 289.194 126.987C288.453 119.582 286.602 86.6324 286.232 85.5217C289.194 108.105 293.637 134.391 290.675 154.754Z" fill="#E59A51"/>
<path opacity="0.55" d="M315.484 102.922C317.938 102.922 319.928 100.436 319.928 97.3688C319.928 94.3018 317.938 91.8154 315.484 91.8154C313.03 91.8154 311.041 94.3018 311.041 97.3688C311.041 100.436 313.03 102.922 315.484 102.922Z" fill="#E59A51"/>
<path opacity="0.55" d="M395.466 104.033C397.92 104.033 399.909 101.546 399.909 98.4794C399.909 95.4123 397.92 92.926 395.466 92.926C393.012 92.926 391.023 95.4123 391.023 98.4794C391.023 101.546 393.012 104.033 395.466 104.033Z" fill="#E59A51"/>
<path opacity="0.55" d="M324.001 155.124C326.455 155.124 328.444 152.637 328.444 149.57C328.444 146.503 326.455 144.017 324.001 144.017C321.547 144.017 319.557 146.503 319.557 149.57C319.557 152.637 321.547 155.124 324.001 155.124Z" fill="#E59A51"/>
<path opacity="0.55" d="M387.32 155.864C389.774 155.864 391.763 153.378 391.763 150.311C391.763 147.244 389.774 144.758 387.32 144.758C384.866 144.758 382.876 147.244 382.876 150.311C382.876 153.378 384.866 155.864 387.32 155.864Z" fill="#E59A51"/>
<path d="M332.147 188.814C331.777 191.036 330.666 193.257 329.185 195.108C322.89 203.253 310.67 203.993 303.265 197.329C292.897 187.704 272.531 173.635 259.571 164.009C259.571 164.009 259.201 164.009 259.201 163.639C254.757 160.677 251.054 158.086 248.833 156.235C248.833 156.235 254.387 147.719 250.684 141.426C251.425 141.055 252.535 140.685 253.276 140.315C258.09 138.464 261.793 139.945 266.606 141.055C276.974 144.017 286.602 148.46 296.229 153.273C305.486 157.715 315.854 162.528 324.371 168.452C324.741 168.822 325.112 168.822 325.482 169.192C325.852 169.563 326.222 169.563 326.593 169.933C331.777 175.116 333.628 182.52 332.147 188.814Z" fill="#687C86"/>
<path opacity="0.47" d="M332.147 188.814C331.777 191.036 330.666 193.257 329.185 195.108C322.89 203.253 310.67 203.993 303.265 197.329C292.897 187.704 272.531 173.635 259.571 164.009C265.866 167.712 286.602 179.929 292.156 180.669C298.451 181.78 311.781 186.593 316.225 181.78C318.817 178.818 321.038 170.673 324.741 169.192C325.482 168.822 325.852 169.563 326.593 170.673C328.444 174.005 330.666 182.15 332.147 188.814Z" fill="#5B124B"/>
<path d="M396.577 146.979C392.133 143.647 386.579 141.425 381.765 138.093C378.803 136.242 375.841 134.021 372.879 131.8C372.138 131.429 368.065 128.097 367.324 126.616C367.695 125.876 367.695 124.765 368.065 124.395C369.546 121.063 371.027 118.101 372.879 115.14C375.471 110.697 373.989 111.808 376.581 107.365C379.173 103.663 368.065 97.739 365.473 100.701C359.548 107.365 354.735 112.548 351.032 121.063C347.329 129.578 352.883 138.093 358.437 144.387C365.843 152.532 374.73 159.196 383.617 165.49C395.836 173.265 408.056 155.494 396.577 146.979Z" fill="#ABC5D3"/>
<path d="M345.848 208.066C344.737 213.619 340.293 217.321 334.739 219.543C328.814 222.134 321.038 222.875 313.633 223.615C299.932 224.726 285.861 225.096 279.937 229.909C271.42 251.012 272.531 268.412 271.42 289.145C269.569 296.92 257.719 293.588 257.349 292.107C253.276 268.783 254.757 217.321 262.533 214.36C277.345 203.623 301.043 190.665 319.928 188.444C321.038 188.444 321.779 188.074 322.89 188.074C329.925 187.704 335.85 188.814 340.293 192.516C342.885 194.368 344.737 197.329 346.218 201.032C346.218 203.623 346.218 205.844 345.848 208.066Z" fill="#687C86"/>
<path opacity="0.47" d="M345.848 208.066C344.737 213.619 340.293 217.322 334.739 219.543C328.814 222.134 321.038 222.875 313.633 223.615C324.741 220.654 333.258 216.581 332.147 211.028C329.185 195.108 319.928 188.444 319.928 188.074C321.038 188.074 321.779 187.704 322.89 187.704C329.925 187.333 335.85 188.444 340.293 192.146L345.848 208.066Z" fill="#5B124B"/>
<path d="M396.577 146.979C392.133 143.647 386.579 141.425 381.765 138.093C378.803 136.242 375.841 134.021 372.879 131.8C372.138 131.429 368.065 128.097 367.324 126.616C367.695 125.876 367.695 124.765 368.065 124.395C369.546 121.063 371.027 118.101 372.879 115.14C375.471 110.697 373.989 111.808 376.581 107.365C379.173 103.663 368.065 97.739 365.473 100.701C359.548 107.365 354.735 112.548 351.032 121.063C347.329 129.578 352.883 138.093 358.437 144.387C365.843 152.532 374.73 159.196 383.617 165.49C395.836 173.265 408.056 155.494 396.577 146.979Z" fill="#ABC5D3"/>
<path d="M384.357 55.9038L359.919 78.8577C359.919 78.8577 365.473 91.0751 377.322 98.8498C388.431 87.7431 407.315 69.9723 407.315 69.9723C407.315 69.9723 388.06 59.606 384.357 55.9038Z" fill="#EBE9DC"/>
<path d="M377.692 96.9987C388.801 85.8919 407.686 68.1212 407.686 68.1212C407.686 68.1212 388.801 59.2358 384.357 55.9038C384.357 55.9038 366.213 89.224 377.692 96.9987Z" fill="#EBE9DC"/>
<path d="M384.357 55.9038L362.881 77.3768C362.881 77.3768 366.954 86.6324 378.433 94.4071C389.541 83.3004 408.426 65.5296 408.426 65.5296C408.426 65.5296 390.282 57.7549 384.357 55.9038Z" fill="#EBE9DC"/>
<path d="M383.617 54.4229C383.617 54.4229 405.464 61.0869 406.945 63.6785C406.575 65.8998 381.765 94.7773 381.765 94.7773L355.475 83.3003L383.617 54.4229Z" fill="#D86F70"/>
<path d="M384.357 55.9038L362.881 77.3768C362.881 77.3768 366.954 86.6324 378.433 94.4071C389.541 83.3004 408.426 65.5296 408.426 65.5296C408.426 65.5296 390.282 57.7549 384.357 55.9038Z" fill="#EBE9DC"/>
<path d="M384.357 55.9038L362.881 77.3768C362.881 77.3768 366.954 86.6324 378.433 94.4071C389.541 83.3004 408.426 65.5296 408.426 65.5296C408.426 65.5296 390.282 57.7549 384.357 55.9038Z" fill="#EBE9DC"/>
<path d="M384.357 55.9038L361.4 78.8577C361.4 78.8577 366.213 89.224 377.692 96.9987C388.801 85.8919 407.686 68.1212 407.686 68.1212C407.686 68.1212 389.171 59.2358 384.357 55.9038Z" fill="#EBE9DC"/>
<path opacity="0.81" d="M384.357 55.9038L361.4 78.8577C361.4 78.8577 366.213 89.224 377.692 96.9987C388.801 85.8919 407.686 68.1212 407.686 68.1212C407.686 68.1212 389.171 59.2358 384.357 55.9038Z" fill="#EBE9DC"/>
<path d="M384.357 55.9038L359.919 78.8577C359.919 78.8577 365.473 91.0751 377.322 98.8498C388.431 87.7431 407.315 69.9723 407.315 69.9723C407.315 69.9723 388.06 59.606 384.357 55.9038Z" fill="#EBE9DC"/>
<path opacity="0.4" d="M384.357 55.9038L359.919 78.8577C359.919 78.8577 365.473 91.0751 377.322 98.8498C388.431 87.7431 407.315 69.9723 407.315 69.9723C407.315 69.9723 388.06 59.606 384.357 55.9038Z" fill="#EBE9DC"/>
<path d="M384.357 55.9038L358.437 83.6706C358.437 83.6706 363.992 95.888 375.841 103.663C386.949 92.556 405.834 74.7852 405.834 74.7852C405.834 74.7852 386.209 61.0869 384.357 55.9038Z" fill="#EBE9DC"/>
<path d="M384.357 56.2742L358.437 84.041C358.437 84.041 363.992 96.2584 375.841 104.033C386.949 92.9263 405.834 75.1556 405.834 75.1556C405.834 75.1556 386.209 61.4573 384.357 56.2742Z" fill="#EBE9DC"/>
<path d="M384.357 55.9038L358.808 82.5599C358.808 82.5599 364.362 94.7773 376.211 102.552C387.32 91.4453 406.204 73.6746 406.204 73.6746C406.204 73.6746 388.431 59.606 384.357 55.9038Z" fill="#EBE9DC"/>
<path d="M382.506 54.7932L355.105 83.6707C355.105 83.6707 362.511 101.071 373.989 108.846C385.098 97.7392 403.983 79.9684 403.983 79.9684C403.983 79.9684 384.357 59.9763 382.506 54.7932Z" fill="#605B55"/>
<path d="M393.244 58.1252C393.615 58.1252 394.355 58.4955 394.725 58.8657C397.317 59.9763 402.131 61.4572 403.612 62.1977C405.464 63.3084 406.575 64.0488 406.575 64.0488L406.945 63.6786C406.945 63.6786 405.834 62.5679 403.983 61.8275C402.501 61.087 397.688 59.2359 395.096 58.4955C394.355 58.1252 393.985 57.755 393.244 58.1252C391.393 57.0146 383.987 54.7932 383.617 54.7932H383.247L382.136 55.1634V55.5337C382.136 55.9039 382.876 57.755 386.209 61.8275C387.32 63.3084 395.096 72.1937 403.242 80.3387L403.612 79.9684C395.466 71.8235 387.69 62.9381 386.579 61.4572C383.247 57.0146 382.506 55.5337 382.506 55.1634L383.247 54.7932C383.987 55.1634 391.393 57.3848 393.244 58.1252Z" fill="#605B55"/>
<path d="M379.544 71.8235L372.508 78.1173L382.506 88.8538L390.282 82.9302L379.544 71.8235Z" fill="#EBE9DC"/>
<path opacity="0.26" d="M355.105 83.6707C355.105 83.6707 362.511 101.071 373.989 108.846C385.098 97.7392 403.983 79.9685 403.983 79.9685C403.983 79.9685 402.502 78.1173 399.909 75.896C392.874 88.4836 360.659 90.3347 355.105 83.6707Z" fill="#605B55"/>
<path d="M384.728 81.4494L381.395 77.7471L382.876 76.6365L385.839 79.9685L384.728 81.4494Z" fill="#E7B54F"/>
<path d="M385.098 84.4111L377.322 76.6364L378.063 75.896L385.839 83.6707L385.098 84.4111Z" fill="#E7B54F"/>
<path d="M383.247 86.2622L379.914 82.5599L380.655 82.1897L383.987 85.5217L383.247 86.2622Z" fill="#E7B54F"/>
<path d="M378.063 80.7089L375.471 78.4875L376.211 77.7471L378.433 79.9684L378.063 80.7089Z" fill="#E7B54F"/>
<path d="M412.87 157.715C412.87 161.047 411.759 164.379 409.167 167.711C396.947 183.631 382.506 191.776 365.103 202.513C362.14 204.364 359.548 207.696 356.586 211.028C352.883 215.1 349.18 219.173 344.737 219.543C336.22 220.283 343.626 216.951 337.331 211.028C331.777 205.474 329.925 198.81 325.482 191.406C324.741 189.925 323.63 188.444 322.52 186.963C317.336 179.929 322.149 169.563 324.741 168.822C334.739 161.788 351.402 159.196 355.845 156.605C356.956 155.864 358.437 155.124 359.919 154.383C361.4 153.643 363.251 152.903 365.473 151.792C378.433 145.868 398.799 138.464 404.723 143.647C406.945 145.498 408.426 147.349 409.907 149.2C411.759 152.162 412.87 154.754 412.87 157.715Z" fill="#ABC5D3"/>
<path d="M446.936 138.094C446.195 155.494 463.599 167.341 426.57 163.269C406.945 161.047 408.796 137.723 409.907 124.765C410.278 118.472 416.572 112.178 423.978 109.586C429.532 107.735 435.827 109.216 440.271 113.289C451.75 123.285 447.306 131.429 446.936 138.094Z" fill="#EBE9DC"/>
<path d="M405.464 136.983C406.945 135.502 408.796 132.91 408.796 132.54C408.796 132.54 419.535 137.353 419.535 138.093C418.794 140.685 410.648 151.792 410.648 151.792C408.056 155.124 393.244 142.536 399.909 142.906C400.28 143.647 404.353 139.574 405.464 136.983Z" fill="#F4AE8C"/>
<path d="M360.659 111.808L367.324 99.9606C367.695 91.4454 371.027 96.9988 373.249 98.1095C375.1 99.2201 379.914 97.7392 375.1 103.293L370.287 116.25C369.176 119.212 366.213 120.323 363.251 119.582C360.289 118.472 359.178 115.51 359.919 112.548C360.659 112.178 360.659 112.178 360.659 111.808Z" fill="#F4AE8C"/>
<path opacity="0.54" d="M365.103 202.513C362.14 204.364 359.548 207.696 356.586 211.028C352.883 215.1 349.18 219.173 344.737 219.543C336.22 220.283 343.626 216.951 337.331 211.028C331.777 205.474 329.925 198.81 325.482 191.406C331.406 194.738 336.961 206.585 342.885 209.547C348.81 212.509 403.612 168.452 384.357 168.452C375.841 168.452 361.029 154.383 361.029 154.383C361.029 154.383 363.621 152.903 365.843 152.162L386.949 164.75C386.949 164.75 382.506 191.776 365.103 202.513Z" fill="#ABC5D3"/>
<path d="M401.391 146.609C398.428 145.128 373.989 137.723 369.546 136.983C368.435 136.613 368.065 128.838 368.805 125.136C370.287 119.582 372.508 114.399 374.36 109.216C375.841 105.144 372.138 101.071 367.324 101.441C363.251 101.812 362.14 106.995 360.289 110.327C355.475 118.472 349.921 128.468 350.291 138.464C350.661 146.609 356.586 152.532 363.621 156.235C372.508 161.418 383.247 164.38 393.244 166.231C408.056 169.192 414.351 153.643 401.391 146.609Z" fill="#ABC5D3"/>
<path d="M413.61 116.621C403.242 125.136 400.28 134.391 404.353 137.723C411.388 143.277 424.719 146.609 435.827 139.204C446.936 131.8 446.566 123.285 441.382 115.88C436.198 108.476 423.238 108.476 413.61 116.621Z" fill="#F4AE8C"/>
<path d="M417.683 112.548C418.794 114.029 425.83 115.51 429.532 114.029C434.716 111.437 437.308 112.548 437.308 112.548C437.308 112.548 438.049 110.697 433.606 108.476C431.754 107.365 423.238 104.033 417.683 112.548Z" fill="#EBE9DC"/>
<path d="M429.532 109.956C429.532 109.956 426.2 116.991 429.532 125.506C431.384 129.949 428.792 135.132 428.792 135.132C428.792 135.132 413.61 138.834 411.388 144.757C399.539 164.75 440.271 161.047 440.271 161.047L446.936 123.655C446.936 123.655 436.568 105.514 429.532 109.956Z" fill="#EBE9DC"/>
<path d="M429.162 136.242C426.57 137.353 423.978 136.612 423.608 135.131C423.238 133.651 425.459 132.91 427.311 130.689C429.162 128.838 432.124 128.838 432.865 131.799C433.976 134.761 431.754 135.502 429.162 136.242Z" fill="#F4AE8C"/>
<path d="M412.869 157.715C412.869 161.047 412.499 165.12 409.907 168.452C397.688 184.371 382.506 192.887 365.103 202.883C362.14 204.734 359.548 208.066 356.586 211.398C351.772 211.398 347.329 208.066 343.626 199.551C335.109 178.078 389.541 163.269 412.869 157.715Z" fill="#E7B54F"/>
<path d="M372.879 282.111C370.287 288.034 347.329 286.183 348.81 277.298L343.996 199.181C343.256 189.925 350.661 181.78 359.919 181.78C369.546 181.78 376.581 189.925 375.841 199.181L372.879 282.111Z" fill="#E59A51"/>
<path d="M367.695 96.9985C367.695 96.9985 367.695 93.2963 368.065 89.5941C368.435 87.743 368.435 85.8918 369.176 84.4109C369.546 82.93 370.287 82.1896 370.287 82.1896C370.657 81.8194 371.397 81.4491 371.768 81.8194C372.138 82.1896 372.508 82.93 372.138 83.3003C372.138 83.3003 371.768 84.0407 371.768 85.1514C371.768 86.2621 371.397 88.1132 371.768 89.5941C371.768 92.9261 372.508 96.2581 372.508 96.2581C372.879 97.3688 371.768 98.8497 370.657 98.8497C369.546 99.2199 368.065 98.1092 368.065 96.9985C367.695 97.3688 367.695 96.9985 367.695 96.9985Z" fill="#F4AE8C"/>
<path d="M370.657 91.0749C370.657 91.0749 371.397 87.7428 372.508 84.7811C373.249 83.3002 373.619 81.449 374.36 80.3384C374.73 79.5979 375.1 79.2277 375.1 78.8575C375.471 78.4872 375.471 78.117 375.471 78.117C375.841 77.7468 376.581 77.7468 376.952 78.117C377.322 78.4872 377.322 79.2277 376.952 79.5979C376.952 79.5979 376.581 79.9681 376.211 81.0788C375.841 82.1895 375.471 83.6704 375.471 85.1513C375.1 88.4833 374.73 91.4451 374.73 91.4451C374.73 92.926 373.619 93.6664 372.138 93.6664C370.657 93.6664 369.916 92.5558 369.916 91.0749C370.657 91.4451 370.657 91.4451 370.657 91.0749Z" fill="#F4AE8C"/>
<path d="M381.025 79.5978C381.025 79.5978 379.914 82.9298 379.173 86.2619C378.803 87.7428 378.433 89.5939 378.063 90.7046C378.063 91.445 377.692 91.8152 377.692 92.1854C377.692 92.5557 377.692 92.5557 377.692 92.1854C377.692 93.6663 376.581 94.4068 375.471 94.4068C373.989 94.4068 373.249 93.2961 373.249 92.1854C373.249 92.1854 373.249 92.1854 373.249 91.8152C373.249 91.445 373.249 91.0748 373.619 91.0748C373.619 90.7046 373.989 89.9641 374.36 89.5939C374.73 88.4832 375.471 86.6321 376.211 85.1512C377.692 81.8192 379.173 78.8574 379.173 78.8574C379.544 78.1169 380.284 78.1169 380.655 78.1169C381.025 78.4872 381.395 78.8574 381.025 79.5978Z" fill="#F4AE8C"/>
<path d="M384.728 82.5596C384.728 82.5596 382.876 85.5214 381.765 88.4832C381.025 89.9641 380.284 91.445 380.284 92.5557C379.914 93.6663 379.914 94.0366 379.914 94.0366C379.914 95.5175 378.803 96.6281 377.692 96.6281C376.211 96.6281 375.1 95.5175 375.1 94.4068C375.1 94.0366 375.1 94.0366 375.1 93.6663V93.2961C375.1 93.2961 375.471 92.1854 376.211 90.7046C376.952 89.2237 377.692 87.7428 378.803 86.2619C380.655 83.3001 383.247 80.7085 383.247 80.7085C383.617 80.3383 384.357 79.9681 384.728 80.7085C384.728 81.449 385.098 82.1894 384.728 82.5596Z" fill="#F4AE8C"/>
<path d="M386.579 92.1856C386.209 91.8153 385.468 91.4451 385.098 92.1856C385.098 92.1856 384.357 92.926 383.617 94.0367C383.617 94.4069 383.247 94.7771 383.247 94.7771C382.876 94.7771 379.173 95.8878 378.063 95.8878C376.952 95.8878 376.211 96.258 375.841 96.258C374.73 96.6282 373.989 98.1091 374.36 99.2198C374.73 100.33 376.211 101.071 377.322 100.701C377.322 100.701 380.284 99.9603 382.876 98.4794C383.617 98.1091 385.468 96.6282 385.839 96.258C385.839 95.8878 386.209 95.8878 386.209 95.5176C385.839 95.8878 386.949 92.926 386.579 92.1856Z" fill="#F4AE8C"/>
<path d="M378.063 99.59C376.581 102.922 372.508 101.071 370.287 100.33C368.435 99.59 366.584 96.258 368.065 92.926C369.546 89.594 371.768 87.3726 376.581 89.2238C381.395 91.0749 379.544 96.258 378.063 99.59Z" fill="#F4AE8C"/>
<path opacity="0.55" d="M248.833 156.605C248.833 156.605 252.906 152.162 251.795 148.46C254.757 153.273 248.833 156.605 248.833 156.605Z" fill="#D86F70"/>
<path opacity="0.54" d="M356.216 156.975C356.216 156.975 353.253 160.677 353.624 165.12C353.994 169.192 356.216 170.303 355.475 171.043C354.735 171.784 350.661 171.784 351.032 169.562C351.032 167.341 352.143 166.23 351.772 164.009C351.402 161.788 351.032 158.826 352.513 158.086C354.364 157.715 356.216 156.975 356.216 156.975Z" fill="#ABC5D3"/>
<path d="M115.159 246.569V251.752C115.159 255.825 131.452 259.157 151.817 259.157C172.183 259.157 188.476 255.825 188.476 251.752V246.569H115.159Z" fill="#132541"/>
<path opacity="0.43" d="M115.159 246.569V251.752C115.159 255.825 131.452 259.157 151.817 259.157C172.183 259.157 188.476 255.825 188.476 251.752V246.569H115.159Z" fill="#132541"/>
<path d="M151.817 253.974C172.063 253.974 188.476 250.658 188.476 246.569C188.476 242.48 172.063 239.165 151.817 239.165C131.572 239.165 115.159 242.48 115.159 246.569C115.159 250.658 131.572 253.974 151.817 253.974Z" fill="#132541"/>
<path d="M151.817 250.271C164.292 250.271 174.405 248.614 174.405 246.569C174.405 244.524 164.292 242.867 151.817 242.867C139.343 242.867 129.23 244.524 129.23 246.569C129.23 248.614 139.343 250.271 151.817 250.271Z" fill="#ABC5D3"/>
<path d="M133.673 42.5759C133.303 42.5759 133.303 42.2056 133.303 42.2056V41.4652C133.303 41.095 133.303 41.095 133.673 41.095C134.044 41.095 134.044 41.4652 134.044 41.4652V42.2056L133.673 42.5759Z" fill="#132541"/>
<path d="M131.452 102.922C131.081 102.922 131.081 102.552 131.081 102.552V100.701C131.081 100.331 131.452 100.331 131.452 100.331C131.822 100.331 131.822 100.701 131.822 100.701V102.552C131.822 102.922 131.452 102.922 131.452 102.922ZM131.452 99.2201C131.081 99.2201 131.081 98.8499 131.081 98.8499V96.9988C131.081 96.6285 131.452 96.6285 131.452 96.6285C131.822 96.6285 131.822 96.9988 131.822 96.9988V98.8499C131.822 99.2201 131.822 99.2201 131.452 99.2201ZM131.452 95.5179C131.081 95.5179 131.081 95.1477 131.081 95.1477V93.2965C131.081 92.9263 131.452 92.9263 131.452 92.9263C131.822 92.9263 131.822 93.2965 131.822 93.2965V95.1477C132.192 95.1477 131.822 95.5179 131.452 95.5179ZM131.822 91.8156C131.452 91.8156 131.452 91.4454 131.452 91.4454V89.5943C131.452 89.2241 131.822 89.2241 131.822 89.2241C132.192 89.2241 132.192 89.5943 132.192 89.5943V91.4454L131.822 91.8156ZM131.822 87.7432C131.452 87.7432 131.452 87.3729 131.452 87.3729V85.5218C131.452 85.1516 131.822 85.1516 131.822 85.1516C132.192 85.1516 132.192 85.5218 132.192 85.5218V87.3729C132.192 87.7432 132.192 87.7432 131.822 87.7432ZM132.192 84.0409C131.822 84.0409 131.822 83.6707 131.822 83.6707V81.8196C131.822 81.4494 132.192 81.4494 132.192 81.4494C132.563 81.4494 132.563 81.8196 132.563 81.8196V83.6707C132.563 84.0409 132.192 84.0409 132.192 84.0409ZM132.192 80.3387C131.822 80.3387 131.822 79.9685 131.822 79.9685V78.1173C131.822 77.7471 132.192 77.7471 132.192 77.7471C132.563 77.7471 132.563 78.1173 132.563 78.1173V79.9685C132.563 79.9685 132.563 80.3387 132.192 80.3387ZM132.192 76.6365C131.822 76.6365 131.822 76.2662 131.822 76.2662V74.4151C131.822 74.0449 132.192 74.0449 132.192 74.0449C132.563 74.0449 132.563 74.4151 132.563 74.4151V76.2662C132.933 76.2662 132.563 76.6365 132.192 76.6365ZM132.563 72.9342C132.192 72.9342 132.192 72.564 132.192 72.564V70.7129C132.192 70.3426 132.563 70.3426 132.563 70.3426C132.933 70.3426 132.933 70.7129 132.933 70.7129V72.564C132.933 72.564 132.563 72.9342 132.563 72.9342ZM132.563 68.8618C132.192 68.8618 132.192 68.4915 132.192 68.4915V66.6404C132.192 66.2702 132.563 66.2702 132.563 66.2702C132.933 66.2702 132.933 66.6404 132.933 66.6404V68.4915C132.933 68.8617 132.933 68.8618 132.563 68.8618ZM132.563 65.1595C132.192 65.1595 132.192 64.7893 132.192 64.7893V62.9382C132.192 62.5679 132.563 62.5679 132.563 62.5679C132.933 62.5679 132.933 62.9382 132.933 62.9382V64.7893C133.303 64.7893 132.933 65.1595 132.563 65.1595ZM132.933 61.4573C132.563 61.4573 132.563 61.087 132.563 61.087V59.2359C132.563 58.8657 132.563 58.8657 132.933 58.8657C133.303 58.8657 133.303 59.2359 133.303 59.2359V61.087C133.303 61.087 133.303 61.4573 132.933 61.4573ZM132.933 57.755C132.563 57.755 132.563 57.3848 132.563 57.3848V55.5337C132.563 55.1635 132.933 55.1635 132.933 55.1635C133.303 55.1635 133.303 55.5337 133.303 55.5337V57.3848C133.303 57.3848 133.303 57.755 132.933 57.755ZM133.303 53.6826C132.933 53.6826 132.933 53.3123 132.933 53.3123V51.4612C132.933 51.091 133.303 51.091 133.303 51.091C133.673 51.091 133.673 51.4612 133.673 51.4612V53.3123C133.673 53.6826 133.303 53.6826 133.303 53.6826ZM133.303 49.9803C132.933 49.9803 132.933 49.6101 132.933 49.6101V47.759C132.933 47.3888 133.303 47.3888 133.303 47.3888C133.673 47.3888 133.673 47.759 133.673 47.759V49.6101C133.673 49.9803 133.673 49.9803 133.303 49.9803ZM133.303 46.2781C132.933 46.2781 132.933 45.9079 132.933 45.9079V44.0567C132.933 43.6865 133.303 43.6865 133.303 43.6865C133.673 43.6865 133.673 44.0567 133.673 44.0567V45.9079C134.044 45.9079 133.673 46.2781 133.303 46.2781Z" fill="#132541"/>
<path d="M131.081 105.884C130.711 105.884 130.711 105.514 130.711 105.514V104.403C130.711 104.033 131.081 104.033 131.081 104.033C131.452 104.033 131.452 104.403 131.452 104.403V105.514C131.822 105.884 131.452 105.884 131.081 105.884Z" fill="#132541"/>
<path d="M131.081 107.735C131.695 107.735 132.192 107.238 132.192 106.625C132.192 106.011 131.695 105.514 131.081 105.514C130.468 105.514 129.971 106.011 129.971 106.625C129.971 107.238 130.468 107.735 131.081 107.735Z" fill="#132541"/>
<path d="M152.188 248.791C150.707 248.791 149.225 247.68 149.225 245.829V43.3163C149.225 41.8354 150.336 40.3545 152.188 40.3545C153.669 40.3545 155.15 41.4652 155.15 43.3163V245.829C155.15 247.31 153.669 248.791 152.188 248.791Z" fill="#132541"/>
<path opacity="0.86" d="M152.188 93.2965C150.707 93.2965 149.225 92.1858 149.225 90.3347V43.3163C149.225 41.8354 150.336 40.3545 152.188 40.3545C153.669 40.3545 155.15 41.4652 155.15 43.3163V90.3347C155.15 92.1858 153.669 93.2965 152.188 93.2965Z" fill="#E59A51"/>
<path d="M179.959 2.96167H123.676C122.195 23.6942 114.789 43.6863 101.459 63.3082C97.0151 67.7509 124.416 74.4149 152.188 74.4149C179.959 74.4149 205.509 68.4913 202.176 63.3082C186.995 43.3161 179.589 22.9538 179.959 2.96167Z" fill="#E59A51"/>
<path d="M179.959 2.96179C179.959 3.33202 178.848 3.70224 177.367 4.07246C172.924 5.18313 163.296 5.92358 151.817 5.92358C140.339 5.92358 130.711 5.18313 126.268 4.07246C124.416 3.70224 123.676 3.33202 123.676 2.96179C124.046 1.11067 136.636 0 151.817 0C166.999 0 179.959 1.11067 179.959 2.96179Z" fill="#E59A51"/>
<path opacity="0.63" d="M177.367 4.07245C172.924 5.18312 163.296 5.92357 151.817 5.92357C140.339 5.92357 130.711 5.18312 126.268 4.07245C131.081 3.332 140.709 2.59155 151.817 2.59155C162.926 2.59155 172.924 3.332 177.367 4.07245Z" fill="#E59A51"/>
<path opacity="0.25" d="M130.711 24.0645C129.6 32.2094 127.749 40.3543 125.157 48.129C122.935 55.9037 119.973 63.6784 115.9 71.0829C117.751 67.3807 119.232 63.6784 120.343 59.606C121.824 55.9037 122.935 51.8312 124.046 47.7588C125.157 43.6863 126.268 39.9841 127.379 35.9116C128.489 31.8392 129.6 27.7667 130.711 24.0645Z" fill="#FFAC4B"/>
<path opacity="0.25" d="M146.263 19.6221C145.893 28.5074 145.152 37.3928 144.412 46.2782C143.671 55.1636 142.931 64.0489 141.82 72.9343C142.19 64.0489 142.931 55.1636 143.671 46.2782C144.412 37.3928 145.152 28.5074 146.263 19.6221Z" fill="#5B124B"/>
<path opacity="0.25" d="M162.556 25.9158L163.667 37.7629C164.037 41.8354 164.407 45.5376 164.778 49.6101C165.148 53.6826 165.518 57.3848 166.259 61.4573C166.999 65.5297 167.37 69.232 168.48 73.3044C165.888 65.9 164.778 57.755 164.037 49.9803C163.296 41.8354 162.556 34.0607 162.556 25.9158Z" fill="#5B124B"/>
<path opacity="0.25" d="M175.146 27.7666C175.886 31.4688 176.997 35.1711 178.108 38.8733C179.219 42.5756 180.33 46.2778 181.44 49.98C182.551 53.6823 184.032 57.0143 185.884 60.7165C187.735 64.0485 189.587 67.3806 192.179 70.3424C189.216 67.7508 186.995 64.4188 185.143 61.0868C183.292 57.7547 181.811 54.0525 180.7 50.3503C178.108 42.9458 176.256 35.1711 175.146 27.7666Z" fill="#D86F70"/>
<path opacity="0.67" d="M202.176 63.3083C186.995 43.3162 179.589 23.6943 179.959 3.33203C179.959 4.81293 174.035 5.18315 168.851 5.55338C168.851 11.1067 169.221 14.0685 170.332 19.6219C174.405 42.2055 165.148 57.755 132.192 58.8656C123.305 59.2358 103.68 59.9763 101.459 63.3083C97.0151 67.751 124.416 74.415 152.188 74.415C179.959 74.415 205.879 68.4914 202.176 63.3083Z" fill="#EA8522"/>
</svg>
