<svg width="425" height="333" viewBox="0 0 425 333" fill="none" xmlns="http://www.w3.org/2000/svg">
<path d="M63.6592 51.7817C33.7167 79.4183 12.6732 116.372 3.98364 156.152C-1.56514 181.486 -1.98392 208.39 7.01977 232.676C16.0235 256.963 35.2872 278.109 60.0996 285.437C86.5872 293.289 114.855 284.914 142.18 280.622C169.505 276.33 201.646 277.795 219.234 299.151C227.401 308.991 231.798 322.496 242.895 328.881C256.506 336.733 273.675 330.347 287.39 322.705C350.835 287.531 399.099 225.977 418.048 155.943C425.586 128.306 428.518 98.2615 418.991 71.253C412.186 52.2004 397.947 34.5087 379.416 25.8199C357.221 15.4562 334.084 21.6325 312.412 30.3213C292.102 38.4867 266.975 50.5254 245.094 41.5226C229.599 35.1368 221.014 20.7951 208.556 10.536C194.945 -0.560564 177.776 -0.979302 161.234 2.16123C137.259 6.55798 113.494 16.503 92.9735 29.3792C82.5041 35.8696 72.6629 43.4069 63.6592 51.7817Z" fill="#F0C6B6"/>
<path d="M108.358 243.915C107.215 243.915 106.454 243.153 106.454 242.009C106.454 240.865 107.215 240.103 108.358 240.103C109.5 240.103 110.262 240.865 110.262 242.009C110.642 243.153 109.881 243.915 108.358 243.915ZM108.358 240.865C107.596 240.865 107.215 241.247 107.215 242.009C107.215 242.771 107.596 243.153 108.358 243.153C109.119 243.153 109.5 242.771 109.5 242.009C109.5 241.247 109.119 240.865 108.358 240.865Z" fill="#E59A51"/>
<path d="M118.258 289.658C118.258 291.564 116.735 293.089 114.831 293.089C112.927 293.089 111.404 291.564 111.404 289.277C111.404 289.658 111.023 288.896 111.023 288.515L110.262 287.371C109.881 286.609 109.5 285.465 108.358 284.703L103.408 279.747C102.646 278.985 101.885 278.222 101.123 277.46C98.0769 274.792 95.0308 271.742 91.9846 269.455C88.5577 266.787 88.1769 261.831 90.8423 258.4C93.5077 254.97 98.4577 254.588 101.885 257.257C102.646 258.019 103.408 258.782 103.788 259.544C106.073 264.118 108.738 268.693 111.404 272.886C112.165 274.41 112.927 275.554 113.688 276.698C114.069 277.46 114.831 278.604 115.212 279.747C115.592 281.272 116.354 282.416 117.115 283.94C117.496 284.703 117.496 285.465 117.877 286.228C118.258 287.371 118.258 288.133 118.258 289.658Z" fill="#ABC5D3"/>
<path d="M117.496 284.322C115.212 285.465 110.642 284.703 107.977 283.94L103.408 279.366C102.646 278.604 101.885 277.841 101.123 277.079L113.688 276.698C114.45 277.841 116.735 283.178 117.496 284.322Z" fill="#ABC5D3"/>
<path d="M175.373 288.896C175.754 290.802 174.231 292.708 172.327 293.089C170.804 293.47 169.281 292.327 168.519 291.183C168.519 291.183 167.377 288.515 166.615 287.752C165.854 286.99 165.473 286.609 164.712 286.228C164.331 286.228 163.95 285.846 163.188 285.465C162.427 285.084 161.285 284.703 160.904 284.322C159.381 283.559 157.858 282.416 156.715 281.653C155.573 280.891 154.431 279.747 153.288 278.985C151.765 277.841 150.623 276.317 149.481 275.173C147.196 272.886 145.292 270.599 143.388 267.549C143.388 267.549 141.865 259.163 145.292 256.494C148.719 254.207 156.715 259.544 157.096 260.306C157.858 262.594 159 264.881 160.523 267.168C161.665 269.455 163.188 271.361 164.712 273.267C165.092 273.648 165.854 274.411 166.996 275.173C168.519 276.698 170.423 277.841 170.804 278.222C171.185 278.222 171.185 278.604 171.185 278.604C172.708 279.747 173.469 281.272 174.231 282.797C174.612 285.084 174.992 286.609 175.373 288.896Z" fill="#ABC5D3"/>
<path d="M172.327 281.272C170.042 283.559 165.473 283.94 162.808 285.465C162.046 285.084 160.904 284.703 160.523 284.322C159 283.559 157.477 282.416 156.335 281.653C155.192 280.891 154.05 279.747 152.908 278.985L166.235 275.554C167.758 277.079 169.662 278.223 170.042 278.604C170.423 278.604 172.327 281.272 172.327 281.272Z" fill="#ABC5D3"/>
<path d="M87.0346 221.424L78.2769 223.33C78.2769 223.33 79.4192 221.043 80.1808 218.375C80.9423 216.469 81.3231 214.563 80.9423 213.038C82.8462 214.182 84.3692 215.706 85.5115 217.231C85.5115 217.612 85.8923 217.612 85.8923 217.994C87.0346 220.281 87.0346 221.424 87.0346 221.424Z" fill="#ABC5D3"/>
<path d="M85.8923 218.375C85.8923 217.994 85.5115 217.994 85.5115 217.613C84.75 216.088 83.2269 214.563 80.9423 213.419C81.3231 213.801 83.6077 215.707 83.6077 217.613C83.2269 219.519 80.9423 219.519 79.8 219.519C79.0385 222.187 78.2769 223.712 78.2769 223.712L87.0346 221.806C87.0346 221.425 87.0346 220.281 85.8923 218.375Z" fill="#ABC5D3"/>
<path d="M167.377 276.316C163.569 278.985 159.762 281.272 156.335 281.272C156.335 281.272 156.335 281.272 155.954 281.272C154.05 281.272 152.527 280.891 150.623 279.747C149.1 278.985 147.577 277.841 146.054 275.935C145.673 275.554 145.292 275.173 145.292 274.792L144.912 274.41L144.531 274.029C144.15 274.029 144.15 273.648 143.769 273.648C142.627 273.267 141.485 272.886 140.723 272.886C138.438 272.886 136.535 272.504 134.25 272.504C130.062 272.504 125.112 272.886 115.212 277.079C114.45 277.46 113.688 277.841 112.927 278.222C110.642 279.366 108.358 279.747 106.073 280.128C105.692 280.128 105.692 280.128 105.312 280.128C101.885 280.128 98.8385 278.985 96.1731 276.698C93.1269 274.029 91.2231 270.217 90.0808 265.643V265.262V264.881C90.0808 264.499 90.0808 264.118 89.7 263.356V262.975C89.7 262.975 89.7 262.975 89.7 262.593C89.7 261.45 88.9385 259.163 88.1769 256.494C88.1769 255.732 87.7962 255.351 87.7962 254.588C87.4154 253.826 87.4154 252.682 87.0346 251.92C86.6538 250.776 86.6538 249.633 86.2731 248.87C84.75 246.964 82.8461 244.296 80.1808 244.296C79.0385 244.296 77.5154 244.677 76.3731 244.677C75.6115 244.677 75.2308 244.677 74.4692 244.677C72.1846 244.677 67.6154 245.058 65.3308 244.296C64.1885 243.915 62.6654 242.39 61.5231 240.865C60.3808 239.722 60 238.197 60.3808 237.053C60.7615 235.91 61.5231 235.147 62.6654 234.766C63.4269 234.385 64.1885 234.004 64.95 233.623C71.0423 230.954 72.9461 226.761 77.8961 222.187C78.2769 221.806 79.0385 221.424 79.8 221.043C81.7038 220.281 83.9885 219.9 86.6538 219.9C87.7961 219.9 88.9385 219.9 90.0808 220.281C91.2231 220.281 92.3654 220.662 93.1269 221.043C95.4115 221.806 96.9346 222.568 97.6961 224.093C97.6961 224.093 97.6961 224.474 98.0769 224.474C98.8385 225.999 99.6 227.524 99.9808 228.667C100.362 229.43 100.742 230.573 101.123 231.335C101.885 232.86 102.646 234.766 103.408 236.672C103.788 237.053 103.788 237.435 103.788 237.816C104.931 240.103 106.073 242.39 106.835 243.534C107.215 244.296 107.215 244.677 107.215 244.677C107.596 244.677 107.977 245.058 108.358 245.058C124.731 250.776 140.723 243.153 152.908 243.153C155.192 243.153 157.477 244.296 160.142 245.821C161.285 246.583 162.427 247.346 163.188 248.108C163.95 248.489 164.712 249.252 165.473 250.014C166.235 250.776 166.996 251.158 167.377 251.92C168.9 253.445 170.042 254.97 171.185 256.494C171.946 257.257 172.327 258.019 172.708 258.781C176.515 265.262 173.469 271.742 167.377 276.316Z" fill="#ABC5D3"/>
<path d="M106.454 258.019C105.312 258.019 104.169 258.019 103.027 258.4C100.362 259.163 98.0769 261.831 97.6961 264.881C97.3154 267.549 96.9346 270.217 96.1731 272.886V273.267C95.7923 274.41 95.7923 275.935 95.4115 277.079C95.0308 278.604 94.65 280.128 94.2692 281.272C93.5077 283.559 91.9846 285.846 90.4615 287.752C90.0808 288.133 89.7 288.896 89.3192 289.277L88.9385 289.658C88.5577 289.658 88.1769 289.658 87.7961 289.658H87.4154C85.8923 289.277 83.9885 290.039 83.2269 291.564C82.4654 293.47 83.2269 295.376 84.75 296.138C85.8923 296.52 86.6538 296.901 87.7961 297.282C88.9385 297.282 90.0808 297.282 91.6038 296.901C91.9846 296.901 91.9846 296.901 92.7461 296.52C93.5077 296.138 93.5077 296.138 93.8885 295.757C94.2692 295.376 94.65 294.995 95.0308 294.614C95.7923 293.851 96.1731 293.47 96.5538 292.708C98.4577 290.421 99.9808 288.133 101.885 285.084C103.027 283.559 103.788 282.034 104.931 280.891L105.312 280.51C106.073 279.747 106.454 278.604 107.215 277.841C107.215 277.46 107.596 277.46 107.596 277.079C108.738 275.173 109.881 273.648 111.404 271.742C111.785 271.361 112.165 270.98 112.165 270.598C112.927 269.455 113.688 268.311 113.688 266.786C114.069 262.593 111.023 258.4 106.454 258.019Z" fill="#ABC5D3"/>
<path d="M150.623 279.747C149.1 278.985 147.577 277.841 146.054 275.935C145.673 275.554 145.292 275.173 145.292 274.792C144.15 273.648 141.865 272.886 140.342 272.886C138.058 272.886 136.154 272.505 133.869 272.505C139.581 270.98 147.577 268.693 150.242 265.643C152.908 262.593 151.385 273.648 150.623 279.747Z" fill="#ABC5D3"/>
<path d="M165.473 259.925C162.808 256.494 157.858 256.113 154.431 258.782C154.431 258.782 142.627 272.505 141.865 275.935C141.485 277.46 141.485 279.366 141.865 281.272C142.246 283.178 143.769 285.084 144.912 286.228L149.862 288.896C149.862 288.896 148.338 291.183 147.577 291.946C146.054 293.47 146.054 296.139 147.577 297.663C149.1 299.188 151.765 299.188 153.288 297.663C154.812 296.52 155.954 294.995 156.715 293.089C157.096 292.327 158.619 288.515 159 286.99C159 285.846 158.619 284.703 157.858 283.94L157.096 283.178C157.096 283.178 154.05 277.46 155.192 276.698C156.335 275.935 163.95 270.98 164.331 270.599C168.138 268.311 168.519 263.356 165.473 259.925Z" fill="#ABC5D3"/>
<path d="M99.9808 227.905C100.362 228.667 101.504 231.717 101.885 232.479C101.123 230.573 96.5538 227.524 95.7923 225.999C93.1269 222.949 92.7462 220.281 92.7462 220.281H93.1269C95.4115 221.043 96.9346 221.806 97.6962 223.331C98.8385 224.855 99.2192 226.38 99.9808 227.905Z" fill="#ABC5D3"/>
<path d="M97.6962 225.236C97.6962 225.236 99.2192 214.944 93.8885 211.513C91.9846 216.088 89.7 220.281 87.4154 222.568C96.9346 228.286 97.6962 225.236 97.6962 225.236Z" fill="#ABC5D3"/>
<path d="M171.565 255.732C168.519 254.589 164.712 251.92 160.142 246.965C160.142 246.965 161.665 246.965 163.569 247.346C166.996 249.633 169.662 252.683 171.565 255.732Z" fill="#ABC5D3"/>
<path d="M159 244.677C163.569 246.202 171.565 243.915 171.565 237.816C171.565 236.291 171.185 235.147 170.804 234.004C170.423 232.86 170.042 231.717 170.042 230.192C170.042 227.905 170.423 222.568 170.423 220.281C170.423 219.518 171.185 219.137 171.946 219.137C176.135 220.281 179.181 222.949 181.085 226.38C182.227 228.286 182.608 230.573 182.227 232.86C182.227 235.147 181.465 237.435 181.085 239.341C179.942 243.534 177.277 247.346 173.85 249.633C170.423 251.92 165.473 250.776 161.665 250.014L159 244.677Z" fill="#ABC5D3"/>
<path d="M60.7615 240.103C60 238.578 60 237.816 60.3808 237.054C60.7615 235.91 61.5231 235.148 62.6654 234.766C64.1885 234.766 66.0923 235.148 66.4731 235.91C67.2346 237.435 66.0923 241.247 60.7615 240.103Z" fill="#132541"/>
<path d="M82.8462 230.954C83.6873 230.954 84.3692 230.272 84.3692 229.43C84.3692 228.587 83.6873 227.905 82.8462 227.905C82.005 227.905 81.3231 228.587 81.3231 229.43C81.3231 230.272 82.005 230.954 82.8462 230.954Z" fill="#132541"/>
<path d="M63.4269 242.771C65.7115 243.534 68.3769 243.153 71.0423 242.771C68.7577 243.534 66.0923 243.915 63.4269 242.771Z" fill="#132541"/>
<path d="M304.454 270.217L302.55 280.891L301.408 286.228L301.027 288.896L300.646 290.421L300.265 291.183V292.708C299.504 295.376 296.838 296.52 294.173 295.757C291.888 294.995 290.746 292.708 290.746 290.802V289.277L291.127 285.084L291.508 279.747L292.269 269.074C292.65 266.024 295.315 263.737 298.362 263.737C301.408 264.118 303.692 266.787 303.692 269.836C304.454 269.836 304.454 269.836 304.454 270.217Z" fill="#F4AE8C"/>
<path d="M328.823 222.568L345.958 236.672L346.338 237.053C348.242 238.578 348.623 241.247 347.1 243.153C345.958 244.677 343.673 245.058 341.769 244.296L321.208 234.385C317.781 232.86 315.877 228.286 317.781 224.855C319.304 221.424 323.873 219.518 327.3 221.424C327.681 221.806 328.062 222.187 328.823 222.568Z" fill="#F4AE8C"/>
<path d="M341.769 124.601L321.588 139.468C321.588 139.468 321.588 133.75 321.969 126.888C321.969 126.126 321.969 125.745 321.969 124.982C322.731 115.071 324.254 104.398 328.062 105.923C330.346 106.685 332.631 109.353 334.915 112.403C336.819 115.071 338.723 118.502 339.865 120.789C341.008 122.695 341.769 124.601 341.769 124.601Z" fill="#F4AE8C"/>
<path d="M280.465 68.1843C292.269 78.0953 296.077 58.2732 309.785 65.1347C322.35 71.615 336.819 68.5655 321.588 41.8819C315.115 30.8272 313.973 12.9111 297.981 4.52481C286.938 -1.19311 264.854 8.71794 268.281 27.0153C267.9 27.0153 270.565 59.798 280.465 68.1843Z" fill="#132541"/>
<path d="M280.085 301.094C277.8 301.094 269.423 297.663 269.804 295.376C270.185 292.327 271.708 290.802 277.038 290.421C291.508 289.658 291.888 282.034 291.888 282.034C294.173 284.322 300.265 284.322 302.55 282.797C301.408 288.515 301.408 290.802 302.169 295.376C303.692 299.569 301.788 304.525 296.838 303C296.458 303 292.65 302.238 291.888 301.857C287.319 299.951 281.988 301.475 280.085 301.094Z" fill="#FE2426"/>
<path d="M280.085 301.094C277.8 301.094 269.423 297.663 269.804 295.376C271.327 297.282 278.562 298.426 280.465 298.426C282.75 298.426 285.796 296.901 289.604 297.282C293.412 297.663 301.788 295.376 301.788 295.376C303.312 299.569 301.408 304.525 296.458 303C296.077 303 292.269 302.238 291.508 301.857C287.319 299.951 281.988 301.475 280.085 301.094Z" fill="#5B124B"/>
<path d="M357 255.732C357 258.019 355.096 266.787 352.812 266.787C349.765 266.787 347.862 266.024 346.719 260.306C343.673 246.202 334.915 240.865 334.915 240.865C338.723 238.959 341.008 235.147 340.627 231.335C342.912 233.623 344.815 234.385 347.481 234.385C351.288 232.098 356.238 233.623 355.858 238.197C355.858 238.578 355.858 242.39 355.477 243.152C354.715 248.87 357 253.826 357 255.732Z" fill="#FE2426"/>
<path d="M334.915 225.617C331.108 220.281 328.062 219.137 320.446 211.132C319.304 209.988 317.781 208.464 316.638 207.32C313.973 204.652 311.688 202.365 310.165 200.459C309.785 200.077 309.404 199.696 309.023 199.315L313.592 187.879L325.015 147.473C324.254 144.423 323.112 140.992 321.588 138.705L301.408 130.319C299.123 132.225 296.838 136.799 293.792 144.804C289.985 154.715 287.7 164.626 285.415 174.156C284.273 179.112 280.465 201.983 281.608 205.414C281.608 211.894 286.938 213.419 287.319 213.8C287.319 213.8 293.412 217.612 300.265 221.806C301.788 222.949 303.692 223.711 305.215 224.855C308.642 227.142 311.688 229.048 314.354 230.192C321.208 234.385 318.923 232.479 325.396 237.053C325.396 237.053 327.3 238.578 328.062 238.959C327.681 239.34 337.581 229.429 334.915 225.617Z" fill="#E7B54F"/>
<path d="M313.592 188.642L309.023 200.078C309.404 200.459 309.785 200.84 310.165 201.221L304.454 220.281L299.885 222.187C293.031 217.994 286.938 214.182 286.938 214.182C286.558 213.801 281.227 212.276 281.227 205.796C280.465 202.365 284.273 179.493 285.035 174.538C287.319 165.008 289.604 155.097 293.412 145.186C296.458 137.18 298.742 132.606 301.027 130.7L321.208 139.086C322.731 141.755 323.873 144.804 324.635 147.854L313.592 188.642Z" fill="#E59A51"/>
<path d="M327.681 239.341C327.681 239.341 320.827 234.766 313.973 230.573C311.688 229.048 308.262 227.142 304.835 225.236L316.258 207.701C317.4 208.845 318.542 209.989 320.065 211.513C319.685 215.325 319.304 223.712 323.112 229.811C328.062 237.053 327.681 239.341 327.681 239.341Z" fill="#E59A51"/>
<path d="M302.169 55.9861C298.362 54.0801 292.65 57.1297 288.842 60.9416C287.319 62.4664 285.796 64.3724 285.035 65.516C285.035 65.8972 284.654 66.2783 284.654 66.6595C281.608 71.9963 278.562 77.333 275.135 82.2885C273.231 84.9569 265.615 93.7243 264.854 94.1055L234.392 78.8578C232.869 77.333 227.538 80.7637 229.062 82.6697C233.631 88.7688 260.285 107.829 261.808 108.21C261.808 108.21 264.473 108.972 265.615 108.972C266.377 108.972 267.9 108.972 268.662 108.591C270.185 108.21 272.469 107.066 274.754 105.541C274.754 105.541 274.754 105.541 275.135 105.541C280.846 101.729 287.319 96.0115 289.223 94.1055C292.269 90.6748 298.742 77.7142 302.169 67.8031C303.692 62.0852 304.073 57.1297 302.169 55.9861Z" fill="#F4AE8C"/>
<path d="M314.735 221.424L310.165 253.445C308.642 264.499 307.5 263.737 304.835 274.792C304.073 278.222 290.746 275.554 291.127 272.504C292.269 250.395 291.889 241.247 291.889 218.756C291.889 218.756 299.504 176.444 306.358 150.903C307.5 147.092 307.881 142.898 308.262 139.086C309.023 122.314 328.062 131.081 341.769 124.601C347.481 136.037 350.908 145.948 343.673 161.196C343.673 161.577 320.065 198.934 314.735 221.424Z" fill="#E7B54F"/>
<path opacity="0.52" d="M301.788 67.8031C298.742 77.7141 292.269 90.6747 288.842 94.1055C286.938 96.0114 280.465 101.729 274.754 105.541C276.277 104.017 286.558 93.3431 285.035 83.432C283.512 72.7586 287.7 68.1842 286.938 67.0407C286.177 65.8971 284.273 67.0407 284.273 67.0407C284.273 66.6595 284.654 66.2783 284.654 65.8971C285.415 64.3723 286.938 62.4663 288.462 61.3228L301.788 67.8031Z" fill="#F4AE8C"/>
<path d="M291.508 57.5109V56.3673L289.604 53.3178L287.319 49.5058L285.035 46.0751C283.131 43.4067 283.892 39.5948 286.938 38.07C289.223 36.5452 292.65 36.9264 294.554 38.8324L296.458 41.882L298.362 44.5503L302.931 51.0306C305.977 54.4614 291.508 57.8921 291.508 57.5109Z" fill="#F4AE8C"/>
<path opacity="0.52" d="M298.362 44.5502C297.219 46.4562 296.077 47.9809 295.696 48.7433C294.554 50.2681 291.508 52.5553 289.604 53.3177L287.319 49.5057L296.458 41.8818L298.362 44.5502Z" fill="#F4AE8C"/>
<path opacity="0.52" d="M340.246 121.552C336.819 118.883 326.158 124.22 321.588 126.507C321.588 125.745 321.588 125.364 321.588 124.601L334.535 112.022C336.819 114.69 339.104 119.264 340.246 121.552Z" fill="#F4AE8C"/>
<path d="M299.123 31.2084C298.362 36.9263 296.077 42.6442 292.65 46.8374C291.888 47.5998 288.842 50.6493 288.081 51.0305C286.558 51.7929 278.562 57.892 272.088 30.8272C272.088 30.446 271.708 29.6836 271.708 29.3024C271.327 27.3965 270.946 24.3469 271.327 21.6786C271.708 17.4854 273.612 13.2923 278.181 11.3863C280.846 10.2427 289.985 10.6239 291.127 11.3863C296.077 14.0547 298.362 19.0102 299.123 24.7281C299.504 26.6341 299.504 28.9212 299.123 31.2084Z" fill="#F4AE8C"/>
<path d="M345.958 118.883C328.442 111.259 313.973 140.611 304.835 141.755C296.077 142.898 281.227 138.705 284.273 130.319C287.319 122.695 288.842 87.6251 287.7 84.9568C283.892 76.9517 287.7 66.6594 291.127 55.6048C290.746 58.6544 294.173 53.3176 296.077 52.5552C301.027 50.6493 305.977 51.0305 310.165 53.6988C310.546 53.6988 310.546 54.08 310.546 54.08C320.446 62.0851 327.3 84.9568 327.681 86.8627C328.442 90.2935 329.585 92.9619 330.727 94.8678C335.677 104.016 342.531 102.492 345.958 118.883Z" fill="#FE2426"/>
<path d="M331.108 95.2491C328.442 92.9619 325.396 89.5312 322.731 85.338C320.446 81.5261 314.735 82.2885 313.592 86.4816C309.023 101.348 300.646 112.403 300.646 112.403L310.546 54.0801C320.827 61.704 327.681 85.338 328.062 87.244C328.823 90.6747 329.965 93.3431 331.108 95.2491Z" fill="#FE2426"/>
<path d="M305.215 53.6989C302.169 54.8425 298.362 59.4168 294.173 79.6201C294.173 79.6201 289.985 98.6798 287.7 105.541L277.038 122.314C272.469 128.413 266.758 136.418 262.569 142.136C261.808 143.28 267.9 146.329 267.9 146.329C272.85 140.992 279.323 136.037 284.654 130.7C289.985 125.363 300.265 112.784 300.265 112.403C300.265 112.403 307.881 97.1551 310.165 88.7688C312.45 80.3825 313.973 64.3724 313.973 63.9912C314.354 59.0356 309.785 51.7929 305.215 53.6989Z" fill="#F4AE8C"/>
<path opacity="0.52" d="M299.123 31.2085L289.223 32.7332C289.604 30.0649 290.746 28.1589 289.985 24.7282C287.7 18.629 278.942 16.7231 276.277 16.7231C273.612 18.629 271.708 28.9213 271.708 28.9213C271.327 27.0153 270.946 23.9658 271.327 21.2974L276.277 12.9111L299.123 23.9658C299.504 26.6341 299.504 28.9213 299.123 31.2085Z" fill="#F4AE8C"/>
<path d="M109.119 242.39C108.738 242.39 108.358 242.39 108.358 242.009C107.977 241.628 108.358 240.865 108.738 240.484C121.685 232.479 139.581 224.093 159 215.325C192.127 200.078 229.442 182.924 248.1 163.483C248.481 163.102 249.242 163.102 249.623 163.483C250.004 163.864 250.004 164.627 249.623 165.008C230.965 184.449 193.269 201.984 160.142 217.231C141.104 225.999 123.208 234.385 110.262 242.009C109.119 242.39 109.119 242.39 109.119 242.39Z" fill="#132541"/>
<path d="M276.277 16.3419C276.277 16.3419 271.708 22.0598 270.565 31.2085C269.423 40.3572 264.473 17.4855 273.231 12.53C282.369 7.57446 292.269 7.57446 292.269 7.57446L308.262 27.0154C336.058 54.0802 320.446 62.4665 320.446 62.4665C315.496 57.8921 303.312 57.8921 294.554 52.9366C294.554 52.9366 281.988 46.8375 289.223 33.1145C294.935 22.0598 284.654 16.7231 276.277 16.3419Z" fill="#132541"/>
<path d="M357 255.732C357 258.019 355.096 266.787 352.812 266.787C354.335 264.881 354.335 257.638 353.954 255.732C353.573 253.826 351.288 250.776 351.288 246.964C351.288 243.153 347.481 235.147 347.481 235.147C351.288 232.86 356.238 234.385 355.858 238.959C355.858 239.341 355.858 243.153 355.477 243.915C354.715 248.87 357 253.826 357 255.732Z" fill="#5B124B"/>
<path d="M262.569 142.136C262.569 142.136 253.812 148.616 253.431 149.76C252.669 150.903 251.146 156.621 256.477 157.003C256.477 157.003 263.331 157.384 264.092 153.953C265.615 148.616 267.9 146.329 267.9 146.329L262.569 142.136Z" fill="#F4AE8C"/>
<path d="M247.338 166.151V165.008C247.338 164.626 246.577 157.765 250.004 154.334C251.527 152.809 253.812 152.428 256.477 152.809C262.188 153.953 264.854 155.097 264.854 157.384C264.854 161.577 253.431 165.008 248.481 166.151H247.338ZM254.573 154.334C253.431 154.334 252.288 154.715 251.527 155.478C249.623 157.384 249.242 161.196 249.242 163.483C256.477 161.577 262.95 158.527 262.95 157.003C262.95 157.003 262.95 155.478 256.096 154.334C255.335 154.334 254.954 154.334 254.573 154.334Z" fill="#132541"/>
<path d="M263.331 153.191C262.95 154.334 262.569 155.478 262.569 156.621C262.569 157.384 262.188 157.765 261.808 157.765C261.427 157.765 260.665 157.384 260.665 157.003C260.285 156.24 260.285 155.478 260.285 154.715C260.285 153.953 260.285 153.191 260.285 152.428C260.285 151.666 261.046 150.904 262.188 151.285C262.95 150.904 263.712 152.047 263.331 153.191C263.331 152.81 263.331 152.81 263.331 153.191Z" fill="#F4AE8C"/>
<path d="M260.665 152.428C260.285 153.572 259.904 154.715 260.285 155.478C260.285 155.859 260.285 155.859 260.285 155.859H259.904C260.285 155.859 260.285 155.097 260.285 154.715C260.285 154.334 260.665 153.953 261.046 153.953C261.427 153.953 261.427 154.334 261.808 154.334C262.188 155.097 261.808 155.859 261.427 157.003C261.427 157.384 261.046 157.384 260.665 157.765C260.285 158.146 259.523 157.765 259.142 157.765C258.381 157.384 258.381 157.003 258.381 156.24C258 154.715 258 153.191 258 151.666C258 150.904 258.762 150.141 259.523 150.141C260.285 150.522 260.665 151.285 260.665 152.428Z" fill="#F4AE8C"/>
<path d="M258 152.81C257.619 153.953 257.619 155.097 257.619 155.859C257.619 156.24 258 156.24 257.619 156.24C257.238 156.24 256.858 156.621 257.238 156.24C257.619 155.859 257.619 155.478 257.619 155.097C257.619 154.716 258 154.334 258.381 154.334C258.762 154.334 258.762 154.716 259.142 154.716C259.523 155.478 259.142 156.24 258.762 157.003C258.762 157.384 258.381 157.384 258 157.765C257.619 158.146 257.238 158.146 256.477 157.765C255.715 157.384 255.715 157.003 255.335 156.621C254.573 155.097 254.573 153.953 254.573 152.428C254.573 151.666 255.335 150.904 256.096 150.904C256.858 150.904 257.619 151.666 257.619 152.428C258 152.428 258 152.81 258 152.81Z" fill="#F4AE8C"/>
<path d="M255.715 151.285C255.335 152.047 254.954 153.191 254.954 153.953C254.954 154.334 254.954 154.715 254.954 154.715H254.573L254.954 154.334V153.953C254.954 153.572 255.335 153.572 255.715 153.572C256.096 153.572 256.096 153.953 256.096 153.953C256.096 154.334 256.096 154.715 256.096 155.097C256.096 155.478 255.715 155.478 255.335 155.859C254.954 156.24 254.192 155.859 253.812 155.859C252.669 155.097 252.669 154.334 252.669 153.572C252.669 152.047 252.669 150.903 253.05 149.76C253.05 148.997 254.192 148.235 254.954 148.616C255.335 149.379 255.715 150.141 255.715 151.285Z" fill="#F4AE8C"/>
<path d="M233.631 76.9517C232.869 73.9021 232.488 70.4714 224.112 69.709C215.735 68.9466 213.831 68.5654 216.496 74.2833C219.162 80.0013 219.923 83.432 226.777 83.0508C234.392 82.2884 234.392 80.7636 233.631 76.9517Z" fill="#F4AE8C"/>
<path d="M212.308 53.699L210.404 54.0802L206.977 61.7041L222.969 79.239L224.873 78.8578L212.308 53.699Z" fill="#132541"/>
<path opacity="0.48" d="M220.304 78.8578C220.304 78.8578 224.112 80.7638 225.635 79.6202C227.158 78.4766 227.538 77.7142 228.681 77.7142C229.823 77.7142 229.823 75.427 229.823 74.6647C229.442 73.9023 227.538 70.0903 227.158 70.0903C226.396 70.8527 215.735 72.7587 220.304 78.8578Z" fill="#F4AE8C"/>
<path d="M209.262 61.3229L224.873 78.8578L227.158 70.4715L212.308 53.699L209.262 61.3229Z" fill="#ABC5D3"/>
<path d="M226.777 73.521C226.777 72.7586 226.777 71.9962 226.777 71.2338C226.777 70.4715 226.777 69.7091 226.396 68.9467C226.015 67.4219 225.635 66.2783 224.492 65.5159L226.777 64.3723C226.777 65.1347 226.396 65.5159 226.015 66.2783C225.635 66.6595 225.635 66.6595 225.254 67.0407C224.873 67.0407 224.873 67.4219 224.492 67.4219C223.731 67.8031 222.588 67.4219 222.588 66.6595C222.208 65.8971 222.588 64.7535 223.35 64.7535C223.35 64.7535 223.35 64.7535 223.35 64.3723C223.731 63.61 224.492 63.2288 225.254 63.2288H225.635C227.919 64.3723 229.062 66.2783 229.823 68.1843C230.204 68.9467 230.585 70.0903 230.585 71.2338C230.965 72.3774 230.965 73.1398 230.965 74.2834C230.965 75.8082 230.204 76.9518 228.681 76.9518C227.158 76.9518 226.015 76.1894 226.015 74.6646C226.777 73.9022 226.777 73.521 226.777 73.521Z" fill="#F4AE8C"/>
<path d="M221.446 81.1449C220.685 80.7637 219.923 80.3825 219.162 80.0013C218.781 79.6201 218.4 79.6201 218.019 78.8578C218.019 78.8578 217.638 78.4766 217.638 78.0954C217.258 77.333 217.258 76.9518 218.019 76.1894C218.4 75.8082 218.781 75.8082 218.781 75.8082H219.162L222.969 73.9022C223.731 73.521 224.492 73.9022 224.492 74.6646C224.873 75.427 224.492 75.8082 224.112 76.1894L220.304 78.8578H219.923C219.923 78.8578 220.304 78.8578 220.304 78.4766C220.685 78.0954 220.685 77.333 220.685 76.9518C220.685 76.9518 220.304 76.5706 220.685 76.5706C220.685 76.5706 221.065 76.5706 221.446 76.9518C221.827 77.333 222.588 77.333 223.35 77.7142C224.492 78.0954 224.873 78.8578 224.492 80.0013C223.35 81.1449 222.588 81.5261 221.446 81.1449Z" fill="#F4AE8C"/>
<path d="M217.638 78.0953C217.258 77.7141 217.258 77.3329 216.496 76.9517C216.115 76.5705 215.735 75.0457 215.735 74.2834C215.735 73.9022 216.115 73.521 216.115 73.521C217.638 72.3774 219.542 71.615 221.065 71.615C221.827 71.615 222.208 71.9962 222.208 72.7586C222.208 73.521 221.827 73.9022 221.065 73.9022C219.542 74.2834 218.4 74.6645 217.638 75.4269L218.019 74.2834C218.019 74.6645 218.019 74.2834 218.4 74.2834C218.781 74.2834 219.162 74.6645 219.542 75.0457C220.304 75.8081 220.685 76.9517 219.923 77.7141C219.162 78.4765 218.019 78.8577 217.258 78.0953C218.019 78.0953 218.019 78.0953 217.638 78.0953Z" fill="#F4AE8C"/>
<path d="M214.592 70.8527C215.354 70.0903 215.354 70.0903 215.735 70.0903C216.115 70.0903 216.496 70.0903 216.877 70.0903C217.638 70.0903 218.019 70.4715 218.4 70.4715C218.781 70.8527 219.162 71.2339 218.781 71.6151C218.781 71.9963 218.4 71.9963 218.4 71.9963C218.019 71.9963 217.638 72.3775 217.638 72.3775V72.7587C217.638 72.7587 217.638 73.1399 218.019 72.7587C217.258 73.5211 216.496 73.9023 215.354 73.1399C214.212 72.7587 213.831 71.9963 214.592 70.8527Z" fill="#F4AE8C"/>
<path d="M108.358 244.296C107.977 248.108 101.885 252.682 96.5538 254.588C90.0808 256.494 86.6538 255.351 86.6538 255.351C86.2731 254.588 86.2731 253.445 85.8923 252.682C88.5577 252.301 93.1269 251.539 98.0769 250.014C103.408 248.489 105.692 245.058 106.454 242.771C106.835 243.534 106.835 243.915 106.835 243.915C107.596 243.915 107.977 244.296 108.358 244.296Z" fill="#ABC5D3"/>
<path d="M85.8923 253.826L85.1308 250.776C85.1308 250.776 87.4154 251.92 90.8423 250.776C96.9346 249.252 104.169 245.058 106.073 240.865L107.977 243.534C105.312 249.633 95.7923 254.207 88.9385 254.207C88.5577 254.588 86.2731 254.207 85.8923 253.826Z" fill="#E7B54F"/>
<path d="M107.215 243.153C104.169 248.871 95.0308 253.445 88.1769 253.445C87.7962 253.445 86.2731 253.445 85.5115 253.064V254.207C86.2731 254.207 88.5577 254.588 88.9385 254.588C95.7923 254.588 105.312 249.633 107.977 243.915L107.215 243.153Z" fill="#E7B54F"/>
</svg>
