<svg width="449" height="389" viewBox="0 0 449 389" fill="none" xmlns="http://www.w3.org/2000/svg">
<path d="M87.6592 107.782C57.7167 135.418 36.6732 172.372 27.9836 212.152C22.4349 237.486 22.0161 264.39 31.0198 288.676C40.0235 312.963 59.2872 334.109 84.0996 341.437C110.587 349.289 138.855 340.914 166.18 336.622C193.505 332.33 225.646 333.795 243.234 355.151C251.401 364.991 255.798 378.496 266.895 384.881C280.506 392.733 297.675 386.347 311.39 378.705C374.835 343.531 423.099 281.977 442.048 211.943C449.586 184.306 452.518 154.262 442.991 127.253C436.186 108.2 421.947 90.5087 403.416 81.8199C381.221 71.4562 358.084 77.6325 336.412 86.3213C316.102 94.4867 290.975 106.525 269.094 97.5226C253.599 91.1368 245.014 76.7951 232.556 66.536C218.945 55.4394 201.776 55.0207 185.234 58.1612C161.259 62.558 137.494 72.503 116.974 85.3792C106.504 91.8696 96.6629 99.4069 87.6592 107.782Z" fill="#F0C6B6"/>
<path d="M169.288 315.212C187.564 315.255 202.39 310.195 202.405 303.911C202.42 297.628 187.617 292.499 169.341 292.457C151.066 292.415 136.239 297.474 136.225 303.758C136.21 310.041 151.013 315.17 169.288 315.212Z" fill="#D44C11"/>
<path d="M169.302 313.582C186.976 313.623 201.315 308.746 201.329 302.687C201.344 296.629 187.027 291.684 169.353 291.643C151.678 291.602 137.339 296.48 137.325 302.538C137.311 308.597 151.627 313.541 169.302 313.582Z" fill="#FF820F"/>
<path d="M199.931 302.166C199.908 307.939 186.23 312.622 169.331 312.575C166.087 312.584 162.99 312.398 160.028 312.061C147.676 310.67 138.754 306.689 138.765 301.994C138.773 301.62 138.824 301.258 138.919 300.908C140.558 290.926 145.796 283.427 145.796 283.427L169.339 285.471L183.228 284.322L192.888 283.524C192.888 283.524 198.118 291.056 199.712 301.073C199.847 301.439 199.883 301.825 199.931 302.166Z" fill="#D44C11"/>
<path d="M199.931 302.166C199.947 305.553 195.222 308.588 187.947 310.459C182.74 311.812 176.28 312.589 169.275 312.607C166.031 312.616 162.934 312.43 159.973 312.093C163.598 311.201 167.088 309.944 170.315 308.099C174.867 305.533 178.817 301.723 180.919 296.94C182.651 292.996 183.083 288.651 183.228 284.322L187.788 283.966L192.888 283.524C192.888 283.524 198.118 291.056 199.712 301.073C199.847 301.439 199.883 301.824 199.931 302.166Z" fill="#D44C11"/>
<path d="M199.931 302.166C199.948 305.553 195.222 308.588 187.947 310.459C190.35 301.811 190.335 292.553 187.844 283.935L192.944 283.492C192.944 283.492 198.174 291.024 199.767 301.041C199.847 301.439 199.883 301.824 199.931 302.166Z" fill="#D44C11"/>
<path d="M169.291 309.711C172.796 309.719 175.644 306.884 175.652 303.379C175.66 299.875 172.826 297.027 169.321 297.019C165.816 297.011 162.968 299.845 162.96 303.35C162.952 306.855 165.787 309.703 169.291 309.711Z" fill="white"/>
<path d="M169.296 303.217C167.615 303.182 165.564 305.019 165.843 306.41C166.165 307.813 172.124 307.839 172.438 306.515C172.752 305.192 171.165 303.256 169.296 303.217Z" fill="#D44C11"/>
<path d="M165.102 301.369C164.017 301.731 164.582 304.657 166.1 304.084C167.607 303.555 166.342 300.956 165.102 301.369Z" fill="#D44C11"/>
<path d="M168.068 302.553C169.877 302.294 169.065 299.066 167.61 299.234C166.254 299.381 166.247 302.856 168.068 302.553Z" fill="#D44C11"/>
<path d="M173.557 301.371C172.345 300.994 171.038 303.55 172.533 304.098C174.071 304.658 174.627 301.756 173.557 301.371Z" fill="#D44C11"/>
<path d="M170.672 302.652C172.524 302.922 172.476 299.479 171.148 299.352C169.689 299.19 168.863 302.394 170.672 302.652Z" fill="#D44C11"/>
<path d="M169.325 293.816C182.719 293.847 193.585 290.138 193.596 285.532C193.606 280.926 182.757 277.166 169.364 277.135C155.971 277.104 145.104 280.813 145.094 285.419C145.083 290.026 155.932 293.785 169.325 293.816Z" fill="#FF820F"/>
<path d="M192.396 285.503C192.373 286.624 191.657 287.698 190.262 288.68C186.602 291.254 178.604 293.021 169.345 293.036C160.054 292.995 152.087 291.2 148.425 288.605C147.093 287.632 146.301 286.571 146.325 285.449C146.336 281.271 156.643 277.925 169.364 277.961C182.098 277.953 192.407 281.325 192.396 285.503Z" fill="#912B14"/>
<path d="M190.262 288.681C186.602 291.254 178.604 293.021 169.345 293.036C160.054 292.995 152.087 291.2 148.425 288.606C152.086 286.032 160.084 284.265 169.342 284.25C178.645 284.247 186.656 286.054 190.262 288.681Z" fill="#912B14"/>
<path opacity="0.5" d="M149.719 299.462C151.692 296.063 151.59 292.32 149.49 291.1C147.39 289.881 144.088 291.649 142.114 295.048C140.141 298.447 140.244 302.19 142.344 303.41C144.444 304.629 147.746 302.861 149.719 299.462Z" fill="white"/>
<path opacity="0.5" d="M151.72 305.802C152.738 304.048 152.685 302.117 151.603 301.488C150.52 300.86 148.818 301.772 147.8 303.526C146.782 305.28 146.834 307.211 147.916 307.839C148.999 308.467 150.702 307.555 151.72 305.802Z" fill="white"/>
<path d="M35.5224 316.034L41.4925 282.497C42.2886 277.307 47.4627 273.713 52.2388 274.911C57.4129 275.71 60.995 280.9 59.801 285.691C59.801 286.489 59.403 287.288 59.005 287.687L45.8706 319.228C44.6766 322.023 41.4925 323.22 38.7065 322.023C36.3184 321.224 35.1244 318.429 35.5224 316.034Z" fill="#F4AE8C"/>
<path d="M114.328 284.094C113.93 288.486 113.532 292.877 113.134 297.269C113.134 299.265 112.736 301.661 112.736 303.657C112.736 304.855 112.736 305.653 112.736 306.851C112.736 307.65 112.736 308.847 112.736 309.247L112.736 310.844C112.736 313.638 109.95 316.034 107.164 316.034C104.776 316.034 102.786 314.437 102.388 312.441C101.99 310.844 101.592 309.247 101.592 308.049C101.194 306.851 101.194 305.653 101.194 304.456C100.796 302.06 100.796 299.665 100.398 297.668C100 293.277 99.602 288.486 99.602 284.094C99.602 280.101 102.786 276.508 106.766 276.109C110.746 276.109 114.328 279.303 114.726 283.295C114.328 283.295 114.328 283.695 114.328 284.094Z" fill="#F4AE8C"/>
<path d="M133.831 98.8424C133.831 98.8424 133.831 100.04 131.443 100.839C129.055 101.637 129.453 96.8462 129.453 96.8462L133.035 97.2454L133.831 98.8424Z" fill="#E59A51"/>
<path d="M117.114 102.436C117.512 104.033 118.308 105.63 119.502 107.626C123.085 114.413 128.657 121.999 128.657 121.999C129.055 122.398 139.403 128.387 144.577 130.383C152.935 133.577 157.711 132.779 162.886 134.376C165.274 135.174 166.07 130.383 164.08 129.185C163.682 129.185 163.682 128.786 163.284 128.786C162.886 128.387 162.09 127.988 161.294 127.588C157.313 125.193 152.935 121.999 149.751 120.003C145.771 117.607 142.189 115.212 138.607 112.417C135.821 108.424 133.831 104.033 132.239 99.2416L131.443 96.8461C130.647 94.0514 126.667 69.6972 121.891 69.2979C117.114 68.8987 112.736 89.6596 117.114 102.436Z" fill="#F4AE8C"/>
<path d="M117.114 102.436C117.512 104.033 118.308 105.63 119.502 107.626C119.901 107.227 127.065 101.637 131.045 99.2415C132.637 98.443 133.831 98.0438 133.831 98.8423C133.433 97.2453 126.667 69.6971 121.891 69.2979C119.503 69.2979 117.512 73.6896 116.318 80.0776C115.124 86.8648 114.726 95.6483 117.114 102.436Z" fill="#E7B54F"/>
<path d="M54.2288 163.521C54.2288 163.521 52.6368 167.913 70.5472 167.513C88.0597 167.114 61.393 158.331 61.393 158.331L54.2288 163.521Z" fill="#E59A51"/>
<path d="M88.4577 171.106C88.4577 171.506 92.0398 203.446 92.0398 203.446L93.6318 218.617C94.0298 221.013 94.0298 223.807 94.4279 225.804L94.8259 233.389L97.6119 294.874C97.6119 296.87 100.398 298.068 103.98 298.467C109.552 299.265 116.716 298.068 116.716 294.874L120.298 232.591L120.697 225.005C120.697 221.811 120.697 219.416 120.697 216.621L120.697 201.05L120.298 169.909C120.298 161.125 113.134 153.939 103.98 153.939C100 153.939 96.0199 155.536 93.2338 158.33C90.4477 162.323 88.4577 166.315 88.4577 171.106Z" fill="#ABC5D3"/>
<path d="M88.4577 171.106C88.4577 171.506 92.0398 203.446 92.0398 203.446L93.6318 218.617C94.0298 221.013 94.0298 223.807 94.4279 225.804L94.8259 233.389L97.6119 294.874C97.6119 296.87 100.398 298.068 103.98 298.467C100.398 288.086 100 266.128 100.398 260.937C100.796 254.55 104.776 238.18 107.562 229.796C109.95 221.412 105.174 215.822 101.194 197.457C97.2139 179.091 120.697 174.3 120.697 174.3L119.502 162.323C116.318 165.517 88.4577 159.129 88.4577 171.106Z" fill="#ABC5D3"/>
<path d="M35.5224 299.665C34.7264 304.855 52.6368 308.448 54.2289 304.056C58.209 292.079 59.403 292.079 62.9851 280.101C66.5672 268.124 75.3234 234.986 75.3234 234.986L82.8856 207.438C86.0697 195.86 88.4577 189.073 91.6418 173.901C91.6418 173.103 92.0398 171.905 92.4378 171.106C96.4179 153.939 89.2537 154.338 81.2935 152.342C73.3333 150.345 64.9751 155.136 62.9851 163.121C62.5871 165.118 62.1891 166.715 61.393 168.711C58.607 179.091 56.2189 189.472 53.4328 199.852C53.4328 199.852 47.0647 229.397 46.6667 231.792L39.5025 274.113C37.1144 286.489 37.5124 286.889 35.5224 299.665Z" fill="#ABC5D3"/>
<path d="M57.811 181.487C66.5672 168.312 91.6418 173.502 91.6418 173.502C92.0398 172.704 93.6319 164.319 93.6319 163.521C93.6319 141.163 66.1692 150.745 63.7811 158.73C63.3831 160.726 58.607 179.89 57.811 181.487Z" fill="#ABC5D3"/>
<path opacity="0.28" d="M117.114 102.436C117.512 104.033 118.308 105.63 119.502 107.626C119.901 107.227 127.065 101.637 131.045 99.2416C128.259 100.439 125.473 100.04 125.473 98.8423C126.667 81.6746 125.075 75.2866 125.075 75.2866L116.318 80.0776C115.124 86.8648 114.726 95.6483 117.114 102.436Z" fill="#E7B54F"/>
<path d="M54.2289 163.521C59.005 159.528 70.9453 160.726 83.2836 163.521C103.184 167.912 125.473 175.897 124.677 172.304C116.318 131.98 128.657 91.2566 124.677 73.2904C121.493 57.7196 67.3632 55.7234 62.9851 70.0964C62.9851 74.0889 62.1891 79.2791 62.5871 84.8686C63.3831 106.428 65.3732 138.368 54.2289 163.521Z" fill="#E7B54F"/>
<path opacity="0.28" d="M54.2289 163.521C59.005 159.528 70.9453 160.726 83.2836 163.521C83.6816 163.121 84.0796 162.722 84.0796 162.323C85.2737 155.136 104.378 155.136 102.786 151.543C101.194 147.95 81.6916 142.36 77.3135 141.163C72.9353 139.965 64.1791 114.413 68.9552 104.032C74.1294 92.8535 72.9353 74.488 72.9353 74.488L62.1891 85.2678C63.3831 106.428 65.3732 138.368 54.2289 163.521Z" fill="#E7B54F"/>
<path d="M48.6567 85.2678C48.6567 85.2678 49.4528 87.6633 55.0249 89.2603C60.597 90.8573 63.7811 96.846 66.5672 96.0475C67.7612 93.652 59.801 82.8723 59.801 82.8723L48.6567 85.2678Z" fill="#E59A51"/>
<path d="M33.9304 118.405C33.9304 123.196 51.8408 139.566 55.4229 144.756C57.4129 147.551 61.393 148.349 64.1791 146.353C66.9652 144.357 50.2488 116.808 50.2488 116.808C50.6468 116.01 51.0448 114.812 51.8408 114.014C55.0249 108.823 64.1791 96.4468 64.9751 95.249C68.9552 90.458 72.9353 86.0663 72.9353 70.4956C72.9353 52.5294 56.6169 76.0851 49.8508 85.6671C49.0547 86.8648 48.2587 88.0626 47.8607 88.861C44.6766 94.4505 33.9304 113.614 33.9304 118.405Z" fill="#F4AE8C"/>
<path d="M48.6567 85.2679C52.2388 83.6709 66.5672 92.8536 66.5672 96.0476C70.1493 89.2604 72.9353 86.0664 72.9353 70.4957C72.9353 52.5295 55.0249 75.6859 48.6567 85.2679Z" fill="#E7B54F"/>
<path d="M92.8358 71.6934C97.2139 74.0889 109.552 75.2867 110.348 64.1077C110.348 62.91 105.97 63.7085 105.97 62.5107L107.164 50.9325L107.164 49.3355C107.96 45.7422 105.572 42.5483 101.99 41.7498C101.194 41.7498 100.796 41.7498 100 41.7498C98.408 42.149 96.8159 42.9475 95.6219 44.1453C95.6219 44.5445 95.2239 44.5445 95.2239 44.9437L92.4378 54.5257L90.4478 60.5145C90.0498 60.5145 87.6617 60.5145 87.2637 60.5145C86.0697 64.9062 88.8557 69.2979 92.8358 71.6934Z" fill="#F4AE8C"/>
<path opacity="0.67" d="M90.4478 60.5145C91.6418 59.3167 92.4378 56.1227 93.2338 57.7197C94.4278 60.5145 100 66.5032 103.98 66.5032C107.96 66.5032 110.348 64.1077 110.348 64.1077C110.348 62.9099 105.97 63.7084 105.97 62.5107L107.164 50.9325L100 41.7497L99.204 40.552C99.204 40.552 97.6119 42.149 95.6219 44.5445C95.6219 44.9437 95.2239 44.9437 95.2239 45.343L90.4478 60.5145Z" fill="#F4AE8C"/>
<path d="M123.881 34.5633C121.095 44.5445 121.891 55.7235 115.522 61.313C111.94 64.1077 107.164 66.5032 102.786 64.9062C98.408 63.3092 93.6318 56.522 93.2338 51.731C92.4378 46.94 92.8358 40.9513 94.0299 36.5596C99.602 16.9963 126.269 26.1791 123.881 34.5633Z" fill="#F4AE8C"/>
<path d="M123.085 37.358C123.085 37.358 123.085 29.7723 121.493 32.1678C121.095 32.9663 119.104 32.9663 117.512 32.567C112.736 30.97 107.562 32.1678 101.592 29.373C98.806 28.5745 97.2139 40.552 97.2139 40.552L93.2338 52.1302L90.8458 29.373C90.8458 29.373 101.592 16.9963 111.542 19.791C121.493 22.5858 127.065 30.5708 123.085 37.358Z" fill="#BC681D"/>
<path d="M92.8358 45.3431C94.0298 48.1378 96.8159 49.3356 98.806 48.5371C100.796 47.7386 97.2139 46.1416 98.806 42.5483C99.602 39.7536 96.8159 36.9589 94.0298 38.9551C91.6418 39.7536 91.6418 42.5483 92.8358 45.3431Z" fill="#F4AE8C"/>
<path d="M62.5871 147.151C62.5871 147.151 60.597 152.342 57.8109 153.939C56.6169 157.133 56.6169 157.133 56.6169 157.133C56.6169 157.133 54.6269 154.737 54.2289 150.345C53.8308 145.554 55.4229 144.357 55.4229 144.357L62.5871 147.151Z" fill="#F4AE8C"/>
<path d="M64.1791 145.555C64.5771 146.752 64.5771 147.95 64.9751 149.148C65.3731 150.346 65.7711 151.543 66.1692 152.342C66.5672 152.741 66.5672 153.939 66.1692 154.338C65.7711 154.737 64.9751 154.737 64.1791 154.338C62.9851 153.14 62.1891 151.943 61.791 150.346C61.393 149.148 60.597 147.95 60.199 146.353C59.801 145.555 60.597 144.357 61.393 143.958C62.5871 143.958 63.7811 144.357 64.1791 145.555Z" fill="#F4AE8C"/>
<path d="M161.692 125.193L161.294 129.585C161.294 134.376 162.886 135.973 168.856 133.178C169.652 132.779 173.234 127.988 173.234 127.988C175.224 124.794 175.224 123.995 171.642 122.398C169.254 120.801 164.08 128.786 161.692 125.193Z" fill="#F4AE8C"/>
<path d="M170.846 125.991L173.632 122.398C173.632 121.999 174.428 121.6 174.428 121.6L175.224 120.801L176.816 119.603C177.214 119.204 178.01 119.204 178.408 120.003C178.806 120.402 178.806 121.2 178.408 121.6L176.816 122.797C176.418 123.197 176.02 123.596 175.622 124.394L173.632 127.988C173.234 128.786 172.04 129.185 171.244 128.387C170.448 127.988 170.05 126.79 170.846 125.991C170.448 125.991 170.846 125.991 170.846 125.991Z" fill="#F4AE8C"/>
<path d="M169.254 125.193L172.04 118.406C172.04 118.406 172.438 117.208 172.836 117.208C173.234 116.809 173.234 116.809 173.632 116.409L175.224 115.212L178.01 112.816C178.408 112.417 179.602 112.417 180 112.816C180.398 113.215 180.398 114.014 180 114.812L177.612 117.607L176.02 118.805L175.622 119.603C175.622 120.003 175.622 119.603 175.622 120.003L173.234 126.79C172.836 127.988 171.642 128.786 170.448 128.387C169.254 127.588 168.856 126.391 169.254 125.193Z" fill="#F4AE8C"/>
<path d="M166.468 123.596L167.662 119.603L168.458 117.607L168.856 116.409C168.856 116.409 169.254 116.01 169.254 115.611L169.652 115.212L174.826 108.824C175.224 108.025 176.02 108.025 176.816 108.424C177.214 108.824 177.612 109.622 177.214 110.421L172.438 117.208L172.04 117.607L172.04 118.805L171.642 120.801L170.448 124.794C170.05 125.991 169.254 126.391 168.06 126.391C166.866 125.991 166.468 124.794 166.468 123.596Z" fill="#F4AE8C"/>
<path d="M163.682 123.596C164.08 122.398 164.478 120.801 164.478 119.603C164.876 118.406 165.274 117.208 166.07 115.611L169.652 108.824C170.05 108.424 170.448 108.025 171.244 108.424C171.642 108.824 172.04 109.223 171.642 109.622L168.856 117.208C168.458 118.006 168.06 119.204 168.06 120.402C167.662 121.6 167.662 122.797 167.264 123.995C167.264 125.193 166.07 125.592 165.274 125.592C164.478 125.592 163.284 124.794 163.682 123.596C163.682 123.995 163.682 123.995 163.682 123.596Z" fill="#F4AE8C"/>
<path d="M161.692 125.193C161.294 125.592 161.294 126.391 161.294 126.391L161.294 125.991L160.896 124.794L160.497 121.999L160.099 120.402C160.099 120.003 160.099 120.003 160.099 119.204C160.099 118.006 160.099 118.406 160.099 118.406L160.099 118.006C160.497 117.208 160.497 116.409 160.497 116.01L160.497 115.611C160.497 114.812 160.895 114.413 161.692 114.413C162.09 114.413 162.488 114.812 162.488 115.212C162.886 116.409 163.284 117.208 163.284 118.805L163.284 119.204C163.284 119.204 163.284 120.003 163.284 118.805C163.284 118.406 163.284 118.805 163.284 119.204L163.682 120.402L164.876 122.797L165.274 123.995L165.672 124.794L165.672 125.193L165.672 125.592C165.672 125.592 165.672 126.79 165.274 127.189C164.478 128.387 162.886 129.185 161.692 128.387C161.692 127.988 161.294 126.391 161.692 125.193Z" fill="#F4AE8C"/>
<path opacity="0.37" d="M172.04 126.79C172.04 126.79 173.632 122.398 172.04 121.999C167.264 120.801 168.458 123.596 166.866 123.995C161.692 124.794 165.274 129.185 165.274 129.585C166.07 133.178 168.458 132.379 169.652 131.182C170.448 130.782 172.04 126.79 172.04 126.79Z" fill="#F4AE8C"/>
<path d="M98.806 314.038C98.806 316.832 99.204 318.829 100.796 320.026C101.99 320.825 108.358 320.426 110.746 321.224C118.706 326.015 123.085 326.414 126.667 326.414C133.831 326.015 135.423 326.015 136.219 322.821C136.219 322.422 136.219 321.623 136.219 321.224C135.821 318.829 133.035 316.832 127.065 314.038C119.502 310.844 119.502 306.851 114.328 302.459C116.716 296.87 101.99 308.448 100.796 301.262C100 306.053 98.806 310.844 98.806 314.038Z" fill="#605B55"/>
<path d="M20 330.008C20 330.806 20 332.004 20.796 332.802C22.3881 333.601 27.9602 334 29.5522 334C32.7363 334 37.9104 332.403 40.2985 330.008C41.4925 328.81 42.2886 327.612 43.8806 326.814L47.8607 325.217C50.2488 324.817 51.0448 322.821 51.0448 319.627C51.4428 315.635 50.6468 310.844 51.4428 308.049C42.2886 313.239 36.3184 301.262 34.7264 309.247L30.7463 316.034C29.1542 318.829 26.7662 321.224 23.9801 323.22C21.592 325.217 20 327.612 20 330.008Z" fill="#605B55"/>
<path d="M98.806 314.437C98.806 317.232 99.204 319.228 100.796 320.426C102.388 321.224 108.358 320.825 110.746 321.623C117.512 326.015 123.085 326.813 126.667 326.813C133.831 326.414 135.423 326.414 136.219 323.22C135.423 322.821 135.025 321.623 133.433 320.426C130.647 319.228 131.443 324.418 125.075 324.418C118.706 324.817 119.502 320.426 110.746 318.429C110.348 318.429 110.348 318.429 109.95 318.429C100.796 320.026 98.806 315.235 98.806 314.437Z" fill="#605B55"/>
<path d="M20 330.007C20 330.806 20 332.004 20.796 332.802C22.3881 333.601 27.9602 334 29.5522 334C32.7363 334 37.9104 332.403 40.2985 330.007C41.4925 328.81 42.2886 327.612 43.8806 326.813L47.8607 325.216C50.2488 324.817 51.0448 322.821 51.0448 319.627C50.2488 322.022 47.4627 323.22 43.8806 324.418C43.0846 324.817 41.8905 325.216 41.4925 326.015C38.7065 329.608 36.3184 331.604 32.7363 331.604C28.7562 332.004 25.5721 331.604 23.5821 328.81C22.7861 327.612 21.592 328.41 20.796 329.608C20.796 329.608 20.398 330.407 20 330.007Z" fill="#605B55"/>
<path d="M214.974 303.539C219.093 306.895 225.083 303.539 230.698 303.539C234.442 303.539 238.186 294.963 239.683 290.488C240.058 289.37 240.432 288.251 240.432 288.251C241.181 286.76 241.555 284.895 242.304 283.404C250.166 259.913 244.176 243.133 250.54 231.947C260.648 214.049 249.792 208.083 244.55 218.897C241.555 225.981 238.935 235.676 237.063 245.371C236.314 250.218 235.191 254.692 234.816 259.167C234.068 263.641 233.693 267.743 232.945 271.845C232.196 277.438 228.452 293.099 223.211 294.963C208.236 300.183 214.6 303.166 214.974 303.539Z" fill="#E59A51"/>
<path opacity="0.57" d="M222.088 304.658C236.314 302.793 240.432 288.624 240.432 288.251C241.181 286.76 241.555 284.895 242.304 283.404C244.176 270.353 246.422 249.845 246.422 249.845L237.063 242.76C235.191 254.32 237.063 273.336 236.314 284.895C235.94 290.116 232.945 294.963 228.452 297.2C220.59 300.929 222.462 303.539 222.088 304.658Z" fill="#E59A51"/>
<path d="M207.487 168.931C204.492 170.796 203.369 173.406 220.59 176.389C222.088 176.762 223.959 177.135 226.206 177.135C228.452 177.507 230.324 178.626 231.447 180.118C232.196 180.863 232.57 181.982 232.945 183.101C234.442 189.439 235.191 199.88 235.191 205.473C235.191 213.303 218.718 230.083 249.792 255.065C257.653 261.404 271.88 280.794 277.495 296.827C278.619 299.81 279.367 302.421 279.742 305.031C282.737 324.42 337.022 318.827 337.022 289.743C341.888 277.065 318.677 243.133 301.456 219.269C283.486 193.914 273.752 184.965 268.885 175.27C267.013 171.541 265.515 168.186 264.018 164.83C262.895 162.22 261.772 159.609 260.649 157.372C257.653 152.152 255.407 147.677 252.787 145.813C252.038 145.067 251.289 144.694 250.166 144.694C250.166 144.694 250.166 144.694 249.792 144.694C247.545 143.949 245.673 143.949 243.802 143.576C237.811 143.203 236.314 144.694 231.821 148.423C228.826 150.66 227.329 151.406 225.457 151.406C225.083 151.406 224.708 151.406 224.334 151.406C223.959 151.406 223.585 151.406 223.211 151.406C219.467 151.406 211.979 149.542 207.861 149.169C207.112 149.169 205.989 149.169 205.615 149.169C204.492 149.542 204.117 151.406 204.866 154.016C205.989 158.118 209.359 163.338 212.354 164.457C219.841 167.067 226.206 168.931 207.487 168.931Z" fill="#605B55"/>
<path d="M220.59 176.389C222.088 176.762 223.959 177.135 226.206 177.135C228.452 177.507 230.324 178.626 231.447 180.118C232.196 180.863 232.57 181.982 232.945 183.101C234.442 189.439 235.191 199.88 235.191 205.473C235.191 213.303 219.467 229.71 248.294 253.947C248.668 254.32 249.417 254.692 249.792 255.065C256.53 260.658 267.762 275.201 274.5 289.37C275.624 291.98 276.747 294.217 277.495 296.827L281.239 284.895L283.86 277.065C283.86 277.065 264.767 260.659 258.402 242.388C257.279 239.032 256.53 236.049 256.53 233.812C256.53 222.998 265.515 220.015 265.515 210.32C265.515 198.388 264.767 194.287 258.028 191.304C251.289 188.321 249.792 182.728 250.54 179.372C250.915 177.135 256.156 172.66 258.777 162.592C259.151 161.101 259.525 159.237 259.9 157.372C257.653 152.152 255.407 147.677 252.787 145.813C252.038 145.067 251.289 144.694 250.166 144.694C250.166 144.694 250.166 144.694 249.792 144.694C247.545 143.949 245.673 143.949 243.801 143.576C237.811 143.203 236.314 144.694 231.821 148.423C228.826 150.66 227.329 151.406 225.457 151.406C225.083 151.406 224.708 151.406 224.334 151.406C209.733 152.152 219.093 160.355 223.211 162.965C226.58 164.83 229.201 176.016 220.59 176.389Z" fill="#E59A51"/>
<path opacity="0.35" d="M247.545 251.336L248.294 253.946C248.668 254.319 249.417 254.692 249.792 255.065C256.53 260.658 267.762 275.2 274.5 289.369C277.121 287.878 279.367 286.386 281.614 284.522C287.229 279.675 289.85 273.709 281.239 266.997C260.274 251.336 259.151 228.218 259.151 228.218L256.53 233.811L247.545 251.336Z" fill="#E59A51"/>
<path d="M304.076 322.183C304.825 324.42 305.948 326.658 307.446 328.895C309.318 331.505 311.938 333.369 314.559 335.234C319.426 338.217 324.667 340.081 329.908 341.2C335.15 342.318 340.765 342.318 346.007 340.827C348.627 340.081 351.248 339.335 354.243 338.217C356.864 337.098 359.859 335.607 362.854 332.996C364.351 331.505 366.223 328.895 366.597 325.539C366.972 321.81 365.1 319.2 363.602 317.709C362.854 316.963 362.479 316.59 362.105 316.217L360.607 315.098C359.484 314.353 358.735 313.234 357.612 312.488C353.869 309.132 349.376 306.522 344.883 303.912C340.391 301.675 335.524 299.811 330.283 299.065C327.662 298.692 325.041 298.692 322.421 299.065C319.8 299.438 317.554 300.183 315.308 300.929L315.682 302.794C320.549 302.421 325.041 303.166 329.16 304.658C331.031 305.404 332.529 306.149 334.401 307.268C334.401 307.268 334.401 307.268 334.775 307.268C336.647 308.387 338.519 309.878 340.391 311.37C343.76 314.353 346.755 317.336 349.75 321.064C350.499 321.81 351.248 322.556 351.997 323.675C351.248 324.047 350.499 324.047 349.75 324.047C347.878 324.42 346.007 324.42 343.76 324.42C339.642 324.42 335.524 324.42 331.406 324.793C327.288 325.166 323.17 325.166 318.677 324.793C314.559 324.42 314.184 324.42 313.81 324.42L304.076 322.183Z" fill="#605B55"/>
<path d="M258.777 314.725C273.003 315.098 281.988 315.844 301.081 317.708C302.204 317.708 303.327 317.708 304.451 317.336C309.692 315.098 323.544 306.522 310.441 282.285C309.692 280.794 290.599 251.337 275.249 260.659C274.126 261.404 273.003 262.15 271.88 263.269C271.505 263.642 271.131 264.387 270.757 264.76C259.151 286.76 282.737 295.709 278.993 305.776C278.619 307.268 276.747 307.641 275.624 306.895C268.51 304.285 255.407 310.251 258.777 314.725Z" fill="#E59A51"/>
<path d="M304.076 322.183C302.579 322.556 305.948 326.657 307.446 328.895C307.446 328.895 313.436 331.505 322.795 327.776C328.411 325.539 327.288 327.03 326.165 329.64C324.667 332.996 332.903 331.878 337.396 330.386C338.893 330.013 339.642 327.403 342.637 327.776C345.632 328.149 350.499 326.657 352.745 326.657C354.992 326.657 354.992 325.166 354.243 323.301C353.494 321.437 351.997 319.573 351.997 319.573C351.997 319.573 350.499 314.352 346.007 311.742C342.263 309.878 336.273 306.895 334.775 306.149C336.647 307.268 338.519 308.759 340.391 310.251C343.76 313.234 346.755 316.217 349.75 319.946C351.997 322.556 345.632 323.301 343.76 323.301C339.642 323.301 335.524 323.301 331.406 323.674C327.288 324.047 323.17 324.047 318.677 323.674C314.559 323.301 314.559 323.301 313.81 323.301L304.076 322.183Z" fill="#E59A51"/>
<path d="M284.983 261.777C285.357 263.269 284.234 265.133 289.101 267.37C293.968 269.608 295.466 272.591 296.214 274.828C296.963 277.065 294.342 275.574 298.461 279.675C302.579 283.777 304.451 285.641 305.948 288.251C307.446 290.489 308.943 300.556 307.82 302.048C306.697 303.539 310.066 311.37 304.451 317.336C309.692 315.098 323.544 306.522 310.441 282.285C309.692 280.794 290.599 251.337 275.249 260.659C274.875 260.659 284.234 259.167 284.983 261.777Z" fill="#605B55"/>
<path opacity="0.72" d="M304.076 315.471C304.076 315.471 302.953 286.76 283.86 269.235C289.101 283.404 301.081 294.217 304.076 315.471Z" fill="#E59A51"/>
<path d="M204.492 154.389C205.241 154.016 205.989 152.897 206.738 152.152C207.487 151.406 207.487 150.287 207.487 149.169C206.738 149.169 205.615 149.169 205.241 149.169C203.743 149.542 203.743 151.779 204.492 154.389Z" fill="#605B55"/>
<path d="M223.959 308.386C228.452 310.996 234.816 310.624 240.432 310.624C242.304 310.624 251.289 299.81 252.787 293.471C257.653 269.98 253.535 255.438 258.402 242.387C265.515 223.371 244.925 211.066 241.555 222.252C237.437 236.049 239.309 266.251 240.806 284.522C241.181 291.234 237.063 297.946 230.324 299.437C220.216 301.675 223.585 308.013 223.959 308.386Z" fill="#E59A51"/>
<path d="M231.073 150.288C232.196 149.542 233.319 149.542 233.693 150.288C234.068 151.033 234.068 152.525 232.944 153.271C232.196 153.643 230.324 153.271 229.949 152.525C229.575 152.152 229.949 151.033 231.073 150.288Z" fill="#132541"/>
<path d="M232.57 149.915C232.57 149.915 233.693 150.287 234.068 154.016C235.191 150.66 233.693 149.169 232.57 149.915Z" fill="#E59A51"/>
<path opacity="0.4" d="M240.432 143.576C247.545 143.949 253.161 158.864 256.156 158.864C259.151 158.864 264.392 166.694 264.392 166.694C263.269 164.084 261.397 159.982 260.274 157.745C257.653 152.152 255.407 147.677 252.787 145.813C252.038 145.44 250.915 145.067 250.166 144.694C247.545 143.949 242.304 143.949 240.432 143.576Z" fill="#E59A51"/>
<path d="M258.028 129.406C258.402 128.661 259.525 129.034 259.151 129.779C258.777 133.135 258.402 138.728 259.525 140.593C260.649 142.83 259.525 153.27 258.402 158.864C258.028 160.728 256.156 161.847 254.284 161.101C247.92 158.118 245.673 150.287 249.417 144.321C253.535 139.847 256.156 134.627 258.028 129.406Z" fill="#E59A51"/>
<path d="M258.028 129.406C258.402 128.661 259.525 129.034 259.151 129.779C258.777 133.135 258.402 138.728 259.525 140.593C260.649 142.83 259.525 153.27 258.402 158.864C258.028 160.728 256.156 161.847 254.284 161.101C247.92 158.118 245.673 150.287 249.417 144.321C253.535 139.847 256.156 134.627 258.028 129.406Z" fill="#E59A51"/>
<path opacity="0.65" d="M258.028 129.779C258.402 129.406 258.777 129.779 258.777 130.152C258.028 133.135 257.279 138.355 258.028 140.22C258.402 142.457 256.53 152.152 255.407 156.999C255.033 158.863 253.91 159.609 252.787 158.863C249.043 155.88 248.668 148.423 251.663 143.203C253.91 139.101 256.156 134.627 258.028 129.779Z" fill="#E59A51"/>
</svg>
