<svg width="1056" height="802" viewBox="0 0 1056 802" fill="none" xmlns="http://www.w3.org/2000/svg">
<path d="M120.182 183.86C125.831 181.558 111.708 149.406 121.776 138.231C131.845 127.056 149.642 109.404 137.367 107.275C125.093 105.146 92.3379 121.671 91.8258 137.778C91.2832 154.024 106.899 189.257 120.182 183.86Z" fill="#352328"/>
<path d="M91.8796 137.863C92.3379 121.671 125.146 105.231 137.421 107.359C140.406 107.945 141.627 109.301 141.531 111.38C139.285 112.695 137.064 114.232 134.865 115.992C120.134 127.296 104.458 152.73 103.331 173.263C96.5502 162.644 91.5027 147.12 91.8796 137.863Z" fill="#593A42"/>
<path d="M128.39 254.316C138.378 255.651 150.998 252.932 150.998 252.932C169.976 285.069 202.254 317.968 232.844 345.064C151.693 316.083 128.39 254.316 128.39 254.316Z" fill="#EFDCBD"/>
<path d="M81.5259 247.815C69.9838 218.405 62.4803 186.771 99.1952 171.989C135.91 157.207 154.087 191.991 153.076 192.637C152.064 193.283 210.653 208.67 199.36 231.306C188.067 253.941 150.998 252.932 150.998 252.932C150.998 252.932 138.293 255.705 128.39 254.316C128.39 254.316 151.609 316.136 232.875 344.926C273.526 380.903 311.354 406.699 311.354 406.699L197.487 479.407C145.97 405.044 93.4071 278.315 81.5259 247.815Z" fill="#FFF3DB"/>
<path d="M121.027 239.441C121.027 239.441 103.449 244.614 105.796 254.98C108.228 265.292 131.771 248.835 131.771 248.835C131.771 248.835 126.238 246.673 121.027 239.441Z" fill="#FEB8AC"/>
<path d="M193.163 226.245C200.006 221.876 202.734 213.919 199.256 208.473C195.778 203.027 187.412 202.154 180.57 206.523C173.727 210.892 170.999 218.849 174.477 224.295C177.954 229.742 186.32 230.615 193.163 226.245Z" fill="#593A42"/>
<path d="M131.396 214.429C134.936 212.169 135.242 206.516 132.067 201.543C131.636 200.869 130.808 200.686 130.133 201.117C129.459 201.547 129.361 202.322 129.791 202.996C132.051 206.536 132.135 210.755 129.943 212.154C127.752 213.553 123.96 211.703 121.7 208.163C121.269 207.489 120.441 207.306 119.767 207.736C119.092 208.167 118.909 208.995 119.34 209.67C122.6 214.589 127.856 216.69 131.396 214.429Z" fill="#593A42"/>
<path d="M152.383 201.029C155.923 198.769 156.229 193.116 153.053 188.143C152.623 187.469 151.794 187.286 151.12 187.716C150.446 188.147 150.263 188.975 150.693 189.65C152.954 193.19 153.037 197.408 150.846 198.807C148.654 200.206 144.863 198.356 142.602 194.816C142.172 194.142 141.343 193.959 140.669 194.39C139.995 194.82 139.812 195.649 140.242 196.323C143.502 201.242 148.759 203.343 152.383 201.029Z" fill="#593A42"/>
<path d="M113.575 251.555C117.322 248.688 121.667 246.388 126.082 244.756C126.948 244.44 127.418 245.919 126.498 246.151C122.113 247.646 117.991 249.922 114.329 252.735C113.594 253.442 112.786 252.177 113.575 251.555Z" fill="#FC8686"/>
<path d="M177.432 210.9C175.25 213.242 174.38 216.526 175.068 219.647C175.524 221.847 178.874 220.776 178.333 218.629C177.955 216.735 178.634 214.641 179.966 213.197C181.467 211.645 178.933 209.348 177.432 210.9Z" fill="#936170"/>
<path d="M177.01 221.017C176.228 221.279 175.486 222.346 175.886 223.158C176.071 223.633 176.202 224.024 176.387 224.5C176.703 225.366 177.578 225.993 178.528 225.624C179.31 225.362 180.053 224.294 179.652 223.482C179.468 223.007 179.337 222.616 179.152 222.141C178.836 221.274 177.961 220.647 177.01 221.017Z" fill="#936170"/>
<path d="M88.6694 204.931C92.5353 200.208 66.9353 176.096 70.4409 161.518C74.0004 147.025 79.1979 125.434 67.3851 129.418C55.5722 133.401 34.5884 163.529 41.9044 177.96C49.1361 192.444 79.5748 215.959 88.6694 204.931Z" fill="#352328"/>
<path d="M201.171 361.61C189.677 348.068 193.66 330.337 203.757 317.72C213.305 327.285 223.167 336.412 232.929 345.01C241.845 352.843 250.631 360.284 258.848 367.021C243.004 378.442 213.012 375.881 201.171 361.61Z" fill="#593A42"/>
<path d="M104.258 272.454C108.911 285.5 111.354 298.06 106.59 307.508C94.5606 280.307 85.6454 258.355 81.5797 247.9C79.4931 242.588 77.5445 237.306 76.0407 231.978C92.4879 239.155 97.2389 251.427 104.258 272.454Z" fill="#593A42"/>
<path d="M245.835 448.654L197.541 479.491C186.456 463.432 175.199 444.874 164.348 425.463C170.924 422.569 178.621 420.502 186.641 418.94C213.653 413.676 237.108 424.208 245.835 448.654Z" fill="#593A42"/>
<path d="M118.997 231.245C120.199 239.258 125.391 244.603 132.338 248.236C138.379 251.379 144.936 250.87 151.5 250.001C152.473 249.854 152.499 251.38 151.525 251.527C143.987 252.544 137.299 252.661 130.437 248.975C123.437 245.258 118.703 239.145 117.525 231.355C117.378 230.381 118.85 230.271 118.997 231.245Z" fill="#593A42"/>
<path d="M203.757 317.72C206.07 320.041 208.328 322.277 210.67 324.459C211.078 324.911 211.569 325.309 211.922 325.677C213.72 327.377 215.517 329.076 217.368 330.861C218.021 331.512 218.62 332.078 219.357 332.675C221.047 334.207 222.653 335.792 224.288 337.239C224.887 337.805 225.54 338.456 226.224 338.969C228.459 340.983 230.694 342.997 232.875 344.926C219.515 340.168 207.672 334.442 197.278 328.384C198.905 324.615 201.086 320.969 203.757 317.72Z" fill="#352328"/>
<path d="M41.9044 177.96C34.6726 163.475 55.5722 133.401 67.385 129.418C70.8193 128.293 72.769 129.302 73.8077 131.486C68.2408 142.278 63.8254 153.759 62.6168 165.802C60.753 185.738 71.8151 197.303 86.2181 206.852C74.9292 212.399 48.5208 191.295 41.9044 177.96Z" fill="#593A42"/>
<path d="M807.768 108.276C764.916 62.314 700.639 37.8008 639.422 43.9291C587.387 50.0574 538.413 77.6347 507.805 120.533C477.196 163.431 468.014 218.585 480.257 270.676C443.527 230.842 391.493 209.393 339.458 209.393C287.424 212.457 235.389 236.97 204.781 279.868C164.99 328.895 155.807 396.306 168.051 457.589C180.294 518.872 217.024 574.026 262.937 616.924C321.093 672.079 394.554 708.849 474.136 721.105C553.718 733.362 621.056 742.554 722.065 714.977C801.647 644.501 829.194 583.219 862.864 509.679C893.472 436.14 905.716 353.408 890.411 276.804C878.168 212.457 853.681 151.174 807.768 108.276Z" fill="#F0C6B6"/>
<path d="M336.615 169.609C346.522 153 364.421 141.501 383.597 139.265C402.774 136.71 422.909 143.737 436.652 157.152C440.807 161.304 444.642 166.095 449.436 169.609C464.458 180.469 485.552 175.678 503.131 181.427C520.709 187.176 533.174 202.507 541.803 218.797C550.752 234.767 556.825 252.335 567.372 267.347C577.919 282.359 594.539 294.815 612.756 294.496C619.468 294.177 626.5 291.941 629.376 285.872C621.386 313.341 596.776 335.06 568.97 339.851C551.392 343.045 531.576 340.81 518.152 352.308C509.203 359.974 505.368 372.431 495.78 379.458C479.16 391.595 454.87 381.055 435.693 388.401C414.28 396.386 404.691 424.174 382.958 431.84C364.421 438.228 344.285 427.688 324.789 427.688C307.85 427.688 290.911 435.992 280.683 449.407C270.456 435.992 259.909 421.938 254.156 405.968C248.403 389.998 247.763 371.153 256.393 356.78C261.826 347.836 270.136 341.448 277.167 333.463C280.363 329.95 283.24 326.117 283.879 321.645C284.838 312.702 276.848 305.675 270.775 298.648C264.383 290.983 259.909 280.123 263.105 270.541C268.538 254.251 291.869 249.141 297.303 232.851C300.818 222.311 295.705 211.131 296.344 199.952C297.303 182.704 315.201 168.331 332.14 170.886L336.615 169.609Z" fill="#6B74B5"/>
<g opacity="0.36">
<path d="M355.471 313.341C369.534 321.645 375.926 340.49 370.174 355.502C368.256 360.613 365.06 365.084 363.462 370.195C361.864 375.305 361.864 381.693 365.699 385.526C367.617 387.443 370.493 388.401 372.091 390.637C376.246 395.747 373.05 403.413 371.772 409.801C369.854 419.064 372.411 428.965 378.803 435.992C389.03 422.258 406.609 417.147 422.909 411.079C441.766 404.052 459.664 395.108 476.923 384.568C471.17 384.249 467.335 379.138 464.138 374.666C445.921 348.475 428.342 321.965 411.723 294.815L355.471 313.341Z" fill="#152151"/>
</g>
<path d="M591.662 251.376C606.045 254.89 620.427 245.946 630.974 234.128C641.521 222.63 649.831 208.576 661.337 198.355C666.131 194.203 672.204 191.009 677.637 193.245C682.751 195.481 685.308 202.188 690.102 205.382C699.37 211.451 709.918 201.869 720.465 199.313C737.084 195.161 753.065 209.854 762.333 226.143C763.612 233.49 755.622 238.92 748.91 239.558C742.198 240.197 734.208 240.197 730.053 246.266C726.537 251.057 727.176 258.403 723.98 263.833C718.867 273.096 706.402 271.818 697.772 267.027C689.143 262.236 681.153 254.89 671.565 254.57C654.625 254.251 639.604 275.97 624.262 268.944C619.468 266.708 615.313 261.597 610.2 261.597C605.406 261.597 598.374 264.472 597.415 259.361L591.662 251.376Z" fill="black"/>
<path d="M521.988 236.045C536.05 231.254 543.082 215.603 545.639 200.272C548.196 184.94 547.237 168.651 551.711 153.639C553.309 147.57 556.825 141.501 562.578 140.543C568.011 139.585 574.084 143.737 579.517 143.737C590.384 143.737 594.219 130.003 601.57 122.018C613.396 109.241 634.81 112.755 651.11 121.379C656.223 126.809 652.388 135.752 647.274 139.904C642.161 144.376 635.449 148.528 635.129 155.874C634.81 161.943 639.284 167.692 639.604 173.761C640.243 184.301 629.376 190.051 619.468 190.689C609.56 191.328 598.694 189.731 590.704 194.522C576.321 203.466 576.002 229.976 558.743 232.531C553.309 233.17 547.237 231.254 543.082 234.128C538.927 236.684 534.772 243.072 530.937 239.239L521.988 236.045Z" fill="black"/>
<path d="M409.485 181.107C418.434 198.355 427.383 215.603 436.013 232.851C436.652 234.448 437.611 236.045 439.209 236.684C440.487 237.323 442.085 237.003 443.364 236.684C453.591 235.406 464.138 243.072 466.056 253.293C467.974 263.514 460.623 274.373 450.715 276.929C462.54 305.675 476.603 333.463 491.944 360.293C492.264 361.251 492.903 361.89 493.862 362.529C494.821 363.168 496.419 362.849 497.697 362.529C505.048 360.613 512.08 357.099 518.152 352.628C521.029 350.711 523.586 348.156 527.101 347.836C530.617 347.517 534.452 350.072 534.133 353.266C528.699 374.028 521.348 394.47 512.399 413.953C507.286 425.132 500.574 437.27 488.429 440.464C481.078 442.38 473.407 440.464 466.056 438.547C433.776 429.923 401.495 421.619 370.173 410.44C389.35 404.371 408.207 397.983 427.064 390.637C419.713 371.792 412.042 352.947 404.691 334.422C397.021 338.893 388.711 343.684 380.081 342.087C371.132 340.49 365.06 332.824 359.946 325.478C343.007 301.203 318.397 256.167 307.85 228.699L409.485 181.107Z" fill="#F9BE96"/>
<path d="M359.307 411.398C368.895 407.565 386.793 400.538 397.021 398.941C411.723 396.386 447.199 418.744 464.138 420.341C468.933 420.98 473.727 421.3 477.882 419.383C482.356 417.467 485.552 413.953 488.429 410.12C496.099 400.219 502.491 389.359 506.966 377.861C509.842 370.514 512.719 362.21 519.111 357.738C522.946 355.183 527.421 354.225 532.215 353.266C541.803 351.35 552.031 349.753 561.299 351.989C573.125 355.183 582.713 364.765 588.147 375.944C593.58 387.123 595.498 399.58 596.456 411.717C599.333 447.491 594.539 483.903 582.394 517.76C581.754 519.676 581.115 521.593 579.837 523.19C574.723 530.216 563.856 527.981 554.907 527.981C535.411 527.981 519.111 541.396 503.77 553.214C488.429 565.032 469.572 576.53 450.715 571.42C438.25 568.226 428.662 558.005 420.032 548.422C403.413 529.897 386.473 510.094 377.844 486.777C373.689 475.918 371.452 463.78 363.462 455.156L359.307 411.398Z" fill="#D15259"/>
<path d="M381.679 146.292C371.132 142.14 365.379 128.406 369.854 118.185C370.493 116.588 371.452 115.31 372.73 114.352C375.287 112.435 379.442 113.074 381.999 114.991C384.556 116.907 386.154 120.101 387.752 122.976C383.277 117.546 387.752 107.644 394.783 107.644C401.815 107.644 406.609 117.226 402.454 122.976C402.454 117.546 408.207 113.394 413.321 114.991C418.434 116.588 420.672 122.656 419.713 127.767C418.754 132.877 415.238 137.349 411.403 140.862C406.289 145.973 400.536 150.764 394.144 154.597L381.679 146.292Z" fill="#6B74B5"/>
<path d="M483.635 374.986C488.93 374.986 493.223 370.696 493.223 365.404C493.223 360.112 488.93 355.822 483.635 355.822C478.339 355.822 474.046 360.112 474.046 365.404C474.046 370.696 478.339 374.986 483.635 374.986Z" fill="white"/>
<path d="M297.303 193.245C292.828 183.982 281.003 178.872 271.414 182.385C269.177 183.024 266.94 184.621 266.94 186.857C266.94 187.815 267.259 188.773 267.899 189.731C270.775 194.522 276.209 197.397 281.642 197.078C275.889 193.245 266.94 195.481 263.744 201.869C260.548 207.937 264.063 216.561 270.456 219.117C271.095 219.436 272.373 219.436 272.373 218.478C270.456 215.284 264.703 215.922 263.105 219.436C261.187 222.63 262.465 227.102 265.342 229.657C268.218 232.212 272.054 233.17 275.889 233.17C288.673 233.809 301.777 226.782 307.85 215.603L297.303 193.245Z" fill="#6B74B5"/>
<path d="M307.211 272.138C319.995 269.263 330.542 257.764 332.14 244.669C333.418 235.087 329.903 224.546 334.377 215.922C341.089 214.645 347.801 218.158 354.513 221.033C360.905 223.588 369.215 225.185 374.328 220.075C379.442 214.964 380.081 204.104 387.432 203.785C389.03 203.785 390.309 204.104 391.907 204.743C401.815 207.937 412.681 211.77 417.795 220.714C420.672 225.185 421.95 231.254 426.105 234.448C433.776 240.197 444.323 234.129 451.993 228.379C438.25 207.937 424.827 187.815 411.083 167.373C409.485 165.137 407.887 162.582 405.33 161.624C402.774 160.665 399.577 161.304 397.021 161.943C371.772 168.012 347.162 177.275 324.15 190.051C311.046 197.397 296.983 208.576 298.262 223.269C298.581 229.018 301.458 234.129 304.014 238.92C308.809 247.543 313.283 256.167 318.397 264.791L307.211 272.138Z" fill="#6B74B5"/>
<path d="M641.433 431.521C640.211 421.194 638.589 410.657 637.368 400.33C637.005 398.101 636.547 395.567 635.27 393.624C633.992 391.681 629.567 379.678 630.366 364.033C631.355 348.998 641.631 345.449 637.759 330.931C635.394 322.3 630.493 314.128 627.823 305.592C626.678 301.934 631.578 299.398 633.847 302.369C639.377 309.341 643.877 317.303 646.852 325.743C649.654 316.5 644.886 306.613 639.28 298.327C636.038 293.317 632.396 288.098 629.974 282.497C628.525 278.934 632.928 275.883 635.807 278.664C645.131 288.129 651.882 300.074 654.972 313.163C651.215 303.294 646.638 294.017 641.146 285.025C639.087 281.654 643.605 277.897 646.484 280.678C652.052 285.63 660.252 301.136 663.761 308.071C661.72 303.689 648.925 285.269 646.789 280.583C653.595 278.788 664.254 292.522 667.268 298.942C670.281 305.362 673.332 309.762 672.494 316.718C671.656 323.673 666.667 368.741 667.717 377.449C670.102 395.779 674.108 413.936 679.334 431.712C670.127 437.605 658.459 439.916 647.668 438.607L641.433 431.521Z" fill="#F9BE96"/>
<path d="M640.86 284.111C645.094 290.149 649.422 296.492 653.141 303.026C656.459 309.351 659.263 316.171 660.445 323.164C660.98 327.013 661.209 330.957 661.038 334.692C660.924 335.397 661.724 335.816 662.03 335.721C662.735 335.835 663.154 335.034 663.059 334.729C663.802 327.469 662.523 320.171 660.12 313.561C657.622 306.645 654.113 299.71 649.879 293.672C647.42 290.091 644.96 286.51 642.595 283.233C642.099 282.719 641.699 282.51 641.184 283.005C640.784 282.796 640.365 283.597 640.86 284.111Z" fill="#996441"/>
<path d="M649.058 283.554C653.215 288.278 656.648 293.897 659.375 299.403C662.102 304.908 664.314 310.91 665.916 317.102C666.66 320.551 667.404 323.999 667.538 327.639C667.729 328.248 668.225 328.763 668.53 328.667C669.14 328.476 669.655 327.981 669.559 327.676C668.872 321.197 667.575 314.91 665.362 308.908C663.15 302.907 660.633 297.001 656.895 291.477C654.931 288.41 652.662 285.439 650.488 282.772C649.992 282.258 649.592 282.049 649.077 282.544C648.677 282.335 648.562 283.04 649.058 283.554Z" fill="#996441"/>
<path d="M652.898 342.928C657.721 339.077 662.239 335.32 667.062 331.469C668.397 330.382 669.731 329.295 671.37 328.113C671.885 327.617 672.095 327.217 671.599 326.703C671.408 326.093 670.398 326.075 670.188 326.475C665.365 330.326 660.847 334.083 656.024 337.934C654.69 339.021 653.355 340.108 651.716 341.29C651.201 341.786 650.992 342.186 651.487 342.7C651.583 343.005 652.384 343.424 652.898 342.928Z" fill="#996441"/>
<path d="M646.948 326.048C647.577 330.202 647.902 334.451 648.532 338.605C648.723 339.214 649.218 339.729 649.523 339.633C650.133 339.442 650.648 338.947 650.553 338.642C649.923 334.488 649.598 330.239 648.969 326.085C648.778 325.476 648.282 324.961 647.977 325.057C647.577 324.847 646.757 325.438 646.948 326.048Z" fill="#996441"/>
<path d="M597.096 335.699C607.643 357.419 624.262 375.305 638.645 394.47C653.027 413.634 665.812 435.673 666.451 459.628C666.77 472.085 663.574 484.542 665.172 496.998C666.131 505.622 669.647 514.885 666.77 523.19C663.574 533.091 652.708 538.202 642.8 541.396C633.211 544.27 623.623 546.506 613.396 546.506C607.962 546.506 602.209 545.867 597.096 543.951C592.621 542.354 588.786 539.799 584.311 537.882C569.929 531.494 553.629 532.133 537.968 534.049C522.307 535.966 506.966 539.16 491.305 538.202C475.644 537.243 466.695 559.602 458.066 546.506C451.354 536.285 516.235 361.571 533.494 352.947C546.278 346.559 577.6 343.365 591.343 339.213L597.096 335.699Z" fill="#8C4C18"/>
<path d="M527.421 367.32C529.339 401.177 520.709 434.715 519.111 468.571C518.472 481.667 519.431 496.04 528.699 505.303C536.69 512.969 548.515 514.566 559.382 514.246C572.805 513.607 586.229 510.413 598.374 504.345C602.529 502.428 606.684 499.873 610.2 496.36C619.468 486.777 619.788 471.446 618.509 458.35C614.674 418.105 602.849 378.499 583.672 343.045C567.692 355.502 548.196 363.807 528.06 366.681L527.421 367.32Z" fill="#BC681D"/>
<path d="M597.096 527.981C605.405 476.876 621.705 435.673 627.458 384.249C640.243 385.207 671.884 389.998 684.668 391.914C684.668 454.198 680.194 517.44 669.647 578.766C660.378 631.468 591.982 610.706 581.754 603.36C571.847 596.014 525.823 538.84 519.75 527.981C503.131 499.554 589.425 498.276 597.096 527.981Z" fill="#D15259"/>
<path d="M603.488 258.403C603.807 272.776 603.807 287.469 604.127 301.842C604.447 317.812 604.127 335.699 592.941 347.517C586.868 354.225 577.919 357.738 569.29 360.293C556.825 364.126 544.041 366.043 530.937 367.64C515.276 369.556 498.656 371.472 483.635 365.404C475.964 362.529 484.274 345.601 456.148 339.213C454.87 338.893 453.272 338.574 452.313 337.296C451.354 336.019 451.034 334.102 451.034 332.505C450.715 316.215 451.993 300.245 454.55 283.956C472.448 280.123 490.346 277.887 508.564 277.568C508.244 268.624 508.884 259.681 511.441 251.057C513.997 242.433 519.111 234.767 526.143 229.337C535.411 222.311 547.876 220.714 559.382 222.949C570.888 224.866 581.435 230.615 591.023 237.003C596.137 240.197 601.251 244.349 602.849 250.099L603.488 258.403Z" fill="#8C4C18"/>
<path d="M454.87 284.914C454.231 292.26 454.231 299.606 454.231 306.953C454.231 307.592 454.231 308.23 454.55 308.869C455.509 310.466 458.066 309.189 459.025 307.272C459.664 305.675 460.303 303.439 461.901 302.481C464.138 301.203 466.376 303.439 467.974 305.036C469.572 306.633 471.17 308.55 472.768 310.147C473.407 310.786 473.727 311.424 474.686 311.424C476.603 312.063 478.521 309.827 479.48 307.911C480.758 305.356 482.037 302.8 483.315 299.926C483.635 299.287 484.274 298.329 484.913 298.329C485.552 298.329 486.511 298.648 486.831 299.287C490.346 302.162 493.862 304.717 497.378 307.592C500.574 302.8 500.574 296.732 500.574 291.302C500.574 289.066 500.574 286.511 499.935 284.275C499.295 282.039 498.017 279.803 495.78 279.165C493.542 278.206 491.305 278.845 489.068 279.165C479.16 280.762 469.252 281.72 459.344 282.039C458.385 282.039 457.107 282.039 456.148 282.678C455.189 283.317 454.55 284.275 454.87 285.233V284.914Z" fill="black"/>
<path d="M531.895 228.06C535.731 229.018 538.607 232.212 539.886 235.726C541.164 239.239 541.484 243.391 541.164 247.224C540.845 256.167 538.927 265.111 535.731 273.415C534.452 277.248 532.535 281.081 529.339 283.317C525.823 285.872 520.709 285.872 516.554 284.914C512.399 283.636 508.564 281.4 504.729 278.845C507.925 274.693 507.605 268.944 507.925 263.833C508.564 252.015 513.997 240.517 522.307 232.212C524.864 229.657 528.38 227.102 531.895 227.421V228.06Z" fill="#BC681D"/>
<path d="M567.053 224.866C560.66 227.74 555.866 233.809 552.67 240.197C549.474 246.585 548.196 253.612 546.917 260.639C545.319 269.263 544.36 278.526 545.958 287.15C546.278 288.427 546.598 290.024 547.556 290.983C548.515 291.941 550.113 292.26 551.711 292.58C561.619 294.496 572.166 295.454 580.476 300.884C583.992 303.12 587.188 306.314 591.343 307.911C595.178 309.189 599.333 308.869 602.849 306.953C603.488 306.633 604.127 306.314 604.447 305.675C605.086 304.717 604.766 303.759 604.766 302.8C603.488 292.26 603.168 281.4 604.127 270.86C605.086 260.958 606.364 249.779 600.292 241.475C597.096 237.323 592.302 234.448 587.188 232.531C580.156 229.337 572.805 226.782 565.454 224.866H567.053Z" fill="#BC681D"/>
<path d="M562.258 281.081C565.436 281.081 568.011 278.078 568.011 274.373C568.011 270.669 565.436 267.666 562.258 267.666C559.081 267.666 556.505 270.669 556.505 274.373C556.505 278.078 559.081 281.081 562.258 281.081Z" fill="black"/>
<path d="M517.513 274.373C520.69 274.373 523.266 271.37 523.266 267.666C523.266 263.962 520.69 260.958 517.513 260.958C514.336 260.958 511.76 263.962 511.76 267.666C511.76 271.37 514.336 274.373 517.513 274.373Z" fill="black"/>
<path d="M528.06 437.909C533.494 429.285 538.927 420.341 544.041 411.079C545.319 408.843 546.598 406.607 546.278 404.052C545.958 402.135 544.999 400.219 544.36 398.302C541.803 391.595 543.401 383.929 545.319 376.902C548.835 363.168 552.351 349.434 555.866 335.699C556.186 333.783 559.062 334.102 559.382 335.699C560.98 345.601 557.464 356.78 559.062 367.001C559.062 367.64 559.382 368.278 559.701 368.598C561.939 371.472 566.413 367.64 567.692 364.126C574.403 347.517 580.796 330.908 586.549 313.98C588.147 309.508 594.539 311.424 593.58 315.896C590.064 329.311 586.868 342.726 583.353 355.822C590.704 342.087 596.776 327.714 600.931 313.021C601.89 310.147 606.045 310.786 606.045 313.66C606.045 316.854 605.406 320.048 604.447 322.923C601.251 333.783 597.735 344.642 593.9 355.183C596.776 346.559 602.529 333.463 608.282 323.562C609.88 321.007 613.396 322.604 613.076 325.159C610.839 337.616 605.086 352.308 599.972 361.251C602.849 356.46 606.684 347.198 609.88 339.532C611.158 336.657 615.313 337.935 614.674 341.129C614.355 344.004 613.715 346.559 613.396 347.517C607.962 364.765 602.209 382.013 593.58 397.664C584.311 414.273 556.505 464.419 554.268 464.419C542.443 465.377 530.297 462.503 520.07 456.115L528.06 437.909Z" fill="#F9BE96"/>
<path d="M480.119 337.616C477.242 339.213 473.727 340.171 470.531 340.49C469.891 340.49 469.252 341.129 469.252 341.768C469.252 342.407 469.891 343.045 470.531 343.045C474.366 342.726 477.882 341.768 481.397 339.851C482.676 338.893 481.397 336.977 480.119 337.616Z" fill="black"/>
<path d="M483.315 364.126C488.429 365.723 493.862 366.681 499.295 367.001C501.852 367.32 504.409 367.001 506.646 366.043C508.564 365.084 510.482 363.807 511.76 362.21C513.358 360.293 514.637 358.377 515.915 356.141C516.554 354.863 514.637 353.586 513.997 354.863C512.08 358.057 509.843 361.89 506.327 363.487C504.409 364.446 501.852 364.446 499.615 364.446C497.058 364.446 494.501 364.126 492.264 363.487C489.388 363.168 486.511 362.529 483.954 361.571C482.676 361.571 482.037 363.487 483.315 364.126Z" fill="black"/>
<path d="M511.76 345.601C519.111 338.254 518.472 326.756 517.513 316.535C516.874 311.744 516.554 306.633 518.152 301.842C519.75 297.371 524.225 293.218 529.019 293.857C532.215 294.177 535.092 296.732 536.69 299.606C538.288 302.481 538.927 305.675 539.566 308.869C540.845 315.577 541.164 322.604 541.164 329.63C541.164 333.463 540.845 337.296 538.288 340.49C536.05 343.045 532.854 344.323 529.339 345.281C523.586 346.559 517.194 346.559 511.441 345.281L511.76 345.601Z" fill="#E05F65"/>
<path d="M529.019 310.147C530.937 319.09 530.617 328.353 528.06 336.977C527.421 339.532 526.462 341.768 525.184 344.323C524.864 344.962 525.184 345.601 525.503 345.92C526.143 346.239 526.782 345.92 527.101 345.601C531.256 336.977 533.174 327.395 532.215 317.812C531.896 315.257 531.576 312.383 530.937 309.827C530.937 309.189 529.978 308.869 529.658 309.189C529.019 308.869 528.699 309.508 529.019 310.147Z" fill="#B03537"/>
<path d="M473.727 305.036C474.046 314.938 475.325 324.839 478.201 334.421C478.84 336.657 479.48 338.574 481.397 339.851C482.995 341.129 485.233 342.087 487.47 342.726C491.625 344.323 496.099 345.601 500.574 346.239C509.523 347.836 518.792 347.836 527.741 345.92C532.215 344.962 536.69 343.684 540.845 342.087C544.999 340.49 549.154 338.254 552.35 335.06C558.103 329.63 561.619 321.645 561.939 313.66C561.939 312.702 561.939 311.744 561.939 310.786C561.939 310.147 561.299 309.508 560.66 309.508C560.021 309.508 559.382 310.147 559.382 310.786C559.701 318.132 557.464 325.798 552.35 331.547C549.474 334.741 546.278 336.977 542.443 338.893C538.607 340.81 534.452 342.087 530.297 343.045C521.988 344.962 513.039 345.601 504.409 344.323C500.254 343.684 495.78 342.726 491.625 341.448C489.707 340.81 487.47 340.171 485.552 339.213C483.635 338.574 482.037 337.296 481.397 335.699C481.078 334.741 480.758 333.783 480.438 332.824C480.119 331.547 479.799 330.589 479.48 329.311C478.84 327.075 478.521 324.52 477.882 322.284C476.923 317.493 476.603 313.021 476.284 308.23C476.284 306.953 476.284 305.995 476.284 304.717C475.964 303.759 473.727 303.759 473.727 305.036Z" fill="black"/>
<path d="M464.778 318.451C464.778 318.132 464.778 317.812 464.778 317.812V317.493C464.778 317.493 464.778 317.174 464.458 317.174L464.138 316.854H463.819H463.499C463.18 316.854 463.18 316.854 462.86 317.174C462.86 317.174 462.86 317.174 462.54 317.493C462.54 317.812 462.54 317.812 462.54 318.132C462.54 318.451 462.54 318.771 462.54 318.771V319.09C462.54 319.09 462.54 319.409 462.86 319.409L463.18 319.729H463.499H463.819C464.138 319.729 464.138 319.729 464.458 319.409C464.458 319.409 464.458 319.409 464.778 319.09C464.778 318.771 464.778 318.451 464.778 318.451Z" fill="black"/>
<path d="M559.062 237.003C567.372 240.197 575.362 245.946 582.074 253.293C577.6 255.209 572.805 256.167 568.011 255.848C564.496 255.529 560.98 254.251 558.743 251.057C556.505 247.544 555.866 241.475 558.423 238.281L559.062 237.003Z" fill="black"/>
<path d="M533.813 227.102C525.503 230.296 517.513 235.406 510.801 242.114C515.276 244.03 520.07 244.669 524.864 244.349C528.38 244.03 531.896 243.072 534.133 239.878C536.37 236.684 537.009 230.934 534.452 228.06L533.813 227.102Z" fill="black"/>
<path opacity="0.58" d="M404.052 334.102L439.529 303.759L411.083 351.35L404.052 334.102Z" fill="#996441"/>
<path d="M604.127 324.201C600.931 335.06 597.735 345.601 593.9 356.46C592.941 359.335 591.662 362.529 590.703 365.404C590.384 366.043 591.023 366.681 591.343 366.681C591.982 367.001 592.621 366.362 592.621 366.043C596.456 355.502 600.292 344.962 603.488 334.102C604.447 331.227 605.406 328.033 606.045 325.159C606.684 323.562 604.447 322.923 604.127 324.201Z" fill="#996441"/>
<path d="M609.56 339.532C606.364 346.878 603.168 354.544 599.653 361.89C598.694 364.126 597.735 366.043 596.776 368.278C596.456 368.917 596.456 369.556 597.096 369.875C597.735 370.195 598.374 369.875 598.694 369.556C601.89 362.21 605.086 354.544 608.602 347.198C609.56 344.962 610.519 343.045 611.478 340.81C611.798 340.171 611.798 339.532 611.158 339.213C610.519 338.893 609.88 338.893 609.56 339.532Z" fill="#996441"/>
<path d="M576.96 362.529C582.713 364.446 588.147 367.001 593.26 370.195C594.858 371.153 596.137 372.111 597.735 373.069C598.374 373.389 599.013 373.069 599.333 372.75C599.653 372.111 599.333 371.472 599.013 371.153C593.9 367.64 588.466 364.765 582.713 362.529C581.115 361.89 579.517 361.251 577.919 360.613C577.28 360.293 576.641 360.932 576.641 361.251C576.002 361.89 576.321 362.21 576.96 362.529Z" fill="#996441"/>
<path d="M584.951 351.669C583.353 355.183 582.074 358.377 580.476 361.89C580.156 362.529 580.156 363.168 580.796 363.487C581.435 363.807 582.074 363.487 582.394 363.168C583.992 359.654 585.27 356.46 586.868 352.947C587.188 352.308 587.188 351.669 586.549 351.35C586.229 351.031 585.27 351.35 584.951 351.669Z" fill="#996441"/>
<path d="M341.409 440.783C344.605 468.252 347.801 495.721 355.152 522.231C362.503 548.742 388.391 611.345 407.248 635.3C420.032 651.91 450.715 649.035 464.458 640.411C478.201 631.787 490.986 602.402 500.574 589.306C530.297 549.7 553.949 494.124 575.043 449.088C563.217 442.38 544.36 429.923 533.813 420.98C507.286 460.267 478.201 497.318 446.24 532.133C426.425 494.443 404.372 457.712 380.401 422.258C377.525 417.786 374.009 412.995 368.895 411.079C361.864 408.523 353.554 412.676 349.079 419.064C344.605 425.452 343.326 433.117 342.048 440.783H341.409Z" fill="#D15259"/>
<path d="M460.623 288.427C465.737 287.15 470.85 286.83 475.964 287.15C476.603 287.15 476.603 286.191 475.964 285.872C470.531 285.553 465.417 285.872 460.303 287.15C459.664 287.469 459.984 288.427 460.623 288.427Z" fill="white"/>
<path d="M482.995 286.191C483.315 286.191 483.635 286.191 483.635 286.191C483.635 286.191 483.954 286.191 483.954 285.872C483.954 285.872 483.954 285.872 483.954 285.553C483.954 285.553 483.954 285.553 483.954 285.233C483.954 285.233 483.954 284.914 483.635 284.914L483.315 284.594C482.995 284.594 482.676 284.594 482.676 284.594C482.676 284.594 482.356 284.594 482.356 284.914C482.356 284.914 482.356 284.914 482.356 285.233C482.356 285.233 482.356 285.233 482.356 285.553C482.356 285.553 482.356 285.872 482.676 285.872C482.676 286.191 482.995 286.191 482.995 286.191Z" fill="white"/>
<path d="M599.333 272.776C602.209 277.568 606.684 281.4 611.798 283.317C612.437 283.636 612.757 282.359 612.117 282.359C607.004 280.442 602.849 276.929 600.292 272.457C599.972 271.499 599.013 272.138 599.333 272.776Z" fill="#BC681D"/>
<path d="M599.972 279.803C602.849 282.359 605.725 284.594 609.241 286.191C609.88 286.511 610.519 285.553 609.88 285.233C606.364 283.636 603.488 281.72 600.611 278.845C600.292 278.526 599.333 279.484 599.972 279.803Z" fill="#BC681D"/>
<path d="M503.77 256.806C507.286 254.251 510.801 251.696 513.678 248.821C514.317 248.182 513.358 247.543 512.719 247.863C509.523 250.738 506.327 253.293 502.811 255.848C502.491 256.167 503.131 257.126 503.77 256.806Z" fill="#BC681D"/>
<path d="M504.409 259.681C507.605 257.126 510.801 254.57 514.317 252.654C514.956 252.335 514.317 251.376 513.678 251.696C510.162 253.932 506.966 256.167 503.77 259.042C503.131 259.361 504.09 260.32 504.409 259.681Z" fill="#BC681D"/>
<path d="M542.123 229.657C536.05 223.588 531.895 215.922 529.339 207.937C529.019 206.66 528.699 205.063 529.978 204.424C530.937 204.104 531.895 204.743 532.535 205.382C538.607 210.812 543.401 217.519 546.917 225.185C544.041 218.797 540.845 211.451 543.401 205.063C546.917 206.66 549.154 210.173 550.433 213.687C551.711 217.2 552.67 221.033 554.907 224.227C552.67 220.394 551.711 215.603 552.031 211.131C552.35 209.215 553.629 206.979 555.227 207.618C555.866 207.937 556.186 208.576 556.505 208.896C559.701 214.006 561.299 220.394 560.66 226.463C553.948 227.102 547.237 228.699 540.845 231.254L542.123 229.657Z" fill="#8C4C18"/>
<path d="M336.615 172.164C334.377 181.746 333.099 191.648 333.418 201.549C333.418 204.424 333.418 206.979 333.738 209.854C333.738 210.493 334.377 211.131 335.017 211.131C335.656 211.131 336.295 210.493 336.295 209.854C335.656 200.272 335.975 190.37 337.573 181.107C337.893 178.552 338.532 175.678 339.171 173.122C339.171 172.483 338.852 171.845 338.532 171.845C337.573 171.206 336.934 171.525 336.615 172.164Z" fill="#152151"/>
<path d="M338.532 202.827C339.811 201.549 341.409 201.549 343.007 202.188C344.605 202.827 346.203 203.785 347.481 205.063C348.76 206.34 350.358 207.618 351.956 208.576C353.554 209.534 355.472 209.854 357.389 209.534C365.379 208.896 370.813 201.869 375.926 196.758C378.483 194.203 381.36 191.967 384.876 191.009C387.752 190.37 390.309 190.69 392.866 192.287C397.34 194.842 400.536 199.952 403.732 203.785C407.248 208.257 411.403 212.09 417.156 212.728C423.868 213.367 429.94 210.173 436.333 209.534C439.209 209.215 442.085 209.854 444.003 211.77C446.24 214.006 446.88 216.881 448.158 219.755C449.436 222.63 451.354 225.505 454.55 226.143C458.705 227.102 462.86 225.505 466.695 224.866C475.005 223.269 483.954 223.588 491.305 227.421C497.697 230.615 502.811 236.045 505.048 242.752C505.688 244.349 506.007 245.946 506.007 247.863C506.007 249.46 508.244 249.46 508.244 247.863C507.925 240.517 503.77 233.809 498.337 229.337C491.944 224.227 483.635 221.991 475.644 221.991C471.17 221.991 467.015 222.63 462.54 223.588C459.025 224.546 454.87 225.185 451.993 222.311C450.076 220.075 449.117 216.881 447.838 214.006C446.56 211.131 444.323 208.896 441.127 207.937C438.25 206.979 435.054 207.618 431.858 208.257C428.662 208.896 425.466 210.173 421.95 210.493C419.074 211.131 415.878 211.131 413.321 209.854C410.764 208.896 408.846 206.979 407.248 205.063C403.413 200.91 400.856 196.119 396.381 192.287C394.464 190.69 391.907 189.412 389.35 188.773C385.834 188.134 381.999 189.412 379.123 191.328C372.411 195.8 368.575 203.146 361.224 206.34C359.626 206.979 357.709 207.618 356.111 207.299C354.193 207.299 352.275 206.34 350.997 205.382C349.399 204.104 348.121 202.827 346.522 201.549C344.924 200.591 343.326 199.952 341.409 199.633C339.811 199.633 338.213 199.952 336.934 201.23C335.975 202.188 337.573 203.785 338.532 202.827Z" fill="#152151"/>
<path d="M367.936 176.316C375.926 171.206 386.793 170.567 395.742 174.4C397.979 175.358 399.897 176.955 401.815 178.552C403.732 180.149 405.65 182.066 407.568 183.982C409.485 185.898 411.403 187.495 413.64 189.092C415.558 190.37 417.795 191.328 420.352 192.287C429.621 195.161 439.529 192.925 448.797 193.245C453.272 193.245 457.746 193.884 461.901 196.119C466.695 198.675 469.572 203.146 472.768 207.299C475.964 211.451 479.48 215.603 484.593 217.519C488.748 218.797 493.862 218.158 496.739 214.964C497.378 214.006 498.017 213.367 498.337 212.09C498.656 211.451 498.017 210.812 497.697 210.812C497.058 210.493 496.419 211.131 496.419 211.451C494.821 215.284 490.027 216.242 486.511 215.603C481.717 214.645 477.882 210.173 475.005 206.34C471.809 202.188 468.933 197.716 464.138 194.842C460.303 192.606 455.509 191.648 451.035 191.328C441.766 190.689 432.178 192.925 422.909 191.009C420.672 190.37 418.434 189.731 416.517 188.454C414.28 187.176 412.362 185.579 410.444 183.663C406.609 180.149 403.093 176.316 398.619 173.761C389.989 168.97 379.123 168.651 370.174 173.122C369.215 173.761 367.936 174.08 366.977 174.719C365.379 175.039 366.658 176.955 367.936 176.316Z" fill="#152151"/>
<path d="M471.809 238.6C472.129 238.281 472.448 237.961 473.088 237.961H473.407C473.407 237.961 473.727 237.961 473.407 237.961C473.727 237.961 474.046 237.961 474.366 237.961C475.325 237.961 476.284 238.6 477.242 238.92C478.201 239.558 478.841 240.517 479.48 241.794C480.119 243.072 480.439 244.349 480.758 245.946C481.078 248.821 481.078 252.015 481.397 254.89C481.717 257.764 482.676 260.639 484.913 262.875C487.15 264.791 490.666 265.75 493.223 264.153C494.501 263.514 493.223 261.597 491.944 262.236C490.986 262.875 490.027 262.875 489.068 262.555C488.109 262.236 486.831 261.597 486.192 260.958C484.274 259.042 483.635 256.167 483.315 253.293C482.995 247.543 483.635 240.517 477.882 237.003C475.325 235.406 472.129 235.087 469.572 237.323C469.252 237.642 469.252 238.6 469.572 238.92C470.85 239.239 471.49 239.239 471.809 238.6Z" fill="#152151"/>
<path d="M478.84 188.773C484.274 187.815 489.707 188.773 494.501 191.009C499.295 193.245 503.131 197.078 505.368 201.869C506.646 204.424 507.605 207.299 507.925 210.173C507.925 210.812 508.884 211.131 509.203 210.812C509.842 210.493 510.162 210.173 509.843 209.534C508.884 204.105 506.327 198.994 502.811 194.842C498.976 190.69 493.542 187.815 487.79 186.857C484.593 186.218 481.078 186.218 477.562 186.857C476.923 186.857 476.603 187.815 476.923 188.134C477.562 188.773 478.201 188.773 478.84 188.773Z" fill="#152151"/>
<path d="M374.328 156.194C377.524 153 382.319 151.403 386.793 151.083C391.907 150.764 396.701 152.361 401.176 154.916C405.97 157.471 410.125 161.304 413.96 165.137C417.795 168.651 421.63 173.122 427.064 173.442C428.662 173.442 430.26 173.122 431.858 173.122C433.136 173.122 434.415 173.122 435.693 173.442C437.931 174.08 440.487 175.358 442.085 176.955C442.405 177.275 443.044 177.913 443.364 178.233C443.683 178.552 444.642 178.552 444.962 178.233C445.282 177.913 445.282 176.955 444.962 176.636C443.044 174.4 440.807 172.803 438.25 171.845C435.693 170.886 432.817 170.567 430.26 170.567C428.662 170.567 427.383 170.886 425.785 170.567C424.507 170.248 423.548 169.609 422.27 168.97C420.032 167.692 418.115 165.776 416.517 163.86C412.362 159.707 408.207 155.874 403.413 153C398.619 150.125 393.505 148.528 388.072 148.209C382.958 148.209 377.844 149.486 374.009 152.68C373.689 153 373.05 153.319 372.73 153.958C371.772 155.555 373.37 157.152 374.328 156.194Z" fill="#152151"/>
<path d="M325.748 205.063C318.717 206.34 316.479 214.325 316.799 220.394C317.438 228.699 322.871 237.003 319.036 245.308C316.479 251.376 311.046 256.167 308.169 262.236C306.891 265.111 306.252 267.985 306.891 271.179C307.53 274.693 310.087 277.248 312.644 279.803C315.201 282.359 318.397 284.914 319.675 288.427C320.954 292.579 320.315 297.051 318.717 300.884C316.799 305.036 314.242 308.869 311.366 312.383C308.809 315.577 306.252 319.09 304.015 322.604C299.86 329.63 296.344 337.935 297.303 346.239C297.622 350.072 299.22 353.905 301.458 357.099C303.695 359.974 306.252 362.529 308.489 365.404C310.726 368.278 312.324 371.472 312.005 374.986C311.685 379.138 309.128 382.652 307.211 386.165C306.252 387.762 305.293 389.359 304.973 391.275C304.654 392.873 304.654 394.47 304.973 396.067C305.293 398.941 306.891 401.816 309.448 403.093C310.726 403.732 312.005 403.732 313.603 403.413C314.881 403.093 314.562 400.858 312.964 401.177C310.087 401.816 308.489 399.261 307.53 397.025C306.571 393.831 307.211 390.956 308.489 388.081C310.407 384.568 312.644 381.374 313.603 377.541C314.562 374.028 313.922 370.514 312.324 367.32C308.809 360.932 302.416 356.78 300.179 349.753C297.622 342.087 300.499 333.783 304.015 327.075C305.932 323.562 308.169 320.048 311.046 316.854C313.603 313.341 316.479 310.147 319.036 306.314C323.191 299.287 325.109 290.344 319.675 283.636C315.84 278.845 308.489 274.693 309.448 267.666C309.767 264.791 311.366 261.917 313.283 259.681C315.201 256.806 317.438 254.251 319.036 251.376C320.954 248.821 322.232 245.627 322.871 242.433C323.511 237.961 322.552 233.49 321.273 229.018C320.315 225.185 319.036 221.672 319.675 217.839C319.995 214.964 320.954 211.77 323.191 209.534C324.15 208.576 325.428 207.937 327.026 207.618C327.666 206.979 327.346 205.063 325.748 205.063Z" fill="#152151"/>
<path d="M292.189 315.257C288.354 321.645 286.116 329.311 286.116 336.977C286.116 340.81 286.436 344.642 287.395 348.156C288.354 351.989 289.632 355.502 291.55 358.696C293.467 362.21 295.385 365.404 296.024 369.237C296.344 370.834 296.344 372.75 296.024 374.347C295.705 375.944 295.065 377.541 294.107 378.819C292.189 381.693 289.952 384.249 288.034 387.443C286.116 390.637 284.838 394.47 284.838 398.302C284.838 406.288 288.673 413.953 293.148 420.661C293.787 421.619 294.107 422.258 294.746 423.216C295.065 423.855 295.705 423.855 296.344 423.535C296.983 423.216 296.983 422.577 296.664 421.938C294.426 418.744 292.189 415.231 290.591 411.398C288.993 407.885 287.714 404.371 287.395 400.538C287.075 397.025 287.714 393.192 289.313 389.998C290.911 387.123 293.148 384.249 295.065 381.693C296.983 378.819 298.581 375.625 298.581 372.111C298.581 368.278 296.983 364.446 295.385 361.251C293.787 357.738 291.869 354.544 290.591 351.031C289.313 347.517 288.673 344.004 288.673 340.171C288.354 332.825 289.632 325.478 293.148 319.09C293.467 318.132 294.107 317.493 294.426 316.535C294.746 314.938 292.828 313.98 292.189 315.257Z" fill="#152151"/>
<path d="M276.209 369.875C271.734 376.263 271.095 384.887 273.652 391.914C274.611 393.831 275.569 395.747 276.848 397.664C277.167 398.302 278.126 397.983 278.446 397.664C278.765 397.344 278.765 396.386 278.446 396.067C274.291 390.637 273.012 382.971 275.25 376.263C275.889 374.347 276.848 372.75 277.807 371.153C278.126 370.514 277.807 369.875 277.487 369.556C277.487 369.237 276.848 369.237 276.209 369.875Z" fill="#152151"/>
<path d="M288.034 256.167C284.199 260.32 282.281 265.75 281.642 271.499C281.322 276.929 282.601 282.359 285.477 286.83C287.075 289.385 289.313 291.621 291.55 293.538C292.189 293.857 292.828 293.538 293.148 293.218C293.467 292.58 293.148 291.941 292.828 291.621C288.993 288.747 286.116 284.594 284.838 279.803C283.24 275.012 283.56 269.902 285.158 265.111C286.116 262.556 287.395 260 289.313 257.764C289.632 257.445 289.632 256.487 289.313 256.167C288.993 255.529 288.354 255.529 288.034 256.167Z" fill="#152151"/>
<path d="M292.828 273.096C292.189 277.568 293.467 282.359 296.024 285.872C296.344 286.511 296.983 286.511 297.622 286.191C298.262 285.872 298.262 285.233 297.942 284.594C295.705 281.081 294.746 276.929 295.065 272.776C295.065 272.138 294.426 271.499 293.787 271.499C293.148 272.138 292.828 272.776 292.828 273.096Z" fill="#152151"/>
<path d="M323.511 189.412C319.036 188.773 314.562 190.051 311.046 192.606C307.53 195.481 304.654 199.313 303.375 203.466C301.777 208.576 301.777 213.687 302.736 219.116C303.056 221.672 303.695 224.227 304.334 226.782C304.973 229.337 305.613 231.893 305.932 234.448C306.252 237.003 305.932 239.239 304.973 241.475C304.015 243.391 302.416 244.988 300.499 245.627C299.86 245.946 299.54 246.266 299.86 246.905C299.86 247.543 300.818 247.863 301.138 247.543C305.293 246.266 307.85 241.794 308.169 237.642C308.809 232.212 306.891 227.102 305.613 221.991C304.654 217.2 304.015 211.77 304.654 206.979C305.293 202.507 307.211 198.355 310.407 195.481C313.603 192.287 318.077 190.37 322.552 191.009C323.191 191.009 323.83 191.009 323.83 190.37C324.469 190.37 323.83 189.412 323.511 189.412Z" fill="#152151"/>
<path d="M296.983 210.173C296.344 212.09 295.385 213.687 294.746 215.603C294.426 216.242 295.065 216.881 295.385 216.881C296.024 216.881 296.664 216.561 296.664 216.242C297.303 214.325 298.262 212.728 298.901 210.812C299.22 210.173 298.581 209.534 298.262 209.534C297.622 209.215 297.303 209.534 296.983 210.173Z" fill="#152151"/>
<path d="M290.271 197.078C288.673 194.842 287.075 192.925 284.838 191.328C283.879 190.37 282.92 189.731 281.642 189.092C280.363 188.454 279.405 187.495 277.807 187.495C274.611 187.176 273.971 191.009 274.291 193.245C274.611 195.8 275.889 198.355 277.807 199.952C280.044 202.188 282.92 203.466 285.477 204.743C285.797 204.104 285.797 203.466 286.116 202.507C283.879 202.827 281.642 203.146 279.724 203.785C278.765 204.104 277.487 204.424 276.528 205.063C275.569 205.382 274.611 205.702 273.971 206.34C273.012 206.979 272.373 207.618 272.373 208.576C272.054 209.534 272.693 210.493 273.332 211.451C274.611 213.048 276.528 214.006 278.446 214.645C280.683 215.603 282.92 216.242 285.477 216.561C285.477 215.922 285.477 214.964 285.477 214.325C281.322 214.645 275.889 215.603 274.291 220.075C273.652 221.672 273.652 223.908 274.611 225.505C275.889 227.74 278.446 228.06 280.683 227.74C283.56 227.421 286.436 226.463 288.993 224.866C290.271 224.227 288.993 221.991 287.714 222.949C285.797 224.227 283.879 224.866 281.642 225.505C280.683 225.824 279.724 225.824 278.765 225.824C278.446 225.824 278.126 225.824 277.487 225.505C277.487 225.505 277.487 225.505 277.167 225.505C277.167 225.505 276.848 225.185 277.167 225.505L276.848 225.185C276.848 225.185 276.528 224.866 276.848 225.185C276.848 225.185 276.848 225.185 276.848 224.866L276.528 224.546C276.528 224.866 276.528 224.227 276.528 224.227V223.908C276.528 223.908 276.528 223.588 276.528 223.908C276.528 223.588 276.528 223.269 276.528 222.949V222.63C276.528 222.949 276.528 222.63 276.528 222.63C276.528 222.311 276.528 222.311 276.848 221.991C276.848 221.672 277.167 221.352 277.167 221.033C277.167 220.714 277.487 220.714 277.487 220.394C277.487 220.075 277.487 220.075 277.807 220.075C278.446 219.436 279.085 218.797 279.724 218.478C281.642 217.519 283.879 217.2 286.116 217.2C287.714 217.2 287.714 214.964 286.116 214.964C284.518 214.645 282.601 214.325 281.003 213.687C279.405 213.048 277.807 212.409 276.528 211.451C275.889 211.131 275.569 210.493 275.25 209.854V209.534C275.25 209.534 275.25 209.534 275.25 209.215C275.25 208.896 275.569 208.896 275.889 208.576C277.487 207.618 279.085 206.979 280.683 206.34C282.601 205.702 284.518 205.063 286.756 205.063C287.395 205.063 287.714 204.743 287.714 204.104C287.714 203.785 287.714 203.146 287.075 202.827C283.24 200.91 278.446 198.675 277.167 194.203C276.848 193.245 276.848 192.287 276.848 191.009C276.848 190.689 277.167 190.051 277.167 189.731C277.487 189.412 277.487 189.092 277.807 189.412C278.765 189.412 279.724 190.051 280.683 190.689C281.642 191.328 282.601 191.967 283.24 192.606C285.158 194.203 287.075 196.119 288.354 198.036C288.673 198.675 289.313 198.675 289.952 198.355C290.271 198.355 290.591 197.716 290.271 197.078Z" fill="#152151"/>
<path d="M382.638 137.03C381.04 135.752 379.762 134.155 378.803 132.238C378.164 130.641 377.524 128.725 377.844 127.128C378.164 126.17 378.483 125.531 379.123 125.212C379.442 124.892 379.762 124.892 380.081 124.892H380.401C380.721 124.892 380.721 124.892 381.04 124.892C382.958 125.212 384.236 126.489 385.515 127.767C387.113 129.683 388.391 131.6 390.309 132.877C391.268 133.197 392.226 132.238 391.907 131.28C391.268 128.406 390.948 124.573 393.505 122.656C394.144 122.337 394.464 122.018 395.103 122.018C395.742 122.018 396.062 122.337 396.381 122.656L396.701 122.976C396.701 123.295 396.701 122.976 396.701 122.976C396.701 122.976 396.701 122.976 396.701 123.295L397.021 123.615C397.021 123.615 397.021 123.934 397.34 123.934V124.253C397.34 124.573 397.66 124.892 397.66 125.212C397.66 125.531 397.66 125.531 397.66 125.85C397.66 126.17 397.66 125.85 397.66 125.85V126.17C397.66 126.489 397.66 126.809 397.66 127.128C397.66 127.447 397.66 127.767 397.66 128.086C397.66 128.406 397.66 128.406 397.66 128.725C397.66 128.725 397.66 128.725 397.66 129.044C397.66 128.725 397.66 129.044 397.66 129.364C397.66 130.003 397.66 130.322 398.299 130.641C398.938 130.961 399.577 130.641 399.577 130.322C400.536 128.725 401.176 127.128 402.454 125.85C402.774 125.531 403.093 125.531 403.413 125.212C403.732 124.892 404.052 124.892 404.372 124.892C405.011 124.573 405.65 124.573 406.289 124.573H406.609H406.928C407.248 124.573 406.928 124.573 406.928 124.573H407.248C407.248 124.573 407.248 124.573 407.568 124.573C407.568 124.573 407.887 124.892 407.568 124.573L407.887 124.892C407.887 124.892 407.887 124.892 407.887 125.212V125.531C407.887 125.531 407.887 125.212 407.887 125.531C407.887 125.85 407.887 125.85 407.887 126.17C407.887 127.128 407.568 128.086 407.248 129.044C406.928 130.003 406.289 130.641 405.97 131.6C405.011 133.516 403.413 135.113 401.815 136.391C401.495 136.71 401.495 137.668 401.815 137.988C402.134 138.307 403.093 138.307 403.413 137.988C405.011 136.391 406.609 134.794 407.887 132.877C408.527 131.919 409.166 130.961 409.485 129.683C409.805 128.725 410.444 127.447 410.125 126.17C409.805 121.698 404.372 120.74 401.495 122.976C399.577 124.253 398.299 126.489 397.021 128.725C397.66 129.044 398.299 129.364 399.258 129.683C400.856 126.809 400.856 122.976 398.299 121.059C397.021 119.782 395.103 119.462 393.185 120.421C391.587 121.059 390.309 122.656 389.67 124.573C389.03 127.128 389.35 129.683 389.67 131.919C390.309 131.6 390.628 130.961 391.268 130.641C389.35 129.683 388.072 127.447 386.793 125.85C385.515 124.253 383.597 122.656 381.36 122.337C380.081 122.018 379.123 122.337 378.164 122.656C376.885 123.615 376.246 124.573 375.926 125.531C375.287 127.767 375.607 130.003 376.566 131.919C377.524 134.474 379.123 136.71 381.36 138.307C381.679 138.627 382.638 138.627 382.958 138.307C382.958 138.307 382.958 137.349 382.638 137.03Z" fill="#152151"/>
<path d="M371.772 140.224C382.319 142.779 393.185 143.737 404.052 143.098C407.248 142.779 410.125 142.459 413.321 142.14C413.96 142.14 413.64 140.862 413.001 141.182C402.454 142.779 391.587 142.779 381.04 140.862C378.164 140.543 374.968 139.904 372.091 138.946C371.452 138.946 371.132 140.224 371.772 140.224Z" fill="#B03537"/>
<path d="M371.132 142.779C381.679 145.973 393.185 146.931 404.052 145.653C407.248 145.334 410.125 144.695 413.321 144.056C413.96 143.737 413.64 142.779 413.001 143.098C402.134 145.653 390.948 145.973 380.401 144.056C377.205 143.418 374.328 142.779 371.452 141.821C370.813 141.501 370.493 142.459 371.132 142.779Z" fill="#B03537"/>
<path d="M371.132 138.627C381.679 140.224 392.546 140.543 403.413 139.904C406.609 139.585 409.485 139.265 412.362 138.946C413.001 138.946 413.001 137.668 412.362 137.668C401.815 138.946 390.948 139.265 380.401 138.307C377.525 137.988 374.328 137.668 371.452 137.349C371.132 137.349 370.813 137.349 370.813 137.668C370.493 138.307 370.813 138.627 371.132 138.627Z" fill="#B03537"/>
<path d="M296.664 190.69C294.107 200.91 292.828 211.131 292.509 221.672C292.509 224.546 292.509 227.421 292.509 230.615C292.509 231.254 293.787 231.254 293.787 230.615C293.467 220.394 294.107 209.854 295.705 199.633C296.344 196.758 296.983 193.884 297.622 191.009C297.942 190.37 296.664 190.051 296.664 190.69Z" fill="#B03537"/>
<path d="M296.024 187.176C296.664 198.036 296.983 208.896 296.983 219.755C296.983 222.949 296.983 225.824 296.664 229.018C296.664 229.657 297.942 229.657 297.942 229.018C298.262 218.158 298.262 207.299 297.622 196.439C297.622 193.245 297.303 190.37 296.983 187.176C296.983 186.537 296.024 186.537 296.024 187.176Z" fill="#B03537"/>
<path d="M298.581 187.815C299.54 198.036 299.54 208.257 298.901 218.797C298.581 221.672 298.581 224.546 298.262 227.421C298.262 228.06 299.22 228.06 299.54 227.421C300.499 217.2 300.818 206.979 300.499 196.439C300.499 193.564 300.179 190.69 299.86 187.815C299.54 187.176 298.581 187.176 298.581 187.815Z" fill="#B03537"/>
<path d="M363.781 265.75C368.256 271.818 369.215 279.803 366.977 287.15C366.338 289.066 365.379 290.983 364.421 292.899C364.101 293.538 364.421 294.177 364.74 294.496C370.493 297.051 377.205 297.051 382.958 293.857C383.597 293.538 383.597 292.899 383.277 292.26C382.958 291.621 382.319 291.621 381.679 291.941C376.885 294.496 370.813 294.815 365.699 292.58C365.699 293.218 366.019 293.538 366.019 294.177C370.493 287.469 371.132 278.526 368.575 270.86C367.936 268.624 366.658 266.708 365.379 264.791C365.06 264.153 364.421 264.153 363.781 264.472C363.462 264.472 363.142 265.43 363.781 265.75Z" fill="#996441"/>
<path d="M444.323 259.042C447.199 254.251 450.076 249.779 452.633 244.988C453.272 243.711 451.354 242.433 450.715 243.711C447.838 248.502 444.962 252.973 442.405 257.764C441.766 259.361 443.684 260.32 444.323 259.042Z" fill="#996441"/>
<path d="M447.519 254.57C449.117 256.487 450.395 258.403 451.993 260C452.313 260.32 453.272 260.32 453.591 260C453.911 259.361 453.911 259.042 453.591 258.403C451.993 256.487 450.715 254.57 449.117 252.973C448.797 252.654 447.838 252.654 447.519 252.973C446.88 253.293 447.199 253.932 447.519 254.57Z" fill="#996441"/>
<path d="M422.589 222.949C420.352 226.782 421.63 231.893 424.187 235.726C426.744 239.558 429.94 242.752 432.178 246.585C434.415 250.418 435.374 255.848 432.497 259.361C437.291 254.57 438.889 246.585 436.013 240.197C435.054 238.281 434.095 236.684 433.456 234.767C432.497 230.615 434.734 226.463 437.291 222.63L422.589 222.949Z" fill="#6B74B5"/>
<path d="M388.072 307.272C395.423 301.203 399.258 291.621 398.299 282.039C395.423 290.344 389.35 297.371 381.999 301.842L388.072 307.272Z" fill="white"/>
<path d="M389.03 308.23C395.103 303.439 398.619 296.093 399.578 288.427C399.897 286.191 399.897 284.275 399.578 282.039C399.578 280.762 397.66 280.442 397.34 281.72C395.103 287.788 390.948 293.538 386.154 297.69C384.876 298.968 383.277 299.926 381.679 300.884C381.04 301.203 380.721 302.162 381.36 302.8C383.277 304.717 385.515 306.314 387.432 308.23C387.752 308.55 388.711 308.55 389.03 308.23C389.35 307.911 389.35 306.953 389.03 306.633C387.113 304.717 384.876 303.12 382.958 301.203C382.958 301.842 382.958 302.481 382.638 303.12C388.711 299.606 393.505 294.177 397.021 288.108C397.979 286.191 398.938 284.594 399.578 282.678C398.938 282.678 397.979 282.359 397.34 282.359C397.979 289.385 396.062 296.732 391.587 302.481C390.309 304.078 389.03 305.675 387.432 306.953C387.113 307.272 387.113 308.23 387.432 308.55C387.752 308.55 388.391 308.55 389.03 308.23Z" fill="#996441"/>
<path d="M386.154 262.556C386.154 259.681 387.432 256.806 389.989 255.209C392.546 253.612 395.423 253.293 397.979 254.251C399.258 254.89 400.856 255.848 401.495 257.126C401.815 257.764 402.454 257.764 403.093 257.445C403.732 257.126 403.732 256.487 403.413 255.848C401.495 252.973 397.979 251.376 394.464 251.376C390.628 251.376 387.432 253.612 385.515 256.806C384.556 258.403 383.917 260.639 383.917 262.556C383.917 263.833 386.154 263.833 386.154 262.556Z" fill="black"/>
<path d="M342.368 283.636C342.368 280.762 343.646 277.887 346.203 276.29C348.76 274.693 351.636 274.373 354.193 275.332C355.471 275.97 357.07 276.929 357.709 278.206C358.028 278.845 358.668 278.845 359.307 278.526C359.946 278.206 359.946 277.568 359.626 276.929C357.389 274.054 353.873 272.138 350.358 272.457C346.522 272.457 343.326 274.693 341.409 277.887C340.45 279.484 339.811 281.72 339.811 283.636C340.13 285.233 342.687 285.233 342.368 283.636Z" fill="black"/>
<path d="M373.05 239.878C372.091 241.155 373.05 243.391 374.648 243.711C376.246 244.349 377.844 243.711 379.442 243.391C386.793 241.475 394.464 240.517 401.815 240.836C398.619 237.642 393.505 237.642 389.03 237.642C384.556 237.642 380.401 237.642 375.926 237.642C374.968 237.642 374.009 237.642 373.05 238.281C372.411 238.92 371.772 239.878 372.411 240.836L373.05 239.878Z" fill="#6B74B5"/>
<path d="M350.677 251.696C352.275 252.015 352.915 254.251 352.275 255.529C351.636 257.126 350.038 257.764 348.44 258.723C341.728 262.556 335.975 267.027 330.542 272.457C330.862 267.985 334.058 264.472 337.573 261.278C340.769 258.403 343.646 255.209 346.842 252.335C347.481 251.696 348.12 251.057 349.079 250.738C350.038 250.418 350.997 251.057 351.317 252.015L350.677 251.696Z" fill="#6B74B5"/>
<path d="M334.058 214.006C336.295 214.006 338.532 214.964 340.45 216.242C342.368 217.839 343.646 219.755 344.605 221.991C345.244 223.269 345.564 224.546 346.203 225.505C346.842 226.463 347.481 227.421 348.12 228.06C349.719 229.657 351.636 230.934 353.554 231.573C355.791 232.531 358.348 232.851 360.905 232.212C361.544 232.212 361.224 230.934 360.585 231.254C356.43 231.893 351.636 230.296 348.76 227.102C347.162 225.185 346.203 222.949 345.244 220.714C344.285 218.478 343.007 216.561 341.089 214.964C339.171 213.367 336.615 212.409 333.738 212.409C333.099 213.048 333.099 214.006 334.058 214.006Z" fill="#6B74B5"/>
<path d="M379.762 210.493C383.597 208.576 388.072 208.257 392.227 209.215C396.381 210.173 400.217 212.09 403.413 214.645C406.609 217.2 409.166 220.394 411.403 223.908C413.64 227.421 415.878 230.934 419.393 233.49C422.909 235.726 427.703 237.003 431.219 234.448C431.858 234.129 431.219 233.17 430.58 233.49C427.383 235.726 423.229 234.448 420.032 232.531C416.517 230.296 414.28 226.463 412.042 222.949C409.805 219.436 407.248 216.242 404.052 213.687C400.856 211.131 397.021 209.215 393.185 208.257C388.391 207.299 383.597 207.618 379.123 209.534C378.483 209.854 379.123 210.812 379.762 210.493Z" fill="#6B74B5"/>
<path d="M414.599 147.25C422.909 149.167 431.219 152.361 438.25 156.833C441.766 159.068 445.282 161.624 448.478 164.498C451.354 167.054 454.231 169.928 458.066 171.525C459.664 172.483 461.582 173.122 463.499 173.122C465.417 173.442 467.654 173.122 469.572 172.483C473.407 171.206 476.923 168.651 480.758 167.054C487.79 164.179 495.78 163.221 503.131 164.179C510.801 165.137 517.833 168.012 524.225 172.483C524.864 173.122 525.823 173.761 526.462 174.4C527.101 174.719 527.741 174.08 527.421 173.442C521.668 168.331 514.317 165.137 506.966 163.54C499.615 161.943 491.625 162.263 484.274 164.498C482.356 165.137 480.758 165.776 478.84 166.415C476.923 167.373 475.005 168.331 473.088 169.289C471.17 170.248 468.933 171.206 467.015 171.525C465.097 171.845 463.18 171.845 461.262 171.206C457.427 169.928 454.231 167.373 451.354 164.818C448.158 161.943 444.962 159.388 441.766 156.833C434.734 152.042 426.744 148.209 418.434 146.292C417.476 145.973 416.197 145.653 415.238 145.653C414.279 145.973 413.96 147.25 414.599 147.25Z" fill="#6B74B5"/>
<path d="M295.385 230.615C295.705 237.642 290.911 242.752 285.797 246.585C280.363 250.738 273.652 252.973 267.899 256.167C262.465 259.042 256.393 262.875 253.516 268.624C251.918 271.499 251.279 274.693 251.599 277.887C251.918 281.081 252.877 283.956 254.156 286.83C257.032 292.899 261.507 298.329 263.105 305.036C264.063 308.23 264.063 311.744 263.424 314.938C262.785 318.132 261.187 321.007 259.589 323.562C255.754 329.311 250.959 334.421 246.485 339.532C244.248 342.087 242.33 344.962 240.732 347.836C239.134 350.711 237.855 353.905 236.897 357.099C233.381 370.195 235.938 384.887 243.928 395.747C244.887 397.025 245.846 398.302 247.124 399.58C247.763 400.219 248.403 399.261 248.083 398.622C238.495 388.72 234.659 374.028 237.216 360.613C238.495 353.905 241.371 347.836 245.526 342.407C249.681 336.977 254.795 332.186 258.63 326.436C262.465 321.326 265.022 315.577 264.703 308.869C264.383 302.162 260.548 296.412 257.032 290.663C253.836 284.914 250.959 278.845 252.557 272.138C254.156 265.75 259.908 261.278 265.342 258.084C271.095 254.57 277.487 252.335 283.24 248.821C288.354 245.627 293.787 240.836 295.385 234.767C295.705 233.17 296.024 231.573 296.024 230.296C296.344 229.976 295.385 229.976 295.385 230.615Z" fill="#6B74B5"/>
<path d="M328.944 315.896C335.017 319.09 338.532 325.798 338.213 332.505C337.893 336.338 336.615 339.851 335.017 343.365C333.419 346.878 331.181 350.392 329.583 353.586C327.985 356.78 327.026 359.974 326.387 363.168C325.748 366.362 325.748 369.875 326.707 373.069C327.346 374.666 327.985 376.263 328.944 377.541C329.903 378.819 331.181 380.096 332.779 380.735C335.336 382.332 338.532 383.61 340.45 386.165C342.687 389.04 342.368 392.873 341.728 396.386C340.77 400.219 338.852 404.052 338.213 408.204C337.893 409.162 337.893 410.44 337.893 411.398C337.893 412.995 340.13 412.995 340.13 411.398C340.13 407.246 341.728 403.093 343.007 399.261C343.966 395.747 344.924 391.595 343.646 388.081C343.007 386.484 342.048 384.887 340.77 383.61C339.491 382.332 337.893 381.693 336.615 380.735C335.336 379.777 333.738 379.138 332.46 378.18C331.181 377.222 330.222 375.944 329.583 374.666C328.944 373.389 328.624 371.792 328.305 370.514C327.985 369.237 327.985 367.32 328.305 365.723C328.624 362.529 329.583 359.335 330.862 356.46C334.058 349.434 339.171 343.045 340.13 335.06C340.77 331.227 340.13 327.714 338.532 324.201C337.254 321.007 334.697 318.132 331.82 315.896C331.181 315.257 330.542 314.938 329.583 314.618C328.944 313.341 327.666 315.257 328.944 315.896Z" fill="#152151"/>
<path d="M349.719 350.392C345.244 354.544 343.966 361.571 346.842 367.001C348.44 369.875 350.677 372.111 352.915 374.666C355.152 376.902 356.43 379.777 357.07 382.652C357.709 385.846 357.389 389.678 355.791 392.553C355.472 393.192 355.791 393.831 356.111 394.15C356.75 394.47 357.389 394.15 357.709 393.831C360.585 388.081 360.266 380.416 356.43 375.305C354.513 372.75 351.956 370.514 350.038 367.959C348.121 365.723 347.481 362.849 347.481 359.974C347.481 357.099 349.079 353.905 351.317 351.989C351.636 351.669 351.636 350.711 351.317 350.392C350.997 350.072 350.358 350.072 349.719 350.392Z" fill="#152151"/>
<path d="M379.123 414.911C387.432 421.299 394.783 428.965 401.176 437.27C407.887 445.574 413.64 454.518 418.754 463.78C424.187 473.362 428.981 482.945 433.136 492.846C436.972 501.789 440.168 511.052 443.683 519.995C447.199 529.258 451.354 538.521 456.148 547.145C456.787 548.422 457.427 549.7 458.386 550.978C459.025 552.255 460.942 550.978 460.303 549.7C455.189 540.757 450.715 531.494 446.88 521.912C443.364 512.969 440.168 504.025 436.652 495.082C432.497 484.861 427.703 474.959 422.27 465.377C417.156 456.115 411.723 447.171 405.33 438.867C398.938 430.562 391.907 422.577 383.597 415.87C382.638 414.911 381.679 414.273 380.721 413.314C380.081 412.995 379.442 412.995 379.123 413.314C378.803 413.953 378.483 414.592 379.123 414.911Z" fill="#6D181D"/>
<path d="M449.756 528.619C455.509 521.912 461.262 515.524 467.015 508.816C472.768 502.109 478.201 495.401 483.635 488.694C489.068 481.986 494.501 475.279 499.935 468.252C505.368 461.225 510.801 454.518 516.235 447.491C521.668 440.464 526.782 433.437 532.215 426.41C532.854 425.452 533.494 424.813 534.133 423.855C534.452 423.216 534.133 422.577 533.813 422.258C533.174 421.938 532.535 422.258 532.215 422.577C526.782 429.604 521.668 436.631 516.235 443.658C510.801 450.685 505.688 457.392 500.254 464.1C494.821 470.807 489.388 477.834 483.954 484.542C478.521 491.249 472.768 497.957 467.335 504.664C461.582 511.372 455.829 518.079 450.076 524.467C449.436 525.425 448.797 526.064 447.838 526.703C447.199 528.3 448.797 529.897 449.756 528.619Z" fill="#6D181D"/>
<path d="M524.225 365.084C507.925 389.04 476.923 409.162 458.066 431.201C434.734 458.35 425.146 496.998 432.817 532.133C434.415 539.799 436.972 547.464 442.405 553.214C447.519 558.963 456.148 562.157 463.499 559.602C469.891 557.046 474.046 550.658 475.964 543.951C477.882 537.243 477.562 530.216 478.201 523.19C479.16 512.33 482.356 501.47 487.15 491.568C490.346 484.861 494.501 478.473 497.697 471.765C503.45 459.628 506.007 446.213 508.244 432.798C510.162 422.897 511.76 412.676 513.678 402.774L524.225 365.084Z" fill="#8C4C18"/>
<path d="M444.003 525.425C443.364 534.688 443.684 545.228 450.715 552.255C452.313 553.852 454.231 555.449 456.468 556.408C457.107 556.727 457.746 556.727 458.066 556.088C458.386 555.449 458.066 554.811 457.746 554.491C454.231 552.894 451.354 550.019 449.756 546.506C447.519 542.673 446.88 538.202 446.56 533.73C446.56 530.855 446.56 527.981 446.56 525.425C446.56 524.787 445.921 524.148 445.282 524.148C444.323 524.467 444.003 524.787 444.003 525.425Z" fill="black"/>
<path d="M455.509 522.87C453.591 531.494 456.148 540.437 461.901 546.825C463.499 548.742 465.417 550.019 467.654 551.297C468.933 551.936 470.211 550.02 468.933 549.381C462.221 545.228 457.746 537.882 457.427 529.897C457.427 527.661 457.427 525.425 458.066 523.19C458.066 522.231 455.829 521.593 455.509 522.87Z" fill="black"/>
<path d="M442.085 498.276C440.487 502.428 439.848 506.58 439.848 510.733C439.848 511.372 441.127 511.372 441.127 510.733C441.127 506.58 442.085 502.428 443.364 498.595C443.364 497.957 442.405 497.637 442.085 498.276Z" fill="#BC681D"/>
<path d="M445.921 501.47C445.601 504.345 444.962 507.219 444.642 510.094C444.642 510.733 445.601 511.052 445.601 510.413C445.921 507.539 446.56 504.664 446.88 501.789C446.88 500.831 445.921 500.512 445.921 501.47Z" fill="#BC681D"/>
<path d="M452.952 499.873C451.993 502.109 451.993 504.664 452.313 507.219C452.313 507.539 452.633 507.539 452.952 507.539C453.272 507.539 453.272 507.219 453.272 506.9C452.952 504.664 453.272 502.428 453.911 500.192C454.231 499.554 453.272 499.234 452.952 499.873Z" fill="#BC681D"/>
<path d="M453.911 457.073C451.993 461.225 451.034 465.377 450.715 469.849C450.715 470.488 451.674 470.488 451.993 469.849C452.313 465.697 453.272 461.544 454.87 457.712C455.189 456.753 453.911 456.434 453.911 457.073Z" fill="#BC681D"/>
<path d="M463.18 464.1C462.54 466.016 462.221 467.613 461.582 469.53C461.262 470.168 462.54 470.488 462.54 469.849C463.18 467.933 463.499 466.336 464.138 464.419C464.458 463.78 463.18 463.461 463.18 464.1Z" fill="#BC681D"/>
<path d="M469.252 469.53C468.293 471.446 467.974 473.362 468.613 475.279C468.613 475.598 468.933 475.598 469.252 475.598C469.572 475.598 469.572 475.279 469.572 474.959C469.252 473.362 469.572 471.446 470.211 469.849C470.211 469.53 470.211 469.21 469.891 469.21C469.891 468.891 469.572 469.21 469.252 469.53Z" fill="#BC681D"/>
<path d="M490.027 428.326C489.068 431.84 488.109 435.034 487.15 438.547C486.831 439.186 488.109 439.506 488.109 438.867C489.068 435.353 490.027 432.159 490.986 428.646C491.305 428.007 490.027 427.688 490.027 428.326Z" fill="#BC681D"/>
<path d="M498.017 434.395C496.739 436.631 495.46 439.186 494.182 441.422C493.862 442.061 494.821 442.7 495.141 442.061C496.419 439.825 497.697 437.27 498.976 435.034C499.295 434.395 498.337 433.756 498.017 434.395Z" fill="#BC681D"/>
<path d="M685.947 427.368C696.814 443.338 701.608 463.461 699.37 482.625C697.133 501.789 687.865 519.995 673.482 533.091C667.41 538.84 660.059 543.631 652.068 545.228C643.759 547.145 634.81 545.548 628.737 539.799C619.788 531.494 619.788 516.801 625.86 505.942C631.613 495.401 642.161 488.055 652.388 481.348C656.543 478.792 660.698 476.237 663.574 472.724C665.812 470.168 667.41 467.294 669.008 464.1C675.4 451.962 680.514 439.186 684.349 425.771L685.947 427.368Z" fill="#8C4C18"/>
<path d="M525.503 434.076C530.298 438.547 535.092 442.7 540.205 446.532C545.319 450.365 550.752 453.879 556.505 456.115C559.701 457.392 563.217 458.67 566.733 459.309C567.372 459.309 568.011 458.989 568.011 458.67C568.011 458.031 567.692 457.392 567.372 457.392C561.3 456.115 555.547 453.879 550.113 450.685C544.68 447.491 539.886 443.658 535.092 439.506C532.535 437.27 529.658 434.714 527.101 432.479C526.782 432.159 525.823 432.159 525.503 432.479C525.184 432.798 525.184 433.756 525.503 434.076Z" fill="#6D181D"/>
<path d="M624.902 401.496C631.933 403.413 639.284 405.01 646.635 405.649C653.986 406.288 661.337 406.607 668.688 406.288C672.843 405.968 676.998 405.649 681.153 405.01C681.792 405.01 682.112 404.052 681.792 403.732C681.472 403.093 681.153 402.774 680.514 403.093C673.482 404.052 666.131 404.69 658.78 404.69C651.429 404.69 644.398 403.732 637.366 402.455C633.211 401.816 629.376 400.858 625.221 399.58C624.262 398.941 623.623 400.858 624.902 401.496Z" fill="#6D181D"/>
<path d="M623.623 527.981C632.253 527.342 640.243 523.828 646.635 518.398C648.553 516.801 650.151 515.204 651.749 513.288C652.068 512.969 652.068 512.01 651.749 511.691C651.429 511.372 650.47 511.372 650.151 511.691C645.037 517.76 638.006 522.231 630.015 524.467C627.778 525.106 625.541 525.425 623.623 525.745C622.984 525.745 622.345 526.384 622.345 527.022C622.345 527.342 622.984 527.981 623.623 527.981Z" fill="black"/>
<path d="M634.17 540.757C641.521 538.202 648.872 534.688 654.945 529.897C656.863 528.619 658.461 527.022 660.378 525.745C660.698 525.425 660.698 524.467 660.378 524.148C660.059 523.828 659.1 523.828 658.78 524.148C653.027 529.258 646.315 533.091 639.604 536.285C637.686 537.243 635.768 537.882 633.531 538.521C632.892 538.84 632.572 539.16 632.892 539.799C632.892 540.437 633.531 541.076 634.17 540.757Z" fill="black"/>
<path d="M673.482 473.362C671.884 476.876 670.286 480.07 669.008 483.583C668.688 484.222 669.647 484.861 669.966 484.222C671.564 480.709 673.162 477.515 674.441 474.001C674.761 473.043 673.802 472.724 673.482 473.362Z" fill="#BC681D"/>
<path d="M679.874 478.153C678.915 480.389 678.276 482.945 677.317 485.18C676.998 485.819 678.276 486.139 678.276 485.5C679.235 483.264 679.874 480.709 680.833 478.473C681.153 477.515 679.874 477.515 679.874 478.153Z" fill="#BC681D"/>
<path d="M682.751 482.306C683.07 484.222 682.431 486.458 681.153 488.055C680.833 488.374 681.153 488.694 681.472 488.694C681.792 489.013 682.112 488.694 682.112 488.374C683.39 486.458 684.029 484.222 683.71 481.667C683.71 481.348 683.39 481.348 683.07 481.348C683.07 481.667 682.751 481.986 682.751 482.306Z" fill="#BC681D"/>
<path d="M685.947 456.434C685.627 458.67 684.988 461.225 684.668 463.461C684.668 464.1 685.627 464.419 685.627 463.78C685.947 461.544 686.586 458.989 686.906 456.753C686.906 455.795 685.947 455.476 685.947 456.434Z" fill="#BC681D"/>
<path d="M687.545 495.082C685.308 499.234 683.39 503.386 681.153 507.539C680.833 508.178 681.792 508.816 682.112 508.178C684.349 504.025 686.266 499.873 688.504 495.721C688.823 495.082 687.864 494.443 687.545 495.082Z" fill="#BC681D"/>
<path d="M690.741 481.348C691.061 481.986 691.061 482.625 690.741 482.945C690.741 483.583 690.421 484.222 690.102 484.542C689.782 484.861 690.102 485.18 690.421 485.18C690.741 485.5 691.061 485.18 691.061 484.861C692.019 483.583 692.339 481.986 691.7 480.389C691.7 480.07 691.38 479.751 691.061 480.07C690.741 481.028 690.421 481.348 690.741 481.348Z" fill="#BC681D"/>
<path d="M692.339 469.21C692.339 469.21 692.659 469.21 692.339 469.21C692.659 469.53 692.659 469.53 692.339 469.21C692.659 469.53 692.659 469.21 692.339 469.21C692.659 469.53 692.659 469.53 692.659 469.849V470.168V470.488C692.659 470.488 692.659 470.488 692.659 470.807V471.127C692.659 471.446 692.659 471.765 692.978 471.765C693.298 471.765 693.617 471.765 693.617 471.446C694.257 470.168 693.617 468.571 692.978 467.613C692.659 467.294 692.339 467.294 692.019 467.613C692.339 468.571 692.339 468.891 692.339 469.21Z" fill="#BC681D"/>
<path d="M695.216 496.04C695.535 502.109 695.216 508.497 694.257 514.566C694.257 515.204 695.216 515.524 695.216 514.885C696.174 508.816 696.494 502.428 696.174 496.04C696.494 495.401 695.216 495.401 695.216 496.04Z" fill="#8C4C18"/>
<path d="M691.061 504.664C691.061 509.136 691.061 513.607 691.061 517.76C691.061 518.398 692.339 518.398 692.339 517.76C692.339 513.288 692.339 508.816 692.339 504.664C692.019 504.025 691.061 504.025 691.061 504.664Z" fill="#8C4C18"/>
<path d="M429.94 465.377C434.415 460.906 439.209 457.073 444.642 453.559C446.24 452.601 447.519 451.643 449.117 450.685C449.756 450.365 449.117 449.407 448.478 449.726C443.044 452.921 437.931 456.753 433.136 460.906C431.858 462.183 430.58 463.461 429.301 464.739C428.662 465.058 429.301 466.016 429.94 465.377Z" fill="#8C4C18"/>
<path d="M435.693 452.282C440.168 449.088 445.282 446.532 450.395 444.935C451.034 444.616 450.715 443.658 450.076 443.977C444.642 445.574 439.529 448.129 435.054 451.643C434.734 451.643 435.374 452.601 435.693 452.282Z" fill="#8C4C18"/>
<path d="M435.054 547.145C430.58 552.575 427.383 558.963 425.146 565.67C422.909 573.017 422.27 581.002 421.95 588.667C421.95 593.139 421.95 597.93 421.95 602.402C421.95 603.999 424.187 603.999 424.187 602.402C424.187 594.417 424.187 586.432 424.827 578.446C425.785 571.42 427.383 564.712 430.26 558.324C431.858 554.811 434.095 551.617 436.333 548.742C436.652 548.422 436.652 547.464 436.333 547.145C436.013 546.825 435.374 546.825 435.054 547.145Z" fill="#6D181D"/>
<path d="M451.354 274.054C452.313 274.054 453.591 273.735 454.231 272.776C454.87 272.138 455.509 270.86 455.509 269.902C455.509 267.666 453.911 266.069 451.674 266.069C450.715 266.069 449.437 266.388 448.797 267.347C448.158 267.985 447.519 269.263 447.519 270.221C447.199 272.457 449.117 274.054 451.354 274.054Z" fill="#D15259"/>
<path d="M548.835 467.613C567.053 478.792 583.672 492.527 598.055 508.497C599.013 509.775 600.292 511.052 600.931 512.649C601.89 514.885 601.251 517.44 600.931 519.676C599.013 530.855 599.333 542.673 601.89 553.852C575.043 550.339 548.835 542.673 524.545 531.494C528.06 514.885 531.576 498.595 535.092 481.986L548.835 467.613Z" fill="#D15259"/>
<path d="M595.178 527.022C594.219 533.73 593.9 540.757 594.539 547.464C595.178 554.172 596.137 560.879 598.055 567.587C599.013 571.42 600.611 574.933 601.89 578.446C602.209 579.085 602.849 579.085 603.488 578.766C604.127 578.446 604.127 577.808 603.808 577.169C601.251 571.1 599.333 564.712 598.055 558.324C596.776 551.936 596.137 545.228 596.457 538.521C596.457 534.688 596.776 531.175 597.415 527.342C597.415 526.703 597.415 526.064 596.776 526.064C596.137 526.064 595.498 526.384 595.178 527.022Z" fill="#6D181D"/>
<path d="M574.723 451.004C569.929 461.544 565.135 471.765 560.021 481.986C555.227 491.568 550.113 501.151 544.999 510.413C539.886 519.995 534.452 529.258 529.019 538.521C523.266 548.422 517.513 558.005 511.441 567.906C505.048 578.766 498.337 589.626 491.944 600.485C490.986 602.082 490.346 603.36 489.388 604.957C488.748 606.235 490.666 607.512 491.305 606.235C498.017 595.056 504.409 584.196 511.121 573.017C517.194 563.115 522.946 553.214 528.699 543.312C534.133 534.049 539.566 524.787 544.68 515.204C549.794 505.942 554.907 496.36 559.701 486.777C564.815 476.556 569.609 466.336 574.403 456.115C575.043 454.837 575.682 453.559 576.321 451.962C576.641 451.324 576.321 450.685 576.002 450.365C575.682 450.046 574.723 450.365 574.723 451.004Z" fill="#6D181D"/>
<path d="M622.664 411.398C622.025 418.744 620.747 425.771 618.829 432.798C616.911 440.144 615.313 447.171 613.396 454.518C611.478 461.864 609.88 469.21 607.962 476.237C606.045 483.583 604.447 490.93 602.529 498.276C600.611 505.622 599.013 512.969 597.096 519.995C596.776 520.954 596.776 521.912 596.456 522.551C596.137 523.828 598.374 524.467 598.694 523.19C600.611 515.843 602.209 508.497 604.127 501.151C606.045 493.804 607.643 486.458 609.56 479.112C611.478 471.765 613.076 464.419 614.994 457.073C616.911 449.727 618.509 442.38 620.427 435.353C622.345 428.326 623.943 420.98 624.582 413.634C624.582 412.676 624.902 411.717 624.902 411.079C624.902 410.44 624.262 409.801 623.623 409.801C623.304 410.44 622.664 410.759 622.664 411.398Z" fill="#6D181D"/>
<path d="M674.441 196.119C677.637 191.967 682.112 189.092 686.586 186.857C687.225 186.537 686.586 185.579 685.947 185.898C681.153 188.134 676.678 191.328 673.482 195.481C673.163 195.8 674.121 196.758 674.441 196.119Z" fill="black"/>
<path d="M680.514 202.188C684.029 200.272 687.865 198.036 691.38 196.119C692.019 195.8 691.38 194.842 690.741 195.161C687.225 197.078 683.39 199.313 679.874 201.23C679.235 201.549 679.874 202.507 680.514 202.188Z" fill="black"/>
<path d="M564.815 131.919C563.856 135.433 562.898 139.265 561.939 142.779C561.619 143.418 562.898 143.737 562.898 143.098C563.856 139.585 564.815 135.752 565.774 132.238C566.094 131.6 565.135 131.28 564.815 131.919Z" fill="black"/>
<path d="M570.888 133.516C570.249 137.03 569.929 140.862 569.29 144.376C569.29 145.015 570.249 145.334 570.249 144.695C570.888 141.182 571.207 137.349 571.847 133.835C572.166 132.877 570.888 132.558 570.888 133.516Z" fill="black"/>
<path d="M600.931 191.009C604.766 193.884 607.643 197.716 609.88 201.869C610.2 202.507 611.158 201.869 610.839 201.23C608.602 197.078 605.405 193.245 601.57 190.051C601.251 190.051 600.292 190.69 600.931 191.009Z" fill="black"/>
<path d="M608.921 192.606C612.757 193.245 615.953 195.8 617.551 199.313C617.87 199.952 618.829 199.313 618.509 198.675C616.592 194.842 613.076 192.287 609.241 191.328C608.282 191.328 607.962 192.287 608.921 192.606Z" fill="black"/>
<path d="M421.95 391.914C427.246 391.914 431.538 387.624 431.538 382.332C431.538 377.04 427.246 372.75 421.95 372.75C416.655 372.75 412.362 377.04 412.362 382.332C412.362 387.624 416.655 391.914 421.95 391.914Z" fill="white"/>
<path d="M444.323 392.234C449.618 392.234 453.911 387.944 453.911 382.652C453.911 377.36 449.618 373.069 444.323 373.069C439.027 373.069 434.734 377.36 434.734 382.652C434.734 387.944 439.027 392.234 444.323 392.234Z" fill="white"/>
<path d="M465.737 386.484C471.032 386.484 475.325 382.194 475.325 376.902C475.325 371.61 471.032 367.32 465.737 367.32C460.441 367.32 456.148 371.61 456.148 376.902C456.148 382.194 460.441 386.484 465.737 386.484Z" fill="white"/>
<path d="M424.507 379.777C424.827 379.138 425.785 379.138 426.425 379.138C427.383 379.138 428.023 379.777 428.981 379.777C430.899 380.416 432.817 380.735 434.415 381.055C438.25 381.693 442.085 382.013 445.921 381.693C453.591 381.374 460.942 379.458 467.974 376.263C471.809 374.347 475.325 372.111 478.84 369.237C479.48 368.917 478.521 367.959 477.882 368.278C472.129 373.389 465.097 376.902 457.746 378.819C450.395 380.735 442.405 381.055 435.054 379.777C432.817 379.458 430.899 378.819 428.662 378.18C427.383 377.86 424.507 376.902 423.868 378.819C423.229 380.096 424.187 380.416 424.507 379.777Z" fill="white"/>
<path d="M332.507 778.369C378.522 777.837 415.676 764.579 415.493 748.758C415.31 732.936 377.859 720.542 331.844 721.074C285.829 721.606 248.674 734.864 248.858 750.686C249.041 766.507 286.492 778.902 332.507 778.369Z" fill="#D44C11"/>
<path d="M332.483 774.265C376.986 773.75 412.919 760.967 412.742 745.712C412.566 730.458 376.346 718.509 331.844 719.024C287.342 719.539 251.409 732.323 251.585 747.577C251.762 762.831 287.981 774.78 332.483 774.265Z" fill="#FF820F"/>
<path d="M409.202 744.45C409.348 758.984 375.073 771.254 332.521 771.728C324.354 771.864 316.55 771.504 309.081 770.759C277.932 767.687 255.329 757.976 255.191 746.155C255.198 745.214 255.315 744.301 255.542 743.417C259.32 718.225 272.244 699.16 272.244 699.16L331.593 703.483L366.524 700.104L390.819 697.757C390.819 697.757 404.25 716.538 408.612 741.705C408.965 742.621 409.069 743.59 409.202 744.45Z" fill="#D44C11"/>
<path d="M409.202 744.45C409.363 752.977 397.57 760.783 379.32 765.747C366.256 769.337 350.018 771.519 332.382 771.81C324.215 771.946 316.411 771.586 308.942 770.841C318.039 768.469 326.782 765.182 334.844 760.422C346.213 753.803 356.026 744.073 361.15 731.957C365.373 721.965 366.309 711.01 366.525 700.104L377.993 699.05L390.819 697.757C390.819 697.757 404.25 716.538 408.612 741.705C408.966 742.621 409.069 743.59 409.202 744.45Z" fill="#D44C11"/>
<path d="M409.202 744.45C409.363 752.977 397.57 760.783 379.32 765.747C385.066 743.891 384.706 720.58 378.132 698.968L390.958 697.675C390.958 697.675 404.389 716.456 408.751 741.623C408.966 742.621 409.069 743.59 409.202 744.45Z" fill="#D44C11"/>
<path d="M332.322 764.517C341.146 764.415 348.218 757.178 348.115 748.354C348.013 739.529 340.777 732.458 331.952 732.56C323.127 732.662 316.056 739.899 316.158 748.723C316.26 757.548 323.497 764.619 332.322 764.517Z" fill="white"/>
<path d="M332.107 748.167C327.872 748.137 322.772 752.834 323.523 756.328C324.384 759.849 339.389 759.707 340.132 756.362C340.876 753.018 336.813 748.2 332.107 748.167Z" fill="#D44C11"/>
<path d="M321.481 743.662C318.761 744.612 320.287 751.959 324.09 750.463C327.865 749.078 324.589 742.577 321.481 743.662Z" fill="#D44C11"/>
<path d="M328.99 746.539C333.535 745.824 331.378 737.725 327.721 738.198C324.313 738.616 324.417 747.365 328.99 746.539Z" fill="#D44C11"/>
<path d="M342.771 743.37C339.705 742.463 336.503 748.945 340.286 750.273C344.18 751.629 345.477 744.303 342.771 743.37Z" fill="#D44C11"/>
<path d="M335.55 746.696C340.224 747.311 339.981 738.644 336.633 738.371C332.954 738.013 330.986 746.11 335.55 746.696Z" fill="#D44C11"/>
<path d="M331.851 724.497C365.574 724.106 392.804 714.388 392.669 702.789C392.535 691.191 365.088 682.105 331.365 682.495C297.641 682.886 270.412 692.604 270.546 704.202C270.68 715.801 298.127 724.887 331.851 724.497Z" fill="#FF820F"/>
<path d="M389.648 702.759C389.628 705.583 387.865 708.311 384.387 710.833C375.26 717.44 355.184 722.17 331.873 722.531C308.48 722.753 288.357 718.513 279.045 712.108C275.657 709.703 273.628 707.059 273.648 704.236C273.528 693.715 299.363 684.929 331.394 684.575C363.454 684.109 389.529 692.239 389.648 702.759Z" fill="#912B14"/>
<path d="M384.387 710.833C375.26 717.44 355.185 722.17 331.873 722.531C308.48 722.753 288.357 718.513 279.045 712.108C288.172 705.501 308.248 700.771 331.559 700.41C354.981 700.078 375.215 704.346 384.387 710.833Z" fill="#912B14"/>
<path opacity="0.5" d="M282.684 739.399C287.533 730.771 287.143 721.349 281.813 718.353C276.483 715.357 268.231 719.922 263.382 728.549C258.532 737.176 258.922 746.599 264.253 749.595C269.583 752.591 277.835 748.026 282.684 739.399Z" fill="white"/>
<path opacity="0.5" d="M287.943 755.289C290.444 750.838 290.245 745.978 287.498 744.434C284.75 742.89 280.495 745.246 277.993 749.697C275.491 754.148 275.69 759.008 278.438 760.552C281.185 762.097 285.441 759.74 287.943 755.289Z" fill="white"/>
<path d="M392.431 719.852C393.431 720.351 394.631 720.751 395.751 720.59C397.151 720.389 398.29 719.368 398.75 718.088C399.209 716.808 398.768 715.228 397.847 714.289C399.207 714.308 400.407 713.207 400.646 711.887C400.885 710.567 399.964 709.127 398.624 708.748C398.964 708.628 399.184 708.168 399.064 707.828C398.943 707.488 398.543 707.188 398.203 707.309C398.943 706.988 399.643 706.388 400.122 705.747C400.522 705.047 400.741 704.087 400.281 703.367C399.921 702.848 399.44 702.488 398.84 702.288C397.02 701.549 394.96 701.63 393.2 702.311C391.441 702.993 389.901 704.213 388.542 705.694C387.623 706.755 386.784 707.875 386.084 708.976C385.785 709.376 385.365 709.936 385.365 710.436C385.445 710.996 385.666 711.536 385.806 712.016C386.467 714.135 387.748 716.095 389.329 717.654C390.31 718.513 391.27 719.233 392.431 719.852Z" fill="#912B14"/>
<path d="M387.226 711.455C387.146 711.895 386.766 712.735 386.987 713.275C387.307 714.015 388.048 714.695 388.548 715.194C389.288 715.874 390.009 716.413 390.929 716.853C391.309 717.013 391.689 717.172 391.949 716.992C392.149 716.892 392.249 716.592 392.289 716.372C392.328 716.152 392.228 715.952 392.188 715.672C391.848 714.792 391.287 713.873 390.487 713.273C391.407 713.713 392.547 714.192 393.587 713.971C394.347 713.791 394.927 713.35 395.486 712.77C396.046 712.19 396.366 711.43 396.465 710.63C396.565 709.829 396.304 709.01 395.724 708.45C395.224 707.95 394.484 707.771 393.764 707.731C392.963 707.632 392.124 707.752 391.304 708.013C391.644 707.892 392.044 707.692 392.303 707.512C392.563 707.332 392.883 707.072 392.903 706.712C392.943 706.492 392.763 706.232 392.523 706.052C392.282 705.872 392.062 705.832 391.782 705.872C391.002 705.913 390.223 706.453 389.663 707.034C388.564 708.334 387.705 709.815 387.226 711.455Z" fill="#EDD2C6"/>
<path d="M389.593 710.413C390.362 707.418 389.555 704.622 387.79 704.168C386.025 703.715 383.97 705.775 383.2 708.771C382.431 711.766 383.238 714.562 385.003 715.016C386.768 715.47 388.823 713.409 389.593 710.413Z" fill="#D44C11"/>
<path d="M296.997 663.108C295.977 662.469 295.016 661.749 294.576 660.669C294.035 659.39 294.234 657.79 295.094 656.809C296.013 655.749 297.513 655.248 298.853 655.627C298.112 654.447 298.451 652.827 299.391 651.907C300.41 651.046 302.05 651.025 303.111 651.944C302.99 651.605 303.29 651.204 303.63 651.084C303.97 650.964 304.43 651.184 304.55 651.524C304.43 650.684 304.529 649.884 304.849 649.123C305.169 648.363 305.948 647.823 306.788 647.702C307.428 647.682 307.968 647.962 308.449 648.321C310.029 649.38 311.01 651.24 311.351 653.12C311.692 654.999 311.474 656.96 310.955 658.82C310.576 660.16 310.036 661.38 309.437 662.681C309.217 663.141 309.038 663.881 308.498 664.101C308.038 664.382 307.478 664.462 306.918 664.542C304.778 665.063 302.418 665.045 300.198 664.506C299.158 664.227 298.018 663.747 296.997 663.108Z" fill="#912B14"/>
<path d="M299.637 662.087C299.117 661.947 298.597 661.807 298.176 661.367C297.776 661.068 297.536 660.388 297.755 659.928C297.915 659.548 298.295 659.207 298.715 659.147C299.135 659.087 299.635 659.087 299.995 659.106C301.375 659.265 302.775 659.565 304.095 659.804C303.675 659.864 303.135 659.584 302.995 659.105C302.855 658.625 303.134 658.084 303.554 658.024C304.034 657.884 304.574 658.164 304.635 658.584C304.594 657.304 304.853 656.123 305.472 654.963C305.752 654.423 306.232 653.783 306.812 653.842C307.392 653.902 307.812 654.342 308.112 654.942C308.813 656.341 309.034 657.881 308.755 659.421C308.456 660.821 307.657 663.222 305.857 663.123C303.857 663.124 301.657 662.725 299.637 662.087Z" fill="#EDD2C6"/>
<path d="M312.756 658.629C311.432 657.376 308.636 658.181 306.51 660.428C304.384 662.674 303.733 665.511 305.057 666.763C306.381 668.016 309.177 667.211 311.303 664.964C313.429 662.718 314.079 659.881 312.756 658.629Z" fill="#D44C11"/>
<path d="M308.477 662.461C316.052 654.017 326.075 659.651 332.919 665.527C345.885 676.739 361.15 685.05 377.433 690.501C385.155 693.036 389.759 699.733 388.164 708.034C387.366 711.935 384.448 715.497 380.809 717.519C377.63 719.261 374.011 719.923 370.71 718.825C347.686 711.198 326.839 699.331 308.789 683.061C305.347 679.983 304.065 675.524 304.662 671.224C304.92 668.043 306.318 664.843 308.477 662.461Z" fill="#912B14"/>
<path d="M308.477 662.461C316.052 654.017 326.075 659.651 332.919 665.527C345.885 676.739 361.15 685.05 377.433 690.501C385.155 693.036 389.759 699.733 388.164 708.034C387.366 711.935 384.448 715.497 380.809 717.519C382.128 715.258 382.566 712.338 381.845 709.798C380.562 705.339 376.72 701.961 372.579 699.984C368.358 697.946 363.737 697.109 359.337 695.811C350.755 693.256 342.632 688.921 335.669 683.205C331.867 680.108 328.285 676.55 324.244 673.772C320.202 670.994 315.341 668.977 310.461 669.32C308.481 669.461 306.361 670.123 304.582 671.164C304.92 668.043 306.318 664.843 308.477 662.461Z" fill="#EDD2C6"/>
<path d="M289.913 700.29L245.692 749.647C241.714 747.496 236.95 746.28 233.212 746.406C225.358 746.821 219.296 753.454 219.648 761.335C220 769.215 226.633 775.277 234.513 774.925C236.199 774.867 238.027 774.45 239.864 773.88C239.42 775.782 239.192 777.666 239.313 779.324C239.665 787.205 246.298 793.267 254.178 792.915C262.059 792.563 268.121 785.93 267.769 778.049C267.58 774.338 265.972 769.751 263.434 765.938L307.627 716.518C311.605 718.669 316.369 719.885 320.108 719.759C327.988 719.407 334.05 712.774 333.698 704.893C333.346 697.013 326.714 690.951 318.833 691.303C317.147 691.361 315.319 691.778 313.483 692.348C313.926 690.445 314.154 688.562 314.034 686.903C313.682 679.023 307.049 672.961 299.168 673.313C291.288 673.665 285.226 680.298 285.578 688.178C285.739 691.827 287.374 696.477 289.913 700.29Z" fill="#F4E4CC"/>
<path d="M226.12 767.541C231.331 771.688 239.415 770.429 246.38 762.44L257.493 750.28C258.441 749.202 258.383 747.516 257.305 746.569C256.226 745.621 254.541 745.679 253.593 746.757L245.117 756.068C243.552 757.785 241.006 757.917 239.093 756.586C238.033 755.854 236.91 755.148 235.806 754.658C232.7 753.321 228.899 753.474 226.16 755.4C221.989 758.316 222.166 764.413 226.12 767.541Z" fill="#FFFAEA"/>
<path d="M309.605 715.069C304.319 713.335 305.358 705.746 307.605 704.405C309.852 703.063 313.601 703.304 316.456 704.749C319.311 706.195 321.155 708.745 321.511 711.12C321.639 712.106 321.588 713.021 321.536 713.936C321.494 714.698 321.388 715.487 321.372 716.312C321.347 716.77 321.285 717.317 320.694 717.498C320.192 717.714 315.519 717.054 309.605 715.069Z" fill="#FFFAEA"/>
<path d="M300.942 683.109C305.536 687.894 304.983 696.09 297.704 703.695L286.59 715.855C285.643 716.933 283.957 716.992 282.879 716.044C281.8 715.096 281.742 713.411 282.69 712.332L291.166 703.021C292.731 701.305 292.661 698.731 291.141 696.933C290.341 695.94 289.54 694.947 288.901 693.81C287.261 690.873 287.081 687.009 288.804 684.108C291.339 679.816 297.445 679.486 300.942 683.109Z" fill="#FFFAEA"/>
<path d="M831.03 133.082C832.302 132.923 849.03 143.852 859.376 150.659L844.313 175.659L833.268 162.875C833.384 163.01 829.256 133.205 831.03 133.082Z" fill="#FEB8AC"/>
<path d="M800.585 180.536C798.436 173.697 807.976 122.448 819.446 115.594C830.799 108.606 866.562 138.576 866.562 138.576L859.376 150.659C849.03 143.852 832.302 132.923 831.03 133.083C829.256 133.205 833.384 163.01 833.384 163.01C833.384 163.01 834.027 199.116 832.168 202.132C830.443 205.032 802.599 187.492 800.585 180.536Z" fill="#352328"/>
<path d="M868.045 54.3356C865.843 53.4184 845.479 64.6664 845.479 64.6664C845.479 64.6664 835.973 70.5288 834.156 69.5136C832.455 68.633 835.119 49.4109 842.502 43.2674C865.142 37.1028 924.101 55.0227 974.038 148.185L960.738 145.575C914.108 69.297 868.045 54.3356 868.045 54.3356Z" fill="#352328"/>
<path d="M845.479 64.6664C845.479 64.6664 865.843 53.4184 868.045 54.3356C868.045 54.3356 914.224 69.4316 960.873 145.459L881.224 129.433L845.479 64.6664Z" fill="#FEB8AC"/>
<path d="M812.173 287.795C800.38 266.257 841.787 215.442 841.787 215.442C824.104 132.955 886.89 103.622 946.615 124.876C1006.34 146.13 1213.54 371.808 1213.54 371.808L1110.86 460.514L1068.88 496.787L923.59 269.323C854.184 327.172 823.849 309.198 812.173 287.795Z" fill="#593A42"/>
<path d="M1149.75 426.915L1068.88 496.787L923.59 269.323C923.59 269.323 934.998 261.583 948.044 248.666C947.928 248.531 1097.84 381.519 1149.75 426.915Z" fill="#352328"/>
<path d="M917.599 192.481C927.706 183.749 927.051 166.428 916.136 153.793C905.22 141.159 888.178 137.996 878.071 146.728C867.963 155.461 868.618 172.782 879.534 185.416C890.449 198.05 907.492 201.213 917.599 192.481Z" fill="#352328"/>
<path d="M901.44 178.946C904.115 176.634 903.525 171.567 900.122 167.628C896.719 163.689 891.792 162.37 889.116 164.682C886.441 166.993 887.031 172.06 890.434 175.999C893.837 179.938 898.764 181.257 901.44 178.946Z" fill="#191113"/>
<path d="M869.192 204.456C871.868 202.144 871.278 197.078 867.875 193.139C864.472 189.2 859.544 187.88 856.869 190.192C854.193 192.503 854.783 197.57 858.186 201.509C861.589 205.448 866.517 206.767 869.192 204.456Z" fill="#191113"/>
<path d="M838.65 286.071C848.757 277.338 851.329 263.753 844.395 255.726C837.46 247.7 823.645 248.272 813.538 257.004C803.43 265.737 800.858 279.323 807.793 287.349C814.727 295.375 828.542 294.803 838.65 286.071Z" fill="#191113"/>
<path d="M821.013 254.776C825.729 252.347 831.247 252.749 835.867 255.104C839.018 256.847 835.892 261.662 832.625 259.784C829.841 258.194 826.293 258.44 823.424 259.743C820.268 261.53 817.74 256.429 821.013 254.776Z" fill="#593A42"/>
<path d="M837.097 258.976C837.941 257.777 839.868 257.287 841.067 258.131C841.667 258.553 842.266 258.975 842.982 259.532C844.298 260.51 844.69 262.052 843.827 263.502C842.983 264.701 841.056 265.191 839.857 264.347C839.257 263.925 838.658 263.503 837.942 262.946C836.626 261.968 836.118 260.292 837.097 258.976Z" fill="#593A42"/>
<path d="M907.098 239.625C907.098 239.625 940.798 230.486 947.219 249.614C953.64 268.743 898.905 265.504 898.905 265.504C898.905 265.504 905.853 256.682 907.098 239.625Z" fill="#FEB8AC"/>
<path d="M931.21 254.75C922.584 253.742 913.463 254.337 905.002 256.241C903.21 256.615 902.659 253.801 904.451 253.427C913.046 251.407 922.534 250.965 931.411 251.991C933.302 252.003 933.082 255.013 931.21 254.75Z" fill="#FC8686"/>
<path d="M904.776 223.065C909.837 234.908 909.228 246.715 904.336 258.462C897.628 274.363 884.911 282.765 869.661 289.595C867.966 290.354 866.761 287.87 868.455 287.111C882.127 281.175 892.978 274.15 900.256 260.812C906.384 249.408 907.452 236.499 902.274 224.522C901.533 222.577 904.017 221.371 904.776 223.065Z" fill="#352328"/>
</svg>
