<svg width="545" height="874" viewBox="0 0 545 874" fill="none" xmlns="http://www.w3.org/2000/svg">
<rect x="54" y="12" width="362" height="470" fill="#90DDEE"/>
<path d="M333.176 192.103C367.383 192.103 395.113 164.389 395.113 130.203C395.113 96.0166 367.383 68.3032 333.176 68.3032C298.97 68.3032 271.24 96.0166 271.24 130.203C271.24 164.389 298.97 192.103 333.176 192.103Z" fill="#E7B54F"/>
<path opacity="0.44" d="M225.677 43.401V88.9364L59.089 246.176V202.775L225.677 43.401Z" fill="#ABC5D3"/>
<path opacity="0.44" d="M195.065 17.7873L59.089 152.259V183.565L225.677 17.7873H195.065Z" fill="#ABC5D3"/>
<path opacity="0.44" d="M413.623 41.2665V86.802L244.899 246.176V202.775L413.623 41.2665Z" fill="#ABC5D3"/>
<path opacity="0.44" d="M380.163 17.7873L244.899 152.259V183.565L411.487 17.7873H380.163Z" fill="#ABC5D3"/>
<path d="M418.606 482.391H54.1056V12.0954H418.606V482.391ZM59.089 476.699H413.623V17.7873H59.089V476.699Z" fill="#FFE6DA"/>
<path d="M0 496.621H472L421.454 482.391H50.546L0 496.621Z" fill="#E59A51"/>
<path d="M472 496.621H0V514.408H472V496.621Z" fill="#605B55"/>
<path d="M244.899 16.3643H226.389V476.699H244.899V16.3643Z" fill="#EBE9DC"/>
<path d="M0 496.621V0L56.2413 12.0954L54.1056 482.391L0 496.621Z" fill="#EBE9DC"/>
<path d="M472 496.621V0L415.759 12.0954L418.606 482.391L472 496.621Z" fill="#EBE9DC"/>
<path d="M0 0H472L415.759 14.9413L56.2413 12.0954L0 0Z" fill="#605B55"/>
<path d="M232.084 787.621L229.237 833.157C229.237 837.425 225.677 840.983 220.694 840.271C217.134 840.271 214.287 837.425 213.575 834.58L201.472 790.467C199.336 782.641 204.32 774.103 212.151 771.257C219.982 768.411 228.525 774.103 231.373 781.929C232.084 784.064 232.084 785.487 232.084 787.621Z" fill="#605B55"/>
<path d="M425.725 790.467L413.623 834.58C412.199 838.848 407.928 840.983 404.368 840.271C400.808 839.56 398.673 836.714 398.673 833.156L395.825 787.621C395.113 779.083 401.52 771.968 410.063 771.257C418.606 770.545 425.725 776.949 426.437 785.487C425.725 787.621 425.725 789.044 425.725 790.467Z" fill="#605B55"/>
<path d="M438.54 738.528L437.116 753.469L432.845 794.736C432.845 796.87 430.709 798.293 428.573 798.293H197.912C195.777 798.293 194.353 796.87 194.353 794.736L187.946 753.469L185.098 737.817L438.54 738.528Z" fill="#ABC5D3"/>
<path d="M438.54 738.528L437.116 753.47C417.182 757.738 382.299 763.43 321.074 763.43C240.627 763.43 202.896 757.738 187.234 754.181L184.386 738.528H438.54Z" fill="#ABC5D3"/>
<path d="M163.029 692.281C163.029 692.281 155.909 725.721 170.148 734.971C184.386 744.22 395.113 749.912 460.609 734.971C460.609 734.971 478.407 722.164 467.728 692.281C452.066 649.592 163.029 692.281 163.029 692.281Z" fill="#132541"/>
<path d="M163.029 692.281C163.029 692.281 180.115 662.399 204.32 651.015C229.237 639.631 436.404 633.939 447.795 651.015C459.186 668.091 464.881 680.186 467.728 692.281C466.305 700.108 197.201 712.915 163.029 692.281Z" fill="#ABC5D3"/>
<path d="M417.182 659.553C407.216 687.301 383.011 693.704 358.094 693.704C338.16 693.704 351.686 773.391 345.279 816.792C343.855 826.753 341.008 835.291 336.736 839.56C312.531 863.039 276.935 848.809 274.087 867.308C271.24 885.807 259.849 855.924 271.24 839.56C281.919 823.196 299.716 832.445 300.428 800.428V799.005C300.428 771.257 305.412 729.99 311.819 709.357C313.243 705.088 314.667 702.242 316.09 699.396C324.633 685.166 227.813 688.012 239.204 652.438C239.204 631.093 236.356 604.056 237.068 583.423C237.068 570.616 239.204 560.655 244.187 557.809C257.002 549.983 257.002 548.56 255.578 537.888C254.154 528.638 242.763 486.66 247.747 453.932C248.459 449.663 249.17 444.682 250.594 441.125C255.578 425.472 259.849 411.242 262.697 399.147C266.968 381.359 268.392 368.553 267.68 364.284C264.121 363.572 261.985 352.9 261.985 344.362C261.985 341.516 261.985 337.958 261.985 335.112C261.985 332.978 261.985 330.844 261.273 328.709C261.273 325.863 260.561 322.306 260.561 319.46C253.442 310.922 253.442 268.232 264.121 263.963C271.24 279.616 278.359 291 289.75 295.269C295.445 295.98 301.14 295.269 306.124 294.557C307.548 294.557 309.683 294.557 311.107 293.846C314.667 293.846 317.514 292.423 320.362 290.289C326.769 284.597 333.888 271.79 336.736 259.694C338.872 258.271 340.296 258.271 342.431 260.406C348.839 268.232 353.822 299.538 347.415 315.902C347.415 315.902 347.415 315.902 347.415 316.614C348.127 318.037 348.839 321.594 348.839 326.575C350.262 336.535 350.974 352.188 346.703 362.861C339.584 377.09 352.398 405.55 362.365 430.452C364.501 436.144 366.636 441.836 368.772 446.817C369.484 448.951 370.196 451.797 370.908 453.932C370.908 453.932 370.908 453.932 370.908 454.643C378.739 480.968 383.011 511.562 383.011 542.156C383.011 545.002 383.011 545.714 383.011 546.425C383.722 547.137 385.858 542.156 392.977 542.156C397.249 542.156 403.656 557.809 409.351 578.443C417.182 606.191 422.878 643.188 417.182 659.553Z" fill="#E59A51"/>
<path d="M361.653 429.029C358.805 421.914 320.362 373.533 315.379 362.861C310.395 352.188 290.462 361.438 285.478 371.399C282.63 377.09 271.24 389.186 261.985 397.724C264.833 386.34 266.256 377.09 266.968 370.687C266.968 367.13 266.968 364.284 266.968 362.861C264.121 362.149 262.697 356.457 261.985 350.054C261.985 347.919 261.273 345.073 261.273 342.939C261.273 340.804 261.273 338.67 261.273 336.535C261.273 334.401 261.273 333.69 261.273 333.69C281.207 323.017 289.038 293.134 289.038 293.134C294.733 293.846 300.428 293.134 305.412 292.423C308.971 308.076 321.074 313.056 333.176 317.325C338.872 319.46 343.855 321.594 348.127 324.44C349.551 334.401 350.262 349.342 345.991 360.726C343.143 367.13 343.855 376.379 345.991 386.34C349.551 399.858 355.958 415.511 361.653 429.029Z" fill="#EBE9DC"/>
<path d="M345.279 816.081C343.855 826.042 341.008 834.58 336.736 838.848C312.531 862.328 276.935 848.098 274.087 866.597C271.24 885.095 259.849 855.213 271.24 838.848C281.919 822.484 299.716 831.734 300.428 799.716C312.531 795.448 323.21 789.756 323.922 782.641C325.345 765.565 338.872 786.198 338.16 796.159C336.024 806.12 337.448 816.081 345.279 816.081Z" fill="#EBE9DC"/>
<path opacity="0.49" d="M319.65 688.724C317.514 692.993 313.955 700.107 311.107 708.645C312.531 704.376 313.955 701.53 315.379 698.685C323.922 684.455 227.101 687.301 238.492 651.726C238.492 630.381 235.644 603.345 236.356 582.711C236.356 582.711 242.763 641.054 254.154 655.995C264.833 670.936 303.988 664.533 306.836 671.648C308.259 678.051 324.633 678.763 319.65 688.724Z" fill="#E59A51"/>
<path opacity="0.49" d="M417.182 659.553C407.216 687.301 383.011 693.704 358.093 693.704C361.653 672.359 370.908 676.628 378.739 661.687C386.57 646.746 389.418 641.765 398.673 631.093C407.928 620.421 408.639 578.443 408.639 578.443C417.182 606.191 422.878 643.188 417.182 659.553Z" fill="#E59A51"/>
<path opacity="0.49" d="M242.051 557.098C242.763 557.098 242.763 557.098 242.051 557.098C254.866 549.271 254.866 547.848 253.442 537.176C252.018 527.927 240.627 485.949 245.611 453.22C245.611 455.355 248.459 500.89 259.849 524.369C269.104 542.156 252.73 552.829 242.051 557.098Z" fill="#E59A51"/>
<path opacity="0.49" d="M382.299 545.714C382.299 545.714 362.365 537.176 370.196 518.677C378.027 498.755 371.62 460.335 370.196 453.932C378.027 480.257 382.299 510.851 382.299 541.445C382.299 544.291 382.299 545.714 382.299 545.714Z" fill="#E59A51"/>
<path opacity="0.49" d="M345.991 314.479C345.991 314.479 345.991 314.479 345.991 315.191C339.584 311.633 328.905 303.807 333.888 295.98C341.008 285.308 340.296 258.271 340.296 258.271C347.415 266.809 352.398 297.403 345.991 314.479Z" fill="#E59A51"/>
<path opacity="0.49" d="M262.697 326.575C261.985 326.575 261.273 327.286 259.849 327.286C259.849 324.44 259.137 320.883 259.137 318.037C252.018 309.499 252.018 266.809 262.697 262.54C262.697 262.54 254.866 278.905 260.561 293.134C266.256 306.653 274.799 321.594 262.697 326.575Z" fill="#E59A51"/>
<path d="M266.256 370.687C266.256 367.13 266.256 364.284 266.256 362.861C263.409 362.149 261.985 356.457 261.273 350.054C261.273 344.362 261.273 340.093 260.561 337.247C260.561 335.112 260.561 334.401 260.561 334.401C260.561 334.401 261.273 340.804 269.104 345.785C274.799 348.631 269.816 362.149 266.256 370.687Z" fill="#EBE9DC"/>
<path d="M345.991 387.051C345.279 384.205 336.736 359.303 341.008 345.073C345.279 330.132 333.176 318.037 333.176 318.037L348.127 325.152C349.551 335.112 350.262 350.054 345.991 361.438C343.143 367.841 343.855 376.379 345.991 387.051Z" fill="#EBE9DC"/>
<path d="M69.7677 410.531L80.4464 484.526C80.4464 490.929 99.6681 496.621 123.873 496.621C148.078 496.621 167.3 490.929 167.3 484.526L177.979 410.531H69.7677Z" fill="#D86F70"/>
<path d="M177.267 410.531C177.267 411.954 175.843 412.665 172.995 414.088C172.995 414.088 172.284 414.088 172.284 414.8C166.588 416.934 155.909 418.357 143.807 419.068C142.383 419.068 141.671 419.068 140.247 419.068C137.4 419.068 135.264 419.068 132.416 419.068C130.992 419.068 129.569 419.068 128.145 419.068C126.721 419.068 125.297 419.068 123.873 419.068C121.026 419.068 118.178 419.068 116.042 419.068C113.195 419.068 111.059 419.068 108.211 419.068C106.787 419.068 106.075 419.068 104.652 419.068C91.8371 418.357 81.8703 416.934 76.1749 414.8C75.463 414.8 75.463 414.8 75.463 414.088C72.6154 413.377 71.1915 411.954 71.1915 410.531C71.1915 405.55 95.3967 401.993 125.297 401.993C153.774 401.993 177.267 406.262 177.267 410.531Z" fill="#5B124B"/>
<path d="M172.284 414.8C166.588 416.934 155.91 418.357 143.807 419.068C142.383 419.068 141.671 419.068 140.247 419.068C137.4 419.068 135.264 419.068 132.416 419.068C130.992 419.068 129.569 419.068 128.145 419.068H123.873C121.026 419.068 118.178 419.068 116.042 419.068C113.195 419.068 111.059 419.068 108.211 419.068C106.787 419.068 106.075 419.068 104.652 419.068C91.8371 418.357 81.8703 416.934 76.175 414.8C84.7179 411.954 103.228 410.531 124.585 410.531C145.231 410.531 163.741 411.954 172.284 414.8Z" fill="#605B55"/>
<path d="M138.824 410.531C138.824 410.531 180.827 374.245 177.267 332.978C173.707 291.712 194.353 266.098 194.353 266.098C194.353 266.098 155.909 282.462 156.621 313.056C157.333 343.65 149.502 385.628 142.383 389.897C135.264 394.166 138.824 410.531 138.824 410.531Z" fill="#2A4433"/>
<path d="M115.33 417.646C115.33 417.646 83.2941 384.205 83.2941 367.13C83.2941 350.054 86.8537 347.208 74.0392 323.729C61.2247 300.249 53.3937 296.692 59.089 281.751C64.7843 266.809 59.8009 238.35 66.2081 258.983C72.6154 279.616 71.9035 293.135 75.463 300.249C79.0226 306.653 90.4133 315.191 92.549 327.286C94.6848 339.381 85.4299 359.303 92.549 368.553C99.6682 377.091 115.33 417.646 115.33 417.646Z" fill="#203025"/>
<path d="M140.247 263.963C140.247 263.963 103.228 304.518 111.771 345.073C121.026 385.628 103.228 413.377 103.228 413.377C103.228 413.377 138.824 393.455 134.552 362.861C130.281 332.267 132.416 290.289 139.535 285.308C145.943 280.328 140.247 263.963 140.247 263.963Z" fill="#203025"/>
<path d="M115.33 410.531C115.33 410.531 90.4132 388.474 90.4132 347.208C90.4132 305.941 86.1418 245.465 69.7677 231.235C98.9562 248.311 103.228 273.924 103.228 283.885C103.228 293.846 101.092 318.748 103.228 338.67C104.652 358.592 115.33 410.531 115.33 410.531Z" fill="#33513C"/>
<path d="M127.433 410.531C127.433 410.531 114.618 392.743 123.161 365.707C131.704 338.67 121.738 285.308 123.873 272.501C125.297 258.983 138.112 232.658 142.383 224.12C146.655 215.582 149.502 199.218 146.655 185.699C137.4 197.083 133.128 211.313 130.281 218.428C127.433 224.831 101.804 254.714 101.804 272.501C101.804 291 114.618 317.325 108.211 330.132C102.516 342.227 101.804 382.782 127.433 410.531Z" fill="#2A4433"/>
<path d="M135.976 254.002C135.976 254.002 153.774 294.557 147.366 309.499C140.959 324.44 136.688 325.152 140.247 350.765C143.807 376.379 149.502 382.071 139.535 392.743C129.569 403.416 123.161 430.452 124.585 409.819C126.009 389.897 131.704 377.802 130.992 370.687C130.281 363.572 122.449 352.188 125.297 340.804C128.145 329.421 143.807 315.902 139.535 305.23C135.976 295.269 135.976 254.002 135.976 254.002Z" fill="#33513C"/>
<path d="M107.499 415.511C111.824 415.511 115.33 413.918 115.33 411.954C115.33 409.989 111.824 408.396 107.499 408.396C103.174 408.396 99.6682 409.989 99.6682 411.954C99.6682 413.918 103.174 415.511 107.499 415.511Z" fill="#605B55"/>
<path d="M110.347 409.819C111.771 406.262 115.33 403.416 117.466 404.839C119.602 405.55 120.314 409.819 118.178 413.377C116.754 416.934 117.466 418.357 115.33 417.646C113.195 416.934 108.923 414.088 110.347 409.819Z" fill="#605B55"/>
<path d="M125.297 419.78C129.622 419.78 133.128 417.232 133.128 414.088C133.128 410.944 129.622 408.396 125.297 408.396C120.972 408.396 117.466 410.944 117.466 414.088C117.466 417.232 120.972 419.78 125.297 419.78Z" fill="#605B55"/>
<path d="M145.231 414.8C146.803 414.8 148.078 411.933 148.078 408.396C148.078 404.86 146.803 401.993 145.231 401.993C143.658 401.993 142.383 404.86 142.383 408.396C142.383 411.933 143.658 414.8 145.231 414.8Z" fill="#605B55"/>
<path d="M135.976 416.222C140.694 416.222 144.519 413.356 144.519 409.819C144.519 406.283 140.694 403.416 135.976 403.416C131.258 403.416 127.433 406.283 127.433 409.819C127.433 413.356 131.258 416.222 135.976 416.222Z" fill="#605B55"/>
<path opacity="0.37" d="M136.688 485.949C112.483 485.949 100.38 464.604 100.38 458.201L85.4298 417.645C80.4464 417.645 71.9034 416.222 70.4796 412.665L80.4464 483.814C80.4464 490.929 99.6681 496.621 123.873 496.621C148.078 496.621 167.3 490.929 167.3 483.814V481.68C159.469 484.526 148.79 485.949 136.688 485.949Z" fill="#D86F70"/>
<path opacity="0.63" d="M160.181 419.78L156.621 445.394C155.198 454.643 158.045 464.604 163.741 472.43L168.012 478.834L177.267 414.088C176.555 416.934 167.3 419.068 160.181 419.78Z" fill="#D86F70"/>
<path d="M344.066 218.535C344.066 208.163 348.596 198.913 355.792 192.55C353.979 189.021 352.967 185.065 352.967 180.841C352.967 166.672 364.373 155.23 378.497 155.23C381.801 155.23 384.946 155.872 387.877 157.048C399.23 139.618 418.843 128.069 441.122 128.069C460.842 128.069 478.484 137.105 490.156 151.274C490.742 151.274 491.275 151.22 491.862 151.22C520.589 151.22 543.881 174.585 543.881 203.404C543.881 220.781 535.406 236.126 522.402 245.643C523.734 248.69 524.427 252.059 524.427 255.641C524.427 269.596 513.128 280.931 499.217 280.931C497.511 280.931 495.859 280.771 494.207 280.45C486.052 291.036 473.261 297.826 458.923 297.826C448.85 297.826 439.523 294.458 432.061 288.791C423.96 295.634 413.513 299.751 402.108 299.751C376.418 299.751 355.578 278.846 355.578 253.075C355.578 250.294 355.845 247.568 356.325 244.948C348.809 238.585 344.066 229.122 344.066 218.535Z" fill="#EAF6FE"/>
<path d="M402.108 300.821C375.832 300.821 354.512 279.38 354.512 253.075C354.512 250.508 354.726 247.942 355.152 245.322C347.424 238.585 343 228.854 343 218.535C343 208.59 347.157 199.073 354.512 192.336C352.807 188.754 351.954 184.905 351.954 180.895C351.954 166.191 363.893 154.215 378.55 154.215C381.641 154.215 384.626 154.749 387.504 155.765C399.496 137.747 419.536 127 441.122 127C460.309 127 478.324 135.448 490.636 150.205C491.062 150.205 491.435 150.205 491.862 150.205C521.122 150.205 544.947 174.104 544.947 203.458C544.947 220.139 537.005 236.019 523.734 246.071C524.907 249.118 525.546 252.38 525.546 255.695C525.546 270.238 513.767 282.054 499.27 282.054C497.725 282.054 496.232 281.947 494.74 281.679C485.999 292.694 472.994 298.949 458.977 298.949C449.223 298.949 439.949 295.902 432.115 290.181C423.64 297.024 413.034 300.821 402.108 300.821ZM378.497 156.3C365.012 156.3 354.033 167.314 354.033 180.841C354.033 184.798 354.939 188.54 356.751 192.069L357.124 192.818L356.484 193.352C349.289 199.715 345.132 208.911 345.132 218.535C345.132 228.427 349.449 237.73 357.017 244.146L357.497 244.52L357.391 245.108C356.911 247.781 356.698 250.455 356.698 253.075C356.698 278.204 377.111 298.682 402.161 298.682C412.874 298.682 423.267 294.886 431.422 287.989L432.061 287.454L432.754 287.989C440.376 293.763 449.436 296.811 458.977 296.811C472.568 296.811 485.093 290.608 493.407 279.808L493.834 279.273L494.473 279.38C496.019 279.701 497.671 279.862 499.27 279.862C512.595 279.862 523.414 269.008 523.414 255.641C523.414 252.326 522.775 249.118 521.442 246.071L521.122 245.269L521.815 244.787C534.98 235.163 542.815 219.711 542.815 203.404C542.815 175.227 519.95 152.29 491.862 152.29C491.435 152.29 491.009 152.29 490.583 152.343L489.677 152.397L489.357 151.969C477.418 137.426 459.83 129.139 441.122 129.139C419.963 129.139 400.349 139.779 388.783 157.636L388.303 158.332L387.504 158.011C384.626 156.888 381.588 156.3 378.497 156.3Z" fill="#CFD0D0"/>
<path d="M446.345 313.011C446.825 308.573 450.396 305.044 454.82 304.563C459.83 304.029 464.2 307.397 465.213 312.049C467.345 313.278 468.677 315.738 468.251 318.465C467.878 320.924 465.959 323.009 463.507 323.544C462.175 323.865 460.896 323.704 459.776 323.277C459.776 323.33 459.776 323.384 459.776 323.437C459.776 327.073 456.632 330.013 452.901 329.586C450.076 329.265 447.784 327.019 447.411 324.186C447.251 322.688 447.571 321.245 448.317 320.122C446.878 318.197 446.079 315.684 446.345 313.011Z" fill="#EAF6FE"/>
<path d="M453.647 330.655C453.38 330.655 453.114 330.655 452.847 330.602C449.543 330.227 446.825 327.607 446.452 324.292C446.292 322.849 446.505 321.459 447.145 320.176C445.652 318.037 445.013 315.47 445.279 312.851C445.812 307.932 449.81 303.975 454.713 303.44C455.086 303.387 455.459 303.387 455.885 303.387C460.682 303.387 464.946 306.702 466.172 311.3C468.517 312.904 469.796 315.684 469.37 318.518C468.944 321.405 466.705 323.811 463.827 324.506C462.814 324.72 461.802 324.774 460.842 324.56C460.256 328.035 457.271 330.655 453.647 330.655ZM455.885 305.579C455.566 305.579 455.246 305.579 454.979 305.633C451.035 306.06 447.891 309.215 447.464 313.118C447.198 315.417 447.837 317.663 449.277 319.427L449.756 320.015L449.33 320.657C448.69 321.673 448.424 322.849 448.584 324.025C448.85 326.378 450.769 328.249 453.114 328.463C456.152 328.784 458.817 326.378 458.817 323.384C458.817 323.33 458.817 323.277 458.817 323.223L458.764 321.619L460.256 322.207C461.215 322.582 462.281 322.688 463.347 322.421C465.373 321.94 466.918 320.229 467.238 318.197C467.558 316.059 466.545 313.973 464.68 312.904L464.253 312.69L464.147 312.209C463.294 308.359 459.83 305.579 455.885 305.579Z" fill="#CFD0D0"/>
<path d="M429.716 334.451C429.716 334.291 429.663 334.184 429.663 334.023C429.663 332.526 430.889 331.297 432.381 331.297C432.861 331.297 433.287 331.404 433.66 331.617C434.673 330.922 435.845 330.495 437.178 330.495C439.63 330.495 441.761 331.938 442.668 334.077C442.827 334.023 443.041 334.023 443.201 334.023C444.586 334.023 445.759 335.146 445.759 336.59C445.759 337.98 444.693 339.049 443.36 339.156C443.574 339.637 443.734 340.226 443.734 340.814C443.734 343.113 441.868 344.984 439.576 344.984C437.924 344.984 436.485 343.968 435.792 342.525C433.927 342.097 432.434 340.814 431.688 339.103C431.528 339.156 431.315 339.156 431.155 339.156C429.769 339.156 428.597 338.033 428.597 336.59C428.544 335.681 429.023 334.932 429.716 334.451Z" fill="#EAF6FE"/>
<path d="M439.523 346C437.658 346 435.952 344.984 435.046 343.38C433.394 342.845 431.955 341.723 431.049 340.172C429.077 340.119 427.531 338.515 427.531 336.536C427.531 335.521 427.957 334.612 428.65 333.917C428.703 331.885 430.356 330.174 432.434 330.174C432.807 330.174 433.234 330.227 433.607 330.388C434.726 329.746 435.952 329.372 437.231 329.372C439.736 329.372 442.081 330.708 443.36 332.901C445.332 332.954 446.878 334.558 446.878 336.536C446.878 337.98 446.025 339.263 444.746 339.851C444.799 340.119 444.799 340.439 444.799 340.76C444.746 343.647 442.401 346 439.523 346ZM432.221 337.873L432.594 338.675C433.234 340.065 434.513 341.135 436.005 341.455L436.538 341.562L436.751 342.043C437.231 343.166 438.35 343.861 439.523 343.861C441.229 343.861 442.614 342.471 442.614 340.76C442.614 340.333 442.508 339.905 442.348 339.531L441.708 338.14L443.254 338.087C444.053 338.033 444.64 337.392 444.64 336.59C444.64 335.788 444 335.093 443.147 335.093C443.041 335.093 442.934 335.093 442.827 335.146L441.975 335.307L441.602 334.505C440.802 332.74 438.99 331.564 437.071 331.564C436.059 331.564 435.046 331.885 434.193 332.473L433.66 332.847L433.074 332.526C432.807 332.366 432.541 332.312 432.328 332.312C431.422 332.312 430.675 333.061 430.675 333.97C430.675 334.077 430.675 334.13 430.729 334.237L430.835 334.932L430.249 335.307C429.823 335.574 429.556 336.055 429.556 336.536C429.556 337.338 430.196 338.033 431.049 338.033C431.155 338.033 431.262 338.033 431.368 337.98L432.221 337.873Z" fill="#CFD0D0"/>
<path d="M482.439 251.817C483.44 252.316 484.64 252.716 485.76 252.555C487.16 252.354 488.299 251.334 488.758 250.053C489.217 248.773 488.777 247.193 487.856 246.254C489.216 246.273 490.415 245.172 490.655 243.852C490.894 242.532 489.973 241.093 488.633 240.713C488.973 240.593 489.192 240.133 489.072 239.793C488.952 239.453 488.552 239.153 488.212 239.274C488.952 238.953 489.651 238.353 490.131 237.712C490.531 237.012 490.75 236.052 490.29 235.332C489.929 234.813 489.449 234.453 488.849 234.253C487.028 233.514 484.969 233.595 483.209 234.277C481.449 234.958 479.91 236.178 478.551 237.659C477.632 238.72 476.792 239.84 476.093 240.941C475.793 241.341 475.373 241.901 475.374 242.401C475.454 242.961 475.674 243.501 475.815 243.981C476.476 246.1 477.757 248.06 479.338 249.619C480.318 250.478 481.279 251.198 482.439 251.817Z" fill="#912B14"/>
<path d="M477.234 243.42C477.155 243.86 476.775 244.7 476.995 245.24C477.316 245.98 478.056 246.66 478.556 247.159C479.297 247.839 480.017 248.378 480.937 248.818C481.318 248.978 481.698 249.137 481.958 248.957C482.157 248.857 482.257 248.557 482.297 248.337C482.337 248.117 482.237 247.917 482.197 247.637C481.856 246.757 481.296 245.838 480.495 245.238C481.416 245.678 482.556 246.157 483.596 245.936C484.356 245.756 484.935 245.315 485.495 244.735C486.055 244.155 486.374 243.395 486.474 242.595C486.573 241.794 486.313 240.975 485.733 240.415C485.232 239.915 484.492 239.736 483.772 239.696C482.972 239.597 482.132 239.717 481.312 239.978C481.652 239.857 482.052 239.657 482.312 239.477C482.572 239.297 482.892 239.037 482.911 238.677C482.951 238.457 482.771 238.197 482.531 238.017C482.291 237.837 482.071 237.797 481.791 237.837C481.011 237.878 480.231 238.418 479.672 238.999C478.572 240.299 477.713 241.78 477.234 243.42Z" fill="#EDD2C6"/>
<path d="M479.601 242.378C480.371 239.383 479.564 236.587 477.799 236.133C476.033 235.68 473.979 237.74 473.209 240.736C472.439 243.731 473.246 246.527 475.011 246.981C476.777 247.435 478.832 245.374 479.601 242.378Z" fill="#D44C11"/>
<path d="M387.006 195.073C385.985 194.434 385.025 193.714 384.584 192.635C384.044 191.355 384.243 189.755 385.102 188.774C386.021 187.714 387.521 187.213 388.861 187.592C388.121 186.412 388.46 184.792 389.399 183.872C390.419 183.011 392.059 182.99 393.119 183.91C392.999 183.57 393.299 183.169 393.639 183.049C393.979 182.929 394.439 183.149 394.559 183.489C394.439 182.649 394.538 181.849 394.858 181.088C395.177 180.328 395.957 179.788 396.797 179.667C397.437 179.647 397.977 179.927 398.457 180.286C400.038 181.345 401.019 183.205 401.36 185.085C401.701 186.964 401.482 188.925 400.963 190.785C400.584 192.125 400.045 193.345 399.446 194.646C399.226 195.106 399.046 195.846 398.506 196.066C398.047 196.347 397.487 196.427 396.927 196.507C394.787 197.029 392.427 197.01 390.207 196.471C389.166 196.192 388.026 195.713 387.006 195.073Z" fill="#912B14"/>
<path d="M389.645 194.052C389.125 193.912 388.605 193.772 388.185 193.332C387.785 193.033 387.544 192.353 387.764 191.893C387.924 191.513 388.304 191.172 388.723 191.112C389.143 191.052 389.643 191.052 390.003 191.071C391.384 191.231 392.784 191.53 394.104 191.769C393.684 191.829 393.144 191.549 393.003 191.07C392.863 190.59 393.143 190.049 393.563 189.989C394.043 189.849 394.583 190.129 394.643 190.549C394.602 189.269 394.862 188.088 395.481 186.928C395.761 186.388 396.24 185.748 396.82 185.807C397.4 185.867 397.821 186.307 398.121 186.907C398.822 188.306 399.043 189.846 398.764 191.386C398.464 192.786 397.666 195.187 395.866 195.088C393.866 195.089 391.666 194.69 389.645 194.052Z" fill="#EDD2C6"/>
<path d="M402.764 190.594C401.441 189.341 398.644 190.146 396.518 192.393C394.392 194.639 393.742 197.476 395.066 198.728C396.389 199.981 399.186 199.176 401.312 196.929C403.438 194.683 404.088 191.846 402.764 190.594Z" fill="#D44C11"/>
<path d="M398.485 194.426C406.06 185.982 416.084 191.616 422.927 197.492C435.894 208.704 451.159 217.015 467.442 222.466C475.163 225.001 479.767 231.699 478.172 239.999C477.375 243.9 474.457 247.462 470.818 249.484C467.639 251.226 464.019 251.888 460.719 250.79C437.694 243.163 416.847 231.296 398.798 215.026C395.356 211.948 394.073 207.489 394.671 203.189C394.929 200.008 396.327 196.808 398.485 194.426Z" fill="#912B14"/>
<path d="M398.485 194.426C406.06 185.982 416.084 191.616 422.927 197.492C435.894 208.704 451.159 217.015 467.442 222.466C475.163 225.001 479.767 231.698 478.172 239.999C477.375 243.9 474.457 247.462 470.818 249.484C472.137 247.223 472.575 244.303 471.853 241.763C470.571 237.304 466.729 233.926 462.588 231.949C458.366 229.911 453.746 229.074 449.345 227.776C440.764 225.221 432.641 220.886 425.678 215.17C421.876 212.073 418.294 208.515 414.252 205.737C410.21 202.959 405.349 200.942 400.469 201.285C398.49 201.426 396.37 202.088 394.591 203.129C394.929 200.008 396.327 196.808 398.485 194.426Z" fill="#EDD2C6"/>
</svg>
